<?xml version="1.0" encoding="utf-8"?>
<!-- Generator: Adobe Illustrator 24.1.1, SVG Export Plug-In . SVG Version: 6.00 Build 0)  -->
<svg version="1.1" id="Layer_1" xmlns="http://www.w3.org/2000/svg" xmlns:xlink="http://www.w3.org/1999/xlink" x="0px" y="0px"
	 viewBox="0 0 500 500" style="enable-background:new 0 0 500 500;" xml:space="preserve">
<style type="text/css">
	.st0{fill:#5ce5f2;} <!--WF-->
	.st1{fill:#e0e0e0;}
</style>
<g>
	<g>
		<path class="st0" d="M363,119v62.5l-102.1,37.2v-50.2l-2.9,1c-5.1,1.9-10.7,1.9-15.8,0l-2.9-1v50.2l-102.1-37.2V119l-21.5-7.8
			v69.3c0,9.7,6.1,18.4,15.2,21.7l111.3,40.5c5.1,1.9,10.7,1.9,15.8,0l111.3-40.5c9.1-3.3,15.2-12,15.2-21.7v-69.3L363,119z"/>
		<path class="st0" d="M226.6,292h68.6c0-11.9-9.6-21.5-21.5-21.5h-47.1c-11.9,0-21.5,9.6-21.5,21.5V464h21.5V336.3h68.6v-21.5
			h-68.6V292z"/>
	</g>
	<g>
		<g>
			<path class="st1" d="M273.3,496.3h-46.7c-11.9,0-21.5-9.6-21.5-21.5v0h68.2v-128h21.5v128C294.8,486.6,285.2,496.3,273.3,496.3z"
				/>
		</g>
		<path class="st1" d="M341.5,22.6c-58.9-21.5-123.8-21.5-182.8,0l-27.8,10.1c-9.1,3.3-15.2,12-15.2,21.7v12.3l21.5,7.8V53.3
			l28.9-10.5c54.2-19.7,113.8-19.7,168,0L363,53.3v21.2l21.5-7.8V54.4c0-9.7-6.1-18.4-15.2-21.7L341.5,22.6z"/>
		<path class="st1" d="M164.8,145.1l47.1,17.2V179l-47.1-17.2V145.1 M149.4,123.1v49.5l77.9,28.4v-49.5L149.4,123.1L149.4,123.1z"/>
		<path class="st1" d="M334.8,145.1v16.8L287.7,179v-16.8L334.8,145.1 M350.2,123.1l-77.9,28.4V201l77.9-28.4V123.1L350.2,123.1z"/>
		<path class="st1" d="M160,93.1l-59.7-21.8c0.8-2.7,1.2-5.5,1.2-8.4v-1.5c0-16.1-13.1-29.2-29.2-29.2H37.2C21.1,32.3,8,45.4,8,61.5
			V63c0,16.1,13.1,29.2,29.2,29.2h35.1c4.8,0,9.4-1.2,13.4-3.3L160,116V93.1z M80,63c0,4.2-3.4,7.7-7.7,7.7H37.2
			c-4.2,0-7.7-3.4-7.7-7.7v-1.5c0-4.2,3.4-7.7,7.7-7.7h35.1c4.2,0,7.7,3.4,7.7,7.7V63z"/>
		<path class="st1" d="M462.4,33.2h-35.1c-16.1,0-29.2,13.1-29.2,29.2v1.5c0,2.9,0.4,5.7,1.2,8.4l-59.7,21.8V117l74.4-27.1
			c4,2.1,8.6,3.3,13.4,3.3h35.1c16.1,0,29.2-13.1,29.2-29.2v-1.5C491.6,46.4,478.5,33.2,462.4,33.2z M470.1,63.9
			c0,4.2-3.4,7.7-7.7,7.7h-35.1c-4.2,0-7.7-3.4-7.7-7.7v-1.5c0-4.2,3.4-7.7,7.7-7.7h35.1c4.2,0,7.7,3.4,7.7,7.7V63.9z"/>
		<path class="st1" d="M196,398.4L196,398.4l0-163.4l-15.4-5.6V383C180.6,391.5,187.5,398.4,196,398.4z"/>
		<path class="st1" d="M303.6,398.4L303.6,398.4c8.5,0,15.4-6.9,15.4-15.4V229.6l-15.4,5.6V398.4z"/>
	</g>
</g>
</svg>
