<?xml version="1.0" encoding="utf-8"?>
<!-- Generator: Adobe Illustrator 16.0.0, SVG Export Plug-In . SVG Version: 6.00 Build 0)  -->
<!DOCTYPE svg PUBLIC "-//W3C//DTD SVG 1.1//EN" "http://www.w3.org/Graphics/SVG/1.1/DTD/svg11.dtd">
<svg version="1.1" id="Layer_1" xmlns="http://www.w3.org/2000/svg" xmlns:xlink="http://www.w3.org/1999/xlink" x="0px" y="0px"
	 width="388.983px" height="552.542px" viewBox="0 0 388.983 552.542" enable-background="new 0 0 388.983 552.542"
	 xml:space="preserve">
<g id="fork">
	<path d="M202.681,163.745c4.53,4.559,9.859,8.831,2.664,22.089c-6.744,12.428-11.101,20.203-29.625,29.026
		c-18.523,8.823-67.192,8.317-71.868,8.419c-4.677,0.102-19.871,4.174-22.671,4.546c-2.8,0.373-12.416-11.583-12.416-11.583
		s-2.567-3.375,0.481-6.56c3.05-3.186,20.605-27.895,34.072-39.728c13.465-11.833,46.141-29.696,57.71-28.388
		S190.245,151.226,202.681,163.745z"/>
	<g id="shock_1_">
		<path fill="#342F2F" d="M279.448,394.668c16.203-9.06,22.668-22.655,22.668-22.655l-97.839-174.975
			c-7.736-13.839-25.232-18.782-39.066-11.047l-3.19,1.786c-13.836,7.737-18.784,25.229-11.042,39.064l99.82,178.516
			C250.799,405.357,261.172,404.89,279.448,394.668z"/>
		<path d="M76.021,98.254l240.557,429.427c6.75,12.07,30.672,14.662,42.746,7.912l2.779-1.553
			c12.07-6.752,17.177-24.904,10.425-36.975l-238.92-426.51c0,0,9.182-9.505,12.628-12.083c3.449-2.576,2.18-15.062-1.977-21.979
			c-4.154-6.917-10.396-17.794-13.409-18.229c-3.012-0.435-9.135-5.807-32.323,9.71C75.34,43.494,33.851,68.92,27.432,73.063
			C21.015,77.206,3.2,86.602,5.822,92.05c2.619,5.449,7.328,14.856,7.328,14.856s1.131,5.981,6.102,4.373
			C24.223,109.67,76.021,98.254,76.021,98.254z"/>
		<path fill="#909591" d="M99.723,59.983c11.583-7.693,25.199-15.062,32.986-25.241c4.136-5.406,5.189-14.628-1.858-16.477
			s-14.572-2.687-34.802,10.766C75.819,42.484,25.931,73.096,18.035,78.272c-7.896,5.177-19.687,15.442-7.711,13.681
			c11.976-1.761,37.349-8.818,50.79-12.112C74.556,76.545,84.921,69.814,99.723,59.983z"/>
		<path fill="#342F2F" d="M208.448,204.156c-3.884,3.782-8.639,7.784-14.522,11.992c-18.514,13.242-29.941,20.345-38.311,24.194
			l89.295,159.404c9.702,1.176,23.286,0.432,37.552-7.904c9.894-5.781,16.532-11.898,20.969-18.124L208.448,204.156z"/>
		<path fill="#342F2F" d="M89.068,96.89l20.475-9.173l67.656,125.088c0,0-16.484,18.201-24.365,4.353
			C129.191,175.613,89.068,96.89,89.068,96.89z"/>
		<path fill="#231F20" d="M187.97,230.434c-25.338,14.168-40.89,12.995-45.055,5.543c-1.608-2.875-2.379-7.84,3.081-15.172
			c1.664-2.237,4.828-2.7,7.066-1.034c2.23,1.667,2.695,4.829,1.031,7.064c-1.672,2.24-2.11,3.582-2.226,4.159
			c2.663,1.099,14.415-0.002,31.172-9.374c16.758-9.369,23.851-18.804,24.31-21.646c-0.618-0.231-2.263-0.614-5.738-0.174
			c-2.77,0.351-5.297-1.606-5.646-4.373c-0.351-2.766,1.608-5.294,4.374-5.643c10.071-1.277,14.23,2.106,15.94,5.168
			C220.447,202.403,213.307,216.265,187.97,230.434z"/>
		<path fill="#231F20" d="M197.208,246.956c-25.341,14.171-40.888,12.997-45.052,5.547c-1.609-2.876-2.381-7.842,3.081-15.171
			c1.668-2.238,4.825-2.7,7.062-1.034c2.235,1.664,2.698,4.828,1.033,7.062c-1.671,2.241-2.11,3.584-2.225,4.161
			c2.661,1.099,14.416-0.005,31.173-9.374c16.757-9.371,23.851-18.804,24.309-21.648c-0.619-0.229-2.265-0.612-5.74-0.173
			c-2.765,0.351-5.292-1.605-5.644-4.373c-0.35-2.766,1.605-5.293,4.372-5.642c10.073-1.279,14.229,2.107,15.942,5.17
			C229.686,218.928,222.548,232.787,197.208,246.956z"/>
		<path fill="#231F20" d="M206.447,263.48c-25.34,14.17-40.888,12.997-45.052,5.547c-1.605-2.877-2.38-7.844,3.081-15.173
			c1.664-2.24,4.826-2.698,7.063-1.032c2.235,1.663,2.696,4.827,1.031,7.063c-1.667,2.241-2.107,3.581-2.224,4.158
			c2.661,1.1,14.413-0.004,31.172-9.375c16.757-9.371,23.853-18.804,24.309-21.645c-0.617-0.23-2.265-0.616-5.74-0.172
			c-2.766,0.349-5.292-1.608-5.644-4.375c-0.347-2.766,1.61-5.292,4.374-5.643c10.075-1.278,14.229,2.105,15.94,5.17
			C238.926,235.452,231.786,249.311,206.447,263.48z"/>
		<path fill="#231F20" d="M215.688,280.003c-25.342,14.171-40.888,12.998-45.054,5.546c-1.607-2.874-2.38-7.843,3.08-15.17
			c1.664-2.239,4.827-2.699,7.062-1.036c2.236,1.667,2.7,4.828,1.034,7.065c-1.668,2.242-2.108,3.583-2.224,4.161
			c2.661,1.098,14.412-0.007,31.172-9.375c16.757-9.372,23.851-18.806,24.308-21.648c-0.616-0.229-2.261-0.614-5.738-0.172
			c-2.765,0.351-5.292-1.608-5.646-4.372c-0.35-2.765,1.607-5.293,4.373-5.643c10.076-1.281,14.232,2.105,15.944,5.167
			C248.169,251.974,241.029,265.834,215.688,280.003z"/>
		<path fill="#9A9590" d="M164.564,232.76c0,0-8.991,1.967-12.643,0.562s4.495,2.247,4.776,3.652s5.619,0.282,8.709-0.562
			S168.915,231.915,164.564,232.76z"/>
		<path fill="#9A9590" d="M172.848,249.051c0,0-8.991,1.967-12.643,0.562s4.495,2.247,4.776,3.652s5.619,0.282,8.709-0.562
			S177.198,248.206,172.848,249.051z"/>
		<path fill="#9A9590" d="M182.399,265.064c0,0-8.991,1.967-12.643,0.562s4.495,2.247,4.776,3.652s5.619,0.282,8.709-0.562
			S186.75,264.219,182.399,265.064z"/>
		<path fill="#9A9590" d="M193.074,281.078c0,0-8.991,1.967-12.643,0.562s4.495,2.247,4.776,3.651
			c0.281,1.405,5.619,0.282,8.709-0.561C197.007,283.886,197.425,280.232,193.074,281.078z"/>
		<path fill="#231F20" d="M224.928,296.529c-25.341,14.17-40.886,12.992-45.053,5.545c-1.606-2.875-2.377-7.844,3.08-15.172
			c1.666-2.238,4.828-2.701,7.064-1.033c2.235,1.664,2.697,4.828,1.031,7.064c-1.669,2.24-2.106,3.581-2.222,4.16
			c2.659,1.1,14.414-0.006,31.172-9.377c16.757-9.37,23.848-18.803,24.309-21.646c-0.622-0.229-2.262-0.614-5.74-0.173
			c-2.766,0.352-5.295-1.607-5.645-4.373c-0.351-2.764,1.605-5.292,4.373-5.643c10.074-1.278,14.23,2.104,15.941,5.167
			C257.406,268.5,250.268,282.359,224.928,296.529z"/>
		<path fill="#231F20" d="M234.17,313.052c-25.344,14.172-40.888,12.996-45.055,5.547c-1.608-2.878-2.38-7.846,3.078-15.176
			c1.667-2.236,4.829-2.696,7.064-1.03c2.237,1.665,2.698,4.829,1.032,7.065c-1.667,2.238-2.104,3.578-2.22,4.155
			c2.66,1.103,14.413-0.003,31.168-9.373c16.759-9.372,23.853-18.804,24.309-21.646c-0.618-0.229-2.264-0.614-5.74-0.173
			c-2.764,0.352-5.289-1.607-5.642-4.373c-0.35-2.765,1.605-5.291,4.372-5.645c10.074-1.277,14.231,2.107,15.943,5.17
			C266.646,285.024,259.507,298.884,234.17,313.052z"/>
		<path fill="#231F20" d="M243.405,329.578c-25.336,14.17-40.883,12.994-45.051,5.546c-1.607-2.876-2.381-7.845,3.081-15.175
			c1.662-2.238,4.827-2.7,7.062-1.03c2.237,1.662,2.699,4.827,1.036,7.062c-1.672,2.239-2.111,3.583-2.225,4.16
			c2.664,1.099,14.414-0.007,31.172-9.377c16.754-9.368,23.851-18.804,24.304-21.645c-0.613-0.232-2.26-0.615-5.737-0.175
			c-2.766,0.352-5.29-1.606-5.642-4.372c-0.35-2.766,1.606-5.292,4.374-5.644c10.071-1.278,14.226,2.105,15.941,5.169
			C275.887,301.548,268.749,315.408,243.405,329.578z"/>
		<path fill="#231F20" d="M252.647,346.101c-25.34,14.169-40.888,12.994-45.053,5.545c-1.61-2.874-2.379-7.844,3.08-15.172
			c1.665-2.24,4.828-2.698,7.066-1.034c2.232,1.667,2.696,4.828,1.028,7.064c-1.667,2.241-2.107,3.581-2.222,4.159
			c2.662,1.1,14.413-0.004,31.172-9.377c16.757-9.369,23.852-18.803,24.307-21.646c-0.619-0.23-2.262-0.611-5.738-0.172
			c-2.768,0.352-5.292-1.606-5.643-4.373c-0.351-2.766,1.605-5.295,4.372-5.643c10.073-1.279,14.229,2.105,15.944,5.17
			C285.125,318.072,277.985,331.93,252.647,346.101z"/>
		<path fill="#231F20" d="M261.886,362.623c-25.341,14.169-40.886,12.996-45.051,5.547c-1.607-2.875-2.381-7.842,3.08-15.174
			c1.666-2.237,4.825-2.697,7.062-1.03c2.237,1.665,2.7,4.827,1.035,7.062c-1.67,2.24-2.11,3.583-2.226,4.163
			c2.662,1.099,14.413-0.01,31.171-9.378c16.758-9.371,23.852-18.803,24.312-21.646c-0.62-0.229-2.268-0.613-5.742-0.174
			c-2.766,0.352-5.29-1.607-5.643-4.371c-0.35-2.766,1.605-5.296,4.371-5.645c10.074-1.276,14.229,2.105,15.943,5.17
			C294.364,334.596,287.225,348.453,261.886,362.623z"/>
		<path fill="#231F20" d="M271.127,379.149c-25.342,14.169-40.889,12.995-45.052,5.545c-1.609-2.878-2.38-7.843,3.077-15.171
			c1.666-2.24,4.829-2.701,7.066-1.035c2.235,1.664,2.698,4.828,1.029,7.064c-1.664,2.24-2.104,3.581-2.221,4.16
			c2.661,1.098,14.412-0.005,31.171-9.375c16.758-9.371,23.853-18.807,24.308-21.648c-0.617-0.229-2.262-0.613-5.737-0.174
			c-2.765,0.353-5.293-1.605-5.644-4.373c-0.351-2.764,1.605-5.291,4.372-5.642c10.074-1.28,14.229,2.106,15.945,5.171
			C303.604,351.12,296.467,364.978,271.127,379.149z"/>
		<path fill="#231F20" d="M280.366,395.67c-25.34,14.169-40.887,12.998-45.05,5.548c-1.61-2.876-2.381-7.843,3.077-15.172
			c1.665-2.241,4.828-2.699,7.065-1.034c2.234,1.667,2.698,4.829,1.031,7.065c-1.671,2.24-2.107,3.581-2.223,4.16
			c2.66,1.096,14.415-0.006,31.169-9.378c16.762-9.372,23.852-18.804,24.312-21.646c-0.62-0.229-2.265-0.614-5.741-0.173
			c-2.766,0.351-5.292-1.606-5.645-4.373c-0.349-2.764,1.605-5.293,4.374-5.641c10.073-1.279,14.231,2.103,15.941,5.166
			C312.847,367.642,305.708,381.5,280.366,395.67z"/>
		<path fill="#9A9590" d="M199.483,218.4c4.279-2.989,2.891-5.461-0.055-2.987c-2.945,2.474-7.18,4.579-9.21,4.826
			c-1.007,0.124-0.804-0.573-0.348-1.306c6.271-3.85,10.573-7.396,13.179-10.046c1.361-1.024,3.243-2.212,4.355-1.934
			c2.359,0.59,3.488,2.35,1.989,5.466c-3.088,3.381-7.704,7.167-14.12,11.202C195.603,222.184,197.209,219.988,199.483,218.4z"/>
		<path fill="#9A9590" d="M207.63,235.537c4.279-2.989,2.891-5.461-0.055-2.987c-2.945,2.474-7.18,4.579-9.21,4.826
			c-1.007,0.124-0.804-0.573-0.348-1.306c6.271-3.85,10.573-7.396,13.179-10.046c1.361-1.024,3.243-2.212,4.355-1.934
			c2.359,0.59,3.488,2.35,1.989,5.466c-3.088,3.381-7.704,7.167-14.12,11.202C203.749,239.32,205.355,237.125,207.63,235.537z"/>
		<path fill="#9A9590" d="M215.216,253.235c4.279-2.989,2.891-5.461-0.055-2.987c-2.945,2.474-7.18,4.579-9.21,4.826
			c-1.007,0.124-0.804-0.573-0.348-1.306c6.271-3.85,10.573-7.396,13.179-10.046c1.361-1.024,3.243-2.212,4.355-1.934
			c2.359,0.59,3.488,2.35,1.989,5.466c-3.088,3.381-7.704,7.167-14.12,11.202C211.335,257.019,212.941,254.823,215.216,253.235z"/>
		<path fill="#9A9590" d="M226.172,268.967c4.279-2.989,2.891-5.461-0.055-2.987c-2.945,2.474-7.18,4.579-9.21,4.826
			c-1.007,0.124-0.804-0.573-0.348-1.306c6.271-3.85,10.573-7.396,13.179-10.046c1.361-1.024,3.243-2.212,4.355-1.934
			c2.359,0.59,3.488,2.35,1.989,5.466c-3.088,3.381-7.704,7.167-14.12,11.202C222.291,272.751,223.897,270.555,226.172,268.967z"/>
		<path fill="#9A9590" d="M235.442,285.261c4.279-2.989,2.891-5.461-0.055-2.987s-7.18,4.579-9.21,4.825
			c-1.007,0.124-0.804-0.572-0.348-1.306c6.271-3.851,10.573-7.396,13.179-10.046c1.361-1.024,3.243-2.212,4.355-1.934
			c2.359,0.59,3.488,2.35,1.989,5.466c-3.088,3.382-7.704,7.167-14.12,11.202C231.562,289.044,233.168,286.849,235.442,285.261z"/>
		<path fill="#9A9590" d="M244.151,301.835c4.279-2.988,2.891-5.461-0.055-2.986c-2.945,2.474-7.18,4.578-9.21,4.825
			c-1.007,0.124-0.804-0.573-0.348-1.306c6.271-3.851,10.573-7.396,13.179-10.047c1.361-1.023,3.243-2.211,4.355-1.934
			c2.359,0.59,3.488,2.351,1.989,5.467c-3.088,3.381-7.704,7.166-14.12,11.201C240.271,305.62,241.877,303.423,244.151,301.835z"/>
		<path fill="#9A9590" d="M252.579,319.535c4.279-2.989,2.891-5.461-0.055-2.987s-7.18,4.579-9.21,4.825
			c-1.007,0.124-0.804-0.572-0.348-1.306c6.271-3.851,10.573-7.396,13.179-10.046c1.361-1.024,3.243-2.212,4.355-1.934
			c2.359,0.59,3.488,2.35,1.989,5.466c-3.088,3.382-7.704,7.167-14.12,11.202C248.698,323.318,250.305,321.123,252.579,319.535z"/>
		<path fill="#9A9590" d="M264.069,334.33c4.279-2.988,2.891-5.461-0.055-2.986c-2.945,2.474-7.18,4.578-9.21,4.825
			c-1.007,0.124-0.804-0.573-0.348-1.306c6.271-3.851,10.573-7.396,13.179-10.047c1.361-1.023,3.243-2.211,4.355-1.934
			c2.359,0.59,3.488,2.351,1.989,5.467c-3.088,3.381-7.704,7.166-14.12,11.201C260.188,338.114,261.795,335.917,264.069,334.33z"/>
		<path fill="#9A9590" d="M272.497,352.029c4.279-2.989,2.891-5.461-0.055-2.987s-7.18,4.579-9.21,4.825
			c-1.007,0.124-0.804-0.572-0.348-1.306c6.271-3.851,10.573-7.396,13.179-10.046c1.361-1.024,3.243-2.212,4.355-1.934
			c2.359,0.59,3.488,2.35,1.989,5.466c-3.088,3.382-7.704,7.167-14.12,11.202C268.616,355.812,270.223,353.617,272.497,352.029z"/>
		<path fill="#9A9590" d="M281.206,368.604c4.279-2.989,2.891-5.461-0.055-2.987c-2.945,2.475-7.18,4.578-9.21,4.826
			c-1.007,0.123-0.804-0.574-0.348-1.307c6.271-3.85,10.573-7.396,13.179-10.046c1.361-1.024,3.243-2.212,4.355-1.934
			c2.359,0.59,3.488,2.351,1.989,5.466c-3.088,3.381-7.704,7.167-14.12,11.201C277.325,372.388,278.932,370.192,281.206,368.604z"/>
		<path fill="#9A9590" d="M290.196,384.898c4.279-2.988,2.891-5.461-0.055-2.986c-2.945,2.474-7.18,4.578-9.21,4.825
			c-1.007,0.124-0.804-0.573-0.348-1.306c6.271-3.851,10.573-7.396,13.179-10.047c1.361-1.023,3.243-2.211,4.355-1.934
			c2.359,0.59,3.488,2.351,1.989,5.467c-3.088,3.381-7.704,7.166-14.12,11.201C286.315,388.683,287.922,386.486,290.196,384.898z"/>
	</g>
	<g>
		<circle fill="#9A9590" cx="346.254" cy="508.883" r="27.538"/>
		<path fill="#3C4142" d="M345.421,470.482c-21.208,0.461-38.028,18.025-37.568,39.234c0.46,21.207,18.026,38.027,39.234,37.567
			c21.208-0.461,38.028-18.026,37.568-39.233C384.195,486.841,366.629,470.023,345.421,470.482z M346.926,539.875
			c-17.116,0.371-31.291-13.204-31.662-30.319c-0.371-17.114,13.201-31.29,30.317-31.661s31.292,13.202,31.663,30.316
			C377.615,525.326,364.042,539.503,346.926,539.875z"/>
	</g>
	<path fill="#342F2F" d="M263.595,411.941l39.688,71.727c0,0,1.3-3.703,9.426-10.311c8.124-6.609,22.31-9.215,22.31-9.215
		s-16.031,2.188-20.733-2.764c-4.701-4.953-35.705-57.572-35.705-57.572S275.522,411.223,263.595,411.941z"/>
	<path fill="#9A9590" d="M203.75,297.933c0,0-8.991,1.967-12.643,0.562c-3.651-1.405,4.495,2.246,4.776,3.651
		s5.619,0.282,8.709-0.562S208.101,297.087,203.75,297.933z"/>
	<path fill="#9A9590" d="M212.739,314.227c0,0-8.991,1.967-12.643,0.562c-3.651-1.404,4.495,2.248,4.776,3.652
		s5.619,0.281,8.709-0.562S217.09,313.382,212.739,314.227z"/>
	<path fill="#9A9590" d="M219.763,330.802c0,0-8.991,1.967-12.643,0.562c-3.651-1.405,4.495,2.246,4.776,3.651
		s5.619,0.282,8.709-0.562S224.113,329.957,219.763,330.802z"/>
	<path fill="#9A9590" d="M227.91,347.939c0,0-8.991,1.967-12.643,0.562c-3.651-1.405,4.495,2.246,4.776,3.651
		s5.619,0.282,8.709-0.562S232.261,347.093,227.91,347.939z"/>
	<path fill="#9A9590" d="M236.619,364.514c0,0-8.991,1.967-12.643,0.562c-3.651-1.404,4.495,2.248,4.776,3.652
		s5.619,0.281,8.709-0.562S240.97,363.669,236.619,364.514z"/>
	<path fill="#9A9590" d="M245.047,381.089c0,0-8.991,1.967-12.643,0.562c-3.651-1.405,4.495,2.246,4.776,3.651
		s5.619,0.282,8.709-0.562S249.397,380.244,245.047,381.089z"/>
	<path fill="#9A9590" d="M254.88,397.102c0,0-8.991,1.967-12.643,0.562c-3.651-1.405,4.495,2.246,4.776,3.651
		s5.619,0.282,8.709-0.562S259.23,396.256,254.88,397.102z"/>
	<g id="number-plate-front">
		<path fill="#D2A91B" d="M141.747,29.386c0,0,14.217,22.772,3.156,30.499c-8.084,5.647-11.524,9.98-9.574,13.681
			c1.951,3.701,41.006,72.826,42.308,75.293s5.234,5.894,9.606,6.11c4.372,0.217,15.421,2.612,18.713,6.246
			C209.25,164.848,158.346,32.458,141.747,29.386z"/>
		<path fill="#E0DA34" d="M228.259,150.347c3.002,6.157,0.439,13.586-5.716,16.585l0,0c-6.159,3.001-13.587,0.439-16.587-5.718
			L139.73,25.313c-3-6.157-0.441-13.585,5.715-16.586l0,0c6.158-3,13.585-0.439,16.586,5.718L228.259,150.347z"/>
	</g>
</g>
</svg>
