<?xml version="1.0" encoding="utf-8"?>
<!-- Generator: Adobe Illustrator 16.0.0, SVG Export Plug-In . SVG Version: 6.00 Build 0)  -->
<!DOCTYPE svg PUBLIC "-//W3C//DTD SVG 1.1//EN" "http://www.w3.org/Graphics/SVG/1.1/DTD/svg11.dtd">
<svg version="1.1" id="Layer_1" xmlns="http://www.w3.org/2000/svg" xmlns:xlink="http://www.w3.org/1999/xlink" x="0px" y="0px"
	 width="722.882px" height="295.763px" viewBox="0 0 722.882 295.763" enable-background="new 0 0 722.882 295.763"
	 xml:space="preserve">
<g id="exhaust-pipe">
	<g>
		<path fill="#C8CAC9" d="M83.781,70.154c0,0-4.173,5.154-12.381,3.774c-8.208-1.379-39.11-9.137-45.335-10.799
			c-6.225-1.662-9.116-5.696-9.768-17.755c-0.651-12.059,4.87-31.912,12.973-37.017c5.762-3.63,10.265-3.058,13.793-1.966
			c3.529,1.092,42.141,12.732,45.364,14.059c3.223,1.328,11.112,4.189,9.623,7.336c0,0-12.733-3.476-17.908,18.304
			C76.96,59.485,80.49,68.736,83.781,70.154z"/>
		<path fill="#C8CAC9" d="M714.907,198.918c-8.918-10.663-23.494-16.545-36.635-20.198c-7.897-2.196-22.847-4.569-28.755-5.465
			c0.019,0.661,0.003,1.347-0.06,2.053l-0.287,3.326c-0.25,2.881-1.141,5.362-2.29,6.788c0.887,1.6,1.334,4.197,1.081,7.078
			l-0.29,3.33c-0.402,4.633-2.459,8.242-4.596,8.055l-5.276-0.459c0.456,1.521,0.645,3.463,0.463,5.556l-0.146,1.682
			c5.223,0.985,15.886,3.182,26.791,6.558c32.676,10.109,8.41,46.55-16.207,42.799c-12.898-1.967-107.773-13.238-150.87-25.156
			c-50.303-13.91-78.62-51.25-104.448-73.854c-25.828-22.605-94.144-68.181-141.538-83.803
			C204.448,61.584,57.479,15.839,35.365,9.509c-14.547-4.165-20.607,0.782-24.928,5.045c-3.519,3.47-6.504,13.118-6.583,18.709
			C3.7,44.334,5.446,51.397,16.465,53.154c5.894,0.94,182.934,42.565,232.531,59.587c49.596,17.023,107.451,47.622,158.525,99.362
			c51.074,51.738,84.358,51.017,117.802,57.529c33.443,6.514,105.571,20.004,122.895,21.941
			c43.723,4.895,58.471-16.795,66.479-41.163C721.272,230.406,723.825,209.586,714.907,198.918z"/>
		<path fill="#FAFEFB" d="M7,39.894l7.424,2.297c0,0-0.802,8.375,0.219,10.074C15.662,53.964,6.241,50.234,7,39.894z"/>
		<path fill="#C8CAC9" d="M23.215,9.977c0,0-4.366-0.096-9.376,5.136C8.83,20.345,7.102,28.162,7.102,28.162
			s6.177-15.008,13.355-14.141C21.788,14.182,23.215,9.977,23.215,9.977z"/>
		<path fill="#FAFEFB" d="M650.114,289.904c0,0-97.351-17.775-128.393-23.911c-31.041-6.137-61.104-15.438-80.306-31.262
			s-56.584-48.54-56.584-48.54s-4.95-10.894,9.448,0.844c0,0,39.054,37.395,51.29,46.033c12.235,8.641,28.729,20.333,81.355,31.24
			c52.623,10.908,119.396,22.033,119.396,22.033s8.61,3.635,20.074,1.881C670.744,287.557,664.748,290.914,650.114,289.904z"/>
		<path fill="#FAFEFB" d="M715.889,208.871c0,0,3.987,8.181-0.226,23.83c-4.216,15.649-5.901,34.092-20.857,44.473
			c-14.954,10.379-26.884,11.396-31.242,11.682c-4.357,0.283,19.445-5.182,26.516-11.012c0,0,13.302-7.689,17.806-27.518
			c4.504-19.83,16.937-49.178-19.529-60.672c-21.972-6.927-34.141-8.18-34.141-8.18s3.533-3.304,0.478-4.185
			c-3.057-0.882,27.419,4.528,36.622,8.881C700.517,190.525,710.81,194.074,715.889,208.871z"/>
		<path fill="#FAFEFB" d="M651.781,209.419c0,0,21.413,4.146,26.725,7.389c7.5,4.581,12.03,20.989-2.252,36.101
			c-3.777,3.998,11.974-7.852,11.07-23.199c-0.816-13.896-3.006-13.932-35.813-24.08
			C644.634,203.503,650.759,206.026,651.781,209.419z"/>
	</g>
	<path fill="#FAFEFB" d="M20.39,45.257c0,0,0.24,11.056,1.25,12.264c1.009,1.207,45.485,11.795,45.485,11.795
		s11.927,3.542,7.022-5.258c-2.302-4.128-2.93-10.071-0.835-15.524c1.764-4.594-10.785,1.463-13.439,3.733
		C57.217,54.537,31.104,51.907,20.39,45.257z"/>
	<path fill="#FAFEFB" d="M77.829,52.861c0,0-1.931,9.997,5.242,12.053c7.173,2.056,71.121,18,71.121,18s-2.388-8.061,0.272-10.084
		L77.829,52.861z"/>
	<path fill="#FAFEFB" d="M656.168,262.828c0,0-12.872,1.419-49.243-4.623c-36.37-6.042-90.808-13.777-109.902-19.436
		c-19.097-5.658-47.125-20.797-87.759-57.104c-12.481-11.153-28.729-30.666-55.28-46.606c-3.467-2.081-5.118,0.102,4.501,6.154
		c9.619,6.053,26.802,19.721,49.323,43.328c22.521,23.609,58.713,47.68,88.88,56.322c30.169,8.643,91.841,17.741,110.109,20.189
		C625.063,263.502,643.477,263.674,656.168,262.828z"/>
	<path fill="#FAFEFB" d="M162.082,52.689L93.496,31.03c0,0-3.607-0.111-5.636,2.589c-2.029,2.701,71.632,22.163,71.632,22.163
		L162.082,52.689z"/>
	<path fill="#FAFEFB" d="M91.1,25.581c0,0,0.911-1.728-3.669-2.957C82.852,21.396,38.721,7.553,37.217,8.155
		c-1.506,0.602-6.445,0.329-9.026,3.801c-2.582,3.472,0.186-0.193,3.438,1.064s55.34,14.547,55.34,14.547S87.682,25.465,91.1,25.581
		z"/>
</g>
</svg>
