<?xml version="1.0" encoding="UTF-8" standalone="no"?>
<!DOCTYPE svg PUBLIC "-//W3C//DTD SVG 1.1//EN" "http://www.w3.org/Graphics/SVG/1.1/DTD/svg11.dtd">
<svg version="1.1" xmlns="http://www.w3.org/2000/svg" xmlns:xlink="http://www.w3.org/1999/xlink" preserveAspectRatio="xMidYMid meet" viewBox="0 0 640 640" width="640" height="640"><defs><path d="" id="b3cxtQK5"></path><path d="M383.3 261.78L224.93 243.66L235.93 227.78C245.93 226.45 250.6 225.12 249.93 223.78C249.27 222.45 255.6 222.45 268.93 223.78L289.93 233.6L296.93 243.66L363.04 250.78L380.93 243.66L393.93 243.66L383.3 261.78Z" id="amsKvyYdY"></path><path d="M380.93 273.19L232.93 254.85L228.93 242.28L236.93 229.78L251.93 222.78L263.93 226.78L272.93 233.6L284.93 240.87L368.11 249.78L378.78 245.78L390.27 249.78L380.93 273.19Z" id="cnfwmrF1v"></path><path d="M322.19 319.66L262.71 405.9L247.51 402.62L235.69 391.3L228.93 377.79L291.93 287.19L322.19 319.66Z" id="bfM4ER33X"></path><path d="M300.3 354.42L289.14 355.76L280.91 351.39L274.87 346.84L269.81 343.02L264.67 336.33L260.84 331.35L260.56 325.56L265.35 323.6" id="dtdK7ln3E"></path><path d="M295.43 364.79L284.27 366.12L276.04 361.76L270 357.2L264.94 353.38L259.8 346.7L255.97 341.71L255.69 335.93L260.48 333.96" id="blsxQyQlf"></path><path d="M287.43 373.62L276.27 374.95L268.04 370.59L262 366.04L256.94 362.22L251.8 355.53L247.97 350.55L247.69 344.76L252.48 342.79" id="cRsiBbbKe"></path><path d="M221.61 378.12L218.93 401.7L238.58 417.22L260.9 409.15L263.57 385.57L243.92 370.06L221.61 378.12Z" id="b1lxJaj9GO"></path><path d="M307.3 345.21L296.14 346.54L287.91 342.18L281.87 337.63L276.81 333.81L271.67 327.12L267.84 322.14L267.56 316.35L272.35 314.39" id="bRObipy2z"></path><path d="M315.3 336.43L304.14 337.76L295.91 333.4L289.87 328.84L284.81 325.02L279.67 318.33L275.84 313.35L275.56 307.56L280.35 305.6" id="bBKFjG4t"></path><path d="M248.83 395.86C248.9 400.96 244.85 405.14 239.79 405.21C234.73 405.28 230.57 401.2 230.5 396.11C230.43 391.02 234.48 386.83 239.54 386.77C244.6 386.7 248.76 390.77 248.83 395.86Z" id="bmPRCMNJK"></path><path d="M291.39 287.19L285 295.64L279.01 303.56L272.01 308.06L273.51 314.39L267.56 317.52L148.53 305.6L165.2 273.19L184.9 254.85L204.59 247.99L230.5 247.99" id="b4N5QOq0Yr"></path><path d="M230.5 247.99L235.51 255.19L381.01 273.19L378.78 280.59L420.01 267.19L420.01 273.19L398.51 307.69L403.01 321.68L407.51 325.19C391.51 333.52 383.44 337.71 383.3 337.76C383.15 337.81 360.49 335.37 315.3 330.46L320.01 319.19L291.39 287.19" id="djumgcaih"></path><path d="M273.06 308.81C269.39 310.29 269.39 312.31 273.06 314.89L265.06 318.1L265.06 323.6L187.06 321.75L175.56 323.6L168.06 323.6L163.06 319.6L160.06 314.89C159.73 307.69 159.73 304.1 160.06 304.1C160.39 304.1 161.39 302.1 163.06 298.1L168.06 295.1C174.39 295.1 177.39 295.1 177.06 295.1C176.73 295.1 181.06 296.76 190.06 300.1L278.06 302.6" id="c36Dve9T5s"></path><path d="M312.01 333.96L317.01 329.31L376.01 337.76L315.3 337.76L312.01 333.96Z" id="d1Io3v41fD"></path><path d="M269.46 315.93C268.77 320.11 267.24 320.66 264.88 317.58L224.8 317.01L221.93 313.34L224.91 309.23L270.98 310.41C270.65 309.91 270.15 311.75 269.46 315.93Z" id="e5PPDVHUm"></path></defs><g><g><g><g><use xlink:href="#b3cxtQK5" opacity="1" fill-opacity="0" stroke="#464444" stroke-width="2" stroke-opacity="1"></use></g></g><g><g><use xlink:href="#amsKvyYdY" opacity="1" fill-opacity="0" stroke="#464444" stroke-width="0" stroke-opacity="1"></use></g></g><g><use xlink:href="#cnfwmrF1v" opacity="1" fill="#504847" fill-opacity="1"></use><g><use xlink:href="#cnfwmrF1v" opacity="1" fill-opacity="0" stroke="#464444" stroke-width="1" stroke-opacity="1"></use></g></g><g><use xlink:href="#bfM4ER33X" opacity="1" fill="#040303" fill-opacity="1"></use></g><g><g><use xlink:href="#dtdK7ln3E" opacity="1" fill-opacity="0" stroke="#e8dada" stroke-width="4" stroke-opacity="1"></use></g></g><g><g><use xlink:href="#blsxQyQlf" opacity="1" fill-opacity="0" stroke="#e8dada" stroke-width="4" stroke-opacity="1"></use></g></g><g><g><use xlink:href="#cRsiBbbKe" opacity="1" fill-opacity="0" stroke="#e8dada" stroke-width="4" stroke-opacity="1"></use></g></g><g><use xlink:href="#b1lxJaj9GO" opacity="1" fill="#312e2e" fill-opacity="1"></use></g><g><g><use xlink:href="#bRObipy2z" opacity="1" fill-opacity="0" stroke="#e8dada" stroke-width="4" stroke-opacity="1"></use></g></g><g><g><use xlink:href="#bBKFjG4t" opacity="1" fill-opacity="0" stroke="#e8dada" stroke-width="4" stroke-opacity="1"></use></g></g><g><use xlink:href="#bmPRCMNJK" opacity="1" fill="#a59797" fill-opacity="1"></use></g><g><use xlink:href="#b4N5QOq0Yr" opacity="1" fill="#040405" fill-opacity="1"></use><g><use xlink:href="#b4N5QOq0Yr" opacity="1" fill-opacity="0" stroke="#918c8c" stroke-width="2" stroke-opacity="1"></use></g></g><g><use xlink:href="#djumgcaih" opacity="1" fill="#440808" fill-opacity="1"></use><g><use xlink:href="#djumgcaih" opacity="1" fill-opacity="0" stroke="#918c8c" stroke-width="2" stroke-opacity="1"></use></g></g><g><use xlink:href="#c36Dve9T5s" opacity="1" fill="#260707" fill-opacity="1"></use><g><use xlink:href="#c36Dve9T5s" opacity="1" fill-opacity="0" stroke="#6d6868" stroke-width="1" stroke-opacity="1"></use></g></g><g><use xlink:href="#d1Io3v41fD" opacity="1" fill="#1f1e1d" fill-opacity="1"></use><g><use xlink:href="#d1Io3v41fD" opacity="1" fill-opacity="0" stroke="#fcf4f4" stroke-width="1" stroke-opacity="1"></use></g></g><g><use xlink:href="#e5PPDVHUm" opacity="1" fill="#470b14" fill-opacity="1"></use><g><use xlink:href="#e5PPDVHUm" opacity="1" fill-opacity="0" stroke="#7b7b7b" stroke-width="1" stroke-opacity="1"></use></g></g></g></g></svg>