<?xml version="1.0" encoding="UTF-8" standalone="no"?>
<!DOCTYPE svg PUBLIC "-//W3C//DTD SVG 1.1//EN" "http://www.w3.org/Graphics/SVG/1.1/DTD/svg11.dtd">
<svg version="1.1" xmlns="http://www.w3.org/2000/svg" xmlns:xlink="http://www.w3.org/1999/xlink" preserveAspectRatio="xMidYMid meet" viewBox="0 0 640 640" width="640" height="640"><defs><path d="M371.55 204.76C300.67 202.66 260.32 227.57 250.49 279.5" id="a1Kfih78ap"></path><path d="M250.49 279.38L399.97 252.01L399.97 230.96L394.7 213.06L371.55 204.64" id="b9Wqp4BVn"></path><path d="M346.33 266.84L346.33 246.79L359.57 242.07L372.81 246.79L444.3 339.97L431.06 364.74L411.2 364.74L333.09 270.38L346.33 266.84Z" id="c6KabDJdP"></path><path d="M433.86 365.82L443.81 340.71L451.94 344.14L476.34 381.8L476.34 393.21L470.53 404.63L456.59 410.33L443.81 410.33L413.6 374.95L408.96 362.4L433.86 365.82Z" id="fFk8APbji"></path><path d="M374.77 204.64L368.44 193.88L320.34 187.28L284.9 210.33L284.9 224.26L374.77 204.64Z" id="e25sn4Rsze"></path><path d="" id="b1gbtm4JKM"></path><path d="M382.37 259.7L410.22 292.61L417.81 267.29L403.89 217.93L374.77 205.77L382.37 259.7Z" id="edR6V5zt0"></path><path d="" id="bRpu8hSi7"></path><path d="M388.7 334.38L425.4 311.6L421.61 300.21L410.22 292.61L374.77 314.31L370.97 326.79L388.7 334.38Z" id="d116C85K0m"></path><path d="M363.86 261.32L258.6 292.43L190.51 316.44L202.26 285.15L226.75 269.59L259.83 257.64L379.51 236.99L363.86 261.32Z" id="bUkPQeG1J"></path><path d="M316.54 301.47L349.46 314.31L365.98 320.46L370.97 309.03L365.98 295.14L329.84 279.5L316.54 287.55L316.54 301.47Z" id="bd2uApv2H"></path><path d="M343.76 314.31L321.61 353.37L308.95 349.12L334.27 309.03L343.76 314.31Z" id="aq1Aou8Sp"></path><path d="M256.17 320.65L235.77 349.5L225.37 363.74L214.91 356.95L211.42 342.61L232.97 309.64L248.5 309.03L256.17 320.65Z" id="azivIxjRx"></path><path d="M240.53 346.36L280.53 366.76L288.76 356.24L245.54 336.73L240.53 346.36Z" id="d6WVgC9vNP"></path><path d="M388.7 326.79L379.4 402.74L367.18 405.9L354.27 402.74L344.14 396.41L354.27 316.44L388.7 326.79Z" id="c6bhsiFdc"></path><path d="M385.54 359.87L382.79 351.48L376.24 346.87L370.29 343.88L365.29 341.37L357.85 339.65L352.29 338.37L347.29 339.87L347.29 343.88" id="a4JDADkq7"></path><path d="M385.54 367.78L382.79 359.39L376.24 354.78L370.29 351.79L365.29 349.28L357.85 347.56L352.29 346.28L347.29 347.78L347.29 351.79" id="b72awbSeo2"></path><path d="M359.58 375.52C359.58 378.48 348 391.77 324.83 415.4L172.24 440.71L158.32 428.05L158.32 415.4L164.65 398.94L172.24 383.75L225.4 357.97L315.28 334.38L336.8 337.89L350.72 344.51C356.63 362.23 359.58 372.57 359.58 375.52Z" id="f33XU5beL1"></path><path d="M331.02 314.31C331.02 333.52 310.36 349.12 284.9 349.12C259.44 349.12 238.77 333.52 238.77 314.31C238.77 295.1 259.44 279.5 284.9 279.5C310.36 279.5 331.02 295.1 331.02 314.31Z" id="csfgR2Hj0"></path><path d="M284.9 297.22L263.38 305.77L263.38 322.85L284.9 331.4L306.42 322.85L306.42 305.77L284.9 297.22Z" id="c19u2hBTBz"></path><path d="" id="j7VKINpTP"></path><path d="" id="amLwEwHLc"></path><path d="M253.89 387.55L240 393.24L240 404.64L253.89 410.33L267.77 404.64L267.77 393.24L253.89 387.55Z" id="h2iGliMxcC"></path><path d="M184.9 423.62C184.9 426.07 182.63 428.05 179.84 428.05C177.04 428.05 174.77 426.07 174.77 423.62C174.77 421.18 177.04 419.19 179.84 419.19C182.63 419.19 184.9 421.18 184.9 423.62Z" id="a141Tb0nRF"></path><path d="M195.03 391.98C195.03 394.42 192.76 396.41 189.96 396.41C187.17 396.41 184.9 394.42 184.9 391.98C184.9 389.53 187.17 387.55 189.96 387.55C192.76 387.55 195.03 389.53 195.03 391.98Z" id="d2kfMdbt2B"></path><path d="M238.77 369.17C238.77 371.62 236.5 373.6 233.71 373.6C230.91 373.6 228.65 371.62 228.65 369.17C228.65 366.73 230.91 364.74 233.71 364.74C236.5 364.74 238.77 366.73 238.77 369.17Z" id="f1XdL5zr1q"></path><path d="M319.08 410.33C319.08 412.78 316.81 414.76 314.01 414.76C311.22 414.76 308.95 412.78 308.95 410.33C308.95 407.89 311.22 405.9 314.01 405.9C316.81 405.9 319.08 407.89 319.08 410.33Z" id="gaqzrPN24"></path><path d="M354.27 378.03C354.27 380.48 352 382.46 349.2 382.46C346.41 382.46 344.14 380.48 344.14 378.03C344.14 375.59 346.41 373.6 349.2 373.6C352 373.6 354.27 375.59 354.27 378.03Z" id="b3YkD2B3ys"></path><path d="M344.14 353.55C344.14 356 341.87 357.98 339.08 357.98C336.28 357.98 334.01 356 334.01 353.55C334.01 351.11 336.28 349.12 339.08 349.12C341.87 349.12 344.14 351.11 344.14 353.55Z" id="d2NykqyjPy"></path><path d="M284.9 357.8C284.9 360.25 282.63 362.23 279.84 362.23C277.04 362.23 274.77 360.25 274.77 357.8C274.77 355.36 277.04 353.37 279.84 353.37C282.63 353.37 284.9 355.36 284.9 357.8Z" id="c2uXB1OHJU"></path><path d="M227.7 423.62C227.7 426.07 225.43 428.05 222.63 428.05C219.84 428.05 217.57 426.07 217.57 423.62C217.57 421.18 219.84 419.19 222.63 419.19C225.43 419.19 227.7 421.18 227.7 423.62Z" id="ahpLRo5Gv"></path><path d="M388.7 346.28L385.95 337.89L379.4 333.28L373.45 330.29L368.45 327.78L361 326.06L355.45 324.78L350.45 326.28L350.45 330.29" id="gb78kvoC9"></path><path d="M387.45 353.37L384.7 344.98L378.15 340.37L372.2 337.38L367.2 334.87L359.75 333.15L354.2 331.87L349.2 333.37L349.2 337.38" id="b57KUfcBl"></path><path d="M352.68 387.8L348.63 410.29L365.52 423.62L386.46 414.47L390.51 391.98L373.62 378.64L352.68 387.8Z" id="b2liYZEWde"></path><path d="M381.61 401.11C381.68 406.2 377.89 410.38 373.15 410.45C368.41 410.51 364.5 406.43 364.43 401.34C364.37 396.25 368.16 392.07 372.9 392C377.64 391.94 381.54 396.02 381.61 401.11Z" id="bS6zNOEm8"></path><path d="M379.51 396.41L366.53 406.41L379.51 396.41Z" id="a2AOBvyczg"></path><path d="M368.54 249.13L391.23 279.37L396.51 268.27L379.2 240.06L368.54 249.13Z" id="a7cp61FYK"></path><path d="M371.69 248.19C364.88 257.14 362.53 261.24 364.64 260.49C366.75 259.75 342.7 266.83 292.5 281.75L315.75 286.22L328.63 278.99L357.16 290.7L392.75 278.99L371.69 248.19Z" id="gjcm1M8bE"></path><path d="M381.61 385.21L390.51 391.98L385.27 414.76L366.42 423.62L350.45 410.33L327 414.76L322 423.62L288.76 419.19L174.77 440.71L158.32 428.05L151 446.21L163 463.21L350.45 452.21L396.29 446.21C404.76 441.55 408.98 437.88 408.96 435.21C408.93 432.55 408.93 425.73 408.96 414.76L399.56 375.52L385.27 357.97L381.61 385.21Z" id="e2RRm9UQzs"></path><path d="" id="a1YLNti3E"></path><path d="" id="b32wBJl6s3"></path><path d="M158.32 463.21L151 440.71L161 428.05L174.77 440.71L211.42 435.21L215 440.71L217.57 452.21L207 463.21L158.32 463.21Z" id="a1wqDroh7"></path><path d="M249.25 454.21C256.51 448.21 255.24 440.4 245.45 430.79" id="i39pRo0BWO"></path><path d="M262.75 452.42C270.01 446.42 268.74 438.62 258.95 429" id="cxQob42Ti"></path><path d="M274.35 451.48C281.61 445.48 280.35 437.67 270.55 428.05" id="bctqFIYxO"></path><path d="M268.94 391.98L268.94 401.55L291.6 390.55L296.27 383.22L297.6 369.89L291.6 363.22L288.76 367.55L292.5 370.89L291.6 381.22L262.27 389.55L268.94 391.98Z" id="a1kieXsM0A"></path><path d="M284.57 373.6L282.51 368.09L287.68 365.3L292.95 369.09L291.03 374.21L284.57 373.6Z" id="cwFAm3H7W"></path><path d="M294.27 366.76L291.27 362.23L286.94 363.22L285.01 366.76" id="kfBcFq1lC"></path><path d="M294.27 384.28L269.37 394.72L294.27 384.28Z" id="bgY8OD3JY"></path><path d="M255.72 394.91L250.2 394.83L248.36 398.86L252.05 402.97L257.58 403.05L259.41 399.02L255.72 394.91Z" id="a21UHh3MiK"></path><path d="M376.77 215.53C349.44 217.86 332.92 228.2 327.23 246.53" id="iEie0pD4A"></path><path d="M377.25 221.93C357.76 223.55 345.98 230.72 341.92 243.43" id="heRJUdfRY"></path><path d="M377.25 229.19C365.96 229.46 358.84 233.76 355.9 242.07" id="d1rU2FCTF0"></path><path d="M339.95 275.08L373.76 263.21L381.76 274.66L358.83 284.07L345.52 276.54L339.95 275.08Z" id="d4rIKH2TXS"></path><path d="M291.49 218.66L369.57 202.66L366.57 198.66L354.27 197.41L323.49 195.41L302.99 209.91L291.49 213.41L291.49 218.66Z" id="hkX95KHox"></path><path d="M396.51 268.64L394.12 273.64L408.96 292.61L417.81 267.3L382.52 242.07L396.51 268.64Z" id="aa7UGSQSo"></path><path d="M304.08 244.63L297.37 240.83L299.19 239.39C299.08 239.32 299.01 239.28 299 239.28C298.66 239.09 298.37 238.82 298.17 238.52C298.16 238.51 298.12 238.46 298.06 238.36L296.23 239.8L292.22 233.86L294.49 232.07L293.64 230.82C292.13 232.01 291.29 232.67 291.12 232.81C290.77 233.08 290.78 233.63 291.14 234.15C291.57 234.8 295.08 239.98 295.51 240.62C295.71 240.92 296.01 241.19 296.35 241.38C297.08 241.79 302.93 245.11 303.66 245.52C304.26 245.86 304.9 245.9 305.25 245.62C305.42 245.49 306.26 244.83 307.76 243.63L306.35 242.83L304.08 244.63Z" id="f5CYQEiOCg"></path><path d="M296.51 244.56C296.94 244.22 296.79 243.49 296.16 242.92C295.91 242.7 293.93 240.9 293.69 240.68C293.06 240.11 292.21 239.93 291.78 240.27C291.36 240.6 289.28 242.24 285.53 245.2L286.66 246.23L291.3 242.56L294.9 245.84L295.68 245.22L292.08 241.95L292.91 241.29C295.07 243.26 296.27 244.35 296.51 244.56Z" id="c2hdFPcigp"></path><path d="M285.49 247.16C284.87 246.59 284.71 245.85 285.14 245.51C285.14 245.51 285.14 245.51 285.14 245.51L288.73 248.76L293.37 245.09L294.5 246.12C291.71 248.32 290.17 249.55 289.86 249.79C289.43 250.13 288.57 249.95 287.95 249.38C287.46 248.94 285.74 247.38 285.49 247.16Z" id="kapX2T4XT"></path><path d="M299.11 230.33C298.93 230.22 297.47 229.39 297.29 229.29C296.69 228.95 296.05 228.91 295.7 229.19C295.67 229.21 295.52 229.33 295.25 229.54L296.1 230.79L296.87 230.18C298.01 230.83 298.64 231.19 298.77 231.26C302.33 233.28 305.46 236.12 307.6 239.27C307.67 239.38 308.05 239.94 308.74 240.95L307.97 241.56L309.38 242.36C309.65 242.15 309.8 242.03 309.83 242C310.18 241.73 310.17 241.19 309.81 240.66C309.74 240.55 309.38 240.01 308.72 239.04C304.9 234.7 301.7 231.79 299.11 230.33Z" id="c2e89SUaHQ"></path><path d="M294.99 234.13L296.84 236.87L296.23 237.35L294.38 234.61L294.99 234.13M293.18 234.19L296.25 238.72L298.04 237.3L294.98 232.77L294.98 232.77L293.18 234.19Z" id="c2xRqjcXF"></path><path d="M303.92 242.24L303.31 242.72L300.22 240.96L300.83 240.48L303.92 242.24M300.41 239.44L298.61 240.86L303.73 243.76L305.53 242.34L305.53 242.34L300.41 239.44Z" id="a88YqpuS5Q"></path><path d="M294.28 228.94C294.42 228.9 294.54 228.84 294.65 228.75C294.65 228.75 294.69 228.72 294.7 228.71C295.28 228.25 295.07 227.25 294.23 226.48C294.04 226.31 292.57 224.98 292.38 224.81C291.53 224.04 290.37 223.79 289.78 224.26C289.78 224.26 289.73 224.3 289.73 224.3C289.14 224.76 289.36 225.76 290.2 226.53C290.39 226.7 291.86 228.04 292.05 228.2C292.3 228.43 292.59 228.62 292.87 228.75C293.07 229.04 294.04 230.48 295.79 233.07L296.62 232.41C295.22 230.33 294.43 229.17 294.28 228.94ZM292.83 227.59C292.64 227.42 291.17 226.08 290.98 225.91C290.76 225.71 290.7 225.45 290.86 225.32C290.86 225.32 290.91 225.29 290.91 225.28C291.07 225.16 291.37 225.22 291.6 225.43C291.78 225.6 293.26 226.93 293.44 227.1C293.66 227.3 293.72 227.57 293.57 227.69C293.56 227.69 293.55 227.71 293.51 227.73C293.21 227.77 292.98 227.72 292.83 227.59Z" id="b1NoQ937dp"></path><path d="M312.84 243.44C312 242.67 310.83 242.42 310.25 242.88C310.24 242.89 310.2 242.92 310.2 242.93C310.09 243.01 310.01 243.11 309.95 243.22C309.69 243.08 308.38 242.34 306.03 241L305.19 241.66C308.13 243.32 309.76 244.25 310.09 244.43C310.22 244.68 310.42 244.93 310.67 245.16C310.86 245.33 312.33 246.67 312.52 246.84C313.36 247.6 314.53 247.85 315.11 247.39C315.12 247.39 315.16 247.35 315.16 247.35C315.74 246.88 315.53 245.88 314.69 245.11C314.32 244.78 313.03 243.6 312.84 243.44ZM313.29 246.21C313.11 246.05 311.63 244.71 311.45 244.54C311.23 244.34 311.17 244.07 311.33 243.95C311.33 243.95 311.37 243.91 311.38 243.91C311.53 243.79 311.84 243.85 312.06 244.05C312.25 244.22 313.72 245.56 313.91 245.73C314.13 245.93 314.19 246.19 314.03 246.32C314.03 246.32 314.01 246.33 313.98 246.36C313.67 246.4 313.45 246.35 313.29 246.21Z" id="c5achTDMP"></path><path d="M287.44 242.89L293.37 238.2L292.76 237.3C289.42 239.95 287.56 241.42 287.19 241.71C286.88 241.95 286.99 242.48 287.44 242.89C287.44 242.89 287.44 242.89 287.44 242.89Z" id="a2cLS9ovef"></path><path d="M293.09 248.02C293.54 248.42 294.15 248.55 294.46 248.31C294.83 248.02 296.69 246.55 300.03 243.91L299.01 243.34L293.09 248.02C293.09 248.02 293.09 248.02 293.09 248.02Z" id="acqaSqLz1"></path></defs><g><g><g><g><use xlink:href="#a1Kfih78ap" opacity="1" fill="#28c8d0" fill-opacity="1"></use><g><use xlink:href="#a1Kfih78ap" opacity="1" fill-opacity="0" stroke="#000000" stroke-width="1" stroke-opacity="1"></use></g></g><g><use xlink:href="#b9Wqp4BVn" opacity="1" fill="#28c8d0" fill-opacity="1"></use><g><use xlink:href="#b9Wqp4BVn" opacity="1" fill-opacity="0" stroke="#000000" stroke-width="1" stroke-opacity="1"></use></g></g></g><g><use xlink:href="#c6KabDJdP" opacity="1" fill="#c0c0c0" fill-opacity="1"></use><g><use xlink:href="#c6KabDJdP" opacity="1" fill-opacity="0" stroke="#000000" stroke-width="1" stroke-opacity="1"></use></g></g><g><use xlink:href="#fFk8APbji" opacity="1" fill="#010101" fill-opacity="1"></use><g><use xlink:href="#fFk8APbji" opacity="1" fill-opacity="0" stroke="#000000" stroke-width="1" stroke-opacity="1"></use></g></g><g><use xlink:href="#e25sn4Rsze" opacity="1" fill="#514848" fill-opacity="1"></use><g><use xlink:href="#e25sn4Rsze" opacity="1" fill-opacity="0" stroke="#000000" stroke-width="1" stroke-opacity="1"></use></g></g><g><g><use xlink:href="#b1gbtm4JKM" opacity="1" fill-opacity="0" stroke="#000000" stroke-width="1" stroke-opacity="1"></use></g></g><g><use xlink:href="#edR6V5zt0" opacity="1" fill="#434040" fill-opacity="1"></use><g><use xlink:href="#edR6V5zt0" opacity="1" fill-opacity="0" stroke="#000000" stroke-width="1" stroke-opacity="1"></use></g></g><g><g><use xlink:href="#bRpu8hSi7" opacity="1" fill-opacity="0" stroke="#000000" stroke-width="1" stroke-opacity="1"></use></g></g><g><use xlink:href="#d116C85K0m" opacity="1" fill="#060505" fill-opacity="1"></use><g><use xlink:href="#d116C85K0m" opacity="1" fill-opacity="0" stroke="#000000" stroke-width="1" stroke-opacity="1"></use></g></g><g><use xlink:href="#bUkPQeG1J" opacity="1" fill="#235258" fill-opacity="1"></use><g><use xlink:href="#bUkPQeG1J" opacity="1" fill-opacity="0" stroke="#000000" stroke-width="1" stroke-opacity="1"></use></g></g><g><g><use xlink:href="#bd2uApv2H" opacity="1" fill="#484444" fill-opacity="1"></use><g><use xlink:href="#bd2uApv2H" opacity="1" fill-opacity="0" stroke="#000000" stroke-width="1" stroke-opacity="1"></use></g></g><g><g><use xlink:href="#aq1Aou8Sp" opacity="1" fill-opacity="0" stroke="#676666" stroke-width="7" stroke-opacity="1"></use></g></g></g><g><g><use xlink:href="#azivIxjRx" opacity="1" fill="#484444" fill-opacity="1"></use><g><use xlink:href="#azivIxjRx" opacity="1" fill-opacity="0" stroke="#000000" stroke-width="1" stroke-opacity="1"></use></g></g><g><g><use xlink:href="#d6WVgC9vNP" opacity="1" fill-opacity="0" stroke="#676666" stroke-width="7" stroke-opacity="1"></use></g></g></g><g><use xlink:href="#c6bhsiFdc" opacity="1" fill="#040303" fill-opacity="1"></use></g><g><g><use xlink:href="#a4JDADkq7" opacity="1" fill-opacity="0" stroke="#e8dada" stroke-width="4" stroke-opacity="1"></use></g></g><g><g><use xlink:href="#b72awbSeo2" opacity="1" fill-opacity="0" stroke="#e8dada" stroke-width="4" stroke-opacity="1"></use></g></g><g><use xlink:href="#f33XU5beL1" opacity="1" fill="#2b2828" fill-opacity="1"></use><g><use xlink:href="#f33XU5beL1" opacity="1" fill-opacity="0" stroke="#676666" stroke-width="1" stroke-opacity="1"></use></g></g><g><g><use xlink:href="#csfgR2Hj0" opacity="1" fill="#040303" fill-opacity="1"></use></g><g><use xlink:href="#c19u2hBTBz" opacity="1" fill="#554e4e" fill-opacity="1"></use></g></g><g><g><use xlink:href="#j7VKINpTP" opacity="1" fill-opacity="0" stroke="#000000" stroke-width="1" stroke-opacity="1"></use></g></g><g><g><use xlink:href="#amLwEwHLc" opacity="1" fill-opacity="0" stroke="#676666" stroke-width="1" stroke-opacity="1"></use></g></g><g><use xlink:href="#h2iGliMxcC" opacity="1" fill="#060303" fill-opacity="1"></use><g><use xlink:href="#h2iGliMxcC" opacity="1" fill-opacity="0" stroke="#e8dada" stroke-width="2" stroke-opacity="1"></use></g></g><g><use xlink:href="#a141Tb0nRF" opacity="1" fill="#060303" fill-opacity="1"></use><g><use xlink:href="#a141Tb0nRF" opacity="1" fill-opacity="0" stroke="#e8dada" stroke-width="2" stroke-opacity="1"></use></g></g><g><use xlink:href="#d2kfMdbt2B" opacity="1" fill="#060303" fill-opacity="1"></use><g><use xlink:href="#d2kfMdbt2B" opacity="1" fill-opacity="0" stroke="#e8dada" stroke-width="2" stroke-opacity="1"></use></g></g><g><use xlink:href="#f1XdL5zr1q" opacity="1" fill="#060303" fill-opacity="1"></use><g><use xlink:href="#f1XdL5zr1q" opacity="1" fill-opacity="0" stroke="#e8dada" stroke-width="2" stroke-opacity="1"></use></g></g><g><use xlink:href="#gaqzrPN24" opacity="1" fill="#060303" fill-opacity="1"></use><g><use xlink:href="#gaqzrPN24" opacity="1" fill-opacity="0" stroke="#e8dada" stroke-width="2" stroke-opacity="1"></use></g></g><g><use xlink:href="#b3YkD2B3ys" opacity="1" fill="#060303" fill-opacity="1"></use><g><use xlink:href="#b3YkD2B3ys" opacity="1" fill-opacity="0" stroke="#e8dada" stroke-width="2" stroke-opacity="1"></use></g></g><g><use xlink:href="#d2NykqyjPy" opacity="1" fill="#060303" fill-opacity="1"></use><g><use xlink:href="#d2NykqyjPy" opacity="1" fill-opacity="0" stroke="#e8dada" stroke-width="2" stroke-opacity="1"></use></g></g><g><use xlink:href="#c2uXB1OHJU" opacity="1" fill="#060303" fill-opacity="1"></use><g><use xlink:href="#c2uXB1OHJU" opacity="1" fill-opacity="0" stroke="#e8dada" stroke-width="2" stroke-opacity="1"></use></g></g><g><use xlink:href="#ahpLRo5Gv" opacity="1" fill="#060303" fill-opacity="1"></use><g><use xlink:href="#ahpLRo5Gv" opacity="1" fill-opacity="0" stroke="#e8dada" stroke-width="2" stroke-opacity="1"></use></g></g><g><g><use xlink:href="#gb78kvoC9" opacity="1" fill-opacity="0" stroke="#e8dada" stroke-width="4" stroke-opacity="1"></use></g></g><g><g><use xlink:href="#b57KUfcBl" opacity="1" fill-opacity="0" stroke="#e8dada" stroke-width="4" stroke-opacity="1"></use></g></g><g><use xlink:href="#b2liYZEWde" opacity="1" fill="#312e2e" fill-opacity="1"></use></g><g><use xlink:href="#bS6zNOEm8" opacity="1" fill="#a59797" fill-opacity="1"></use></g><g><g><use xlink:href="#a2AOBvyczg" opacity="1" fill-opacity="0" stroke="#070505" stroke-width="5" stroke-opacity="1"></use></g></g><g><use xlink:href="#a7cp61FYK" opacity="1" fill="#235458" fill-opacity="1"></use><g><use xlink:href="#a7cp61FYK" opacity="1" fill-opacity="0" stroke="#070505" stroke-width="2" stroke-opacity="1"></use></g></g><g><use xlink:href="#gjcm1M8bE" opacity="1" fill="#26ccbc" fill-opacity="1"></use><g><use xlink:href="#gjcm1M8bE" opacity="1" fill-opacity="0" stroke="#070505" stroke-width="2" stroke-opacity="1"></use></g></g><g><use xlink:href="#e2RRm9UQzs" opacity="1" fill="#c0c0c0" fill-opacity="1"></use><g><use xlink:href="#e2RRm9UQzs" opacity="1" fill-opacity="0" stroke="#070505" stroke-width="2" stroke-opacity="1"></use></g></g><g><g><use xlink:href="#a1YLNti3E" opacity="1" fill-opacity="0" stroke="#070505" stroke-width="2" stroke-opacity="1"></use></g></g><g><g><use xlink:href="#b32wBJl6s3" opacity="1" fill-opacity="0" stroke="#070505" stroke-width="2" stroke-opacity="1"></use></g></g><g><use xlink:href="#a1wqDroh7" opacity="1" fill="#040404" fill-opacity="1"></use><g><use xlink:href="#a1wqDroh7" opacity="1" fill-opacity="0" stroke="#070505" stroke-width="2" stroke-opacity="1"></use></g></g><g><use xlink:href="#i39pRo0BWO" opacity="1" fill="#857857" fill-opacity="1"></use><g><use xlink:href="#i39pRo0BWO" opacity="1" fill-opacity="0" stroke="#0b52a6" stroke-width="6" stroke-opacity="1"></use></g></g><g><g><use xlink:href="#cxQob42Ti" opacity="1" fill-opacity="0" stroke="#135eab" stroke-width="6" stroke-opacity="1"></use></g></g><g><g><use xlink:href="#bctqFIYxO" opacity="1" fill-opacity="0" stroke="#0b5fd0" stroke-width="6" stroke-opacity="1"></use></g></g><g><use xlink:href="#a1kieXsM0A" opacity="1" fill="#010101" fill-opacity="1"></use><g><use xlink:href="#a1kieXsM0A" opacity="1" fill-opacity="0" stroke="#8a8585" stroke-width="1" stroke-opacity="1"></use></g></g><g><use xlink:href="#cwFAm3H7W" opacity="1" fill="#494646" fill-opacity="1"></use><g><use xlink:href="#cwFAm3H7W" opacity="1" fill-opacity="0" stroke="#060404" stroke-width="1" stroke-opacity="1"></use></g></g><g><use xlink:href="#kfBcFq1lC" opacity="1" fill="#0c0808" fill-opacity="1"></use><g><use xlink:href="#kfBcFq1lC" opacity="1" fill-opacity="0" stroke="#918c8c" stroke-width="2" stroke-opacity="1"></use></g></g><g><g><use xlink:href="#bgY8OD3JY" opacity="1" fill-opacity="0" stroke="#918c8c" stroke-width="2" stroke-opacity="1"></use></g></g><g><use xlink:href="#a21UHh3MiK" opacity="1" fill="#0c0808" fill-opacity="1"></use></g><g><g><use xlink:href="#iEie0pD4A" opacity="1" fill-opacity="0" stroke="#125a9a" stroke-width="3" stroke-opacity="1"></use></g></g><g><g><use xlink:href="#heRJUdfRY" opacity="1" fill-opacity="0" stroke="#105ca9" stroke-width="3" stroke-opacity="1"></use></g></g><g><g><use xlink:href="#d1rU2FCTF0" opacity="1" fill-opacity="0" stroke="#185d9a" stroke-width="3" stroke-opacity="1"></use></g></g><g><use xlink:href="#d4rIKH2TXS" opacity="1" fill="#439aa6" fill-opacity="1"></use><g><use xlink:href="#d4rIKH2TXS" opacity="1" fill-opacity="0" stroke="#030202" stroke-width="2" stroke-opacity="1"></use></g></g><g><g><use xlink:href="#hkX95KHox" opacity="1" fill-opacity="0" stroke="#0e2372" stroke-width="1" stroke-opacity="1"></use></g></g><g><use xlink:href="#aa7UGSQSo" opacity="1" fill="#072345" fill-opacity="1"></use><g><use xlink:href="#aa7UGSQSo" opacity="1" fill-opacity="0" stroke="#666161" stroke-width="1" stroke-opacity="1"></use></g></g><g><g><use xlink:href="#f5CYQEiOCg" opacity="1" fill="#ee2c28" fill-opacity="1"></use><g><use xlink:href="#f5CYQEiOCg" opacity="1" fill-opacity="0" stroke="#000000" stroke-width="1" stroke-opacity="0"></use></g></g><g><use xlink:href="#c2hdFPcigp" opacity="1" fill="#ee2c28" fill-opacity="1"></use><g><use xlink:href="#c2hdFPcigp" opacity="1" fill-opacity="0" stroke="#000000" stroke-width="1" stroke-opacity="0"></use></g></g><g><use xlink:href="#kapX2T4XT" opacity="1" fill="#414042" fill-opacity="1"></use><g><use xlink:href="#kapX2T4XT" opacity="1" fill-opacity="0" stroke="#000000" stroke-width="1" stroke-opacity="0"></use></g></g><g><use xlink:href="#c2e89SUaHQ" opacity="1" fill="#414042" fill-opacity="1"></use><g><use xlink:href="#c2e89SUaHQ" opacity="1" fill-opacity="0" stroke="#000000" stroke-width="1" stroke-opacity="0"></use></g></g><g><use xlink:href="#c2xRqjcXF" opacity="1" fill="#414042" fill-opacity="1"></use><g><use xlink:href="#c2xRqjcXF" opacity="1" fill-opacity="0" stroke="#000000" stroke-width="1" stroke-opacity="0"></use></g></g><g><use xlink:href="#a88YqpuS5Q" opacity="1" fill="#414042" fill-opacity="1"></use><g><use xlink:href="#a88YqpuS5Q" opacity="1" fill-opacity="0" stroke="#000000" stroke-width="1" stroke-opacity="0"></use></g></g><g><use xlink:href="#b1NoQ937dp" opacity="1" fill="#414042" fill-opacity="1"></use><g><use xlink:href="#b1NoQ937dp" opacity="1" fill-opacity="0" stroke="#000000" stroke-width="1" stroke-opacity="0"></use></g></g><g><use xlink:href="#c5achTDMP" opacity="1" fill="#414042" fill-opacity="1"></use><g><use xlink:href="#c5achTDMP" opacity="1" fill-opacity="0" stroke="#000000" stroke-width="1" stroke-opacity="0"></use></g></g><g><use xlink:href="#a2cLS9ovef" opacity="1" fill="#414042" fill-opacity="1"></use><g><use xlink:href="#a2cLS9ovef" opacity="1" fill-opacity="0" stroke="#000000" stroke-width="1" stroke-opacity="0"></use></g></g><g><use xlink:href="#acqaSqLz1" opacity="1" fill="#414042" fill-opacity="1"></use><g><use xlink:href="#acqaSqLz1" opacity="1" fill-opacity="0" stroke="#000000" stroke-width="1" stroke-opacity="0"></use></g></g></g></g></g></svg>