<?xml version="1.0" encoding="UTF-8" standalone="no"?>
<!DOCTYPE svg PUBLIC "-//W3C//DTD SVG 1.1//EN" "http://www.w3.org/Graphics/SVG/1.1/DTD/svg11.dtd">
<svg version="1.1" xmlns="http://www.w3.org/2000/svg" xmlns:xlink="http://www.w3.org/1999/xlink" preserveAspectRatio="xMidYMid meet" viewBox="0 0 640 640" width="640" height="640"><defs><path d="M363.95 199.52C293.07 197.41 252.72 222.33 242.9 274.26" id="h4w0BaFE2V"></path><path d="M242.9 274.13L392.37 246.76L392.37 225.71L387.11 207.82L363.95 199.4" id="adqcOEgry"></path><path d="M338.74 261.6L338.74 241.54L351.98 236.83L365.21 241.54L436.7 334.73L423.47 359.5L403.61 359.5L325.5 265.13L338.74 261.6Z" id="cvec273S7"></path><path d="M426.27 360.58L436.21 335.47L444.35 338.89L468.74 376.55L468.74 387.97L462.93 399.38L448.99 405.09L436.21 405.09L406.01 369.71L401.36 357.15L426.27 360.58Z" id="afkBVnvTB"></path><path d="M367.18 199.4L360.85 188.63L312.75 182.03L277.3 205.09L277.3 219.01L367.18 199.4Z" id="b1NElWcry4"></path><path d="" id="a2D9gGFh3"></path><path d="M374.77 254.45L402.63 287.37L410.22 262.05L396.29 212.68L367.18 200.52L374.77 254.45Z" id="h1vwz3YsaM"></path><path d="" id="aBTOPe9Gl"></path><path d="M381.1 329.14L417.81 306.35L414.01 294.96L402.63 287.37L367.18 309.07L363.38 321.54L381.1 329.14Z" id="bXBTChhcO"></path><path d="M356.27 256.07L251.01 287.18L182.92 311.19L194.66 279.91L219.15 264.34L252.24 252.39L371.92 231.75L356.27 256.07Z" id="h2OIeFzOcB"></path><path d="M308.95 296.23L341.86 309.07L358.39 315.21L363.38 303.79L358.39 289.9L322.24 274.26L308.95 282.3L308.95 296.23Z" id="c8n9NSkKGl"></path><path d="M336.16 309.07L314.01 348.13L301.35 343.88L326.67 303.79L336.16 309.07Z" id="a5ZLsUXN"></path><path d="M248.57 315.41L228.18 344.25L217.77 358.49L207.31 351.71L203.82 337.36L225.38 304.39L240.9 303.79L248.57 315.41Z" id="a7zb59pSn"></path><path d="M232.93 341.12L272.94 361.51L281.16 350.99L237.95 331.48L232.93 341.12Z" id="j1C93BpWpw"></path><path d="M381.1 321.54L371.81 397.49L359.58 400.66L346.67 397.49L336.54 391.16L346.67 311.19L381.1 321.54Z" id="a5EeUYStV"></path><path d="M377.95 354.63L375.2 346.24L368.65 341.63L362.7 338.63L357.7 336.13L350.25 334.41L344.7 333.13L339.7 334.63L339.7 338.63" id="cmsYXQG9O"></path><path d="M377.95 362.54L375.2 354.15L368.65 349.54L362.7 346.55L357.7 344.04L350.25 342.32L344.7 341.04L339.7 342.54L339.7 346.55" id="b1vJpz916Z"></path><path d="M351.99 370.28C351.99 373.23 340.4 386.52 317.23 410.15L164.65 435.47L150.72 422.81L150.72 410.15L157.05 393.69L164.65 378.5L217.81 352.73L307.68 329.14L329.2 332.65L343.13 339.26C349.03 356.99 351.99 367.32 351.99 370.28Z" id="aYufnTKFK"></path><path d="M323.43 309.07C323.43 328.28 302.76 343.88 277.3 343.88C251.85 343.88 231.18 328.28 231.18 309.07C231.18 289.85 251.85 274.26 277.3 274.26C302.76 274.26 323.43 289.85 323.43 309.07Z" id="bynXyEaPk"></path><path d="M277.3 291.98L255.78 300.52L255.78 317.61L277.3 326.15L298.82 317.61L298.82 300.52L277.3 291.98Z" id="f4Px54kFL8"></path><path d="" id="f3zVFbxv8W"></path><path d="" id="b7Icl6Wcnv"></path><path d="M246.29 382.3L232.41 388L232.41 399.39L246.29 405.09L260.18 399.39L260.18 388L246.29 382.3Z" id="apYnQ6yC4"></path><path d="M177.3 418.38C177.3 420.82 175.03 422.81 172.24 422.81C169.45 422.81 167.18 420.82 167.18 418.38C167.18 415.93 169.45 413.95 172.24 413.95C175.03 413.95 177.3 415.93 177.3 418.38Z" id="extroIHGp"></path><path d="M187.43 386.73C187.43 389.18 185.16 391.16 182.37 391.16C179.57 391.16 177.3 389.18 177.3 386.73C177.3 384.29 179.57 382.3 182.37 382.3C185.16 382.3 187.43 384.29 187.43 386.73Z" id="lOMF4ltu"></path><path d="M231.18 363.93C231.18 366.37 228.91 368.36 226.11 368.36C223.32 368.36 221.05 366.37 221.05 363.93C221.05 361.48 223.32 359.5 226.11 359.5C228.91 359.5 231.18 361.48 231.18 363.93Z" id="c5U3yxbEP"></path><path d="M311.48 405.09C311.48 407.53 309.21 409.52 306.42 409.52C303.62 409.52 301.35 407.53 301.35 405.09C301.35 402.64 303.62 400.66 306.42 400.66C309.21 400.66 311.48 402.64 311.48 405.09Z" id="c1LIJKjMPb"></path><path d="M346.67 372.79C346.67 375.23 344.4 377.22 341.61 377.22C338.81 377.22 336.54 375.23 336.54 372.79C336.54 370.34 338.81 368.36 341.61 368.36C344.4 368.36 346.67 370.34 346.67 372.79Z" id="c1iR0NZ4Wk"></path><path d="M336.54 348.31C336.54 350.75 334.28 352.74 331.48 352.74C328.69 352.74 326.42 350.75 326.42 348.31C326.42 345.86 328.69 343.88 331.48 343.88C334.28 343.88 336.54 345.86 336.54 348.31Z" id="c77LNNr9Gg"></path><path d="M277.3 352.56C277.3 355 275.03 356.99 272.24 356.99C269.45 356.99 267.18 355 267.18 352.56C267.18 350.11 269.45 348.13 272.24 348.13C275.03 348.13 277.3 350.11 277.3 352.56Z" id="b2XSB5K8pd"></path><path d="M220.1 418.38C220.1 420.82 217.83 422.81 215.04 422.81C212.25 422.81 209.98 420.82 209.98 418.38C209.98 415.93 212.25 413.95 215.04 413.95C217.83 413.95 220.1 415.93 220.1 418.38Z" id="e3mww7Kf97"></path><path d="M381.1 341.04L378.36 332.65L371.81 328.04L365.85 325.05L360.86 322.54L353.41 320.82L347.86 319.54L342.86 321.04L342.86 325.05" id="bgnR45xh2"></path><path d="M379.85 348.13L377.11 339.74L370.56 335.13L364.6 332.13L359.61 329.63L352.16 327.91L346.61 326.63L341.61 328.13L341.61 332.13" id="b7uUu6ILO5"></path><path d="M345.09 382.55L341.04 405.04L357.93 418.38L378.87 409.22L382.92 386.73L366.03 373.4L345.09 382.55Z" id="a1y9ZdlBOw"></path><path d="M374.02 395.86C374.08 400.95 370.29 405.14 365.55 405.2C360.81 405.27 356.91 401.19 356.84 396.1C356.77 391.01 360.56 386.82 365.3 386.76C370.04 386.69 373.95 390.77 374.02 395.86Z" id="d1oQ0WLcN7"></path><path d="M371.92 391.16L358.94 401.16L371.92 391.16Z" id="b16XWqITb9"></path><path d="M360.94 243.89L383.64 274.12L388.91 263.03L371.61 234.82L360.94 243.89Z" id="e16QHH4J1j"></path><path d="M364.09 242.94C357.28 251.89 354.93 256 357.04 255.25C359.15 254.5 335.11 261.59 284.9 276.5L308.16 280.98L321.04 273.75L349.57 285.45L385.15 273.75L364.09 242.94Z" id="a5sCCnf0V"></path><path d="M374.02 379.97L382.92 386.73L377.67 409.52L358.82 418.38L342.86 405.09L319.4 409.52L314.4 418.38L281.16 413.95L167.18 435.47L150.72 422.81L143.4 440.97L155.4 457.97L342.86 446.97L388.7 440.97C397.17 436.3 401.39 432.63 401.36 429.97C401.33 427.3 401.33 420.48 401.36 409.52L391.97 370.28L377.67 352.73L374.02 379.97Z" id="a5oceCwgDT"></path><path d="" id="a1GyL5zuUY"></path><path d="" id="fhXIUjtF"></path><path d="M150.72 457.97L143.4 435.47L153.4 422.81L167.18 435.47L203.82 429.97L207.4 435.47L209.98 446.97L199.4 457.97L150.72 457.97Z" id="e5JDabKvf"></path><path d="M241.65 448.97C248.91 442.97 247.65 435.16 237.86 425.54" id="c38V5WKlzT"></path><path d="M255.15 447.18C262.41 441.18 261.15 433.37 251.35 423.75" id="bNfA17Xpe"></path><path d="M266.76 446.23C274.02 440.23 272.75 432.42 262.96 422.81" id="bzTSGTX8K"></path><path d="M261.34 386.73L261.34 396.31L284.01 385.31L288.67 377.98L290.01 364.64L284.01 357.98L281.16 362.31L284.9 365.64L284.01 375.98L254.67 384.31L261.34 386.73Z" id="blBNoiwmf"></path><path d="M276.98 368.36L274.91 362.85L280.09 360.06L285.35 363.84L283.43 368.97L276.98 368.36Z" id="f5obHtrDi"></path><path d="M286.67 361.51L283.67 356.99L279.34 357.98L277.42 361.51" id="d35AJyW8Mv"></path><path d="M286.67 379.04L261.77 389.47L286.67 379.04Z" id="arnsooBDl"></path><path d="M248.13 389.66L242.6 389.58L240.76 393.61L244.46 397.73L249.98 397.81L251.82 393.78L248.13 389.66Z" id="a2e8a3B7jg"></path><path d="M369.18 210.29C341.84 212.62 325.33 222.95 319.63 241.29" id="atVKAXvji"></path><path d="M369.65 216.69C350.16 218.31 338.38 225.47 334.32 238.19" id="bODEcDRSN"></path><path d="M369.65 223.95C358.37 224.22 351.25 228.51 348.3 236.83" id="ayqU6OkLb"></path><path d="M332.35 269.83L366.16 257.96L374.16 269.42L351.23 278.83L337.93 271.29L332.35 269.83Z" id="a27reu2GWY"></path><path d="M283.9 213.41L361.98 197.41L358.98 193.41L346.67 192.16L315.9 190.16L295.4 204.66L283.9 208.16L283.9 213.41Z" id="b4qwTI9Huf"></path><path d="M388.91 263.4L386.53 268.39L401.36 287.37L410.22 262.05L374.93 236.83L388.91 263.4Z" id="bNVfoNCuI"></path><path d="M305.65 236.13L298.63 232.03L300.48 231.16C300.36 231.09 300.29 231.06 300.28 231.05C299.93 230.84 299.62 230.58 299.4 230.31C299.4 230.3 299.35 230.25 299.28 230.16L297.44 231.02L293.15 225.64L295.44 224.57L294.54 223.43C293.01 224.15 292.16 224.54 291.99 224.62C291.64 224.79 291.66 225.22 292.04 225.7C292.51 226.29 296.25 230.98 296.71 231.57C296.93 231.84 297.24 232.1 297.59 232.31C298.35 232.75 304.47 236.33 305.24 236.78C305.87 237.15 306.52 237.28 306.88 237.12C307.05 237.04 307.9 236.64 309.42 235.92L307.95 235.06L305.65 236.13Z" id="fXMwEQt6b"></path><path d="M297.84 234.88C298.28 234.68 298.1 234.07 297.44 233.51C297.18 233.29 295.09 231.54 294.83 231.32C294.17 230.77 293.29 230.49 292.85 230.7C292.43 230.89 290.32 231.88 286.53 233.65L287.72 234.65L292.41 232.46L296.21 235.64L297 235.27L293.2 232.09L294.04 231.69C296.32 233.61 297.59 234.67 297.84 234.88Z" id="a39MlubbMZ"></path><path d="M286.54 235.21C285.88 234.65 285.7 234.04 286.14 233.84C286.14 233.84 286.14 233.84 286.14 233.84L289.91 237.01L294.61 234.81L295.8 235.81C292.98 237.13 291.42 237.86 291.1 238.01C290.67 238.21 289.78 237.93 289.12 237.38C288.61 236.94 286.79 235.42 286.54 235.21Z" id="c1uaPlmAUE"></path><path d="M300.18 223.91C299.98 223.79 298.46 222.9 298.26 222.79C297.64 222.42 296.98 222.29 296.63 222.46C296.6 222.47 296.45 222.54 296.17 222.67L297.08 223.8L297.86 223.44C299.05 224.13 299.71 224.52 299.84 224.6C303.57 226.78 306.87 229.55 309.15 232.41C309.23 232.51 309.63 233.01 310.36 233.93L309.58 234.29L311.06 235.16C311.33 235.03 311.48 234.96 311.51 234.95C311.87 234.78 311.85 234.35 311.47 233.87C311.39 233.77 311 233.28 310.3 232.4C306.25 228.32 302.88 225.49 300.18 223.91Z" id="c1BlMOmlqd"></path><path d="M296.01 226.3L297.99 228.78L297.38 229.07L295.4 226.58L296.01 226.3M294.15 226.05L297.42 230.16L299.24 229.31L295.97 225.2L295.97 225.2L294.15 226.05Z" id="b3mNrSsfIj"></path><path d="M305.43 234.2L304.81 234.49L301.57 232.59L302.19 232.3L305.43 234.2M301.73 231.4L299.91 232.25L305.27 235.39L307.09 234.53L307.09 234.53L301.73 231.4Z" id="c7xX1yWFP"></path><path d="M295.15 222.03C295.3 222.02 295.42 221.99 295.53 221.94C295.53 221.94 295.58 221.92 295.58 221.92C296.17 221.64 295.93 220.8 295.04 220.06C294.84 219.89 293.29 218.59 293.1 218.43C292.2 217.68 290.99 217.3 290.4 217.57C290.4 217.58 290.35 217.6 290.35 217.6C289.76 217.88 290 218.71 290.89 219.46C291.09 219.62 292.64 220.93 292.83 221.09C293.1 221.31 293.4 221.5 293.7 221.65C293.91 221.92 294.95 223.22 296.82 225.57L297.66 225.18C296.15 223.29 295.32 222.24 295.15 222.03ZM293.62 220.72C293.43 220.56 291.88 219.25 291.68 219.09C291.45 218.89 291.38 218.67 291.54 218.6C291.54 218.59 291.59 218.57 291.59 218.57C291.75 218.5 292.06 218.6 292.3 218.8C292.5 218.96 294.05 220.27 294.25 220.43C294.48 220.62 294.55 220.84 294.39 220.92C294.39 220.92 294.37 220.93 294.33 220.94C294.02 220.93 293.78 220.85 293.62 220.72Z" id="f4GJfVdnon"></path><path d="M314.66 236.57C313.77 235.82 312.56 235.44 311.97 235.72C311.96 235.72 311.92 235.74 311.91 235.74C311.81 235.79 311.73 235.86 311.67 235.94C311.4 235.78 310.03 234.98 307.57 233.54L306.72 233.94C309.79 235.73 311.5 236.73 311.84 236.93C311.98 237.15 312.19 237.38 312.46 237.61C312.65 237.77 314.21 239.08 314.4 239.24C315.3 239.99 316.5 240.37 317.09 240.09C317.1 240.09 317.14 240.07 317.15 240.07C317.73 239.79 317.49 238.95 316.6 238.2C316.21 237.88 314.85 236.73 314.66 236.57ZM315.19 238.86C315 238.7 313.44 237.39 313.25 237.23C313.02 237.04 312.95 236.82 313.1 236.74C313.11 236.74 313.15 236.72 313.16 236.72C313.31 236.64 313.63 236.74 313.87 236.94C314.06 237.1 315.62 238.41 315.81 238.57C316.05 238.77 316.11 238.99 315.96 239.06C315.95 239.06 315.93 239.07 315.9 239.09C315.59 239.07 315.35 239 315.19 238.86Z" id="bjUsNwGHj"></path><path d="M288.44 232.1L294.44 229.29L293.79 228.48C290.41 230.07 288.53 230.95 288.15 231.12C287.84 231.27 287.97 231.71 288.44 232.1C288.44 232.1 288.44 232.1 288.44 232.1Z" id="c1xsqzYDDT"></path><path d="M294.4 237.1C294.87 237.5 295.5 237.7 295.81 237.55C296.19 237.38 298.07 236.5 301.45 234.92L300.39 234.3L294.4 237.1C294.4 237.1 294.4 237.1 294.4 237.1Z" id="c1hqablMyy"></path></defs><g><g><g><g><g><use xlink:href="#h4w0BaFE2V" opacity="1" fill="#684e22" fill-opacity="1"></use><g><use xlink:href="#h4w0BaFE2V" opacity="1" fill-opacity="0" stroke="#000000" stroke-width="1" stroke-opacity="1"></use></g></g><g><use xlink:href="#adqcOEgry" opacity="1" fill="#684e22" fill-opacity="1"></use><g><use xlink:href="#adqcOEgry" opacity="1" fill-opacity="0" stroke="#000000" stroke-width="1" stroke-opacity="1"></use></g></g></g><g><use xlink:href="#cvec273S7" opacity="1" fill="#c0c0c0" fill-opacity="1"></use><g><use xlink:href="#cvec273S7" opacity="1" fill-opacity="0" stroke="#000000" stroke-width="1" stroke-opacity="1"></use></g></g><g><use xlink:href="#afkBVnvTB" opacity="1" fill="#010101" fill-opacity="1"></use><g><use xlink:href="#afkBVnvTB" opacity="1" fill-opacity="0" stroke="#000000" stroke-width="1" stroke-opacity="1"></use></g></g><g><use xlink:href="#b1NElWcry4" opacity="1" fill="#514848" fill-opacity="1"></use><g><use xlink:href="#b1NElWcry4" opacity="1" fill-opacity="0" stroke="#000000" stroke-width="1" stroke-opacity="1"></use></g></g><g><g><use xlink:href="#a2D9gGFh3" opacity="1" fill-opacity="0" stroke="#000000" stroke-width="1" stroke-opacity="1"></use></g></g><g><use xlink:href="#h1vwz3YsaM" opacity="1" fill="#434040" fill-opacity="1"></use><g><use xlink:href="#h1vwz3YsaM" opacity="1" fill-opacity="0" stroke="#000000" stroke-width="1" stroke-opacity="1"></use></g></g><g><g><use xlink:href="#aBTOPe9Gl" opacity="1" fill-opacity="0" stroke="#000000" stroke-width="1" stroke-opacity="1"></use></g></g><g><use xlink:href="#bXBTChhcO" opacity="1" fill="#060505" fill-opacity="1"></use><g><use xlink:href="#bXBTChhcO" opacity="1" fill-opacity="0" stroke="#000000" stroke-width="1" stroke-opacity="1"></use></g></g><g><use xlink:href="#h2OIeFzOcB" opacity="1" fill="#583c23" fill-opacity="1"></use><g><use xlink:href="#h2OIeFzOcB" opacity="1" fill-opacity="0" stroke="#000000" stroke-width="1" stroke-opacity="1"></use></g></g><g><g><use xlink:href="#c8n9NSkKGl" opacity="1" fill="#484444" fill-opacity="1"></use><g><use xlink:href="#c8n9NSkKGl" opacity="1" fill-opacity="0" stroke="#000000" stroke-width="1" stroke-opacity="1"></use></g></g><g><g><use xlink:href="#a5ZLsUXN" opacity="1" fill-opacity="0" stroke="#676666" stroke-width="7" stroke-opacity="1"></use></g></g></g><g><g><use xlink:href="#a7zb59pSn" opacity="1" fill="#484444" fill-opacity="1"></use><g><use xlink:href="#a7zb59pSn" opacity="1" fill-opacity="0" stroke="#000000" stroke-width="1" stroke-opacity="1"></use></g></g><g><g><use xlink:href="#j1C93BpWpw" opacity="1" fill-opacity="0" stroke="#676666" stroke-width="7" stroke-opacity="1"></use></g></g></g><g><use xlink:href="#a5EeUYStV" opacity="1" fill="#040303" fill-opacity="1"></use></g><g><g><use xlink:href="#cmsYXQG9O" opacity="1" fill-opacity="0" stroke="#e8dada" stroke-width="4" stroke-opacity="1"></use></g></g><g><g><use xlink:href="#b1vJpz916Z" opacity="1" fill-opacity="0" stroke="#e8dada" stroke-width="4" stroke-opacity="1"></use></g></g><g><use xlink:href="#aYufnTKFK" opacity="1" fill="#2b2828" fill-opacity="1"></use><g><use xlink:href="#aYufnTKFK" opacity="1" fill-opacity="0" stroke="#676666" stroke-width="1" stroke-opacity="1"></use></g></g><g><g><use xlink:href="#bynXyEaPk" opacity="1" fill="#040303" fill-opacity="1"></use></g><g><use xlink:href="#f4Px54kFL8" opacity="1" fill="#554e4e" fill-opacity="1"></use></g></g><g><g><use xlink:href="#f3zVFbxv8W" opacity="1" fill-opacity="0" stroke="#000000" stroke-width="1" stroke-opacity="1"></use></g></g><g><g><use xlink:href="#b7Icl6Wcnv" opacity="1" fill-opacity="0" stroke="#676666" stroke-width="1" stroke-opacity="1"></use></g></g><g><use xlink:href="#apYnQ6yC4" opacity="1" fill="#060303" fill-opacity="1"></use><g><use xlink:href="#apYnQ6yC4" opacity="1" fill-opacity="0" stroke="#e8dada" stroke-width="2" stroke-opacity="1"></use></g></g><g><use xlink:href="#extroIHGp" opacity="1" fill="#060303" fill-opacity="1"></use><g><use xlink:href="#extroIHGp" opacity="1" fill-opacity="0" stroke="#e8dada" stroke-width="2" stroke-opacity="1"></use></g></g><g><use xlink:href="#lOMF4ltu" opacity="1" fill="#060303" fill-opacity="1"></use><g><use xlink:href="#lOMF4ltu" opacity="1" fill-opacity="0" stroke="#e8dada" stroke-width="2" stroke-opacity="1"></use></g></g><g><use xlink:href="#c5U3yxbEP" opacity="1" fill="#060303" fill-opacity="1"></use><g><use xlink:href="#c5U3yxbEP" opacity="1" fill-opacity="0" stroke="#e8dada" stroke-width="2" stroke-opacity="1"></use></g></g><g><use xlink:href="#c1LIJKjMPb" opacity="1" fill="#060303" fill-opacity="1"></use><g><use xlink:href="#c1LIJKjMPb" opacity="1" fill-opacity="0" stroke="#e8dada" stroke-width="2" stroke-opacity="1"></use></g></g><g><use xlink:href="#c1iR0NZ4Wk" opacity="1" fill="#060303" fill-opacity="1"></use><g><use xlink:href="#c1iR0NZ4Wk" opacity="1" fill-opacity="0" stroke="#e8dada" stroke-width="2" stroke-opacity="1"></use></g></g><g><use xlink:href="#c77LNNr9Gg" opacity="1" fill="#060303" fill-opacity="1"></use><g><use xlink:href="#c77LNNr9Gg" opacity="1" fill-opacity="0" stroke="#e8dada" stroke-width="2" stroke-opacity="1"></use></g></g><g><use xlink:href="#b2XSB5K8pd" opacity="1" fill="#060303" fill-opacity="1"></use><g><use xlink:href="#b2XSB5K8pd" opacity="1" fill-opacity="0" stroke="#e8dada" stroke-width="2" stroke-opacity="1"></use></g></g><g><use xlink:href="#e3mww7Kf97" opacity="1" fill="#060303" fill-opacity="1"></use><g><use xlink:href="#e3mww7Kf97" opacity="1" fill-opacity="0" stroke="#e8dada" stroke-width="2" stroke-opacity="1"></use></g></g><g><g><use xlink:href="#bgnR45xh2" opacity="1" fill-opacity="0" stroke="#e8dada" stroke-width="4" stroke-opacity="1"></use></g></g><g><g><use xlink:href="#b7uUu6ILO5" opacity="1" fill-opacity="0" stroke="#e8dada" stroke-width="4" stroke-opacity="1"></use></g></g><g><use xlink:href="#a1y9ZdlBOw" opacity="1" fill="#312e2e" fill-opacity="1"></use></g><g><use xlink:href="#d1oQ0WLcN7" opacity="1" fill="#a59797" fill-opacity="1"></use></g><g><g><use xlink:href="#b16XWqITb9" opacity="1" fill-opacity="0" stroke="#070505" stroke-width="5" stroke-opacity="1"></use></g></g><g><use xlink:href="#e16QHH4J1j" opacity="1" fill="#583c23" fill-opacity="1"></use><g><use xlink:href="#e16QHH4J1j" opacity="1" fill-opacity="0" stroke="#070505" stroke-width="2" stroke-opacity="1"></use></g></g><g><use xlink:href="#a5sCCnf0V" opacity="1" fill="#725a1f" fill-opacity="1"></use><g><use xlink:href="#a5sCCnf0V" opacity="1" fill-opacity="0" stroke="#070505" stroke-width="2" stroke-opacity="1"></use></g></g><g><use xlink:href="#a5oceCwgDT" opacity="1" fill="#c0c0c0" fill-opacity="1"></use><g><use xlink:href="#a5oceCwgDT" opacity="1" fill-opacity="0" stroke="#070505" stroke-width="2" stroke-opacity="1"></use></g></g><g><g><use xlink:href="#a1GyL5zuUY" opacity="1" fill-opacity="0" stroke="#070505" stroke-width="2" stroke-opacity="1"></use></g></g><g><g><use xlink:href="#fhXIUjtF" opacity="1" fill-opacity="0" stroke="#070505" stroke-width="2" stroke-opacity="1"></use></g></g><g><use xlink:href="#e5JDabKvf" opacity="1" fill="#040404" fill-opacity="1"></use><g><use xlink:href="#e5JDabKvf" opacity="1" fill-opacity="0" stroke="#070505" stroke-width="2" stroke-opacity="1"></use></g></g><g><g><use xlink:href="#c38V5WKlzT" opacity="1" fill-opacity="0" stroke="#070505" stroke-width="6" stroke-opacity="1"></use></g></g><g><g><use xlink:href="#bNfA17Xpe" opacity="1" fill-opacity="0" stroke="#070505" stroke-width="6" stroke-opacity="1"></use></g></g><g><g><use xlink:href="#bzTSGTX8K" opacity="1" fill-opacity="0" stroke="#070505" stroke-width="6" stroke-opacity="1"></use></g></g><g><use xlink:href="#blBNoiwmf" opacity="1" fill="#010101" fill-opacity="1"></use><g><use xlink:href="#blBNoiwmf" opacity="1" fill-opacity="0" stroke="#8a8585" stroke-width="1" stroke-opacity="1"></use></g></g><g><use xlink:href="#f5obHtrDi" opacity="1" fill="#494646" fill-opacity="1"></use><g><use xlink:href="#f5obHtrDi" opacity="1" fill-opacity="0" stroke="#060404" stroke-width="1" stroke-opacity="1"></use></g></g><g><use xlink:href="#d35AJyW8Mv" opacity="1" fill="#0c0808" fill-opacity="1"></use><g><use xlink:href="#d35AJyW8Mv" opacity="1" fill-opacity="0" stroke="#918c8c" stroke-width="2" stroke-opacity="1"></use></g></g><g><g><use xlink:href="#arnsooBDl" opacity="1" fill-opacity="0" stroke="#918c8c" stroke-width="2" stroke-opacity="1"></use></g></g><g><use xlink:href="#a2e8a3B7jg" opacity="1" fill="#0c0808" fill-opacity="1"></use></g><g><g><use xlink:href="#atVKAXvji" opacity="1" fill-opacity="0" stroke="#030202" stroke-width="3" stroke-opacity="1"></use></g></g><g><g><use xlink:href="#bODEcDRSN" opacity="1" fill-opacity="0" stroke="#030202" stroke-width="3" stroke-opacity="1"></use></g></g><g><g><use xlink:href="#ayqU6OkLb" opacity="1" fill-opacity="0" stroke="#030202" stroke-width="3" stroke-opacity="1"></use></g></g><g><use xlink:href="#a27reu2GWY" opacity="1" fill="#522e08" fill-opacity="1"></use><g><use xlink:href="#a27reu2GWY" opacity="1" fill-opacity="0" stroke="#030202" stroke-width="2" stroke-opacity="1"></use></g></g><g><g><use xlink:href="#b4qwTI9Huf" opacity="1" fill-opacity="0" stroke="#fcf4f4" stroke-width="1" stroke-opacity="1"></use></g></g><g><use xlink:href="#bNVfoNCuI" opacity="1" fill="#211f1e" fill-opacity="1"></use><g><use xlink:href="#bNVfoNCuI" opacity="1" fill-opacity="0" stroke="#666161" stroke-width="1" stroke-opacity="1"></use></g></g></g><g><g><use xlink:href="#fXMwEQt6b" opacity="1" fill="#f3f3f3" fill-opacity="1"></use><g><use xlink:href="#fXMwEQt6b" opacity="1" fill-opacity="0" stroke="#000000" stroke-width="1" stroke-opacity="0"></use></g></g><g><use xlink:href="#a39MlubbMZ" opacity="1" fill="#f3f3f3" fill-opacity="1"></use><g><use xlink:href="#a39MlubbMZ" opacity="1" fill-opacity="0" stroke="#000000" stroke-width="1" stroke-opacity="0"></use></g></g><g><use xlink:href="#c1uaPlmAUE" opacity="1" fill="#ee2c28" fill-opacity="1"></use><g><use xlink:href="#c1uaPlmAUE" opacity="1" fill-opacity="0" stroke="#000000" stroke-width="1" stroke-opacity="0"></use></g></g><g><use xlink:href="#c1BlMOmlqd" opacity="1" fill="#ee2c28" fill-opacity="1"></use><g><use xlink:href="#c1BlMOmlqd" opacity="1" fill-opacity="0" stroke="#000000" stroke-width="1" stroke-opacity="0"></use></g></g><g><use xlink:href="#b3mNrSsfIj" opacity="1" fill="#ee2c28" fill-opacity="1"></use><g><use xlink:href="#b3mNrSsfIj" opacity="1" fill-opacity="0" stroke="#000000" stroke-width="1" stroke-opacity="0"></use></g></g><g><use xlink:href="#c7xX1yWFP" opacity="1" fill="#ee2c28" fill-opacity="1"></use><g><use xlink:href="#c7xX1yWFP" opacity="1" fill-opacity="0" stroke="#000000" stroke-width="1" stroke-opacity="0"></use></g></g><g><use xlink:href="#f4GJfVdnon" opacity="1" fill="#ee2c28" fill-opacity="1"></use><g><use xlink:href="#f4GJfVdnon" opacity="1" fill-opacity="0" stroke="#000000" stroke-width="1" stroke-opacity="0"></use></g></g><g><use xlink:href="#bjUsNwGHj" opacity="1" fill="#ee2c28" fill-opacity="1"></use><g><use xlink:href="#bjUsNwGHj" opacity="1" fill-opacity="0" stroke="#000000" stroke-width="1" stroke-opacity="0"></use></g></g><g><use xlink:href="#c1xsqzYDDT" opacity="1" fill="#ee2c28" fill-opacity="1"></use><g><use xlink:href="#c1xsqzYDDT" opacity="1" fill-opacity="0" stroke="#000000" stroke-width="1" stroke-opacity="0"></use></g></g><g><use xlink:href="#c1hqablMyy" opacity="1" fill="#ee2c28" fill-opacity="1"></use><g><use xlink:href="#c1hqablMyy" opacity="1" fill-opacity="0" stroke="#000000" stroke-width="1" stroke-opacity="0"></use></g></g></g></g></g></svg>