<?xml version="1.0" encoding="UTF-8" standalone="no"?>
<!DOCTYPE svg PUBLIC "-//W3C//DTD SVG 1.1//EN" "http://www.w3.org/Graphics/SVG/1.1/DTD/svg11.dtd">
<svg version="1.1" xmlns="http://www.w3.org/2000/svg" xmlns:xlink="http://www.w3.org/1999/xlink" preserveAspectRatio="xMidYMid meet" viewBox="0 0 640 640" width="640" height="640"><defs><path d="M463 310.02C464.08 307.81 455.88 295.36 455.88 295.36C455.88 295.36 458.59 290.36 456.8 286.01C455.01 281.66 446.85 271.4 446.85 271.4C446.85 271.4 443.4 268.73 427.16 276.76C410.93 284.78 362.83 310.49 362.83 310.49C362.83 310.49 358.4 314.97 350.83 305.25C343.25 295.53 303.82 253.01 303.82 253.01C303.82 253.01 308.32 222.22 281.22 204.09C250.19 183.34 211 202.28 203.01 224.94C203.01 224.94 204.52 228.49 201.43 229.92C194.57 233.07 177.03 252.38 176.91 272.14C176.78 291.9 185.1 309.84 196.04 317.84C196.04 317.84 196.06 344.18 219.94 349.16C243.83 354.15 256.38 333.58 256.38 333.58C256.38 333.58 268.85 334.42 276.66 329.31C281.57 333.82 320.86 369.87 325.77 374.38C325.77 374.38 328.8 383.09 341.71 378.43C354.62 373.77 368.08 368 372.54 365.16C377.01 362.32 383.78 361.63 387.74 361.55C391.7 361.47 412.04 359.94 428.56 339.29C435.45 333.43 457.78 320.71 463 310.02Z" id="d2WANebehH"></path><path d="M229.91 297.34C229.91 297.34 236.95 298.55 244.2 309.28C251.46 320.01 245.02 345.99 235.94 347.54C226.86 349.09 253.43 345.81 259.98 324.59C267.23 301.05 272.29 279.44 267.22 272.06C262.14 264.69 259.92 259.3 247.98 258.87C244.37 266.56 231.71 293.49 229.91 297.34Z" id="c1od4mXDgT"></path><path d="M298.14 306.1C321.01 331.33 333.72 345.34 336.26 348.15C336.26 348.15 346.1 349.3 351.62 345.1C357.14 340.91 355.69 338.9 354.22 335.53C352.73 332.16 303.29 285.59 303.29 285.59C303.29 285.59 305.46 288.26 302.07 293.78C301.55 295.42 300.24 299.53 298.14 306.1Z" id="a47Aazheai"></path><path d="M200.69 308.15C198.69 312.95 203.08 321.02 212.11 316.75C221.13 312.48 224.97 296.08 212.41 299.06C210.07 300.88 202.69 303.35 200.69 308.15Z" id="a4HI5EXI1k"></path><path d="M229.13 262.66C234.7 260.51 233.03 248.98 230.18 247C227.34 245.02 224.89 230.11 224.82 226.71C224.74 223.31 204.55 229.85 195.02 242.98C185.5 256.1 184.32 266.33 189.82 261.45C195.33 256.57 200.69 245.58 207.64 242.71C214.59 239.84 220.06 233.61 220.2 239.73C220.34 245.85 226.69 247.75 220.58 256.72C214.47 265.69 215.89 266.34 213.92 272.51C216.96 270.54 223.57 264.82 229.13 262.66Z" id="e4pMnA6e9p"></path><path d="M234.09 202.03C234.09 202.03 225.84 209.68 235.64 208.8C245.45 207.91 260.18 208.28 260.18 208.28C260.18 208.28 261.68 221.6 256.93 219.91C240.67 214.13 223.19 216.54 213.5 222.18C217.62 218.15 222.88 202.94 234.09 202.03Z" id="a56uSzoqbm"></path><path d="M425.5 292.54C419.26 296.07 414.94 290.72 414.94 290.72C414.94 290.72 436.33 275.31 439.26 280.69C436.51 283.06 431.73 289.01 425.5 292.54Z" id="a5d6dVSd1"></path><path d="M440.39 299.71C443.19 299.65 442.58 303.74 435.78 313.41C430.29 321.21 417.08 324 417.08 324C417.08 324 421.43 330.03 421.53 334.79C421.64 339.55 426.03 347.62 407.3 356.86C394.98 362.93 384.28 362.78 384.28 362.78C383.47 360.96 376.97 346.41 376.16 344.59C376.16 344.59 404.79 339.23 412.24 326.83C419.68 314.43 426 314.98 416.79 311.09C421.51 308.81 432.65 299.87 440.39 299.71Z" id="aBOIqu1yf"></path></defs><g><g><g><use xlink:href="#d2WANebehH" opacity="1" fill="#920d0d" fill-opacity="1"></use><g><use xlink:href="#d2WANebehH" opacity="1" fill-opacity="0" stroke="#000000" stroke-width="1" stroke-opacity="0"></use></g></g><g><use xlink:href="#c1od4mXDgT" opacity="1" fill="#b2ad9c" fill-opacity="1"></use><g><use xlink:href="#c1od4mXDgT" opacity="1" fill-opacity="0" stroke="#000000" stroke-width="1" stroke-opacity="0"></use></g></g><g><use xlink:href="#a47Aazheai" opacity="1" fill="#b2ad9c" fill-opacity="1"></use><g><use xlink:href="#a47Aazheai" opacity="1" fill-opacity="0" stroke="#000000" stroke-width="1" stroke-opacity="0"></use></g></g><g><use xlink:href="#a4HI5EXI1k" opacity="1" fill="#fafefb" fill-opacity="1"></use><g><use xlink:href="#a4HI5EXI1k" opacity="1" fill-opacity="0" stroke="#000000" stroke-width="1" stroke-opacity="0"></use></g></g><g><use xlink:href="#e4pMnA6e9p" opacity="1" fill="#231e38" fill-opacity="1"></use><g><use xlink:href="#e4pMnA6e9p" opacity="1" fill-opacity="0" stroke="#000000" stroke-width="1" stroke-opacity="0"></use></g></g><g><use xlink:href="#a56uSzoqbm" opacity="1" fill="#fafefb" fill-opacity="1"></use><g><use xlink:href="#a56uSzoqbm" opacity="1" fill-opacity="0" stroke="#3e0000" stroke-width="1" stroke-opacity="0"></use></g></g><g><use xlink:href="#a5d6dVSd1" opacity="1" fill="#fafefb" fill-opacity="1"></use><g><use xlink:href="#a5d6dVSd1" opacity="1" fill-opacity="0" stroke="#000000" stroke-width="1" stroke-opacity="0"></use></g></g><g><use xlink:href="#aBOIqu1yf" opacity="1" fill="#1b0e2d" fill-opacity="1"></use><g><use xlink:href="#aBOIqu1yf" opacity="1" fill-opacity="0" stroke="#000000" stroke-width="1" stroke-opacity="0"></use></g></g></g></g></svg>