<?xml version="1.0" encoding="UTF-8" standalone="no"?>
<!DOCTYPE svg PUBLIC "-//W3C//DTD SVG 1.1//EN" "http://www.w3.org/Graphics/SVG/1.1/DTD/svg11.dtd">
<svg version="1.1" xmlns="http://www.w3.org/2000/svg" xmlns:xlink="http://www.w3.org/1999/xlink" preserveAspectRatio="xMidYMid meet" viewBox="0 0 640 640" width="640" height="640"><defs><path d="M478.38 271.16C477.57 271.02 449.31 286.09 393.58 316.36L290.58 278.14L338.58 284.91L439.58 264.91C466.24 269.21 479.18 271.29 478.38 271.16Z" id="b1iUxO52uI"></path><path d="" id="e44YRvXEj"></path><path d="" id="aFk2eqoJ8"></path><path d="M417.58 268.03L309.58 255.73L301.58 238.36L290.58 211.36L313.58 224.36L353.58 242.36C373.58 244.36 383.88 245.36 384.49 245.36C385.1 245.36 392.22 244.36 405.83 242.36L425.58 235.83L438.58 242.36L417.58 268.03Z" id="bTAIjMzbv"></path><path d="M454.58 268.03L435.87 253.21L417.58 264.91L310.58 255.73L290.58 214.38L302.58 218.59L279.58 190.17L218.58 171.88L227.58 195.36L255.58 253.21L290.58 278.14" id="a2AS3MBzvY"></path><path d="M409.74 316.36C374.38 323.2 303.66 336.88 197.58 357.39L231.63 297.36L275.89 264.07L309.95 280.7L431.4 271.16" id="a72G5eDuds"></path><path d="M256.08 275.21L270.08 264.91L274.08 229.12L218.58 171.88L256.08 275.21Z" id="c8SFYoSPo"></path><path d="M251.34 266.37C269.61 260.26 278.4 257.78 277.73 258.94C277.05 260.09 288.86 265.91 313.16 276.41L472.83 266.37L420.08 288.27L445.2 333.32L424.9 341.82L257.43 276.41L251.34 266.37Z" id="cUeWzsKWc"></path><path d="" id="a3OcPm0Gcu"></path><path d="M372.58 319.87C371.24 318.22 379.91 322.17 398.58 331.73L362.08 377.09L357.58 370.66L340.58 358.36L325.58 358.36L345.58 331.73C364.91 325.49 373.91 321.53 372.58 319.87Z" id="aDD1CC1UD"></path><path d="M345.58 360.48L358.58 374.25L338.58 400.74L316.58 398.99L308.58 389.37L308.58 380.61L325.58 360.48L345.58 360.48Z" id="bkvSeD6gu"></path><path d="M327.5 369.87L327.57 369.87L327.63 369.88L327.68 369.89L327.74 369.9L327.79 369.92L327.85 369.93L327.9 369.95L327.95 369.97L328 370L328.04 370.02L328.09 370.05L328.13 370.08L328.18 370.1L328.22 370.14L328.26 370.17L328.3 370.2L328.34 370.24L328.37 370.28L328.41 370.32L328.44 370.36L328.48 370.4L328.51 370.44L328.54 370.49L328.58 370.53L328.61 370.58L328.64 370.63L328.67 370.68L328.7 370.73L328.73 370.78L328.76 370.83L328.78 370.89L328.81 370.94L328.84 371L328.87 371.05L328.89 371.11L328.92 371.16L328.95 371.22L328.98 371.28L330.36 374.96L330.79 375.06L331.75 375.3L332.7 375.57L333.62 375.86L334.52 376.17L334.6 376.2L339.26 374.29L339.34 374.26L339.42 374.23L339.49 374.21L339.57 374.18L339.64 374.15L339.72 374.13L339.79 374.11L339.87 374.08L339.94 374.06L340.01 374.04L340.08 374.02L340.15 374L340.22 373.98L340.29 373.96L340.36 373.94L340.43 373.93L340.49 373.92L340.56 373.9L340.63 373.89L340.69 373.88L340.75 373.87L340.82 373.87L340.88 373.86L340.94 373.86L341 373.86L341.06 373.86L341.12 373.86L341.18 373.87L341.24 373.87L341.29 373.88L341.35 373.89L341.4 373.9L341.46 373.92L341.51 373.94L341.56 373.95L341.61 373.98L341.66 374L341.71 374.03L341.76 374.06L341.81 374.09L348.6 378.9L348.64 378.94L348.68 378.97L348.72 379.01L348.76 379.04L348.79 379.08L348.82 379.12L348.84 379.15L348.87 379.19L348.88 379.23L348.9 379.27L348.91 379.32L348.92 379.36L348.93 379.4L348.94 379.44L348.94 379.49L348.94 379.53L348.94 379.58L348.93 379.62L348.92 379.67L348.91 379.71L348.9 379.76L348.89 379.81L348.87 379.86L348.85 379.9L348.83 379.95L348.81 380L348.78 380.05L348.76 380.1L348.73 380.15L348.7 380.2L348.67 380.25L348.63 380.3L348.6 380.35L348.56 380.4L348.52 380.45L348.48 380.5L348.44 380.55L348.4 380.6L348.36 380.66L348.31 380.71L345.62 384.01L345.67 384.08L346.12 384.72L346.53 385.38L346.91 386.05L347.25 386.73L347.38 387.03L352.58 388.02L352.66 388.03L352.74 388.04L352.82 388.06L352.9 388.07L352.98 388.09L353.06 388.11L353.13 388.12L353.21 388.14L353.28 388.16L353.35 388.18L353.42 388.2L353.49 388.22L353.56 388.24L353.63 388.27L353.69 388.29L353.76 388.31L353.82 388.34L353.88 388.36L353.93 388.39L353.99 388.42L354.04 388.44L354.09 388.47L354.14 388.5L354.19 388.53L354.23 388.56L354.28 388.6L354.32 388.63L354.35 388.66L354.39 388.7L354.42 388.73L354.45 388.77L354.47 388.81L354.5 388.85L354.52 388.89L354.54 388.93L354.55 388.97L354.56 389.01L354.57 389.06L354.57 389.1L354.58 389.15L354.58 395.96L354.57 396L354.57 396.05L354.56 396.09L354.55 396.13L354.54 396.18L354.52 396.21L354.5 396.25L354.47 396.29L354.45 396.33L354.42 396.36L354.39 396.4L354.35 396.43L354.32 396.46L354.28 396.49L354.23 396.52L354.19 396.55L354.14 396.58L354.09 396.61L354.04 396.64L353.99 396.66L353.93 396.69L353.88 396.71L353.82 396.74L353.76 396.76L353.69 396.79L353.63 396.81L353.56 396.83L353.49 396.85L353.42 396.87L353.35 396.9L353.28 396.92L353.21 396.94L353.13 396.96L353.06 396.98L352.98 397L352.9 397.01L352.82 397.03L352.74 397.05L352.66 397.07L352.58 397.09L347.38 398.07L347.25 398.38L346.91 399.06L346.53 399.73L346.12 400.38L345.67 401.03L345.62 401.09L348.31 404.39L348.36 404.44L348.4 404.49L348.44 404.54L348.48 404.59L348.52 404.64L348.56 404.69L348.6 404.74L348.63 404.79L348.67 404.84L348.7 404.89L348.73 404.94L348.76 404.99L348.78 405.04L348.81 405.09L348.83 405.14L348.85 405.19L348.87 405.24L348.89 405.28L348.9 405.33L348.91 405.38L348.92 405.42L348.93 405.47L348.94 405.52L348.94 405.56L348.94 405.61L348.94 405.65L348.93 405.69L348.92 405.74L348.91 405.78L348.9 405.82L348.88 405.86L348.87 405.9L348.84 405.94L348.82 405.98L348.79 406.01L348.76 406.05L348.72 406.09L348.68 406.12L348.64 406.16L348.6 406.19L341.81 411L341.76 411.04L341.71 411.07L341.66 411.09L341.61 411.12L341.56 411.14L341.51 411.16L341.46 411.18L341.4 411.19L341.35 411.2L341.29 411.21L341.24 411.22L341.18 411.23L341.12 411.23L341.06 411.23L341 411.23L340.94 411.23L340.88 411.23L340.82 411.23L340.75 411.22L340.69 411.21L340.63 411.2L340.56 411.19L340.49 411.18L340.43 411.16L340.36 411.15L340.29 411.13L340.22 411.11L340.15 411.1L340.08 411.08L340.01 411.06L339.94 411.03L339.87 411.01L339.79 410.99L339.72 410.96L339.64 410.94L339.57 410.91L339.49 410.89L339.42 410.86L339.34 410.83L339.26 410.8L334.62 408.9L334.52 408.93L333.62 409.25L332.7 409.54L331.75 409.81L330.79 410.05L330.36 410.15L328.98 413.83L328.95 413.88L328.92 413.94L328.89 414L328.87 414.06L328.84 414.11L328.81 414.17L328.78 414.22L328.76 414.27L328.73 414.33L328.7 414.38L328.67 414.43L328.64 414.48L328.61 414.53L328.58 414.57L328.54 414.62L328.51 414.66L328.48 414.71L328.44 414.75L328.41 414.79L328.37 414.83L328.34 414.87L328.3 414.9L328.26 414.94L328.22 414.97L328.18 415L328.13 415.03L328.09 415.06L328.04 415.09L328 415.11L327.95 415.13L327.9 415.15L327.85 415.17L327.79 415.19L327.74 415.2L327.68 415.22L327.63 415.23L327.57 415.23L327.5 415.24L327.44 415.24L327.38 415.24L317.78 415.24L317.71 415.24L317.65 415.24L317.58 415.23L317.52 415.23L317.46 415.22L317.41 415.2L317.35 415.19L317.29 415.17L317.24 415.15L317.19 415.13L317.14 415.11L317.09 415.09L317.04 415.06L316.99 415.03L316.95 415L316.9 414.97L316.86 414.94L316.82 414.9L316.78 414.87L316.74 414.83L316.7 414.79L316.67 414.75L316.63 414.71L316.6 414.66L316.56 414.62L316.53 414.57L316.5 414.53L316.47 414.48L316.44 414.43L316.41 414.38L316.38 414.33L316.36 414.27L316.33 414.22L316.31 414.17L316.28 414.11L316.26 414.06L316.24 414L316.22 413.94L316.2 413.88L316.18 413.83L314.79 410.15L314.36 410.05L313.4 409.81L312.46 409.54L311.53 409.25L310.63 408.93L310.52 408.89L305.89 410.79L305.82 410.82L305.74 410.85L305.67 410.88L305.6 410.91L305.53 410.94L305.46 410.97L305.39 410.99L305.31 411.02L305.24 411.04L305.17 411.06L305.1 411.09L305.03 411.11L304.96 411.12L304.89 411.14L304.82 411.16L304.76 411.17L304.69 411.19L304.62 411.2L304.55 411.21L304.49 411.22L304.42 411.22L304.36 411.23L304.29 411.23L304.23 411.23L304.17 411.23L304.11 411.23L304.05 411.23L303.99 411.22L303.93 411.22L303.87 411.21L303.81 411.19L303.75 411.18L303.7 411.17L303.64 411.15L303.59 411.13L303.54 411.1L303.49 411.08L303.44 411.05L303.39 411.02L303.34 410.99L296.55 406.18L296.51 406.14L296.47 406.11L296.43 406.08L296.4 406.04L296.37 406L296.34 405.97L296.31 405.93L296.29 405.89L296.28 405.85L296.26 405.81L296.25 405.77L296.24 405.73L296.23 405.69L296.23 405.65L296.23 405.61L296.23 405.56L296.24 405.52L296.24 405.47L296.25 405.43L296.26 405.38L296.28 405.34L296.29 405.29L296.31 405.24L296.33 405.2L296.35 405.15L296.37 405.1L296.4 405.05L296.43 405L296.45 404.95L296.48 404.9L296.51 404.85L296.55 404.8L296.58 404.75L296.61 404.7L296.65 404.64L296.68 404.59L296.72 404.54L296.76 404.48L296.8 404.43L296.84 404.37L299.52 401.08L299.48 401.03L299.03 400.38L298.62 399.73L298.24 399.06L297.9 398.38L297.77 398.07L292.58 397.09L292.49 397.07L292.41 397.05L292.33 397.03L292.25 397.01L292.17 397L292.1 396.98L292.02 396.96L291.94 396.94L291.87 396.92L291.8 396.9L291.73 396.87L291.66 396.85L291.59 396.83L291.52 396.81L291.46 396.79L291.39 396.76L291.33 396.74L291.27 396.71L291.22 396.69L291.16 396.66L291.11 396.64L291.06 396.61L291.01 396.58L290.96 396.55L290.92 396.52L290.88 396.49L290.84 396.46L290.8 396.43L290.76 396.4L290.73 396.36L290.7 396.33L290.68 396.29L290.65 396.25L290.63 396.21L290.62 396.18L290.6 396.13L290.59 396.09L290.58 396.05L290.58 396L290.58 395.96L290.58 389.15L290.58 389.1L290.58 389.06L290.59 389.01L290.6 388.97L290.62 388.93L290.63 388.89L290.65 388.85L290.68 388.81L290.7 388.77L290.73 388.73L290.76 388.7L290.8 388.66L290.84 388.63L290.88 388.6L290.92 388.56L290.96 388.53L291.01 388.5L291.06 388.47L291.11 388.44L291.16 388.42L291.22 388.39L291.27 388.36L291.33 388.34L291.39 388.31L291.46 388.29L291.52 388.27L291.59 388.24L291.66 388.22L291.73 388.2L291.8 388.18L291.87 388.16L291.94 388.14L292.02 388.12L292.1 388.11L292.17 388.09L292.25 388.07L292.33 388.06L292.41 388.04L292.49 388.03L292.58 388.02L297.77 387.03L297.9 386.73L298.24 386.05L298.62 385.38L299.03 384.72L299.48 384.08L299.53 384.02L296.84 380.72L296.8 380.67L296.76 380.61L296.72 380.56L296.68 380.5L296.65 380.45L296.61 380.4L296.58 380.35L296.55 380.29L296.51 380.24L296.48 380.19L296.45 380.14L296.43 380.09L296.4 380.04L296.37 379.99L296.35 379.94L296.33 379.9L296.31 379.85L296.29 379.8L296.28 379.75L296.26 379.71L296.25 379.66L296.24 379.62L296.24 379.57L296.23 379.53L296.23 379.49L296.23 379.45L296.23 379.4L296.24 379.36L296.25 379.32L296.26 379.28L296.28 379.24L296.29 379.2L296.31 379.16L296.34 379.13L296.37 379.09L296.4 379.05L296.43 379.02L296.47 378.98L296.51 378.95L296.55 378.92L303.34 374.1L303.39 374.07L303.44 374.04L303.49 374.01L303.54 373.99L303.59 373.97L303.64 373.95L303.7 373.93L303.75 373.91L303.81 373.9L303.87 373.89L303.93 373.88L303.99 373.87L304.05 373.86L304.11 373.86L304.17 373.86L304.23 373.86L304.29 373.86L304.36 373.86L304.42 373.87L304.49 373.88L304.55 373.89L304.62 373.9L304.69 373.91L304.76 373.92L304.82 373.94L304.89 373.95L304.96 373.97L305.03 373.99L305.1 374.01L305.17 374.03L305.24 374.05L305.31 374.08L305.39 374.1L305.46 374.13L305.53 374.15L305.6 374.18L305.67 374.21L305.74 374.24L305.82 374.27L305.89 374.3L310.54 376.21L310.63 376.17L311.53 375.86L312.46 375.57L313.4 375.3L314.36 375.06L314.79 374.96L316.18 371.28L316.2 371.22L316.22 371.16L316.24 371.11L316.26 371.05L316.28 371L316.31 370.94L316.33 370.89L316.36 370.83L316.38 370.78L316.41 370.73L316.44 370.68L316.47 370.63L316.5 370.58L316.53 370.53L316.56 370.49L316.6 370.44L316.63 370.4L316.67 370.36L316.7 370.32L316.74 370.28L316.78 370.24L316.82 370.2L316.86 370.17L316.9 370.14L316.95 370.1L316.99 370.08L317.04 370.05L317.09 370.02L317.14 370L317.19 369.97L317.24 369.95L317.29 369.93L317.35 369.92L317.41 369.9L317.46 369.89L317.52 369.88L317.58 369.87L317.65 369.87L317.71 369.86L317.78 369.86L327.38 369.86L327.44 369.86L327.5 369.87ZM321.43 382.66L320.86 382.7L320.3 382.76L319.75 382.83L319.21 382.91L318.68 383.02L318.15 383.13L317.63 383.26L317.13 383.41L316.63 383.56L316.14 383.73L315.67 383.92L315.2 384.11L314.75 384.32L314.31 384.54L313.88 384.77L313.46 385.02L313.06 385.27L312.68 385.53L312.3 385.81L311.95 386.09L311.6 386.39L311.28 386.69L310.97 387L310.67 387.32L310.4 387.65L310.14 387.99L309.9 388.34L309.68 388.69L309.47 389.05L309.29 389.42L309.13 389.79L308.98 390.17L308.86 390.55L308.76 390.94L308.68 391.34L308.62 391.74L308.59 392.14L308.58 392.55L308.59 392.96L308.62 393.37L308.68 393.77L308.76 394.16L308.86 394.55L308.98 394.94L309.13 395.32L309.29 395.69L309.47 396.06L309.68 396.42L309.9 396.77L310.14 397.12L310.4 397.45L310.67 397.78L310.97 398.1L311.28 398.42L311.6 398.72L311.95 399.01L312.3 399.3L312.68 399.57L313.06 399.84L313.46 400.09L313.88 400.33L314.31 400.57L314.75 400.79L315.2 400.99L315.67 401.19L316.14 401.37L316.63 401.54L317.13 401.7L317.63 401.84L318.15 401.97L318.68 402.09L319.21 402.19L319.75 402.28L320.3 402.35L320.86 402.41L321.43 402.45L322 402.47L322.58 402.48L323.15 402.47L323.72 402.45L324.29 402.41L324.85 402.35L325.4 402.28L325.94 402.19L326.47 402.09L327 401.97L327.52 401.84L328.03 401.7L328.52 401.54L329.01 401.37L329.49 401.19L329.95 400.99L330.4 400.79L330.84 400.57L331.27 400.33L331.69 400.09L332.09 399.84L332.48 399.57L332.85 399.3L333.21 399.01L333.55 398.72L333.87 398.42L334.18 398.1L334.48 397.78L334.75 397.45L335.01 397.12L335.25 396.77L335.48 396.42L335.68 396.06L335.86 395.69L336.03 395.32L336.17 394.94L336.29 394.55L336.39 394.16L336.47 393.77L336.53 393.37L336.56 392.96L336.58 392.55L336.56 392.14L336.53 391.74L336.47 391.34L336.39 390.94L336.29 390.55L336.17 390.17L336.03 389.79L335.86 389.42L335.68 389.05L335.48 388.69L335.25 388.34L335.01 387.99L334.75 387.65L334.48 387.32L334.18 387L333.87 386.69L333.55 386.39L333.21 386.09L332.85 385.81L332.48 385.53L332.09 385.27L331.69 385.02L331.27 384.77L330.84 384.54L330.4 384.32L329.95 384.11L329.49 383.92L329.01 383.73L328.52 383.56L328.03 383.41L327.52 383.26L327 383.13L326.47 383.02L325.94 382.91L325.4 382.83L324.85 382.76L324.29 382.7L323.72 382.66L323.15 382.63L322.58 382.63L322 382.63L321.43 382.66Z" id="c2KmOb43xd"></path><path d="M333.58 393.05C333.58 397.3 327.97 400.74 321.08 400.74C314.18 400.74 308.58 397.3 308.58 393.05C308.58 388.81 314.18 385.36 321.08 385.36C327.97 385.36 333.58 388.81 333.58 393.05Z" id="a1sdr3Eybf"></path><path d="" id="a3sQRdf0G"></path><path d="" id="a3ghj7zOJY"></path><path d="M426.58 320.91C430.58 340.54 432.18 350.02 431.4 349.34C430.61 348.65 422.09 353.66 405.83 364.36L398.58 339.86C379.24 331.53 370.24 327.25 371.58 327.03C372.91 326.81 372.91 322.25 371.58 313.36L414.58 320.91L426.58 320.91Z" id="a2A94A2H5"></path></defs><g><g><g><g><filter id="shadow16036249" x="281.58" y="255.91" width="206.83" height="70.45" filterUnits="userSpaceOnUse" primitiveUnits="userSpaceOnUse"><feFlood></feFlood><feComposite in2="SourceAlpha" operator="in"></feComposite><feGaussianBlur stdDeviation="1"></feGaussianBlur><feOffset dx="1" dy="1" result="afterOffset"></feOffset><feFlood flood-color="#000000" flood-opacity="0.5"></feFlood><feComposite in2="afterOffset" operator="in"></feComposite><feMorphology operator="dilate" radius="1"></feMorphology><feComposite in2="SourceAlpha" operator="out"></feComposite></filter><path d="M478.38 271.16C477.57 271.02 449.31 286.09 393.58 316.36L290.58 278.14L338.58 284.91L439.58 264.91C466.24 269.21 479.18 271.29 478.38 271.16Z" id="bfnH8Jbho" fill="white" fill-opacity="1" filter="url(#shadow16036249)"></path></g><use xlink:href="#b1iUxO52uI" opacity="1" fill="#170a0a" fill-opacity="1"></use><g><use xlink:href="#b1iUxO52uI" opacity="1" fill-opacity="0" stroke="#968989" stroke-width="4" stroke-opacity="1"></use></g><g><filter id="shadow14373717" x="281.58" y="255.91" width="206.83" height="70.45" filterUnits="userSpaceOnUse" primitiveUnits="userSpaceOnUse"><feFlood></feFlood><feComposite in2="SourceAlpha" operator="out"></feComposite><feGaussianBlur stdDeviation="1"></feGaussianBlur><feOffset dx="1" dy="1" result="afterOffset"></feOffset><feFlood flood-color="#ffffff" flood-opacity="0.8"></feFlood><feComposite in2="afterOffset" operator="in"></feComposite><feMorphology operator="dilate" radius="1"></feMorphology><feComposite in2="SourceAlpha" operator="in"></feComposite></filter><path d="M478.38 271.16C477.57 271.02 449.31 286.09 393.58 316.36L290.58 278.14L338.58 284.91L439.58 264.91C466.24 269.21 479.18 271.29 478.38 271.16Z" id="bZCDayg3y" fill="white" fill-opacity="1" filter="url(#shadow14373717)"></path></g></g><g><g><filter id="shadow3350475" x="432.83" y="349.36" width="19" height="19" filterUnits="userSpaceOnUse" primitiveUnits="userSpaceOnUse"><feFlood></feFlood><feComposite in2="SourceAlpha" operator="in"></feComposite><feGaussianBlur stdDeviation="1"></feGaussianBlur><feOffset dx="1" dy="1" result="afterOffset"></feOffset><feFlood flood-color="#000000" flood-opacity="0.5"></feFlood><feComposite in2="afterOffset" operator="in"></feComposite><feMorphology operator="dilate" radius="1"></feMorphology><feComposite in2="SourceAlpha" operator="out"></feComposite></filter><path d="" id="eZEqBlfQL" fill="none" stroke="white" filter="url(#shadow3350475)"></path></g><g><use xlink:href="#e44YRvXEj" opacity="1" fill-opacity="0" stroke="#968989" stroke-width="4" stroke-opacity="1"></use></g><g><filter id="shadow14803405" x="432.83" y="349.36" width="19" height="19" filterUnits="userSpaceOnUse" primitiveUnits="userSpaceOnUse"><feFlood></feFlood><feComposite in2="SourceAlpha" operator="out"></feComposite><feGaussianBlur stdDeviation="1"></feGaussianBlur><feOffset dx="1" dy="1" result="afterOffset"></feOffset><feFlood flood-color="#ffffff" flood-opacity="0.8"></feFlood><feComposite in2="afterOffset" operator="in"></feComposite><feMorphology operator="dilate" radius="1"></feMorphology><feComposite in2="SourceAlpha" operator="in"></feComposite></filter><path d="" id="c2dE2xTu6a" fill="none" stroke="white" filter="url(#shadow14803405)"></path></g></g><g><g><filter id="shadow2722849" x="426.87" y="233.36" width="19" height="19" filterUnits="userSpaceOnUse" primitiveUnits="userSpaceOnUse"><feFlood></feFlood><feComposite in2="SourceAlpha" operator="in"></feComposite><feGaussianBlur stdDeviation="1"></feGaussianBlur><feOffset dx="1" dy="1" result="afterOffset"></feOffset><feFlood flood-color="#000000" flood-opacity="0.5"></feFlood><feComposite in2="afterOffset" operator="in"></feComposite><feMorphology operator="dilate" radius="1"></feMorphology><feComposite in2="SourceAlpha" operator="out"></feComposite></filter><path d="" id="alzIUEnyN" fill="none" stroke="white" filter="url(#shadow2722849)"></path></g><g><use xlink:href="#aFk2eqoJ8" opacity="1" fill-opacity="0" stroke="#968989" stroke-width="4" stroke-opacity="1"></use></g><g><filter id="shadow708797" x="426.87" y="233.36" width="19" height="19" filterUnits="userSpaceOnUse" primitiveUnits="userSpaceOnUse"><feFlood></feFlood><feComposite in2="SourceAlpha" operator="out"></feComposite><feGaussianBlur stdDeviation="1"></feGaussianBlur><feOffset dx="1" dy="1" result="afterOffset"></feOffset><feFlood flood-color="#ffffff" flood-opacity="0.8"></feFlood><feComposite in2="afterOffset" operator="in"></feComposite><feMorphology operator="dilate" radius="1"></feMorphology><feComposite in2="SourceAlpha" operator="in"></feComposite></filter><path d="" id="bY0uW0rdM" fill="none" stroke="white" filter="url(#shadow708797)"></path></g></g><g><g><filter id="shadow7813681" x="281.58" y="202.36" width="167" height="75.67" filterUnits="userSpaceOnUse" primitiveUnits="userSpaceOnUse"><feFlood></feFlood><feComposite in2="SourceAlpha" operator="in"></feComposite><feGaussianBlur stdDeviation="1"></feGaussianBlur><feOffset dx="1" dy="1" result="afterOffset"></feOffset><feFlood flood-color="#000000" flood-opacity="0.5"></feFlood><feComposite in2="afterOffset" operator="in"></feComposite><feMorphology operator="dilate" radius="1"></feMorphology><feComposite in2="SourceAlpha" operator="out"></feComposite></filter><path d="M417.58 268.03L309.58 255.73L301.58 238.36L290.58 211.36L313.58 224.36L353.58 242.36C373.58 244.36 383.88 245.36 384.49 245.36C385.1 245.36 392.22 244.36 405.83 242.36L425.58 235.83L438.58 242.36L417.58 268.03Z" id="a2PdmRl1g8" fill="white" fill-opacity="1" filter="url(#shadow7813681)"></path></g><use xlink:href="#bTAIjMzbv" opacity="1" fill="#040306" fill-opacity="1"></use><g><use xlink:href="#bTAIjMzbv" opacity="1" fill-opacity="0" stroke="#968989" stroke-width="4" stroke-opacity="1"></use></g><g><filter id="shadow4203085" x="281.58" y="202.36" width="167" height="75.67" filterUnits="userSpaceOnUse" primitiveUnits="userSpaceOnUse"><feFlood></feFlood><feComposite in2="SourceAlpha" operator="out"></feComposite><feGaussianBlur stdDeviation="1"></feGaussianBlur><feOffset dx="1" dy="1" result="afterOffset"></feOffset><feFlood flood-color="#ffffff" flood-opacity="0.8"></feFlood><feComposite in2="afterOffset" operator="in"></feComposite><feMorphology operator="dilate" radius="1"></feMorphology><feComposite in2="SourceAlpha" operator="in"></feComposite></filter><path d="M417.58 268.03L309.58 255.73L301.58 238.36L290.58 211.36L313.58 224.36L353.58 242.36C373.58 244.36 383.88 245.36 384.49 245.36C385.1 245.36 392.22 244.36 405.83 242.36L425.58 235.83L438.58 242.36L417.58 268.03Z" id="a77o7AqXa" fill="white" fill-opacity="1" filter="url(#shadow4203085)"></path></g></g><g><g><filter id="shadow14881511" x="209.58" y="162.88" width="255" height="125.25" filterUnits="userSpaceOnUse" primitiveUnits="userSpaceOnUse"><feFlood></feFlood><feComposite in2="SourceAlpha" operator="in"></feComposite><feGaussianBlur stdDeviation="1"></feGaussianBlur><feOffset dx="1" dy="1" result="afterOffset"></feOffset><feFlood flood-color="#000000" flood-opacity="0.5"></feFlood><feComposite in2="afterOffset" operator="in"></feComposite><feMorphology operator="dilate" radius="1"></feMorphology><feComposite in2="SourceAlpha" operator="out"></feComposite></filter><path d="M454.58 268.03L435.87 253.21L417.58 264.91L310.58 255.73L290.58 214.38L302.58 218.59L279.58 190.17L218.58 171.88L227.58 195.36L255.58 253.21L290.58 278.14" id="e2veYNMTS3" fill="none" stroke="white" filter="url(#shadow14881511)"></path></g><use xlink:href="#a2AS3MBzvY" opacity="1" fill="#5d1f16" fill-opacity="1"></use><g><use xlink:href="#a2AS3MBzvY" opacity="1" fill-opacity="0" stroke="#968989" stroke-width="4" stroke-opacity="1"></use></g><g><filter id="shadow5136067" x="209.58" y="162.88" width="255" height="125.25" filterUnits="userSpaceOnUse" primitiveUnits="userSpaceOnUse"><feFlood></feFlood><feComposite in2="SourceAlpha" operator="out"></feComposite><feGaussianBlur stdDeviation="1"></feGaussianBlur><feOffset dx="1" dy="1" result="afterOffset"></feOffset><feFlood flood-color="#ffffff" flood-opacity="0.8"></feFlood><feComposite in2="afterOffset" operator="in"></feComposite><feMorphology operator="dilate" radius="1"></feMorphology><feComposite in2="SourceAlpha" operator="in"></feComposite></filter><path d="M454.58 268.03L435.87 253.21L417.58 264.91L310.58 255.73L290.58 214.38L302.58 218.59L279.58 190.17L218.58 171.88L227.58 195.36L255.58 253.21L290.58 278.14" id="c2kR9rKtHA" fill="none" stroke="white" filter="url(#shadow5136067)"></path></g></g><g><g><filter id="shadow473974" x="188.58" y="255.07" width="252.82" height="112.32" filterUnits="userSpaceOnUse" primitiveUnits="userSpaceOnUse"><feFlood></feFlood><feComposite in2="SourceAlpha" operator="in"></feComposite><feGaussianBlur stdDeviation="1"></feGaussianBlur><feOffset dx="1" dy="1" result="afterOffset"></feOffset><feFlood flood-color="#000000" flood-opacity="0.5"></feFlood><feComposite in2="afterOffset" operator="in"></feComposite><feMorphology operator="dilate" radius="1"></feMorphology><feComposite in2="SourceAlpha" operator="out"></feComposite></filter><path d="M409.74 316.36C374.38 323.2 303.66 336.88 197.58 357.39L231.63 297.36L275.89 264.07L309.95 280.7L431.4 271.16" id="a3l0iJkK4" fill="none" stroke="white" filter="url(#shadow473974)"></path></g><use xlink:href="#a72G5eDuds" opacity="1" fill="#020003" fill-opacity="0.86"></use><g><use xlink:href="#a72G5eDuds" opacity="1" fill-opacity="0" stroke="#968989" stroke-width="4" stroke-opacity="1"></use></g><g><filter id="shadow9974603" x="188.58" y="255.07" width="252.82" height="112.32" filterUnits="userSpaceOnUse" primitiveUnits="userSpaceOnUse"><feFlood></feFlood><feComposite in2="SourceAlpha" operator="out"></feComposite><feGaussianBlur stdDeviation="1"></feGaussianBlur><feOffset dx="1" dy="1" result="afterOffset"></feOffset><feFlood flood-color="#ffffff" flood-opacity="0.8"></feFlood><feComposite in2="afterOffset" operator="in"></feComposite><feMorphology operator="dilate" radius="1"></feMorphology><feComposite in2="SourceAlpha" operator="in"></feComposite></filter><path d="M409.74 316.36C374.38 323.2 303.66 336.88 197.58 357.39L231.63 297.36L275.89 264.07L309.95 280.7L431.4 271.16" id="a12cf05VNy" fill="none" stroke="white" filter="url(#shadow9974603)"></path></g></g><g><g><filter id="shadow11495050" x="209.58" y="162.88" width="74.5" height="122.33" filterUnits="userSpaceOnUse" primitiveUnits="userSpaceOnUse"><feFlood></feFlood><feComposite in2="SourceAlpha" operator="in"></feComposite><feGaussianBlur stdDeviation="1"></feGaussianBlur><feOffset dx="1" dy="1" result="afterOffset"></feOffset><feFlood flood-color="#000000" flood-opacity="0.5"></feFlood><feComposite in2="afterOffset" operator="in"></feComposite><feMorphology operator="dilate" radius="1"></feMorphology><feComposite in2="SourceAlpha" operator="out"></feComposite></filter><path d="M256.08 275.21L270.08 264.91L274.08 229.12L218.58 171.88L256.08 275.21Z" id="b17m3u5hA3" fill="white" fill-opacity="1" filter="url(#shadow11495050)"></path></g><use xlink:href="#c8SFYoSPo" opacity="1" fill="#030008" fill-opacity="1"></use><g><use xlink:href="#c8SFYoSPo" opacity="1" fill-opacity="0" stroke="#968989" stroke-width="0" stroke-opacity="1"></use></g><g><filter id="shadow8173979" x="209.58" y="162.88" width="74.5" height="122.33" filterUnits="userSpaceOnUse" primitiveUnits="userSpaceOnUse"><feFlood></feFlood><feComposite in2="SourceAlpha" operator="out"></feComposite><feGaussianBlur stdDeviation="1"></feGaussianBlur><feOffset dx="1" dy="1" result="afterOffset"></feOffset><feFlood flood-color="#ffffff" flood-opacity="0.8"></feFlood><feComposite in2="afterOffset" operator="in"></feComposite><feMorphology operator="dilate" radius="1"></feMorphology><feComposite in2="SourceAlpha" operator="in"></feComposite></filter><path d="M256.08 275.21L270.08 264.91L274.08 229.12L218.58 171.88L256.08 275.21Z" id="b9frvmLKb" fill="white" fill-opacity="1" filter="url(#shadow8173979)"></path></g></g><g><g><filter id="shadow15739988" x="242.34" y="249.66" width="240.49" height="102.16" filterUnits="userSpaceOnUse" primitiveUnits="userSpaceOnUse"><feFlood></feFlood><feComposite in2="SourceAlpha" operator="in"></feComposite><feGaussianBlur stdDeviation="1"></feGaussianBlur><feOffset dx="1" dy="1" result="afterOffset"></feOffset><feFlood flood-color="#000000" flood-opacity="0.5"></feFlood><feComposite in2="afterOffset" operator="in"></feComposite><feMorphology operator="dilate" radius="1"></feMorphology><feComposite in2="SourceAlpha" operator="out"></feComposite></filter><path d="M251.34 266.37C269.61 260.26 278.4 257.78 277.73 258.94C277.05 260.09 288.86 265.91 313.16 276.41L472.83 266.37L420.08 288.27L445.2 333.32L424.9 341.82L257.43 276.41L251.34 266.37Z" id="a1lLdlzmR0" fill="white" fill-opacity="1" filter="url(#shadow15739988)"></path></g><use xlink:href="#cUeWzsKWc" opacity="1" fill="#411409" fill-opacity="1"></use><g><use xlink:href="#cUeWzsKWc" opacity="1" fill-opacity="0" stroke="#968989" stroke-width="3" stroke-opacity="1"></use></g><g><filter id="shadow2439183" x="242.34" y="249.66" width="240.49" height="102.16" filterUnits="userSpaceOnUse" primitiveUnits="userSpaceOnUse"><feFlood></feFlood><feComposite in2="SourceAlpha" operator="out"></feComposite><feGaussianBlur stdDeviation="1"></feGaussianBlur><feOffset dx="1" dy="1" result="afterOffset"></feOffset><feFlood flood-color="#ffffff" flood-opacity="0.8"></feFlood><feComposite in2="afterOffset" operator="in"></feComposite><feMorphology operator="dilate" radius="1"></feMorphology><feComposite in2="SourceAlpha" operator="in"></feComposite></filter><path d="M251.34 266.37C269.61 260.26 278.4 257.78 277.73 258.94C277.05 260.09 288.86 265.91 313.16 276.41L472.83 266.37L420.08 288.27L445.2 333.32L424.9 341.82L257.43 276.41L251.34 266.37Z" id="b1e1gfpX4V" fill="white" fill-opacity="1" filter="url(#shadow2439183)"></path></g></g><g><g><filter id="shadow2222491" x="336.58" y="322.73" width="19" height="19" filterUnits="userSpaceOnUse" primitiveUnits="userSpaceOnUse"><feFlood></feFlood><feComposite in2="SourceAlpha" operator="in"></feComposite><feGaussianBlur stdDeviation="1"></feGaussianBlur><feOffset dx="1" dy="1" result="afterOffset"></feOffset><feFlood flood-color="#000000" flood-opacity="0.5"></feFlood><feComposite in2="afterOffset" operator="in"></feComposite><feMorphology operator="dilate" radius="1"></feMorphology><feComposite in2="SourceAlpha" operator="out"></feComposite></filter><path d="" id="e4srMcfrDt" fill="none" stroke="white" filter="url(#shadow2222491)"></path></g><g><use xlink:href="#a3OcPm0Gcu" opacity="1" fill-opacity="0" stroke="#968989" stroke-width="3" stroke-opacity="1"></use></g><g><filter id="shadow3429137" x="336.58" y="322.73" width="19" height="19" filterUnits="userSpaceOnUse" primitiveUnits="userSpaceOnUse"><feFlood></feFlood><feComposite in2="SourceAlpha" operator="out"></feComposite><feGaussianBlur stdDeviation="1"></feGaussianBlur><feOffset dx="1" dy="1" result="afterOffset"></feOffset><feFlood flood-color="#ffffff" flood-opacity="0.8"></feFlood><feComposite in2="afterOffset" operator="in"></feComposite><feMorphology operator="dilate" radius="1"></feMorphology><feComposite in2="SourceAlpha" operator="in"></feComposite></filter><path d="" id="ceIC5M8Fc" fill="none" stroke="white" filter="url(#shadow3429137)"></path></g></g><g><g><filter id="shadow8306012" x="316.58" y="310.51" width="92" height="76.58" filterUnits="userSpaceOnUse" primitiveUnits="userSpaceOnUse"><feFlood></feFlood><feComposite in2="SourceAlpha" operator="in"></feComposite><feGaussianBlur stdDeviation="1"></feGaussianBlur><feOffset dx="1" dy="1" result="afterOffset"></feOffset><feFlood flood-color="#000000" flood-opacity="0.5"></feFlood><feComposite in2="afterOffset" operator="in"></feComposite><feMorphology operator="dilate" radius="1"></feMorphology><feComposite in2="SourceAlpha" operator="out"></feComposite></filter><path d="M372.58 319.87C371.24 318.22 379.91 322.17 398.58 331.73L362.08 377.09L357.58 370.66L340.58 358.36L325.58 358.36L345.58 331.73C364.91 325.49 373.91 321.53 372.58 319.87Z" id="b2po584iK" fill="white" fill-opacity="1" filter="url(#shadow8306012)"></path></g><use xlink:href="#aDD1CC1UD" opacity="1" fill="#3c386c" fill-opacity="0.96"></use><g><use xlink:href="#aDD1CC1UD" opacity="1" fill-opacity="0" stroke="#968989" stroke-width="3" stroke-opacity="1"></use></g><g><filter id="shadow15624114" x="316.58" y="310.51" width="92" height="76.58" filterUnits="userSpaceOnUse" primitiveUnits="userSpaceOnUse"><feFlood></feFlood><feComposite in2="SourceAlpha" operator="out"></feComposite><feGaussianBlur stdDeviation="1"></feGaussianBlur><feOffset dx="1" dy="1" result="afterOffset"></feOffset><feFlood flood-color="#ffffff" flood-opacity="0.8"></feFlood><feComposite in2="afterOffset" operator="in"></feComposite><feMorphology operator="dilate" radius="1"></feMorphology><feComposite in2="SourceAlpha" operator="in"></feComposite></filter><path d="M372.58 319.87C371.24 318.22 379.91 322.17 398.58 331.73L362.08 377.09L357.58 370.66L340.58 358.36L325.58 358.36L345.58 331.73C364.91 325.49 373.91 321.53 372.58 319.87Z" id="h2Rfm4XqFv" fill="white" fill-opacity="1" filter="url(#shadow15624114)"></path></g></g><g><g><filter id="shadow510395" x="299.58" y="351.48" width="69" height="59.26" filterUnits="userSpaceOnUse" primitiveUnits="userSpaceOnUse"><feFlood></feFlood><feComposite in2="SourceAlpha" operator="in"></feComposite><feGaussianBlur stdDeviation="1"></feGaussianBlur><feOffset dx="1" dy="1" result="afterOffset"></feOffset><feFlood flood-color="#000000" flood-opacity="0.5"></feFlood><feComposite in2="afterOffset" operator="in"></feComposite><feMorphology operator="dilate" radius="1"></feMorphology><feComposite in2="SourceAlpha" operator="out"></feComposite></filter><path d="M345.58 360.48L358.58 374.25L338.58 400.74L316.58 398.99L308.58 389.37L308.58 380.61L325.58 360.48L345.58 360.48Z" id="b2R0pKYe" fill="white" fill-opacity="1" filter="url(#shadow510395)"></path></g><use xlink:href="#bkvSeD6gu" opacity="1" fill="#cfcec4" fill-opacity="1"></use><g><use xlink:href="#bkvSeD6gu" opacity="1" fill-opacity="0" stroke="#968989" stroke-width="3" stroke-opacity="1"></use></g><g><filter id="shadow11779166" x="299.58" y="351.48" width="69" height="59.26" filterUnits="userSpaceOnUse" primitiveUnits="userSpaceOnUse"><feFlood></feFlood><feComposite in2="SourceAlpha" operator="out"></feComposite><feGaussianBlur stdDeviation="1"></feGaussianBlur><feOffset dx="1" dy="1" result="afterOffset"></feOffset><feFlood flood-color="#ffffff" flood-opacity="0.8"></feFlood><feComposite in2="afterOffset" operator="in"></feComposite><feMorphology operator="dilate" radius="1"></feMorphology><feComposite in2="SourceAlpha" operator="in"></feComposite></filter><path d="M345.58 360.48L358.58 374.25L338.58 400.74L316.58 398.99L308.58 389.37L308.58 380.61L325.58 360.48L345.58 360.48Z" id="cberka57l" fill="white" fill-opacity="1" filter="url(#shadow11779166)"></path></g></g><g><g><filter id="shadow6971286" x="281.58" y="360.86" width="83" height="64.38" filterUnits="userSpaceOnUse" primitiveUnits="userSpaceOnUse"><feFlood></feFlood><feComposite in2="SourceAlpha" operator="in"></feComposite><feGaussianBlur stdDeviation="1"></feGaussianBlur><feOffset dx="1" dy="1" result="afterOffset"></feOffset><feFlood flood-color="#000000" flood-opacity="0.5"></feFlood><feComposite in2="afterOffset" operator="in"></feComposite><feMorphology operator="dilate" radius="1"></feMorphology><feComposite in2="SourceAlpha" operator="out"></feComposite></filter><path d="M327.5 369.87L327.57 369.87L327.63 369.88L327.68 369.89L327.74 369.9L327.79 369.92L327.85 369.93L327.9 369.95L327.95 369.97L328 370L328.04 370.02L328.09 370.05L328.13 370.08L328.18 370.1L328.22 370.14L328.26 370.17L328.3 370.2L328.34 370.24L328.37 370.28L328.41 370.32L328.44 370.36L328.48 370.4L328.51 370.44L328.54 370.49L328.58 370.53L328.61 370.58L328.64 370.63L328.67 370.68L328.7 370.73L328.73 370.78L328.76 370.83L328.78 370.89L328.81 370.94L328.84 371L328.87 371.05L328.89 371.11L328.92 371.16L328.95 371.22L328.98 371.28L330.36 374.96L330.79 375.06L331.75 375.3L332.7 375.57L333.62 375.86L334.52 376.17L334.6 376.2L339.26 374.29L339.34 374.26L339.42 374.23L339.49 374.21L339.57 374.18L339.64 374.15L339.72 374.13L339.79 374.11L339.87 374.08L339.94 374.06L340.01 374.04L340.08 374.02L340.15 374L340.22 373.98L340.29 373.96L340.36 373.94L340.43 373.93L340.49 373.92L340.56 373.9L340.63 373.89L340.69 373.88L340.75 373.87L340.82 373.87L340.88 373.86L340.94 373.86L341 373.86L341.06 373.86L341.12 373.86L341.18 373.87L341.24 373.87L341.29 373.88L341.35 373.89L341.4 373.9L341.46 373.92L341.51 373.94L341.56 373.95L341.61 373.98L341.66 374L341.71 374.03L341.76 374.06L341.81 374.09L348.6 378.9L348.64 378.94L348.68 378.97L348.72 379.01L348.76 379.04L348.79 379.08L348.82 379.12L348.84 379.15L348.87 379.19L348.88 379.23L348.9 379.27L348.91 379.32L348.92 379.36L348.93 379.4L348.94 379.44L348.94 379.49L348.94 379.53L348.94 379.58L348.93 379.62L348.92 379.67L348.91 379.71L348.9 379.76L348.89 379.81L348.87 379.86L348.85 379.9L348.83 379.95L348.81 380L348.78 380.05L348.76 380.1L348.73 380.15L348.7 380.2L348.67 380.25L348.63 380.3L348.6 380.35L348.56 380.4L348.52 380.45L348.48 380.5L348.44 380.55L348.4 380.6L348.36 380.66L348.31 380.71L345.62 384.01L345.67 384.08L346.12 384.72L346.53 385.38L346.91 386.05L347.25 386.73L347.38 387.03L352.58 388.02L352.66 388.03L352.74 388.04L352.82 388.06L352.9 388.07L352.98 388.09L353.06 388.11L353.13 388.12L353.21 388.14L353.28 388.16L353.35 388.18L353.42 388.2L353.49 388.22L353.56 388.24L353.63 388.27L353.69 388.29L353.76 388.31L353.82 388.34L353.88 388.36L353.93 388.39L353.99 388.42L354.04 388.44L354.09 388.47L354.14 388.5L354.19 388.53L354.23 388.56L354.28 388.6L354.32 388.63L354.35 388.66L354.39 388.7L354.42 388.73L354.45 388.77L354.47 388.81L354.5 388.85L354.52 388.89L354.54 388.93L354.55 388.97L354.56 389.01L354.57 389.06L354.57 389.1L354.58 389.15L354.58 395.96L354.57 396L354.57 396.05L354.56 396.09L354.55 396.13L354.54 396.18L354.52 396.21L354.5 396.25L354.47 396.29L354.45 396.33L354.42 396.36L354.39 396.4L354.35 396.43L354.32 396.46L354.28 396.49L354.23 396.52L354.19 396.55L354.14 396.58L354.09 396.61L354.04 396.64L353.99 396.66L353.93 396.69L353.88 396.71L353.82 396.74L353.76 396.76L353.69 396.79L353.63 396.81L353.56 396.83L353.49 396.85L353.42 396.87L353.35 396.9L353.28 396.92L353.21 396.94L353.13 396.96L353.06 396.98L352.98 397L352.9 397.01L352.82 397.03L352.74 397.05L352.66 397.07L352.58 397.09L347.38 398.07L347.25 398.38L346.91 399.06L346.53 399.73L346.12 400.38L345.67 401.03L345.62 401.09L348.31 404.39L348.36 404.44L348.4 404.49L348.44 404.54L348.48 404.59L348.52 404.64L348.56 404.69L348.6 404.74L348.63 404.79L348.67 404.84L348.7 404.89L348.73 404.94L348.76 404.99L348.78 405.04L348.81 405.09L348.83 405.14L348.85 405.19L348.87 405.24L348.89 405.28L348.9 405.33L348.91 405.38L348.92 405.42L348.93 405.47L348.94 405.52L348.94 405.56L348.94 405.61L348.94 405.65L348.93 405.69L348.92 405.74L348.91 405.78L348.9 405.82L348.88 405.86L348.87 405.9L348.84 405.94L348.82 405.98L348.79 406.01L348.76 406.05L348.72 406.09L348.68 406.12L348.64 406.16L348.6 406.19L341.81 411L341.76 411.04L341.71 411.07L341.66 411.09L341.61 411.12L341.56 411.14L341.51 411.16L341.46 411.18L341.4 411.19L341.35 411.2L341.29 411.21L341.24 411.22L341.18 411.23L341.12 411.23L341.06 411.23L341 411.23L340.94 411.23L340.88 411.23L340.82 411.23L340.75 411.22L340.69 411.21L340.63 411.2L340.56 411.19L340.49 411.18L340.43 411.16L340.36 411.15L340.29 411.13L340.22 411.11L340.15 411.1L340.08 411.08L340.01 411.06L339.94 411.03L339.87 411.01L339.79 410.99L339.72 410.96L339.64 410.94L339.57 410.91L339.49 410.89L339.42 410.86L339.34 410.83L339.26 410.8L334.62 408.9L334.52 408.93L333.62 409.25L332.7 409.54L331.75 409.81L330.79 410.05L330.36 410.15L328.98 413.83L328.95 413.88L328.92 413.94L328.89 414L328.87 414.06L328.84 414.11L328.81 414.17L328.78 414.22L328.76 414.27L328.73 414.33L328.7 414.38L328.67 414.43L328.64 414.48L328.61 414.53L328.58 414.57L328.54 414.62L328.51 414.66L328.48 414.71L328.44 414.75L328.41 414.79L328.37 414.83L328.34 414.87L328.3 414.9L328.26 414.94L328.22 414.97L328.18 415L328.13 415.03L328.09 415.06L328.04 415.09L328 415.11L327.95 415.13L327.9 415.15L327.85 415.17L327.79 415.19L327.74 415.2L327.68 415.22L327.63 415.23L327.57 415.23L327.5 415.24L327.44 415.24L327.38 415.24L317.78 415.24L317.71 415.24L317.65 415.24L317.58 415.23L317.52 415.23L317.46 415.22L317.41 415.2L317.35 415.19L317.29 415.17L317.24 415.15L317.19 415.13L317.14 415.11L317.09 415.09L317.04 415.06L316.99 415.03L316.95 415L316.9 414.97L316.86 414.94L316.82 414.9L316.78 414.87L316.74 414.83L316.7 414.79L316.67 414.75L316.63 414.71L316.6 414.66L316.56 414.62L316.53 414.57L316.5 414.53L316.47 414.48L316.44 414.43L316.41 414.38L316.38 414.33L316.36 414.27L316.33 414.22L316.31 414.17L316.28 414.11L316.26 414.06L316.24 414L316.22 413.94L316.2 413.88L316.18 413.83L314.79 410.15L314.36 410.05L313.4 409.81L312.46 409.54L311.53 409.25L310.63 408.93L310.52 408.89L305.89 410.79L305.82 410.82L305.74 410.85L305.67 410.88L305.6 410.91L305.53 410.94L305.46 410.97L305.39 410.99L305.31 411.02L305.24 411.04L305.17 411.06L305.1 411.09L305.03 411.11L304.96 411.12L304.89 411.14L304.82 411.16L304.76 411.17L304.69 411.19L304.62 411.2L304.55 411.21L304.49 411.22L304.42 411.22L304.36 411.23L304.29 411.23L304.23 411.23L304.17 411.23L304.11 411.23L304.05 411.23L303.99 411.22L303.93 411.22L303.87 411.21L303.81 411.19L303.75 411.18L303.7 411.17L303.64 411.15L303.59 411.13L303.54 411.1L303.49 411.08L303.44 411.05L303.39 411.02L303.34 410.99L296.55 406.18L296.51 406.14L296.47 406.11L296.43 406.08L296.4 406.04L296.37 406L296.34 405.97L296.31 405.93L296.29 405.89L296.28 405.85L296.26 405.81L296.25 405.77L296.24 405.73L296.23 405.69L296.23 405.65L296.23 405.61L296.23 405.56L296.24 405.52L296.24 405.47L296.25 405.43L296.26 405.38L296.28 405.34L296.29 405.29L296.31 405.24L296.33 405.2L296.35 405.15L296.37 405.1L296.4 405.05L296.43 405L296.45 404.95L296.48 404.9L296.51 404.85L296.55 404.8L296.58 404.75L296.61 404.7L296.65 404.64L296.68 404.59L296.72 404.54L296.76 404.48L296.8 404.43L296.84 404.37L299.52 401.08L299.48 401.03L299.03 400.38L298.62 399.73L298.24 399.06L297.9 398.38L297.77 398.07L292.58 397.09L292.49 397.07L292.41 397.05L292.33 397.03L292.25 397.01L292.17 397L292.1 396.98L292.02 396.96L291.94 396.94L291.87 396.92L291.8 396.9L291.73 396.87L291.66 396.85L291.59 396.83L291.52 396.81L291.46 396.79L291.39 396.76L291.33 396.74L291.27 396.71L291.22 396.69L291.16 396.66L291.11 396.64L291.06 396.61L291.01 396.58L290.96 396.55L290.92 396.52L290.88 396.49L290.84 396.46L290.8 396.43L290.76 396.4L290.73 396.36L290.7 396.33L290.68 396.29L290.65 396.25L290.63 396.21L290.62 396.18L290.6 396.13L290.59 396.09L290.58 396.05L290.58 396L290.58 395.96L290.58 389.15L290.58 389.1L290.58 389.06L290.59 389.01L290.6 388.97L290.62 388.93L290.63 388.89L290.65 388.85L290.68 388.81L290.7 388.77L290.73 388.73L290.76 388.7L290.8 388.66L290.84 388.63L290.88 388.6L290.92 388.56L290.96 388.53L291.01 388.5L291.06 388.47L291.11 388.44L291.16 388.42L291.22 388.39L291.27 388.36L291.33 388.34L291.39 388.31L291.46 388.29L291.52 388.27L291.59 388.24L291.66 388.22L291.73 388.2L291.8 388.18L291.87 388.16L291.94 388.14L292.02 388.12L292.1 388.11L292.17 388.09L292.25 388.07L292.33 388.06L292.41 388.04L292.49 388.03L292.58 388.02L297.77 387.03L297.9 386.73L298.24 386.05L298.62 385.38L299.03 384.72L299.48 384.08L299.53 384.02L296.84 380.72L296.8 380.67L296.76 380.61L296.72 380.56L296.68 380.5L296.65 380.45L296.61 380.4L296.58 380.35L296.55 380.29L296.51 380.24L296.48 380.19L296.45 380.14L296.43 380.09L296.4 380.04L296.37 379.99L296.35 379.94L296.33 379.9L296.31 379.85L296.29 379.8L296.28 379.75L296.26 379.71L296.25 379.66L296.24 379.62L296.24 379.57L296.23 379.53L296.23 379.49L296.23 379.45L296.23 379.4L296.24 379.36L296.25 379.32L296.26 379.28L296.28 379.24L296.29 379.2L296.31 379.16L296.34 379.13L296.37 379.09L296.4 379.05L296.43 379.02L296.47 378.98L296.51 378.95L296.55 378.92L303.34 374.1L303.39 374.07L303.44 374.04L303.49 374.01L303.54 373.99L303.59 373.97L303.64 373.95L303.7 373.93L303.75 373.91L303.81 373.9L303.87 373.89L303.93 373.88L303.99 373.87L304.05 373.86L304.11 373.86L304.17 373.86L304.23 373.86L304.29 373.86L304.36 373.86L304.42 373.87L304.49 373.88L304.55 373.89L304.62 373.9L304.69 373.91L304.76 373.92L304.82 373.94L304.89 373.95L304.96 373.97L305.03 373.99L305.1 374.01L305.17 374.03L305.24 374.05L305.31 374.08L305.39 374.1L305.46 374.13L305.53 374.15L305.6 374.18L305.67 374.21L305.74 374.24L305.82 374.27L305.89 374.3L310.54 376.21L310.63 376.17L311.53 375.86L312.46 375.57L313.4 375.3L314.36 375.06L314.79 374.96L316.18 371.28L316.2 371.22L316.22 371.16L316.24 371.11L316.26 371.05L316.28 371L316.31 370.94L316.33 370.89L316.36 370.83L316.38 370.78L316.41 370.73L316.44 370.68L316.47 370.63L316.5 370.58L316.53 370.53L316.56 370.49L316.6 370.44L316.63 370.4L316.67 370.36L316.7 370.32L316.74 370.28L316.78 370.24L316.82 370.2L316.86 370.17L316.9 370.14L316.95 370.1L316.99 370.08L317.04 370.05L317.09 370.02L317.14 370L317.19 369.97L317.24 369.95L317.29 369.93L317.35 369.92L317.41 369.9L317.46 369.89L317.52 369.88L317.58 369.87L317.65 369.87L317.71 369.86L317.78 369.86L327.38 369.86L327.44 369.86L327.5 369.87ZM321.43 382.66L320.86 382.7L320.3 382.76L319.75 382.83L319.21 382.91L318.68 383.02L318.15 383.13L317.63 383.26L317.13 383.41L316.63 383.56L316.14 383.73L315.67 383.92L315.2 384.11L314.75 384.32L314.31 384.54L313.88 384.77L313.46 385.02L313.06 385.27L312.68 385.53L312.3 385.81L311.95 386.09L311.6 386.39L311.28 386.69L310.97 387L310.67 387.32L310.4 387.65L310.14 387.99L309.9 388.34L309.68 388.69L309.47 389.05L309.29 389.42L309.13 389.79L308.98 390.17L308.86 390.55L308.76 390.94L308.68 391.34L308.62 391.74L308.59 392.14L308.58 392.55L308.59 392.96L308.62 393.37L308.68 393.77L308.76 394.16L308.86 394.55L308.98 394.94L309.13 395.32L309.29 395.69L309.47 396.06L309.68 396.42L309.9 396.77L310.14 397.12L310.4 397.45L310.67 397.78L310.97 398.1L311.28 398.42L311.6 398.72L311.95 399.01L312.3 399.3L312.68 399.57L313.06 399.84L313.46 400.09L313.88 400.33L314.31 400.57L314.75 400.79L315.2 400.99L315.67 401.19L316.14 401.37L316.63 401.54L317.13 401.7L317.63 401.84L318.15 401.97L318.68 402.09L319.21 402.19L319.75 402.28L320.3 402.35L320.86 402.41L321.43 402.45L322 402.47L322.58 402.48L323.15 402.47L323.72 402.45L324.29 402.41L324.85 402.35L325.4 402.28L325.94 402.19L326.47 402.09L327 401.97L327.52 401.84L328.03 401.7L328.52 401.54L329.01 401.37L329.49 401.19L329.95 400.99L330.4 400.79L330.84 400.57L331.27 400.33L331.69 400.09L332.09 399.84L332.48 399.57L332.85 399.3L333.21 399.01L333.55 398.72L333.87 398.42L334.18 398.1L334.48 397.78L334.75 397.45L335.01 397.12L335.25 396.77L335.48 396.42L335.68 396.06L335.86 395.69L336.03 395.32L336.17 394.94L336.29 394.55L336.39 394.16L336.47 393.77L336.53 393.37L336.56 392.96L336.58 392.55L336.56 392.14L336.53 391.74L336.47 391.34L336.39 390.94L336.29 390.55L336.17 390.17L336.03 389.79L335.86 389.42L335.68 389.05L335.48 388.69L335.25 388.34L335.01 387.99L334.75 387.65L334.48 387.32L334.18 387L333.87 386.69L333.55 386.39L333.21 386.09L332.85 385.81L332.48 385.53L332.09 385.27L331.69 385.02L331.27 384.77L330.84 384.54L330.4 384.32L329.95 384.11L329.49 383.92L329.01 383.73L328.52 383.56L328.03 383.41L327.52 383.26L327 383.13L326.47 383.02L325.94 382.91L325.4 382.83L324.85 382.76L324.29 382.7L323.72 382.66L323.15 382.63L322.58 382.63L322 382.63L321.43 382.66Z" id="bXIx7Xomz" fill="white" fill-opacity="1" filter="url(#shadow6971286)"></path></g><use xlink:href="#c2KmOb43xd" opacity="1" fill="#170a0a" fill-opacity="1"></use><g><use xlink:href="#c2KmOb43xd" opacity="1" fill-opacity="0" stroke="#968989" stroke-width="2" stroke-opacity="1"></use></g><g><filter id="shadow15874472" x="281.58" y="360.86" width="83" height="64.38" filterUnits="userSpaceOnUse" primitiveUnits="userSpaceOnUse"><feFlood></feFlood><feComposite in2="SourceAlpha" operator="out"></feComposite><feGaussianBlur stdDeviation="1"></feGaussianBlur><feOffset dx="1" dy="1" result="afterOffset"></feOffset><feFlood flood-color="#ffffff" flood-opacity="0.8"></feFlood><feComposite in2="afterOffset" operator="in"></feComposite><feMorphology operator="dilate" radius="1"></feMorphology><feComposite in2="SourceAlpha" operator="in"></feComposite></filter><path d="M327.5 369.87L327.57 369.87L327.63 369.88L327.68 369.89L327.74 369.9L327.79 369.92L327.85 369.93L327.9 369.95L327.95 369.97L328 370L328.04 370.02L328.09 370.05L328.13 370.08L328.18 370.1L328.22 370.14L328.26 370.17L328.3 370.2L328.34 370.24L328.37 370.28L328.41 370.32L328.44 370.36L328.48 370.4L328.51 370.44L328.54 370.49L328.58 370.53L328.61 370.58L328.64 370.63L328.67 370.68L328.7 370.73L328.73 370.78L328.76 370.83L328.78 370.89L328.81 370.94L328.84 371L328.87 371.05L328.89 371.11L328.92 371.16L328.95 371.22L328.98 371.28L330.36 374.96L330.79 375.06L331.75 375.3L332.7 375.57L333.62 375.86L334.52 376.17L334.6 376.2L339.26 374.29L339.34 374.26L339.42 374.23L339.49 374.21L339.57 374.18L339.64 374.15L339.72 374.13L339.79 374.11L339.87 374.08L339.94 374.06L340.01 374.04L340.08 374.02L340.15 374L340.22 373.98L340.29 373.96L340.36 373.94L340.43 373.93L340.49 373.92L340.56 373.9L340.63 373.89L340.69 373.88L340.75 373.87L340.82 373.87L340.88 373.86L340.94 373.86L341 373.86L341.06 373.86L341.12 373.86L341.18 373.87L341.24 373.87L341.29 373.88L341.35 373.89L341.4 373.9L341.46 373.92L341.51 373.94L341.56 373.95L341.61 373.98L341.66 374L341.71 374.03L341.76 374.06L341.81 374.09L348.6 378.9L348.64 378.94L348.68 378.97L348.72 379.01L348.76 379.04L348.79 379.08L348.82 379.12L348.84 379.15L348.87 379.19L348.88 379.23L348.9 379.27L348.91 379.32L348.92 379.36L348.93 379.4L348.94 379.44L348.94 379.49L348.94 379.53L348.94 379.58L348.93 379.62L348.92 379.67L348.91 379.71L348.9 379.76L348.89 379.81L348.87 379.86L348.85 379.9L348.83 379.95L348.81 380L348.78 380.05L348.76 380.1L348.73 380.15L348.7 380.2L348.67 380.25L348.63 380.3L348.6 380.35L348.56 380.4L348.52 380.45L348.48 380.5L348.44 380.55L348.4 380.6L348.36 380.66L348.31 380.71L345.62 384.01L345.67 384.08L346.12 384.72L346.53 385.38L346.91 386.05L347.25 386.73L347.38 387.03L352.58 388.02L352.66 388.03L352.74 388.04L352.82 388.06L352.9 388.07L352.98 388.09L353.06 388.11L353.13 388.12L353.21 388.14L353.28 388.16L353.35 388.18L353.42 388.2L353.49 388.22L353.56 388.24L353.63 388.27L353.69 388.29L353.76 388.31L353.82 388.34L353.88 388.36L353.93 388.39L353.99 388.42L354.04 388.44L354.09 388.47L354.14 388.5L354.19 388.53L354.23 388.56L354.28 388.6L354.32 388.63L354.35 388.66L354.39 388.7L354.42 388.73L354.45 388.77L354.47 388.81L354.5 388.85L354.52 388.89L354.54 388.93L354.55 388.97L354.56 389.01L354.57 389.06L354.57 389.1L354.58 389.15L354.58 395.96L354.57 396L354.57 396.05L354.56 396.09L354.55 396.13L354.54 396.18L354.52 396.21L354.5 396.25L354.47 396.29L354.45 396.33L354.42 396.36L354.39 396.4L354.35 396.43L354.32 396.46L354.28 396.49L354.23 396.52L354.19 396.55L354.14 396.58L354.09 396.61L354.04 396.64L353.99 396.66L353.93 396.69L353.88 396.71L353.82 396.74L353.76 396.76L353.69 396.79L353.63 396.81L353.56 396.83L353.49 396.85L353.42 396.87L353.35 396.9L353.28 396.92L353.21 396.94L353.13 396.96L353.06 396.98L352.98 397L352.9 397.01L352.82 397.03L352.74 397.05L352.66 397.07L352.58 397.09L347.38 398.07L347.25 398.38L346.91 399.06L346.53 399.73L346.12 400.38L345.67 401.03L345.62 401.09L348.31 404.39L348.36 404.44L348.4 404.49L348.44 404.54L348.48 404.59L348.52 404.64L348.56 404.69L348.6 404.74L348.63 404.79L348.67 404.84L348.7 404.89L348.73 404.94L348.76 404.99L348.78 405.04L348.81 405.09L348.83 405.14L348.85 405.19L348.87 405.24L348.89 405.28L348.9 405.33L348.91 405.38L348.92 405.42L348.93 405.47L348.94 405.52L348.94 405.56L348.94 405.61L348.94 405.65L348.93 405.69L348.92 405.74L348.91 405.78L348.9 405.82L348.88 405.86L348.87 405.9L348.84 405.94L348.82 405.98L348.79 406.01L348.76 406.05L348.72 406.09L348.68 406.12L348.64 406.16L348.6 406.19L341.81 411L341.76 411.04L341.71 411.07L341.66 411.09L341.61 411.12L341.56 411.14L341.51 411.16L341.46 411.18L341.4 411.19L341.35 411.2L341.29 411.21L341.24 411.22L341.18 411.23L341.12 411.23L341.06 411.23L341 411.23L340.94 411.23L340.88 411.23L340.82 411.23L340.75 411.22L340.69 411.21L340.63 411.2L340.56 411.19L340.49 411.18L340.43 411.16L340.36 411.15L340.29 411.13L340.22 411.11L340.15 411.1L340.08 411.08L340.01 411.06L339.94 411.03L339.87 411.01L339.79 410.99L339.72 410.96L339.64 410.94L339.57 410.91L339.49 410.89L339.42 410.86L339.34 410.83L339.26 410.8L334.62 408.9L334.52 408.93L333.62 409.25L332.7 409.54L331.75 409.81L330.79 410.05L330.36 410.15L328.98 413.83L328.95 413.88L328.92 413.94L328.89 414L328.87 414.06L328.84 414.11L328.81 414.17L328.78 414.22L328.76 414.27L328.73 414.33L328.7 414.38L328.67 414.43L328.64 414.48L328.61 414.53L328.58 414.57L328.54 414.62L328.51 414.66L328.48 414.71L328.44 414.75L328.41 414.79L328.37 414.83L328.34 414.87L328.3 414.9L328.26 414.94L328.22 414.97L328.18 415L328.13 415.03L328.09 415.06L328.04 415.09L328 415.11L327.95 415.13L327.9 415.15L327.85 415.17L327.79 415.19L327.74 415.2L327.68 415.22L327.63 415.23L327.57 415.23L327.5 415.24L327.44 415.24L327.38 415.24L317.78 415.24L317.71 415.24L317.65 415.24L317.58 415.23L317.52 415.23L317.46 415.22L317.41 415.2L317.35 415.19L317.29 415.17L317.24 415.15L317.19 415.13L317.14 415.11L317.09 415.09L317.04 415.06L316.99 415.03L316.95 415L316.9 414.97L316.86 414.94L316.82 414.9L316.78 414.87L316.74 414.83L316.7 414.79L316.67 414.75L316.63 414.71L316.6 414.66L316.56 414.62L316.53 414.57L316.5 414.53L316.47 414.48L316.44 414.43L316.41 414.38L316.38 414.33L316.36 414.27L316.33 414.22L316.31 414.17L316.28 414.11L316.26 414.06L316.24 414L316.22 413.94L316.2 413.88L316.18 413.83L314.79 410.15L314.36 410.05L313.4 409.81L312.46 409.54L311.53 409.25L310.63 408.93L310.52 408.89L305.89 410.79L305.82 410.82L305.74 410.85L305.67 410.88L305.6 410.91L305.53 410.94L305.46 410.97L305.39 410.99L305.31 411.02L305.24 411.04L305.17 411.06L305.1 411.09L305.03 411.11L304.96 411.12L304.89 411.14L304.82 411.16L304.76 411.17L304.69 411.19L304.62 411.2L304.55 411.21L304.49 411.22L304.42 411.22L304.36 411.23L304.29 411.23L304.23 411.23L304.17 411.23L304.11 411.23L304.05 411.23L303.99 411.22L303.93 411.22L303.87 411.21L303.81 411.19L303.75 411.18L303.7 411.17L303.64 411.15L303.59 411.13L303.54 411.1L303.49 411.08L303.44 411.05L303.39 411.02L303.34 410.99L296.55 406.18L296.51 406.14L296.47 406.11L296.43 406.08L296.4 406.04L296.37 406L296.34 405.97L296.31 405.93L296.29 405.89L296.28 405.85L296.26 405.81L296.25 405.77L296.24 405.73L296.23 405.69L296.23 405.65L296.23 405.61L296.23 405.56L296.24 405.52L296.24 405.47L296.25 405.43L296.26 405.38L296.28 405.34L296.29 405.29L296.31 405.24L296.33 405.2L296.35 405.15L296.37 405.1L296.4 405.05L296.43 405L296.45 404.95L296.48 404.9L296.51 404.85L296.55 404.8L296.58 404.75L296.61 404.7L296.65 404.64L296.68 404.59L296.72 404.54L296.76 404.48L296.8 404.43L296.84 404.37L299.52 401.08L299.48 401.03L299.03 400.38L298.62 399.73L298.24 399.06L297.9 398.38L297.77 398.07L292.58 397.09L292.49 397.07L292.41 397.05L292.33 397.03L292.25 397.01L292.17 397L292.1 396.98L292.02 396.96L291.94 396.94L291.87 396.92L291.8 396.9L291.73 396.87L291.66 396.85L291.59 396.83L291.52 396.81L291.46 396.79L291.39 396.76L291.33 396.74L291.27 396.71L291.22 396.69L291.16 396.66L291.11 396.64L291.06 396.61L291.01 396.58L290.96 396.55L290.92 396.52L290.88 396.49L290.84 396.46L290.8 396.43L290.76 396.4L290.73 396.36L290.7 396.33L290.68 396.29L290.65 396.25L290.63 396.21L290.62 396.18L290.6 396.13L290.59 396.09L290.58 396.05L290.58 396L290.58 395.96L290.58 389.15L290.58 389.1L290.58 389.06L290.59 389.01L290.6 388.97L290.62 388.93L290.63 388.89L290.65 388.85L290.68 388.81L290.7 388.77L290.73 388.73L290.76 388.7L290.8 388.66L290.84 388.63L290.88 388.6L290.92 388.56L290.96 388.53L291.01 388.5L291.06 388.47L291.11 388.44L291.16 388.42L291.22 388.39L291.27 388.36L291.33 388.34L291.39 388.31L291.46 388.29L291.52 388.27L291.59 388.24L291.66 388.22L291.73 388.2L291.8 388.18L291.87 388.16L291.94 388.14L292.02 388.12L292.1 388.11L292.17 388.09L292.25 388.07L292.33 388.06L292.41 388.04L292.49 388.03L292.58 388.02L297.77 387.03L297.9 386.73L298.24 386.05L298.62 385.38L299.03 384.72L299.48 384.08L299.53 384.02L296.84 380.72L296.8 380.67L296.76 380.61L296.72 380.56L296.68 380.5L296.65 380.45L296.61 380.4L296.58 380.35L296.55 380.29L296.51 380.24L296.48 380.19L296.45 380.14L296.43 380.09L296.4 380.04L296.37 379.99L296.35 379.94L296.33 379.9L296.31 379.85L296.29 379.8L296.28 379.75L296.26 379.71L296.25 379.66L296.24 379.62L296.24 379.57L296.23 379.53L296.23 379.49L296.23 379.45L296.23 379.4L296.24 379.36L296.25 379.32L296.26 379.28L296.28 379.24L296.29 379.2L296.31 379.16L296.34 379.13L296.37 379.09L296.4 379.05L296.43 379.02L296.47 378.98L296.51 378.95L296.55 378.92L303.34 374.1L303.39 374.07L303.44 374.04L303.49 374.01L303.54 373.99L303.59 373.97L303.64 373.95L303.7 373.93L303.75 373.91L303.81 373.9L303.87 373.89L303.93 373.88L303.99 373.87L304.05 373.86L304.11 373.86L304.17 373.86L304.23 373.86L304.29 373.86L304.36 373.86L304.42 373.87L304.49 373.88L304.55 373.89L304.62 373.9L304.69 373.91L304.76 373.92L304.82 373.94L304.89 373.95L304.96 373.97L305.03 373.99L305.1 374.01L305.17 374.03L305.24 374.05L305.31 374.08L305.39 374.1L305.46 374.13L305.53 374.15L305.6 374.18L305.67 374.21L305.74 374.24L305.82 374.27L305.89 374.3L310.54 376.21L310.63 376.17L311.53 375.86L312.46 375.57L313.4 375.3L314.36 375.06L314.79 374.96L316.18 371.28L316.2 371.22L316.22 371.16L316.24 371.11L316.26 371.05L316.28 371L316.31 370.94L316.33 370.89L316.36 370.83L316.38 370.78L316.41 370.73L316.44 370.68L316.47 370.63L316.5 370.58L316.53 370.53L316.56 370.49L316.6 370.44L316.63 370.4L316.67 370.36L316.7 370.32L316.74 370.28L316.78 370.24L316.82 370.2L316.86 370.17L316.9 370.14L316.95 370.1L316.99 370.08L317.04 370.05L317.09 370.02L317.14 370L317.19 369.97L317.24 369.95L317.29 369.93L317.35 369.92L317.41 369.9L317.46 369.89L317.52 369.88L317.58 369.87L317.65 369.87L317.71 369.86L317.78 369.86L327.38 369.86L327.44 369.86L327.5 369.87ZM321.43 382.66L320.86 382.7L320.3 382.76L319.75 382.83L319.21 382.91L318.68 383.02L318.15 383.13L317.63 383.26L317.13 383.41L316.63 383.56L316.14 383.73L315.67 383.92L315.2 384.11L314.75 384.32L314.31 384.54L313.88 384.77L313.46 385.02L313.06 385.27L312.68 385.53L312.3 385.81L311.95 386.09L311.6 386.39L311.28 386.69L310.97 387L310.67 387.32L310.4 387.65L310.14 387.99L309.9 388.34L309.68 388.69L309.47 389.05L309.29 389.42L309.13 389.79L308.98 390.17L308.86 390.55L308.76 390.94L308.68 391.34L308.62 391.74L308.59 392.14L308.58 392.55L308.59 392.96L308.62 393.37L308.68 393.77L308.76 394.16L308.86 394.55L308.98 394.94L309.13 395.32L309.29 395.69L309.47 396.06L309.68 396.42L309.9 396.77L310.14 397.12L310.4 397.45L310.67 397.78L310.97 398.1L311.28 398.42L311.6 398.72L311.95 399.01L312.3 399.3L312.68 399.57L313.06 399.84L313.46 400.09L313.88 400.33L314.31 400.57L314.75 400.79L315.2 400.99L315.67 401.19L316.14 401.37L316.63 401.54L317.13 401.7L317.63 401.84L318.15 401.97L318.68 402.09L319.21 402.19L319.75 402.28L320.3 402.35L320.86 402.41L321.43 402.45L322 402.47L322.58 402.48L323.15 402.47L323.72 402.45L324.29 402.41L324.85 402.35L325.4 402.28L325.94 402.19L326.47 402.09L327 401.97L327.52 401.84L328.03 401.7L328.52 401.54L329.01 401.37L329.49 401.19L329.95 400.99L330.4 400.79L330.84 400.57L331.27 400.33L331.69 400.09L332.09 399.84L332.48 399.57L332.85 399.3L333.21 399.01L333.55 398.72L333.87 398.42L334.18 398.1L334.48 397.78L334.75 397.45L335.01 397.12L335.25 396.77L335.48 396.42L335.68 396.06L335.86 395.69L336.03 395.32L336.17 394.94L336.29 394.55L336.39 394.16L336.47 393.77L336.53 393.37L336.56 392.96L336.58 392.55L336.56 392.14L336.53 391.74L336.47 391.34L336.39 390.94L336.29 390.55L336.17 390.17L336.03 389.79L335.86 389.42L335.68 389.05L335.48 388.69L335.25 388.34L335.01 387.99L334.75 387.65L334.48 387.32L334.18 387L333.87 386.69L333.55 386.39L333.21 386.09L332.85 385.81L332.48 385.53L332.09 385.27L331.69 385.02L331.27 384.77L330.84 384.54L330.4 384.32L329.95 384.11L329.49 383.92L329.01 383.73L328.52 383.56L328.03 383.41L327.52 383.26L327 383.13L326.47 383.02L325.94 382.91L325.4 382.83L324.85 382.76L324.29 382.7L323.72 382.66L323.15 382.63L322.58 382.63L322 382.63L321.43 382.66Z" id="fjZwmavgY" fill="white" fill-opacity="1" filter="url(#shadow15874472)"></path></g></g><g><g><filter id="shadow8683202" x="299.58" y="376.36" width="44" height="34.38" filterUnits="userSpaceOnUse" primitiveUnits="userSpaceOnUse"><feFlood></feFlood><feComposite in2="SourceAlpha" operator="in"></feComposite><feGaussianBlur stdDeviation="1"></feGaussianBlur><feOffset dx="1" dy="1" result="afterOffset"></feOffset><feFlood flood-color="#000000" flood-opacity="0.5"></feFlood><feComposite in2="afterOffset" operator="in"></feComposite><feMorphology operator="dilate" radius="1"></feMorphology><feComposite in2="SourceAlpha" operator="out"></feComposite></filter><path d="M333.58 393.05C333.58 397.3 327.97 400.74 321.08 400.74C314.18 400.74 308.58 397.3 308.58 393.05C308.58 388.81 314.18 385.36 321.08 385.36C327.97 385.36 333.58 388.81 333.58 393.05Z" id="b1KmqYdwRy" fill="white" fill-opacity="1" filter="url(#shadow8683202)"></path></g><use xlink:href="#a1sdr3Eybf" opacity="1" fill="#170a0a" fill-opacity="1"></use><g><use xlink:href="#a1sdr3Eybf" opacity="1" fill-opacity="0" stroke="#968989" stroke-width="4" stroke-opacity="1"></use></g><g><filter id="shadow9451663" x="299.58" y="376.36" width="44" height="34.38" filterUnits="userSpaceOnUse" primitiveUnits="userSpaceOnUse"><feFlood></feFlood><feComposite in2="SourceAlpha" operator="out"></feComposite><feGaussianBlur stdDeviation="1"></feGaussianBlur><feOffset dx="1" dy="1" result="afterOffset"></feOffset><feFlood flood-color="#ffffff" flood-opacity="0.8"></feFlood><feComposite in2="afterOffset" operator="in"></feComposite><feMorphology operator="dilate" radius="1"></feMorphology><feComposite in2="SourceAlpha" operator="in"></feComposite></filter><path d="M333.58 393.05C333.58 397.3 327.97 400.74 321.08 400.74C314.18 400.74 308.58 397.3 308.58 393.05C308.58 388.81 314.18 385.36 321.08 385.36C327.97 385.36 333.58 388.81 333.58 393.05Z" id="dQNRXWunT" fill="white" fill-opacity="1" filter="url(#shadow9451663)"></path></g></g><g><g><filter id="shadow2889273" x="410.83" y="339.3" width="19" height="19" filterUnits="userSpaceOnUse" primitiveUnits="userSpaceOnUse"><feFlood></feFlood><feComposite in2="SourceAlpha" operator="in"></feComposite><feGaussianBlur stdDeviation="1"></feGaussianBlur><feOffset dx="1" dy="1" result="afterOffset"></feOffset><feFlood flood-color="#000000" flood-opacity="0.5"></feFlood><feComposite in2="afterOffset" operator="in"></feComposite><feMorphology operator="dilate" radius="1"></feMorphology><feComposite in2="SourceAlpha" operator="out"></feComposite></filter><path d="" id="bmp2jgpru" fill="white" fill-opacity="1" filter="url(#shadow2889273)"></path></g><g><use xlink:href="#a3sQRdf0G" opacity="1" fill-opacity="0" stroke="#968989" stroke-width="4" stroke-opacity="1"></use></g><g><filter id="shadow10502401" x="410.83" y="339.3" width="19" height="19" filterUnits="userSpaceOnUse" primitiveUnits="userSpaceOnUse"><feFlood></feFlood><feComposite in2="SourceAlpha" operator="out"></feComposite><feGaussianBlur stdDeviation="1"></feGaussianBlur><feOffset dx="1" dy="1" result="afterOffset"></feOffset><feFlood flood-color="#ffffff" flood-opacity="0.8"></feFlood><feComposite in2="afterOffset" operator="in"></feComposite><feMorphology operator="dilate" radius="1"></feMorphology><feComposite in2="SourceAlpha" operator="in"></feComposite></filter><path d="" id="h2935ODLUd" fill="white" fill-opacity="1" filter="url(#shadow10502401)"></path></g></g><g><g><filter id="shadow7168932" x="410.83" y="339.3" width="19" height="19" filterUnits="userSpaceOnUse" primitiveUnits="userSpaceOnUse"><feFlood></feFlood><feComposite in2="SourceAlpha" operator="in"></feComposite><feGaussianBlur stdDeviation="1"></feGaussianBlur><feOffset dx="1" dy="1" result="afterOffset"></feOffset><feFlood flood-color="#000000" flood-opacity="0.5"></feFlood><feComposite in2="afterOffset" operator="in"></feComposite><feMorphology operator="dilate" radius="1"></feMorphology><feComposite in2="SourceAlpha" operator="out"></feComposite></filter><path d="" id="a4KnSOjtt" fill="white" fill-opacity="1" filter="url(#shadow7168932)"></path></g><g><use xlink:href="#a3ghj7zOJY" opacity="1" fill-opacity="0" stroke="#968989" stroke-width="4" stroke-opacity="1"></use></g><g><filter id="shadow6054436" x="410.83" y="339.3" width="19" height="19" filterUnits="userSpaceOnUse" primitiveUnits="userSpaceOnUse"><feFlood></feFlood><feComposite in2="SourceAlpha" operator="out"></feComposite><feGaussianBlur stdDeviation="1"></feGaussianBlur><feOffset dx="1" dy="1" result="afterOffset"></feOffset><feFlood flood-color="#ffffff" flood-opacity="0.8"></feFlood><feComposite in2="afterOffset" operator="in"></feComposite><feMorphology operator="dilate" radius="1"></feMorphology><feComposite in2="SourceAlpha" operator="in"></feComposite></filter><path d="" id="hhkuRZOmC" fill="white" fill-opacity="1" filter="url(#shadow6054436)"></path></g></g><g><g><filter id="shadow9453865" x="362.45" y="304.36" width="79.14" height="70" filterUnits="userSpaceOnUse" primitiveUnits="userSpaceOnUse"><feFlood></feFlood><feComposite in2="SourceAlpha" operator="in"></feComposite><feGaussianBlur stdDeviation="1"></feGaussianBlur><feOffset dx="1" dy="1" result="afterOffset"></feOffset><feFlood flood-color="#000000" flood-opacity="0.5"></feFlood><feComposite in2="afterOffset" operator="in"></feComposite><feMorphology operator="dilate" radius="1"></feMorphology><feComposite in2="SourceAlpha" operator="out"></feComposite></filter><path d="M426.58 320.91C430.58 340.54 432.18 350.02 431.4 349.34C430.61 348.65 422.09 353.66 405.83 364.36L398.58 339.86C379.24 331.53 370.24 327.25 371.58 327.03C372.91 326.81 372.91 322.25 371.58 313.36L414.58 320.91L426.58 320.91Z" id="g11SQkB4nF" fill="white" fill-opacity="1" filter="url(#shadow9453865)"></path></g><use xlink:href="#a2A94A2H5" opacity="1" fill="#743f3f" fill-opacity="1"></use><g><use xlink:href="#a2A94A2H5" opacity="1" fill-opacity="0" stroke="#968989" stroke-width="4" stroke-opacity="1"></use></g><g><filter id="shadow101965" x="362.45" y="304.36" width="79.14" height="70" filterUnits="userSpaceOnUse" primitiveUnits="userSpaceOnUse"><feFlood></feFlood><feComposite in2="SourceAlpha" operator="out"></feComposite><feGaussianBlur stdDeviation="1"></feGaussianBlur><feOffset dx="1" dy="1" result="afterOffset"></feOffset><feFlood flood-color="#ffffff" flood-opacity="0.8"></feFlood><feComposite in2="afterOffset" operator="in"></feComposite><feMorphology operator="dilate" radius="1"></feMorphology><feComposite in2="SourceAlpha" operator="in"></feComposite></filter><path d="M426.58 320.91C430.58 340.54 432.18 350.02 431.4 349.34C430.61 348.65 422.09 353.66 405.83 364.36L398.58 339.86C379.24 331.53 370.24 327.25 371.58 327.03C372.91 326.81 372.91 322.25 371.58 313.36L414.58 320.91L426.58 320.91Z" id="b7W19aQ9P6" fill="white" fill-opacity="1" filter="url(#shadow101965)"></path></g></g></g></g></svg>