<?xml version="1.0" encoding="UTF-8" standalone="no"?>
<!DOCTYPE svg PUBLIC "-//W3C//DTD SVG 1.1//EN" "http://www.w3.org/Graphics/SVG/1.1/DTD/svg11.dtd">
<svg version="1.1" xmlns="http://www.w3.org/2000/svg" xmlns:xlink="http://www.w3.org/1999/xlink" preserveAspectRatio="xMidYMid meet" viewBox="0 0 640 640" width="640" height="640"><defs><path d="M556.5 359.28C556.5 478.74 457.43 575.73 335.4 575.73C213.37 575.73 114.3 478.74 114.3 359.28C114.3 239.82 213.37 142.83 335.4 142.83C457.43 142.83 556.5 239.82 556.5 359.28Z" id="dd9EhPEfS"></path><clipPath id="clipc2F8EYqNKO"><use xlink:href="#dd9EhPEfS" opacity="1"></use></clipPath><path d="M338.56 504.82C258.18 506.56 191.61 442.81 189.86 362.44C188.12 282.06 251.87 215.49 332.24 213.74C412.62 212 479.19 275.75 480.94 356.12C482.68 436.5 418.93 503.07 338.56 504.82ZM527.89 340.56C527.2 333.38 526.11 326.33 524.66 319.4C526.66 318.82 542.68 314.16 544.68 313.57C546.02 313.18 546.78 311.78 546.4 310.45C545.72 308.13 540.32 289.58 539.65 287.26C539.26 285.92 537.86 285.15 536.52 285.54C534.52 286.12 518.52 290.78 516.51 291.36C513.99 284.64 511.12 278.09 507.9 271.76C509.68 270.68 523.93 262.03 525.71 260.95C526.91 260.23 527.28 258.68 526.56 257.49C525.31 255.43 515.29 238.91 514.04 236.84C513.32 235.65 511.77 235.27 510.58 235.99C508.79 237.07 494.52 245.73 492.73 246.81C488.57 241 484.1 235.42 479.33 230.12C480.78 228.61 492.33 216.55 493.77 215.04C494.74 214.03 494.7 212.44 493.7 211.47C491.95 209.8 478 196.44 476.25 194.77C475.25 193.8 473.65 193.84 472.69 194.85C471.24 196.36 459.69 208.42 458.25 209.92C452.74 205.39 446.98 201.16 441 197.25C442 195.42 450.03 180.79 451.03 178.96C451.7 177.74 451.26 176.21 450.04 175.54C447.92 174.37 430.98 165.08 428.87 163.92C427.65 163.24 426.11 163.69 425.44 164.91C424.44 166.74 416.42 181.34 415.42 183.17C408.95 180.22 402.28 177.64 395.46 175.41C395.95 173.38 399.92 157.2 400.41 155.17C400.74 153.82 399.91 152.46 398.56 152.12C396.22 151.55 377.45 146.96 375.11 146.38C373.75 146.05 372.39 146.88 372.06 148.23C371.56 150.26 367.59 166.45 367.1 168.48C360.12 167.33 353.02 166.54 345.81 166.16C345.76 164.07 345.4 147.39 345.36 145.3C345.33 143.91 344.17 142.81 342.78 142.84C340.37 142.89 321.05 143.31 318.64 143.36C317.24 143.39 316.14 144.54 316.17 145.94C316.22 148.02 316.58 164.71 316.62 166.79C309.52 167.48 302.54 168.55 295.69 169.98C295.11 167.98 290.46 151.97 289.88 149.96C289.49 148.62 288.09 147.86 286.75 148.24C284.43 148.92 265.88 154.3 263.57 154.97C262.23 155.36 261.45 156.76 261.85 158.1C262.43 160.1 267.06 176.1 267.64 178.1C260.92 180.61 254.37 183.48 248.03 186.7C246.95 184.92 238.33 170.66 237.25 168.88C236.52 167.69 234.98 167.31 233.78 168.03C231.72 169.28 215.19 179.28 213.12 180.53C211.93 181.25 211.55 182.8 212.27 184C213.35 185.78 221.99 200.06 223.07 201.84C217.25 206 211.67 210.47 206.36 215.23C204.86 213.79 192.81 202.23 191.3 200.78C190.3 199.81 188.7 199.85 187.74 200.86C186.06 202.6 172.69 216.53 171.02 218.28C170.05 219.28 170.08 220.88 171.09 221.85C172.6 223.29 184.64 234.85 186.15 236.3C181.61 241.8 177.38 247.56 173.46 253.54C171.63 252.54 157.01 244.49 155.18 243.48C153.96 242.81 152.43 243.26 151.76 244.48C150.59 246.6 141.28 263.52 140.12 265.64C139.44 266.86 139.89 268.39 141.11 269.07C142.94 270.07 157.54 278.1 159.36 279.1C156.41 285.57 153.81 292.24 151.58 299.06C149.56 298.56 133.37 294.58 131.35 294.08C130 293.75 128.64 294.58 128.3 295.93C127.72 298.28 123.11 317.04 122.53 319.38C122.2 320.73 123.03 322.1 124.38 322.44C126.41 322.93 142.6 326.92 144.63 327.41C143.47 334.39 142.68 341.49 142.29 348.7C140.2 348.74 123.51 349.09 121.43 349.13C120.03 349.16 118.93 350.31 118.96 351.71C119.01 354.12 119.41 373.43 119.46 375.85C119.49 377.24 120.64 378.35 122.04 378.32C124.12 378.28 140.81 377.93 142.9 377.89C143.58 385.07 144.67 392.13 146.12 399.05C144.11 399.63 128.09 404.28 126.09 404.87C124.75 405.26 123.99 406.65 124.38 407.99C125.05 410.31 130.43 428.86 131.11 431.18C131.49 432.52 132.9 433.29 134.24 432.9C136.24 432.32 152.24 427.67 154.24 427.09C156.76 433.82 159.63 440.36 162.85 446.71C161.06 447.78 146.81 456.42 145.03 457.5C143.83 458.22 143.46 459.77 144.18 460.96C145.43 463.03 155.43 479.55 156.68 481.61C157.4 482.81 158.95 483.19 160.15 482.47C161.94 481.39 176.21 472.74 178 471.66C182.16 477.48 186.63 483.05 191.39 488.36C189.95 489.87 178.38 501.92 176.94 503.43C175.97 504.44 176.01 506.03 177.02 507C178.76 508.67 192.7 522.04 194.44 523.71C195.45 524.68 197.05 524.64 198.01 523.63C199.46 522.13 211.02 510.08 212.46 508.57C217.96 513.11 223.72 517.34 229.71 521.25C228.7 523.08 220.66 537.71 219.65 539.53C218.98 540.76 219.43 542.29 220.65 542.96C222.77 544.12 239.69 553.43 241.81 554.59C243.03 555.27 244.57 554.82 245.24 553.6C246.24 551.77 254.27 537.17 255.27 535.35C261.74 538.3 268.41 540.89 275.23 543.12C274.73 545.14 270.76 561.33 270.26 563.35C269.93 564.71 270.76 566.07 272.11 566.4C274.46 566.98 293.22 571.59 295.56 572.16C296.91 572.5 298.28 571.67 298.61 570.31C299.11 568.29 303.09 552.09 303.59 550.06C310.57 551.22 317.67 552.01 324.87 552.4C324.92 554.48 325.27 571.17 325.31 573.26C325.34 574.66 326.49 575.75 327.89 575.73C330.3 575.68 349.61 575.27 352.03 575.22C353.42 575.19 354.53 574.04 354.5 572.64C354.45 570.55 354.1 553.86 354.06 551.78C361.24 551.09 368.3 550 375.23 548.55C375.81 550.55 380.46 566.57 381.05 568.58C381.44 569.92 382.83 570.68 384.17 570.29C386.49 569.62 405.04 564.23 407.36 563.55C408.7 563.16 409.47 561.76 409.08 560.42C408.5 558.42 403.85 542.42 403.27 540.42C409.99 537.9 416.53 535.03 422.87 531.81C423.95 533.59 432.59 547.84 433.67 549.62C434.39 550.82 435.94 551.19 437.14 550.47C439.2 549.22 455.72 539.21 457.79 537.96C458.98 537.24 459.36 535.69 458.64 534.49C457.56 532.71 448.91 518.43 447.83 516.65C453.64 512.49 459.21 508.01 464.52 503.25C466.03 504.7 478.08 516.25 479.59 517.7C480.6 518.66 482.19 518.62 483.16 517.62C484.83 515.88 498.2 501.93 499.87 500.19C500.83 499.18 500.8 497.58 499.79 496.62C498.29 495.18 486.23 483.62 484.72 482.17C489.25 476.67 493.48 470.91 497.4 464.92C499.22 465.93 513.86 473.97 515.69 474.97C516.91 475.64 518.44 475.19 519.11 473.97C520.28 471.86 529.58 454.93 530.74 452.81C531.41 451.59 530.97 450.05 529.74 449.38C527.92 448.38 513.31 440.35 511.48 439.35C514.43 432.88 517.02 426.22 519.25 419.39C521.27 419.89 537.47 423.86 539.49 424.36C540.84 424.69 542.2 423.86 542.54 422.51C543.11 420.16 547.72 401.4 548.29 399.05C548.62 397.7 547.8 396.33 546.44 396C544.42 395.5 528.21 391.53 526.19 391.03C527.34 384.05 528.13 376.96 528.51 369.75C530.6 369.71 547.29 369.35 549.38 369.3C550.77 369.28 551.87 368.12 551.85 366.73C551.79 364.31 551.38 345 551.33 342.59C551.3 341.19 550.15 340.09 548.75 340.12C544.58 340.21 529.98 340.52 527.89 340.56Z" id="b5duRhtwgM"></path><path d="M189.86 362.44C191.61 442.81 258.18 506.56 338.56 504.82C418.93 503.07 482.68 436.5 480.94 356.12C479.19 275.75 412.62 212 332.24 213.74C251.87 215.49 188.12 282.06 189.86 362.44ZM208.99 362.02C207.47 292.21 262.84 234.38 332.66 232.87C402.47 231.35 460.29 286.72 461.81 356.54C463.32 426.35 407.95 484.18 338.14 485.69C268.33 487.21 210.5 431.84 208.99 362.02Z" id="a1f1taIi7D"></path><path d="M384.33 456.54C381.83 447.51 379.02 437.03 375.59 433.41C373.56 431.26 370.24 430.38 366.71 430.26C367.56 430.7 368.33 431.23 368.97 431.9C372.39 435.52 375.21 446 377.71 455.04C380.16 463.87 372.85 471.87 365.59 474.25C354.56 477.87 344.59 479.23 338.04 479.4C333.16 479.52 326.33 479.07 318.52 477.57C329.06 480.27 338.44 481.06 344.67 480.9C351.21 480.74 361.18 479.37 372.22 475.76C379.48 473.37 386.78 465.38 384.33 456.54Z" id="e2vHHHg7uP"></path><path d="M360.22 239.23C367.58 241.26 375.26 248.91 373.23 257.85C371.15 266.99 368.84 277.59 365.58 281.37C362.96 284.41 357.88 285.24 353.06 284.98C348.23 284.71 334.08 281.68 334.08 281.68C333.96 281.69 332.97 281.71 332.85 281.71C332.85 281.71 318.84 285.35 314.03 285.82C312.79 285.95 311.52 285.99 310.29 285.95C313.12 287.4 316.97 287.69 320.66 287.33C325.46 286.85 339.47 283.21 339.47 283.21C339.59 283.21 340.58 283.19 340.7 283.19C340.7 283.19 354.85 286.22 359.68 286.48C364.5 286.75 369.59 285.91 372.2 282.87C375.46 279.1 377.77 268.5 379.85 259.35C381.88 250.41 374.21 242.77 366.84 240.73C363.88 239.91 361.01 239.26 358.26 238.72C358.91 238.89 359.56 239.04 360.22 239.23Z" id="aENLIFrEy"></path><path d="M445.96 295.54C442.55 289.95 436.4 281.98 427.78 274.21C424.71 271.45 420.21 269.51 415.71 269.32C417.76 270.18 419.63 271.34 421.15 272.7C429.78 280.47 435.93 288.44 439.33 294.03C442.73 299.63 446.99 308.75 449.91 319.99C451.84 327.38 449.07 337.85 440.31 340.57C433.09 342.82 424.96 345.41 419.52 345.84C420.54 346.52 421.61 347.03 422.75 347.25C427.65 348.17 437.98 344.86 446.94 342.08C455.69 339.35 458.46 328.88 456.54 321.49C453.61 310.26 449.36 301.13 445.96 295.54Z" id="a1r3UcEJ1G"></path><path d="M448.74 417.42C451.88 411.67 455.7 402.36 458.1 391C459.67 383.52 456.41 373.19 447.54 370.88C443.09 369.73 438.31 368.46 434.01 367.61C436.33 368.18 438.67 368.8 440.92 369.38C449.79 371.69 453.05 382.02 451.47 389.49C449.08 400.85 445.26 410.17 442.12 415.92C438.99 421.66 433.22 429.91 424.97 438.08C421.75 441.26 416.76 443.54 411.83 443.59C418.4 446.99 426.88 444.24 431.59 439.58C439.84 431.42 445.61 423.16 448.74 417.42Z" id="a6UhXUfhP"></path><path d="M338.49 213.36C349.51 213.12 360.27 214.12 370.64 216.22C358.25 213.1 345.26 211.57 331.87 211.86C251.49 213.6 187.75 280.18 189.49 360.55C191 429.91 240.78 486.88 306.04 500.07C244.06 484.48 197.57 429.05 196.11 362.06C194.37 281.68 258.12 215.1 338.49 213.36Z" id="b8SUWyTU2r"></path><path d="M261.22 447.23C266.85 449.58 273.81 449.57 278.54 444.76C285.1 438.06 292.76 430.38 294.18 425.6C295.32 421.76 293.27 417.03 290.43 413.12C287.6 409.2 277.39 398.94 277.39 398.94C277.33 398.84 276.81 398 276.75 397.89C276.75 397.89 272.23 384.14 270.02 379.84C267.82 375.54 264.54 371.57 260.6 370.84C259.66 370.67 258.52 370.66 257.24 370.76C259.73 372.44 261.84 375.29 263.4 378.34C265.61 382.64 270.12 396.39 270.12 396.39C270.19 396.49 270.7 397.33 270.77 397.44C270.77 397.44 280.97 407.7 283.81 411.61C286.64 415.53 288.69 420.26 287.55 424.1C286.14 428.88 278.48 436.56 271.92 443.25C268.94 446.28 265.08 447.4 261.22 447.23Z" id="a50fVcokdy"></path><path d="M269.07 341.74C271.03 337.32 274.8 323.35 274.8 323.35C274.86 323.24 275.32 322.37 275.38 322.27C275.38 322.27 285.02 311.47 287.64 307.4C290.25 303.34 292.04 298.51 290.7 294.74C289.03 290.04 280.96 282.78 274.04 276.45C271.3 273.95 267.96 272.95 264.6 272.98C265.59 273.5 266.53 274.14 267.42 274.95C274.34 281.28 282.4 288.53 284.08 293.23C285.42 297.01 283.63 301.84 281.01 305.9C278.4 309.96 268.76 320.76 268.76 320.76C268.7 320.87 268.23 321.74 268.17 321.84C268.17 321.84 264.41 335.82 262.44 340.23C260.48 344.65 257.41 348.79 253.51 349.73C250.94 350.35 246.77 349.85 242.07 348.91C249.29 350.68 256.4 352.14 260.14 351.23C264.03 350.29 267.1 346.15 269.07 341.74Z" id="b15AZIkAIt"></path><path d="M164.67 362.98C166.71 457.28 244.81 532.06 339.1 530.01C433.39 527.97 508.17 449.87 506.13 355.58C504.08 261.29 425.99 186.5 331.69 188.55C237.4 190.59 162.62 268.7 164.67 362.98ZM189.86 362.44C188.12 282.06 251.87 215.49 332.24 213.74C412.62 212 479.19 275.75 480.94 356.12C482.68 436.5 418.93 503.07 338.56 504.82C258.18 506.56 191.61 442.81 189.86 362.44Z" id="b5z3TIR83G"></path><path d="M335.4 282.03C292.73 282.03 258.15 316.62 258.15 359.28C258.15 401.95 292.73 436.53 335.4 436.53C378.06 436.53 412.65 401.95 412.65 359.28C412.65 316.62 378.06 282.03 335.4 282.03Z" id="b2HReuzohT"></path><path d="M539.01 359.28C539.01 469.58 447.78 559.13 335.4 559.13C223.02 559.13 131.78 469.58 131.78 359.28C131.78 248.98 223.02 159.43 335.4 159.43C447.78 159.43 539.01 248.98 539.01 359.28Z" id="j1OJpPSmIo"></path><clipPath id="clipb4QFzVhni2"><use xlink:href="#j1OJpPSmIo" opacity="1"></use></clipPath><path d="M367.61 359.16L339.07 367.74L339.07 356.16C338.58 356.29 338.31 356.37 338.26 356.39C336.83 356.83 335.26 356.83 333.84 356.39C333.78 356.37 333.51 356.29 333.03 356.16L333.03 367.74L304.48 359.16L304.48 344.73L298.47 342.93C298.47 352.53 298.47 357.86 298.47 358.93C298.47 361.16 300.18 363.17 302.72 363.93C305.83 364.87 330.73 372.35 333.84 373.28C335.26 373.72 336.83 373.72 338.26 373.28C341.37 372.35 366.26 364.87 369.37 363.93C371.92 363.17 373.62 361.16 373.62 358.93C373.62 357.86 373.62 352.53 373.62 342.93L367.61 344.73L367.61 359.16Z" id="a1Sq5LsL8"></path><path d="M348.66 384.66C348.66 381.91 345.97 379.7 342.64 379.7C341.33 379.7 330.79 379.7 329.48 379.7C326.15 379.7 323.47 381.91 323.47 384.66C323.47 387.31 323.47 400.54 323.47 424.36L329.48 424.36L329.48 394.89L348.66 394.89L348.66 389.92L329.48 389.92L329.48 384.66C340.98 384.66 347.38 384.66 348.66 384.66Z" id="gXkH5Dowc"></path><path d="M329.48 431.82C326.15 431.82 323.47 429.6 323.47 426.85C323.47 426.85 323.47 426.85 323.47 426.85L342.53 426.85L342.53 397.31L348.54 397.31C348.54 415.04 348.54 424.88 348.54 426.85C348.54 429.58 345.86 431.82 342.53 431.82C339.92 431.82 330.78 431.82 329.48 431.82Z" id="b14dbjnHUw"></path><path d="M310.49 322.48C309.72 322.71 303.5 324.58 302.72 324.81C300.18 325.57 298.47 327.58 298.47 329.82C298.47 330.01 298.47 330.96 298.47 332.66L304.48 334.46L304.48 329.57C309.33 328.11 312.02 327.31 312.56 327.14C327.72 322.6 344.38 322.6 359.53 327.14C360.07 327.31 362.76 328.11 367.61 329.57L367.61 334.46L373.62 332.66C373.62 330.96 373.62 330.01 373.62 329.82C373.62 327.58 371.92 325.57 369.37 324.81C368.85 324.66 366.26 323.88 361.6 322.48C338.53 319.17 321.49 319.17 310.49 322.48Z" id="a5VVZbmqcY"></path><path d="M312.2 350.76L325.37 354.73L325.37 358.58L312.2 354.61L312.2 350.76M307.89 357.1L329.67 363.66L329.67 352.23L307.89 345.68L307.89 345.68L307.89 357.1Z" id="k1JYYTweBD"></path><path d="M359.73 350.76L359.73 354.63L346.56 358.58L346.56 354.7L359.73 350.76M342.25 352.23L342.25 363.66L364.03 357.1L364.03 345.68L364.03 345.68L342.25 352.23Z" id="a6j9vtrzZ"></path><path d="M294.17 333.72C294.39 333.1 294.5 332.45 294.5 331.78C294.5 331.75 294.5 331.47 294.5 331.44C294.5 327.72 290.84 324.7 286.34 324.7C285.36 324.7 277.51 324.7 276.53 324.7C272.03 324.72 268.36 327.74 268.36 331.46C268.36 331.49 268.36 331.77 268.36 331.81C268.36 335.52 272.03 338.55 276.53 338.55C277.51 338.55 285.36 338.55 286.34 338.55C287.68 338.55 288.97 338.27 290.09 337.78C291.47 338.2 298.39 340.29 310.86 344.04L310.86 338.75C300.84 335.73 295.28 334.06 294.17 333.72ZM286.34 333.58C285.36 333.58 277.51 333.58 276.53 333.58C275.35 333.58 274.37 332.8 274.37 331.81C274.37 331.77 274.37 331.49 274.37 331.46C274.37 330.49 275.32 329.68 276.53 329.68C277.51 329.68 285.36 329.68 286.34 329.68C287.51 329.68 288.49 330.47 288.49 331.46C288.49 331.48 288.49 331.6 288.49 331.81C287.86 332.99 287.14 333.58 286.34 333.58Z" id="a4v7Q5wBhN"></path><path d="M385.59 324.93C381.09 324.93 377.42 327.95 377.42 331.67C377.42 331.7 377.42 331.98 377.42 332.01C377.42 332.68 377.54 333.33 377.76 333.95C376.65 334.29 371.08 335.97 361.07 338.98L361.07 344.27C373.55 340.52 380.48 338.43 381.87 338.01C382.99 338.5 384.27 338.78 385.61 338.78C386.6 338.78 394.45 338.78 395.43 338.78C399.93 338.78 403.59 335.75 403.59 332.04C403.59 332 403.59 331.73 403.59 331.69C403.56 327.97 399.9 324.93 395.4 324.93C393.44 324.93 386.57 324.93 385.59 324.93ZM395.4 333.79C394.42 333.79 386.57 333.79 385.59 333.79C384.41 333.79 383.43 333.01 383.43 332.01C383.43 331.98 383.43 331.7 383.43 331.67C383.43 330.7 384.38 329.89 385.59 329.89C386.57 329.89 394.42 329.89 395.4 329.89C396.57 329.89 397.55 330.67 397.55 331.67C397.55 331.69 397.55 331.81 397.55 332.01C396.92 333.2 396.2 333.79 395.4 333.79Z" id="eFUxXSurs"></path><path d="M320.92 409.22L320.92 371.51L316.62 370.21C316.62 391.48 316.62 403.3 316.62 405.66C316.62 407.63 318.55 409.22 320.92 409.22C320.92 409.22 320.92 409.22 320.92 409.22Z" id="b1goZlnCn"></path><path d="M351 409.22C353.38 409.22 355.31 407.63 355.31 405.66C355.31 403.3 355.31 391.5 355.31 370.26L351 371.55L351 409.22C351 409.22 351 409.22 351 409.22Z" id="cI4lQsy0Q"></path><path d="M323.91 282.03L301.13 238.72L274.51 252.57L254.29 263.1L306.19 287.47L226.44 291.98L291.16 295.77L242.07 278.05L275.87 312.25L220.11 308.36L258.15 340.15L215.05 324.89L268.36 324.89L207.46 370.69L258.15 375.91L207.46 340.15L258.15 351.51L226.44 416.03L272.01 406.36L250.49 455.59L306.19 431.82L272.01 466.66L280.05 416.03L242.07 436.53L266.62 389.45L215.05 393.24L257.24 367.61" id="a1xsGesPk"></path><path d="M403.59 317.29C403.55 317.29 412.85 304.64 431.51 279.32L366.95 290.71L418.85 263.1L398.55 254.6L360.62 238.72L384.82 297.04L380.18 246.41L354.29 279.32L345.23 235.02L335.4 279.32L318.52 235.02L298.59 287.47L280.05 246.41" id="b1nn8UJQVQ"></path><path d="M461.89 395.77L422.64 266.66L411.83 347.4L457.12 317.29L403.59 320L444.16 298.31L392.27 304.64" id="aQiVZI8A"></path><path d="M285.94 480.92L299.86 430.26L370.64 474.26L361.89 431.82L307.46 480.92L318.52 431.82C326.33 466.86 330.66 484.38 331.51 484.38C332.35 484.38 332.35 470.04 331.51 441.34L355.78 480.92L351.67 436.53L388.47 474.26C378.34 445.56 373.28 431.42 373.28 431.82C373.28 432.21 388.47 440.14 418.85 455.59L380.18 418.56L431.51 436.53L392.27 409.73L450.49 409.73L411.83 367.61L436.41 426.15L403.59 395.77L457.12 384.38L411.83 378.88L461.89 351.51L415.71 352.69" id="erDv4pHoi"></path></defs><g><g><g><g clip-path="url(#clipc2F8EYqNKO)"><use xlink:href="#dd9EhPEfS" opacity="1" fill-opacity="0" stroke="#232524" stroke-width="58" stroke-opacity="1"></use></g></g><g><use xlink:href="#b5duRhtwgM" opacity="1" fill="#231f20" fill-opacity="1"></use><g><use xlink:href="#b5duRhtwgM" opacity="1" fill-opacity="0" stroke="#000000" stroke-width="1" stroke-opacity="0"></use></g></g><g><use xlink:href="#a1f1taIi7D" opacity="1" fill="#11393f" fill-opacity="1"></use><g><use xlink:href="#a1f1taIi7D" opacity="1" fill-opacity="0" stroke="#020101" stroke-width="1" stroke-opacity="0"></use></g></g><g><use xlink:href="#e2vHHHg7uP" opacity="1" fill="#000000" fill-opacity="1"></use><g><use xlink:href="#e2vHHHg7uP" opacity="1" fill-opacity="0" stroke="#000000" stroke-width="1" stroke-opacity="0"></use></g></g><g><use xlink:href="#aENLIFrEy" opacity="1" fill="#010907" fill-opacity="1"></use><g><use xlink:href="#aENLIFrEy" opacity="1" fill-opacity="0" stroke="#000000" stroke-width="1" stroke-opacity="0"></use></g></g><g><use xlink:href="#a1r3UcEJ1G" opacity="1" fill="#000000" fill-opacity="1"></use><g><use xlink:href="#a1r3UcEJ1G" opacity="1" fill-opacity="0" stroke="#000000" stroke-width="1" stroke-opacity="0"></use></g></g><g><use xlink:href="#a6UhXUfhP" opacity="1" fill="#000000" fill-opacity="1"></use><g><use xlink:href="#a6UhXUfhP" opacity="1" fill-opacity="0" stroke="#000000" stroke-width="1" stroke-opacity="0"></use></g></g><g><use xlink:href="#b8SUWyTU2r" opacity="1" fill="#3c403b" fill-opacity="1"></use><g><use xlink:href="#b8SUWyTU2r" opacity="1" fill-opacity="0" stroke="#000000" stroke-width="1" stroke-opacity="0"></use></g></g><g><use xlink:href="#a50fVcokdy" opacity="1" fill="#000302" fill-opacity="1"></use><g><use xlink:href="#a50fVcokdy" opacity="1" fill-opacity="0" stroke="#000000" stroke-width="1" stroke-opacity="0"></use></g></g><g><use xlink:href="#b15AZIkAIt" opacity="1" fill="#000000" fill-opacity="1"></use><g><use xlink:href="#b15AZIkAIt" opacity="1" fill-opacity="0" stroke="#000000" stroke-width="1" stroke-opacity="0"></use></g></g><g><use xlink:href="#b5z3TIR83G" opacity="1" fill="#3c4142" fill-opacity="1"></use><g><use xlink:href="#b5z3TIR83G" opacity="1" fill-opacity="0" stroke="#000000" stroke-width="1" stroke-opacity="0"></use></g></g><g><use xlink:href="#b2HReuzohT" opacity="1" fill="#231f20" fill-opacity="1"></use><g><use xlink:href="#b2HReuzohT" opacity="1" fill-opacity="0" stroke="#000000" stroke-width="1" stroke-opacity="0"></use></g></g><g><use xlink:href="#j1OJpPSmIo" opacity="1" fill="#0e434d" fill-opacity="0.53"></use><g clip-path="url(#clipb4QFzVhni2)"><use xlink:href="#j1OJpPSmIo" opacity="1" fill-opacity="0" stroke="#646967" stroke-width="18" stroke-opacity="1"></use></g></g><g><g><use xlink:href="#a1Sq5LsL8" opacity="1" fill="#f3f3f3" fill-opacity="1"></use><g><use xlink:href="#a1Sq5LsL8" opacity="1" fill-opacity="0" stroke="#000000" stroke-width="1" stroke-opacity="0"></use></g></g><g><use xlink:href="#gXkH5Dowc" opacity="1" fill="#f3f3f3" fill-opacity="1"></use><g><use xlink:href="#gXkH5Dowc" opacity="1" fill-opacity="0" stroke="#000000" stroke-width="1" stroke-opacity="0"></use></g></g><g><use xlink:href="#b14dbjnHUw" opacity="1" fill="#ee2c28" fill-opacity="1"></use><g><use xlink:href="#b14dbjnHUw" opacity="1" fill-opacity="0" stroke="#000000" stroke-width="1" stroke-opacity="0"></use></g></g><g><use xlink:href="#a5VVZbmqcY" opacity="1" fill="#ee2c28" fill-opacity="1"></use><g><use xlink:href="#a5VVZbmqcY" opacity="1" fill-opacity="0" stroke="#000000" stroke-width="1" stroke-opacity="0"></use></g></g><g><use xlink:href="#k1JYYTweBD" opacity="1" fill="#ee2c28" fill-opacity="1"></use><g><use xlink:href="#k1JYYTweBD" opacity="1" fill-opacity="0" stroke="#000000" stroke-width="1" stroke-opacity="0"></use></g></g><g><use xlink:href="#a6j9vtrzZ" opacity="1" fill="#ee2c28" fill-opacity="1"></use><g><use xlink:href="#a6j9vtrzZ" opacity="1" fill-opacity="0" stroke="#000000" stroke-width="1" stroke-opacity="0"></use></g></g><g><use xlink:href="#a4v7Q5wBhN" opacity="1" fill="#ee2c28" fill-opacity="1"></use><g><use xlink:href="#a4v7Q5wBhN" opacity="1" fill-opacity="0" stroke="#000000" stroke-width="1" stroke-opacity="0"></use></g></g><g><use xlink:href="#eFUxXSurs" opacity="1" fill="#ee2c28" fill-opacity="1"></use><g><use xlink:href="#eFUxXSurs" opacity="1" fill-opacity="0" stroke="#000000" stroke-width="1" stroke-opacity="0"></use></g></g><g><use xlink:href="#b1goZlnCn" opacity="1" fill="#ee2c28" fill-opacity="1"></use><g><use xlink:href="#b1goZlnCn" opacity="1" fill-opacity="0" stroke="#000000" stroke-width="1" stroke-opacity="0"></use></g></g><g><use xlink:href="#cI4lQsy0Q" opacity="1" fill="#ee2c28" fill-opacity="1"></use><g><use xlink:href="#cI4lQsy0Q" opacity="1" fill-opacity="0" stroke="#000000" stroke-width="1" stroke-opacity="0"></use></g></g></g><g><g><use xlink:href="#a1xsGesPk" opacity="1" fill-opacity="0" stroke="#646967" stroke-width="7" stroke-opacity="1"></use></g></g><g><g><filter id="shadow3103006" x="271.05" y="226.02" width="170.46" height="101.28" filterUnits="userSpaceOnUse" primitiveUnits="userSpaceOnUse"><feFlood></feFlood><feComposite in2="SourceAlpha" operator="in"></feComposite><feGaussianBlur stdDeviation="1"></feGaussianBlur><feOffset dx="1" dy="1" result="afterOffset"></feOffset><feFlood flood-color="#000000" flood-opacity="0.5"></feFlood><feComposite in2="afterOffset" operator="in"></feComposite><feMorphology operator="dilate" radius="1"></feMorphology><feComposite in2="SourceAlpha" operator="out"></feComposite></filter><path d="M403.59 317.29C403.55 317.29 412.85 304.64 431.51 279.32L366.95 290.71L418.85 263.1L398.55 254.6L360.62 238.72L384.82 297.04L380.18 246.41L354.29 279.32L345.23 235.02L335.4 279.32L318.52 235.02L298.59 287.47L280.05 246.41" id="b1PGfkXZv" fill="none" stroke="white" filter="url(#shadow3103006)"></path></g><g><use xlink:href="#b1nn8UJQVQ" opacity="1" fill-opacity="0" stroke="#646967" stroke-width="8" stroke-opacity="1"></use></g><g><filter id="shadow1413330" x="271.05" y="226.02" width="170.46" height="101.28" filterUnits="userSpaceOnUse" primitiveUnits="userSpaceOnUse"><feFlood></feFlood><feComposite in2="SourceAlpha" operator="out"></feComposite><feGaussianBlur stdDeviation="1"></feGaussianBlur><feOffset dx="1" dy="1" result="afterOffset"></feOffset><feFlood flood-color="#ffffff" flood-opacity="0.8"></feFlood><feComposite in2="afterOffset" operator="in"></feComposite><feMorphology operator="dilate" radius="1"></feMorphology><feComposite in2="SourceAlpha" operator="in"></feComposite></filter><path d="M403.59 317.29C403.55 317.29 412.85 304.64 431.51 279.32L366.95 290.71L418.85 263.1L398.55 254.6L360.62 238.72L384.82 297.04L380.18 246.41L354.29 279.32L345.23 235.02L335.4 279.32L318.52 235.02L298.59 287.47L280.05 246.41" id="etmCr1tWM" fill="none" stroke="white" filter="url(#shadow1413330)"></path></g></g><g><g><use xlink:href="#aQiVZI8A" opacity="1" fill-opacity="0" stroke="#646967" stroke-width="8" stroke-opacity="1"></use></g></g><g><g><filter id="shadow521062" x="276.94" y="342.51" width="194.95" height="151.87" filterUnits="userSpaceOnUse" primitiveUnits="userSpaceOnUse"><feFlood></feFlood><feComposite in2="SourceAlpha" operator="in"></feComposite><feGaussianBlur stdDeviation="1"></feGaussianBlur><feOffset dx="1" dy="1" result="afterOffset"></feOffset><feFlood flood-color="#000000" flood-opacity="0.5"></feFlood><feComposite in2="afterOffset" operator="in"></feComposite><feMorphology operator="dilate" radius="1"></feMorphology><feComposite in2="SourceAlpha" operator="out"></feComposite></filter><path d="M285.94 480.92L299.86 430.26L370.64 474.26L361.89 431.82L307.46 480.92L318.52 431.82C326.33 466.86 330.66 484.38 331.51 484.38C332.35 484.38 332.35 470.04 331.51 441.34L355.78 480.92L351.67 436.53L388.47 474.26C378.34 445.56 373.28 431.42 373.28 431.82C373.28 432.21 388.47 440.14 418.85 455.59L380.18 418.56L431.51 436.53L392.27 409.73L450.49 409.73L411.83 367.61L436.41 426.15L403.59 395.77L457.12 384.38L411.83 378.88L461.89 351.51L415.71 352.69" id="a4HUY8UJLq" fill="none" stroke="white" filter="url(#shadow521062)"></path></g><g><use xlink:href="#erDv4pHoi" opacity="1" fill-opacity="0" stroke="#646967" stroke-width="8" stroke-opacity="1"></use></g><g><filter id="shadow4204678" x="276.94" y="342.51" width="194.95" height="151.87" filterUnits="userSpaceOnUse" primitiveUnits="userSpaceOnUse"><feFlood></feFlood><feComposite in2="SourceAlpha" operator="out"></feComposite><feGaussianBlur stdDeviation="1"></feGaussianBlur><feOffset dx="1" dy="1" result="afterOffset"></feOffset><feFlood flood-color="#ffffff" flood-opacity="0.8"></feFlood><feComposite in2="afterOffset" operator="in"></feComposite><feMorphology operator="dilate" radius="1"></feMorphology><feComposite in2="SourceAlpha" operator="in"></feComposite></filter><path d="M285.94 480.92L299.86 430.26L370.64 474.26L361.89 431.82L307.46 480.92L318.52 431.82C326.33 466.86 330.66 484.38 331.51 484.38C332.35 484.38 332.35 470.04 331.51 441.34L355.78 480.92L351.67 436.53L388.47 474.26C378.34 445.56 373.28 431.42 373.28 431.82C373.28 432.21 388.47 440.14 418.85 455.59L380.18 418.56L431.51 436.53L392.27 409.73L450.49 409.73L411.83 367.61L436.41 426.15L403.59 395.77L457.12 384.38L411.83 378.88L461.89 351.51L415.71 352.69" id="fCzzGRTT4" fill="none" stroke="white" filter="url(#shadow4204678)"></path></g></g></g></g></svg>