<?xml version="1.0" encoding="UTF-8" standalone="no"?>
<!DOCTYPE svg PUBLIC "-//W3C//DTD SVG 1.1//EN" "http://www.w3.org/Graphics/SVG/1.1/DTD/svg11.dtd">
<svg version="1.1" xmlns="http://www.w3.org/2000/svg" xmlns:xlink="http://www.w3.org/1999/xlink" preserveAspectRatio="xMidYMid meet" viewBox="0 0 640 640" width="640" height="640"><defs><path d="M406.5 262.4L385.02 285.35L308.13 289.85L271.19 269.54L266.21 260.54L280.01 241.86L381.07 242.25L406.5 262.4Z" id="n6IBjimFQ"></path><path d="M386.51 289.12L402.97 310.16L402.97 332.43L420.4 362.13L406.5 381.76L423.22 397.92L282.72 305.99L186.51 242.69C210.14 237.51 221.09 233.55 219.35 230.81C217.61 228.07 228.61 228.07 252.34 230.81L282.72 241.86C271.75 254.75 266.24 261.12 266.21 260.99C266.17 260.86 281.38 270.48 311.83 289.85L386.51 289.12Z" id="aq2Hb5xx0"></path><path d="M502.65 397.92L488.45 408.34L433.03 408.34L336.36 411.25L286.2 411.25L277.34 390.62L293.07 366.2L321.64 358.97L362.15 362.13" id="a1gAhveORt"></path><path d="M306.84 381.76L306.88 381.76L306.91 381.77L306.95 381.77L306.98 381.78L307.01 381.79L307.05 381.8L307.08 381.81L307.11 381.82L307.13 381.83L307.16 381.84L307.19 381.86L307.22 381.87L307.24 381.89L307.27 381.9L307.29 381.92L307.31 381.94L307.34 381.96L307.36 381.98L307.38 382L307.4 382.02L307.42 382.04L307.44 382.07L307.46 382.09L307.48 382.11L307.5 382.14L307.52 382.16L307.53 382.19L307.55 382.22L307.57 382.24L307.59 382.27L307.6 382.3L307.62 382.33L307.64 382.36L307.65 382.39L307.67 382.42L307.68 382.45L307.7 382.48L307.72 382.51L308.54 384.46L308.79 384.51L309.36 384.64L309.92 384.78L310.47 384.94L311.01 385.1L311.05 385.12L313.82 384.1L313.87 384.09L313.91 384.07L313.96 384.06L314 384.05L314.05 384.03L314.09 384.02L314.13 384.01L314.18 383.99L314.22 383.98L314.26 383.97L314.31 383.96L314.35 383.95L314.39 383.94L314.43 383.93L314.47 383.92L314.51 383.91L314.55 383.91L314.59 383.9L314.63 383.89L314.67 383.89L314.7 383.88L314.74 383.88L314.78 383.88L314.82 383.88L314.85 383.88L314.89 383.88L314.92 383.88L314.96 383.88L314.99 383.88L315.02 383.89L315.06 383.89L315.09 383.9L315.12 383.91L315.15 383.92L315.18 383.93L315.21 383.94L315.24 383.95L315.27 383.97L315.3 383.98L315.33 384L319.36 386.55L319.39 386.57L319.41 386.58L319.43 386.6L319.45 386.62L319.47 386.64L319.49 386.66L319.5 386.68L319.52 386.7L319.53 386.72L319.54 386.75L319.55 386.77L319.55 386.79L319.56 386.81L319.56 386.84L319.56 386.86L319.56 386.88L319.56 386.91L319.56 386.93L319.55 386.95L319.55 386.98L319.54 387L319.53 387.03L319.52 387.05L319.51 387.08L319.5 387.11L319.48 387.13L319.47 387.16L319.45 387.18L319.44 387.21L319.42 387.24L319.4 387.26L319.38 387.29L319.36 387.32L319.34 387.34L319.32 387.37L319.29 387.4L319.27 387.42L319.24 387.45L319.22 387.48L319.19 387.51L317.59 389.26L317.62 389.29L317.89 389.63L318.13 389.98L318.36 390.33L318.56 390.7L318.64 390.86L321.72 391.38L321.77 391.39L321.82 391.39L321.86 391.4L321.91 391.41L321.96 391.42L322 391.43L322.05 391.44L322.09 391.45L322.14 391.46L322.18 391.47L322.22 391.48L322.26 391.49L322.3 391.5L322.34 391.51L322.38 391.52L322.42 391.54L322.46 391.55L322.49 391.56L322.53 391.58L322.56 391.59L322.59 391.61L322.62 391.62L322.65 391.64L322.68 391.65L322.7 391.67L322.73 391.69L322.75 391.7L322.77 391.72L322.79 391.74L322.81 391.76L322.83 391.78L322.85 391.8L322.86 391.82L322.87 391.84L322.88 391.86L322.89 391.88L322.9 391.91L322.9 391.93L322.9 391.95L322.91 391.98L322.91 395.59L322.9 395.61L322.9 395.64L322.9 395.66L322.89 395.68L322.88 395.7L322.87 395.72L322.86 395.74L322.85 395.76L322.83 395.78L322.81 395.8L322.79 395.82L322.77 395.84L322.75 395.86L322.73 395.87L322.7 395.89L322.68 395.9L322.65 395.92L322.62 395.93L322.59 395.95L322.56 395.96L322.53 395.98L322.49 395.99L322.46 396L322.42 396.01L322.38 396.03L322.34 396.04L322.3 396.05L322.26 396.06L322.22 396.07L322.18 396.08L322.14 396.1L322.09 396.11L322.05 396.12L322 396.13L321.96 396.14L321.91 396.15L321.86 396.16L321.82 396.17L321.77 396.18L321.72 396.19L318.64 396.71L318.56 396.87L318.36 397.23L318.13 397.59L317.89 397.93L317.62 398.27L317.59 398.31L319.19 400.05L319.22 400.08L319.24 400.11L319.27 400.14L319.29 400.16L319.32 400.19L319.34 400.22L319.36 400.24L319.38 400.27L319.4 400.3L319.42 400.32L319.44 400.35L319.45 400.38L319.47 400.4L319.48 400.43L319.5 400.45L319.51 400.48L319.52 400.51L319.53 400.53L319.54 400.56L319.55 400.58L319.55 400.6L319.56 400.63L319.56 400.65L319.56 400.68L319.56 400.7L319.56 400.72L319.56 400.75L319.55 400.77L319.55 400.79L319.54 400.81L319.53 400.83L319.52 400.86L319.5 400.88L319.49 400.9L319.47 400.92L319.45 400.94L319.43 400.96L319.41 400.97L319.39 400.99L319.36 401.01L315.33 403.56L315.3 403.58L315.27 403.59L315.24 403.61L315.21 403.62L315.18 403.63L315.15 403.64L315.12 403.65L315.09 403.66L315.06 403.67L315.02 403.67L314.99 403.68L314.96 403.68L314.92 403.68L314.89 403.68L314.85 403.68L314.82 403.68L314.78 403.68L314.74 403.68L314.7 403.68L314.67 403.67L314.63 403.67L314.59 403.66L314.55 403.65L314.51 403.65L314.47 403.64L314.43 403.63L314.39 403.62L314.35 403.61L314.31 403.6L314.26 403.59L314.22 403.58L314.18 403.57L314.13 403.55L314.09 403.54L314.05 403.53L314 403.51L313.96 403.5L313.91 403.48L313.87 403.47L313.82 403.46L311.06 402.44L311.01 402.46L310.47 402.63L309.92 402.79L309.36 402.93L308.79 403.06L308.54 403.11L307.72 405.06L307.7 405.09L307.68 405.12L307.67 405.15L307.65 405.18L307.64 405.21L307.62 405.24L307.6 405.27L307.59 405.29L307.57 405.32L307.55 405.35L307.53 405.38L307.52 405.4L307.5 405.43L307.48 405.45L307.46 405.48L307.44 405.5L307.42 405.52L307.4 405.55L307.38 405.57L307.36 405.59L307.34 405.61L307.31 405.63L307.29 405.65L307.27 405.66L307.24 405.68L307.22 405.7L307.19 405.71L307.16 405.72L307.13 405.74L307.11 405.75L307.08 405.76L307.05 405.77L307.01 405.78L306.98 405.79L306.95 405.79L306.91 405.8L306.88 405.8L306.84 405.81L306.81 405.81L306.77 405.81L301.07 405.81L301.03 405.81L300.99 405.81L300.96 405.8L300.92 405.8L300.89 405.79L300.85 405.79L300.82 405.78L300.78 405.77L300.75 405.76L300.72 405.75L300.69 405.74L300.66 405.72L300.63 405.71L300.61 405.7L300.58 405.68L300.55 405.66L300.53 405.65L300.5 405.63L300.48 405.61L300.46 405.59L300.43 405.57L300.41 405.55L300.39 405.52L300.37 405.5L300.35 405.48L300.33 405.45L300.31 405.43L300.29 405.4L300.28 405.38L300.26 405.35L300.24 405.32L300.23 405.29L300.21 405.27L300.2 405.24L300.18 405.21L300.17 405.18L300.16 405.15L300.14 405.12L300.13 405.09L300.12 405.06L299.3 403.11L299.04 403.06L298.47 402.93L297.91 402.79L297.37 402.63L296.83 402.46L296.76 402.44L294.02 403.45L293.97 403.47L293.93 403.48L293.89 403.5L293.85 403.51L293.8 403.53L293.76 403.54L293.72 403.56L293.68 403.57L293.63 403.58L293.59 403.59L293.55 403.6L293.51 403.62L293.47 403.63L293.43 403.63L293.39 403.64L293.35 403.65L293.3 403.66L293.27 403.66L293.23 403.67L293.19 403.67L293.15 403.68L293.11 403.68L293.07 403.68L293.03 403.68L293 403.68L292.96 403.68L292.92 403.68L292.89 403.68L292.85 403.67L292.82 403.67L292.78 403.66L292.75 403.66L292.72 403.65L292.69 403.64L292.65 403.63L292.62 403.61L292.59 403.6L292.56 403.59L292.53 403.57L292.51 403.55L288.48 401L288.45 400.99L288.43 400.97L288.4 400.95L288.38 400.93L288.37 400.91L288.35 400.89L288.34 400.87L288.32 400.85L288.31 400.83L288.3 400.81L288.3 400.79L288.29 400.77L288.29 400.75L288.29 400.72L288.29 400.7L288.29 400.68L288.29 400.65L288.29 400.63L288.3 400.61L288.31 400.58L288.31 400.56L288.32 400.53L288.33 400.51L288.35 400.48L288.36 400.46L288.37 400.43L288.39 400.41L288.4 400.38L288.42 400.35L288.44 400.33L288.45 400.3L288.47 400.27L288.49 400.25L288.51 400.22L288.53 400.19L288.56 400.16L288.58 400.13L288.6 400.11L288.62 400.08L288.65 400.05L290.24 398.3L290.21 398.27L289.95 397.93L289.7 397.59L289.48 397.23L289.28 396.87L289.2 396.71L286.12 396.19L286.07 396.18L286.02 396.17L285.97 396.16L285.93 396.15L285.88 396.14L285.83 396.13L285.79 396.12L285.74 396.11L285.7 396.1L285.66 396.08L285.61 396.07L285.57 396.06L285.53 396.05L285.49 396.04L285.45 396.03L285.42 396.01L285.38 396L285.35 395.99L285.31 395.98L285.28 395.96L285.25 395.95L285.22 395.93L285.19 395.92L285.16 395.9L285.13 395.89L285.11 395.87L285.09 395.86L285.06 395.84L285.04 395.82L285.02 395.8L285.01 395.78L284.99 395.76L284.98 395.74L284.97 395.72L284.96 395.7L284.95 395.68L284.94 395.66L284.93 395.64L284.93 395.61L284.93 395.59L284.93 391.98L284.93 391.95L284.93 391.93L284.94 391.91L284.95 391.88L284.96 391.86L284.97 391.84L284.98 391.82L284.99 391.8L285.01 391.78L285.02 391.76L285.04 391.74L285.06 391.72L285.09 391.7L285.11 391.69L285.13 391.67L285.16 391.65L285.19 391.64L285.22 391.62L285.25 391.61L285.28 391.59L285.31 391.58L285.35 391.56L285.38 391.55L285.42 391.54L285.45 391.52L285.49 391.51L285.53 391.5L285.57 391.49L285.61 391.48L285.66 391.47L285.7 391.46L285.74 391.45L285.79 391.44L285.83 391.43L285.88 391.42L285.93 391.41L285.97 391.4L286.02 391.39L286.07 391.39L286.12 391.38L289.2 390.86L289.28 390.7L289.48 390.33L289.7 389.98L289.95 389.63L290.21 389.29L290.24 389.26L288.65 387.51L288.62 387.48L288.6 387.45L288.58 387.43L288.56 387.4L288.53 387.37L288.51 387.34L288.49 387.31L288.47 387.29L288.45 387.26L288.44 387.23L288.42 387.21L288.4 387.18L288.39 387.15L288.37 387.13L288.36 387.1L288.35 387.08L288.33 387.05L288.32 387.03L288.31 387L288.31 386.98L288.3 386.95L288.29 386.93L288.29 386.91L288.29 386.88L288.29 386.86L288.29 386.84L288.29 386.81L288.29 386.79L288.3 386.77L288.3 386.75L288.31 386.73L288.32 386.71L288.34 386.69L288.35 386.67L288.37 386.65L288.38 386.63L288.4 386.61L288.43 386.59L288.45 386.57L288.48 386.56L292.51 384L292.53 383.99L292.56 383.97L292.59 383.96L292.62 383.94L292.65 383.93L292.69 383.92L292.72 383.91L292.75 383.9L292.78 383.9L292.82 383.89L292.85 383.89L292.89 383.88L292.92 383.88L292.96 383.88L293 383.88L293.03 383.88L293.07 383.88L293.11 383.88L293.15 383.88L293.19 383.89L293.23 383.89L293.27 383.9L293.3 383.9L293.35 383.91L293.39 383.92L293.43 383.93L293.47 383.93L293.51 383.94L293.55 383.96L293.59 383.97L293.63 383.98L293.68 383.99L293.72 384L293.76 384.02L293.8 384.03L293.85 384.05L293.89 384.06L293.93 384.08L293.97 384.09L294.02 384.11L296.77 385.12L296.83 385.1L297.37 384.94L297.91 384.78L298.47 384.64L299.04 384.51L299.3 384.46L300.12 382.51L300.13 382.48L300.14 382.45L300.16 382.42L300.17 382.39L300.18 382.36L300.2 382.33L300.21 382.3L300.23 382.27L300.24 382.24L300.26 382.22L300.28 382.19L300.29 382.16L300.31 382.14L300.33 382.11L300.35 382.09L300.37 382.07L300.39 382.04L300.41 382.02L300.43 382L300.46 381.98L300.48 381.96L300.5 381.94L300.53 381.92L300.55 381.9L300.58 381.89L300.61 381.87L300.63 381.86L300.66 381.84L300.69 381.83L300.72 381.82L300.75 381.81L300.78 381.8L300.82 381.79L300.85 381.78L300.89 381.77L300.92 381.77L300.96 381.76L300.99 381.76L301.03 381.76L301.07 381.76L306.77 381.76L306.81 381.76L306.84 381.76ZM303.24 388.54L302.9 388.56L302.57 388.59L302.24 388.63L301.92 388.68L301.6 388.73L301.29 388.79L300.99 388.86L300.68 388.94L300.39 389.02L300.1 389.11L299.82 389.21L299.54 389.31L299.27 389.42L299.01 389.54L298.76 389.66L298.51 389.79L298.27 389.92L298.04 390.06L297.82 390.21L297.61 390.36L297.41 390.52L297.21 390.68L297.03 390.84L296.86 391.01L296.69 391.19L296.54 391.37L296.4 391.55L296.26 391.74L296.14 391.93L296.03 392.12L295.94 392.32L295.85 392.52L295.78 392.72L295.72 392.93L295.67 393.14L295.64 393.35L295.62 393.57L295.61 393.78L295.62 394L295.64 394.21L295.67 394.43L295.72 394.64L295.78 394.84L295.85 395.05L295.94 395.25L296.03 395.45L296.14 395.64L296.26 395.83L296.4 396.02L296.54 396.2L296.69 396.38L296.86 396.55L297.03 396.72L297.21 396.89L297.41 397.05L297.61 397.21L297.82 397.36L298.04 397.5L298.27 397.64L298.51 397.78L298.76 397.91L299.01 398.03L299.27 398.15L299.54 398.26L299.82 398.36L300.1 398.46L300.39 398.55L300.68 398.63L300.99 398.71L301.29 398.78L301.6 398.84L301.92 398.89L302.24 398.94L302.57 398.98L302.9 399.01L303.24 399.03L303.58 399.04L303.92 399.04L304.26 399.04L304.6 399.03L304.93 399.01L305.27 398.98L305.59 398.94L305.91 398.89L306.23 398.84L306.54 398.78L306.85 398.71L307.15 398.63L307.45 398.55L307.74 398.46L308.02 398.36L308.29 398.26L308.56 398.15L308.82 398.03L309.08 397.91L309.32 397.78L309.56 397.64L309.79 397.5L310.01 397.36L310.23 397.21L310.43 397.05L310.62 396.89L310.81 396.72L310.98 396.55L311.14 396.38L311.3 396.2L311.44 396.02L311.57 395.83L311.69 395.64L311.8 395.45L311.9 395.25L311.98 395.05L312.06 394.84L312.12 394.64L312.16 394.43L312.2 394.21L312.22 394L312.23 393.78L312.22 393.57L312.2 393.35L312.16 393.14L312.12 392.93L312.06 392.72L311.98 392.52L311.9 392.32L311.8 392.12L311.69 391.93L311.57 391.74L311.44 391.55L311.3 391.37L311.14 391.19L310.98 391.01L310.81 390.84L310.62 390.68L310.43 390.52L310.23 390.36L310.01 390.21L309.79 390.06L309.56 389.92L309.32 389.79L309.08 389.66L308.82 389.54L308.56 389.42L308.29 389.31L308.02 389.21L307.74 389.11L307.45 389.02L307.15 388.94L306.85 388.86L306.54 388.79L306.23 388.73L305.91 388.68L305.59 388.63L305.27 388.59L304.93 388.56L304.6 388.54L304.26 388.53L303.92 388.52L303.58 388.53L303.24 388.54Z" id="c1cSmKkERo"></path><path d="M343.16 342.88L260.88 322.99L229.23 326.87L197.59 331.23L200.12 313.34L216.58 289.12L234.3 274.16L343.16 342.88Z" id="a1YAAHuosd"></path><path d="M263.41 317.99L336.36 341.87L322.91 355.87L293.07 366.2L259.61 358.97L222.91 381.76L201.39 381.76L211.51 351.87L233.03 327.99L263.41 317.99Z" id="jmeO0zJFe"></path><path d="M322.91 351.87L288.32 341.03L260.88 332.43L241.89 341.87L222.91 355.87L212.78 370.87" id="bbemWJ7iq"></path></defs><g><g><g><g><filter id="shadow3407210" x="257.21" y="232.86" width="159.3" height="66.99" filterUnits="userSpaceOnUse" primitiveUnits="userSpaceOnUse"><feFlood></feFlood><feComposite in2="SourceAlpha" operator="in"></feComposite><feGaussianBlur stdDeviation="1"></feGaussianBlur><feOffset dx="1" dy="1" result="afterOffset"></feOffset><feFlood flood-color="#000000" flood-opacity="0.5"></feFlood><feComposite in2="afterOffset" operator="in"></feComposite><feMorphology operator="dilate" radius="1"></feMorphology><feComposite in2="SourceAlpha" operator="out"></feComposite></filter><path d="M406.5 262.4L385.02 285.35L308.13 289.85L271.19 269.54L266.21 260.54L280.01 241.86L381.07 242.25L406.5 262.4Z" id="f8vM7O49z" fill="white" fill-opacity="1" filter="url(#shadow3407210)"></path></g><use xlink:href="#n6IBjimFQ" opacity="1" fill="#445151" fill-opacity="1"></use><g><use xlink:href="#n6IBjimFQ" opacity="1" fill-opacity="0" stroke="#9f9c9c" stroke-width="4" stroke-opacity="1"></use></g><g><filter id="shadow2946606" x="257.21" y="232.86" width="159.3" height="66.99" filterUnits="userSpaceOnUse" primitiveUnits="userSpaceOnUse"><feFlood></feFlood><feComposite in2="SourceAlpha" operator="out"></feComposite><feGaussianBlur stdDeviation="1"></feGaussianBlur><feOffset dx="1" dy="1" result="afterOffset"></feOffset><feFlood flood-color="#ffffff" flood-opacity="0.8"></feFlood><feComposite in2="afterOffset" operator="in"></feComposite><feMorphology operator="dilate" radius="1"></feMorphology><feComposite in2="SourceAlpha" operator="in"></feComposite></filter><path d="M406.5 262.4L385.02 285.35L308.13 289.85L271.19 269.54L266.21 260.54L280.01 241.86L381.07 242.25L406.5 262.4Z" id="g3BWTx8qak" fill="white" fill-opacity="1" filter="url(#shadow2946606)"></path></g></g><g><g><filter id="shadow12267683" x="177.51" y="219.75" width="255.71" height="188.17" filterUnits="userSpaceOnUse" primitiveUnits="userSpaceOnUse"><feFlood></feFlood><feComposite in2="SourceAlpha" operator="in"></feComposite><feGaussianBlur stdDeviation="1"></feGaussianBlur><feOffset dx="1" dy="1" result="afterOffset"></feOffset><feFlood flood-color="#000000" flood-opacity="0.5"></feFlood><feComposite in2="afterOffset" operator="in"></feComposite><feMorphology operator="dilate" radius="1"></feMorphology><feComposite in2="SourceAlpha" operator="out"></feComposite></filter><path d="M386.51 289.12L402.97 310.16L402.97 332.43L420.4 362.13L406.5 381.76L423.22 397.92L282.72 305.99L186.51 242.69C210.14 237.51 221.09 233.55 219.35 230.81C217.61 228.07 228.61 228.07 252.34 230.81L282.72 241.86C271.75 254.75 266.24 261.12 266.21 260.99C266.17 260.86 281.38 270.48 311.83 289.85L386.51 289.12Z" id="a29ALWjQSe" fill="white" fill-opacity="1" filter="url(#shadow12267683)"></path></g><use xlink:href="#aq2Hb5xx0" opacity="1" fill="#5cc0c0" fill-opacity="1"></use><g><use xlink:href="#aq2Hb5xx0" opacity="1" fill-opacity="0" stroke="#9f9c9c" stroke-width="4" stroke-opacity="1"></use></g><g><filter id="shadow15646718" x="177.51" y="219.75" width="255.71" height="188.17" filterUnits="userSpaceOnUse" primitiveUnits="userSpaceOnUse"><feFlood></feFlood><feComposite in2="SourceAlpha" operator="out"></feComposite><feGaussianBlur stdDeviation="1"></feGaussianBlur><feOffset dx="1" dy="1" result="afterOffset"></feOffset><feFlood flood-color="#ffffff" flood-opacity="0.8"></feFlood><feComposite in2="afterOffset" operator="in"></feComposite><feMorphology operator="dilate" radius="1"></feMorphology><feComposite in2="SourceAlpha" operator="in"></feComposite></filter><path d="M386.51 289.12L402.97 310.16L402.97 332.43L420.4 362.13L406.5 381.76L423.22 397.92L282.72 305.99L186.51 242.69C210.14 237.51 221.09 233.55 219.35 230.81C217.61 228.07 228.61 228.07 252.34 230.81L282.72 241.86C271.75 254.75 266.24 261.12 266.21 260.99C266.17 260.86 281.38 270.48 311.83 289.85L386.51 289.12Z" id="izCbRD9w1" fill="white" fill-opacity="1" filter="url(#shadow15646718)"></path></g></g><g><g><filter id="shadow3020670" x="268.34" y="349.97" width="244.32" height="71.28" filterUnits="userSpaceOnUse" primitiveUnits="userSpaceOnUse"><feFlood></feFlood><feComposite in2="SourceAlpha" operator="in"></feComposite><feGaussianBlur stdDeviation="1"></feGaussianBlur><feOffset dx="1" dy="1" result="afterOffset"></feOffset><feFlood flood-color="#000000" flood-opacity="0.5"></feFlood><feComposite in2="afterOffset" operator="in"></feComposite><feMorphology operator="dilate" radius="1"></feMorphology><feComposite in2="SourceAlpha" operator="out"></feComposite></filter><path d="M502.65 397.92L488.45 408.34L433.03 408.34L336.36 411.25L286.2 411.25L277.34 390.62L293.07 366.2L321.64 358.97L362.15 362.13" id="a4Hr6xU5nJ" fill="none" stroke="white" filter="url(#shadow3020670)"></path></g><use xlink:href="#a1gAhveORt" opacity="1" fill="#445151" fill-opacity="1"></use><g><use xlink:href="#a1gAhveORt" opacity="1" fill-opacity="0" stroke="#9f9c9c" stroke-width="4" stroke-opacity="1"></use></g><g><filter id="shadow16115689" x="268.34" y="349.97" width="244.32" height="71.28" filterUnits="userSpaceOnUse" primitiveUnits="userSpaceOnUse"><feFlood></feFlood><feComposite in2="SourceAlpha" operator="out"></feComposite><feGaussianBlur stdDeviation="1"></feGaussianBlur><feOffset dx="1" dy="1" result="afterOffset"></feOffset><feFlood flood-color="#ffffff" flood-opacity="0.8"></feFlood><feComposite in2="afterOffset" operator="in"></feComposite><feMorphology operator="dilate" radius="1"></feMorphology><feComposite in2="SourceAlpha" operator="in"></feComposite></filter><path d="M502.65 397.92L488.45 408.34L433.03 408.34L336.36 411.25L286.2 411.25L277.34 390.62L293.07 366.2L321.64 358.97L362.15 362.13" id="f5cdVTKS6" fill="none" stroke="white" filter="url(#shadow16115689)"></path></g></g><g><g><filter id="shadow9010710" x="275.93" y="372.76" width="56.97" height="43.05" filterUnits="userSpaceOnUse" primitiveUnits="userSpaceOnUse"><feFlood></feFlood><feComposite in2="SourceAlpha" operator="in"></feComposite><feGaussianBlur stdDeviation="1"></feGaussianBlur><feOffset dx="1" dy="1" result="afterOffset"></feOffset><feFlood flood-color="#000000" flood-opacity="0.5"></feFlood><feComposite in2="afterOffset" operator="in"></feComposite><feMorphology operator="dilate" radius="1"></feMorphology><feComposite in2="SourceAlpha" operator="out"></feComposite></filter><path d="M306.84 381.76L306.88 381.76L306.91 381.77L306.95 381.77L306.98 381.78L307.01 381.79L307.05 381.8L307.08 381.81L307.11 381.82L307.13 381.83L307.16 381.84L307.19 381.86L307.22 381.87L307.24 381.89L307.27 381.9L307.29 381.92L307.31 381.94L307.34 381.96L307.36 381.98L307.38 382L307.4 382.02L307.42 382.04L307.44 382.07L307.46 382.09L307.48 382.11L307.5 382.14L307.52 382.16L307.53 382.19L307.55 382.22L307.57 382.24L307.59 382.27L307.6 382.3L307.62 382.33L307.64 382.36L307.65 382.39L307.67 382.42L307.68 382.45L307.7 382.48L307.72 382.51L308.54 384.46L308.79 384.51L309.36 384.64L309.92 384.78L310.47 384.94L311.01 385.1L311.05 385.12L313.82 384.1L313.87 384.09L313.91 384.07L313.96 384.06L314 384.05L314.05 384.03L314.09 384.02L314.13 384.01L314.18 383.99L314.22 383.98L314.26 383.97L314.31 383.96L314.35 383.95L314.39 383.94L314.43 383.93L314.47 383.92L314.51 383.91L314.55 383.91L314.59 383.9L314.63 383.89L314.67 383.89L314.7 383.88L314.74 383.88L314.78 383.88L314.82 383.88L314.85 383.88L314.89 383.88L314.92 383.88L314.96 383.88L314.99 383.88L315.02 383.89L315.06 383.89L315.09 383.9L315.12 383.91L315.15 383.92L315.18 383.93L315.21 383.94L315.24 383.95L315.27 383.97L315.3 383.98L315.33 384L319.36 386.55L319.39 386.57L319.41 386.58L319.43 386.6L319.45 386.62L319.47 386.64L319.49 386.66L319.5 386.68L319.52 386.7L319.53 386.72L319.54 386.75L319.55 386.77L319.55 386.79L319.56 386.81L319.56 386.84L319.56 386.86L319.56 386.88L319.56 386.91L319.56 386.93L319.55 386.95L319.55 386.98L319.54 387L319.53 387.03L319.52 387.05L319.51 387.08L319.5 387.11L319.48 387.13L319.47 387.16L319.45 387.18L319.44 387.21L319.42 387.24L319.4 387.26L319.38 387.29L319.36 387.32L319.34 387.34L319.32 387.37L319.29 387.4L319.27 387.42L319.24 387.45L319.22 387.48L319.19 387.51L317.59 389.26L317.62 389.29L317.89 389.63L318.13 389.98L318.36 390.33L318.56 390.7L318.64 390.86L321.72 391.38L321.77 391.39L321.82 391.39L321.86 391.4L321.91 391.41L321.96 391.42L322 391.43L322.05 391.44L322.09 391.45L322.14 391.46L322.18 391.47L322.22 391.48L322.26 391.49L322.3 391.5L322.34 391.51L322.38 391.52L322.42 391.54L322.46 391.55L322.49 391.56L322.53 391.58L322.56 391.59L322.59 391.61L322.62 391.62L322.65 391.64L322.68 391.65L322.7 391.67L322.73 391.69L322.75 391.7L322.77 391.72L322.79 391.74L322.81 391.76L322.83 391.78L322.85 391.8L322.86 391.82L322.87 391.84L322.88 391.86L322.89 391.88L322.9 391.91L322.9 391.93L322.9 391.95L322.91 391.98L322.91 395.59L322.9 395.61L322.9 395.64L322.9 395.66L322.89 395.68L322.88 395.7L322.87 395.72L322.86 395.74L322.85 395.76L322.83 395.78L322.81 395.8L322.79 395.82L322.77 395.84L322.75 395.86L322.73 395.87L322.7 395.89L322.68 395.9L322.65 395.92L322.62 395.93L322.59 395.95L322.56 395.96L322.53 395.98L322.49 395.99L322.46 396L322.42 396.01L322.38 396.03L322.34 396.04L322.3 396.05L322.26 396.06L322.22 396.07L322.18 396.08L322.14 396.1L322.09 396.11L322.05 396.12L322 396.13L321.96 396.14L321.91 396.15L321.86 396.16L321.82 396.17L321.77 396.18L321.72 396.19L318.64 396.71L318.56 396.87L318.36 397.23L318.13 397.59L317.89 397.93L317.62 398.27L317.59 398.31L319.19 400.05L319.22 400.08L319.24 400.11L319.27 400.14L319.29 400.16L319.32 400.19L319.34 400.22L319.36 400.24L319.38 400.27L319.4 400.3L319.42 400.32L319.44 400.35L319.45 400.38L319.47 400.4L319.48 400.43L319.5 400.45L319.51 400.48L319.52 400.51L319.53 400.53L319.54 400.56L319.55 400.58L319.55 400.6L319.56 400.63L319.56 400.65L319.56 400.68L319.56 400.7L319.56 400.72L319.56 400.75L319.55 400.77L319.55 400.79L319.54 400.81L319.53 400.83L319.52 400.86L319.5 400.88L319.49 400.9L319.47 400.92L319.45 400.94L319.43 400.96L319.41 400.97L319.39 400.99L319.36 401.01L315.33 403.56L315.3 403.58L315.27 403.59L315.24 403.61L315.21 403.62L315.18 403.63L315.15 403.64L315.12 403.65L315.09 403.66L315.06 403.67L315.02 403.67L314.99 403.68L314.96 403.68L314.92 403.68L314.89 403.68L314.85 403.68L314.82 403.68L314.78 403.68L314.74 403.68L314.7 403.68L314.67 403.67L314.63 403.67L314.59 403.66L314.55 403.65L314.51 403.65L314.47 403.64L314.43 403.63L314.39 403.62L314.35 403.61L314.31 403.6L314.26 403.59L314.22 403.58L314.18 403.57L314.13 403.55L314.09 403.54L314.05 403.53L314 403.51L313.96 403.5L313.91 403.48L313.87 403.47L313.82 403.46L311.06 402.44L311.01 402.46L310.47 402.63L309.92 402.79L309.36 402.93L308.79 403.06L308.54 403.11L307.72 405.06L307.7 405.09L307.68 405.12L307.67 405.15L307.65 405.18L307.64 405.21L307.62 405.24L307.6 405.27L307.59 405.29L307.57 405.32L307.55 405.35L307.53 405.38L307.52 405.4L307.5 405.43L307.48 405.45L307.46 405.48L307.44 405.5L307.42 405.52L307.4 405.55L307.38 405.57L307.36 405.59L307.34 405.61L307.31 405.63L307.29 405.65L307.27 405.66L307.24 405.68L307.22 405.7L307.19 405.71L307.16 405.72L307.13 405.74L307.11 405.75L307.08 405.76L307.05 405.77L307.01 405.78L306.98 405.79L306.95 405.79L306.91 405.8L306.88 405.8L306.84 405.81L306.81 405.81L306.77 405.81L301.07 405.81L301.03 405.81L300.99 405.81L300.96 405.8L300.92 405.8L300.89 405.79L300.85 405.79L300.82 405.78L300.78 405.77L300.75 405.76L300.72 405.75L300.69 405.74L300.66 405.72L300.63 405.71L300.61 405.7L300.58 405.68L300.55 405.66L300.53 405.65L300.5 405.63L300.48 405.61L300.46 405.59L300.43 405.57L300.41 405.55L300.39 405.52L300.37 405.5L300.35 405.48L300.33 405.45L300.31 405.43L300.29 405.4L300.28 405.38L300.26 405.35L300.24 405.32L300.23 405.29L300.21 405.27L300.2 405.24L300.18 405.21L300.17 405.18L300.16 405.15L300.14 405.12L300.13 405.09L300.12 405.06L299.3 403.11L299.04 403.06L298.47 402.93L297.91 402.79L297.37 402.63L296.83 402.46L296.76 402.44L294.02 403.45L293.97 403.47L293.93 403.48L293.89 403.5L293.85 403.51L293.8 403.53L293.76 403.54L293.72 403.56L293.68 403.57L293.63 403.58L293.59 403.59L293.55 403.6L293.51 403.62L293.47 403.63L293.43 403.63L293.39 403.64L293.35 403.65L293.3 403.66L293.27 403.66L293.23 403.67L293.19 403.67L293.15 403.68L293.11 403.68L293.07 403.68L293.03 403.68L293 403.68L292.96 403.68L292.92 403.68L292.89 403.68L292.85 403.67L292.82 403.67L292.78 403.66L292.75 403.66L292.72 403.65L292.69 403.64L292.65 403.63L292.62 403.61L292.59 403.6L292.56 403.59L292.53 403.57L292.51 403.55L288.48 401L288.45 400.99L288.43 400.97L288.4 400.95L288.38 400.93L288.37 400.91L288.35 400.89L288.34 400.87L288.32 400.85L288.31 400.83L288.3 400.81L288.3 400.79L288.29 400.77L288.29 400.75L288.29 400.72L288.29 400.7L288.29 400.68L288.29 400.65L288.29 400.63L288.3 400.61L288.31 400.58L288.31 400.56L288.32 400.53L288.33 400.51L288.35 400.48L288.36 400.46L288.37 400.43L288.39 400.41L288.4 400.38L288.42 400.35L288.44 400.33L288.45 400.3L288.47 400.27L288.49 400.25L288.51 400.22L288.53 400.19L288.56 400.16L288.58 400.13L288.6 400.11L288.62 400.08L288.65 400.05L290.24 398.3L290.21 398.27L289.95 397.93L289.7 397.59L289.48 397.23L289.28 396.87L289.2 396.71L286.12 396.19L286.07 396.18L286.02 396.17L285.97 396.16L285.93 396.15L285.88 396.14L285.83 396.13L285.79 396.12L285.74 396.11L285.7 396.1L285.66 396.08L285.61 396.07L285.57 396.06L285.53 396.05L285.49 396.04L285.45 396.03L285.42 396.01L285.38 396L285.35 395.99L285.31 395.98L285.28 395.96L285.25 395.95L285.22 395.93L285.19 395.92L285.16 395.9L285.13 395.89L285.11 395.87L285.09 395.86L285.06 395.84L285.04 395.82L285.02 395.8L285.01 395.78L284.99 395.76L284.98 395.74L284.97 395.72L284.96 395.7L284.95 395.68L284.94 395.66L284.93 395.64L284.93 395.61L284.93 395.59L284.93 391.98L284.93 391.95L284.93 391.93L284.94 391.91L284.95 391.88L284.96 391.86L284.97 391.84L284.98 391.82L284.99 391.8L285.01 391.78L285.02 391.76L285.04 391.74L285.06 391.72L285.09 391.7L285.11 391.69L285.13 391.67L285.16 391.65L285.19 391.64L285.22 391.62L285.25 391.61L285.28 391.59L285.31 391.58L285.35 391.56L285.38 391.55L285.42 391.54L285.45 391.52L285.49 391.51L285.53 391.5L285.57 391.49L285.61 391.48L285.66 391.47L285.7 391.46L285.74 391.45L285.79 391.44L285.83 391.43L285.88 391.42L285.93 391.41L285.97 391.4L286.02 391.39L286.07 391.39L286.12 391.38L289.2 390.86L289.28 390.7L289.48 390.33L289.7 389.98L289.95 389.63L290.21 389.29L290.24 389.26L288.65 387.51L288.62 387.48L288.6 387.45L288.58 387.43L288.56 387.4L288.53 387.37L288.51 387.34L288.49 387.31L288.47 387.29L288.45 387.26L288.44 387.23L288.42 387.21L288.4 387.18L288.39 387.15L288.37 387.13L288.36 387.1L288.35 387.08L288.33 387.05L288.32 387.03L288.31 387L288.31 386.98L288.3 386.95L288.29 386.93L288.29 386.91L288.29 386.88L288.29 386.86L288.29 386.84L288.29 386.81L288.29 386.79L288.3 386.77L288.3 386.75L288.31 386.73L288.32 386.71L288.34 386.69L288.35 386.67L288.37 386.65L288.38 386.63L288.4 386.61L288.43 386.59L288.45 386.57L288.48 386.56L292.51 384L292.53 383.99L292.56 383.97L292.59 383.96L292.62 383.94L292.65 383.93L292.69 383.92L292.72 383.91L292.75 383.9L292.78 383.9L292.82 383.89L292.85 383.89L292.89 383.88L292.92 383.88L292.96 383.88L293 383.88L293.03 383.88L293.07 383.88L293.11 383.88L293.15 383.88L293.19 383.89L293.23 383.89L293.27 383.9L293.3 383.9L293.35 383.91L293.39 383.92L293.43 383.93L293.47 383.93L293.51 383.94L293.55 383.96L293.59 383.97L293.63 383.98L293.68 383.99L293.72 384L293.76 384.02L293.8 384.03L293.85 384.05L293.89 384.06L293.93 384.08L293.97 384.09L294.02 384.11L296.77 385.12L296.83 385.1L297.37 384.94L297.91 384.78L298.47 384.64L299.04 384.51L299.3 384.46L300.12 382.51L300.13 382.48L300.14 382.45L300.16 382.42L300.17 382.39L300.18 382.36L300.2 382.33L300.21 382.3L300.23 382.27L300.24 382.24L300.26 382.22L300.28 382.19L300.29 382.16L300.31 382.14L300.33 382.11L300.35 382.09L300.37 382.07L300.39 382.04L300.41 382.02L300.43 382L300.46 381.98L300.48 381.96L300.5 381.94L300.53 381.92L300.55 381.9L300.58 381.89L300.61 381.87L300.63 381.86L300.66 381.84L300.69 381.83L300.72 381.82L300.75 381.81L300.78 381.8L300.82 381.79L300.85 381.78L300.89 381.77L300.92 381.77L300.96 381.76L300.99 381.76L301.03 381.76L301.07 381.76L306.77 381.76L306.81 381.76L306.84 381.76ZM303.24 388.54L302.9 388.56L302.57 388.59L302.24 388.63L301.92 388.68L301.6 388.73L301.29 388.79L300.99 388.86L300.68 388.94L300.39 389.02L300.1 389.11L299.82 389.21L299.54 389.31L299.27 389.42L299.01 389.54L298.76 389.66L298.51 389.79L298.27 389.92L298.04 390.06L297.82 390.21L297.61 390.36L297.41 390.52L297.21 390.68L297.03 390.84L296.86 391.01L296.69 391.19L296.54 391.37L296.4 391.55L296.26 391.74L296.14 391.93L296.03 392.12L295.94 392.32L295.85 392.52L295.78 392.72L295.72 392.93L295.67 393.14L295.64 393.35L295.62 393.57L295.61 393.78L295.62 394L295.64 394.21L295.67 394.43L295.72 394.64L295.78 394.84L295.85 395.05L295.94 395.25L296.03 395.45L296.14 395.64L296.26 395.83L296.4 396.02L296.54 396.2L296.69 396.38L296.86 396.55L297.03 396.72L297.21 396.89L297.41 397.05L297.61 397.21L297.82 397.36L298.04 397.5L298.27 397.64L298.51 397.78L298.76 397.91L299.01 398.03L299.27 398.15L299.54 398.26L299.82 398.36L300.1 398.46L300.39 398.55L300.68 398.63L300.99 398.71L301.29 398.78L301.6 398.84L301.92 398.89L302.24 398.94L302.57 398.98L302.9 399.01L303.24 399.03L303.58 399.04L303.92 399.04L304.26 399.04L304.6 399.03L304.93 399.01L305.27 398.98L305.59 398.94L305.91 398.89L306.23 398.84L306.54 398.78L306.85 398.71L307.15 398.63L307.45 398.55L307.74 398.46L308.02 398.36L308.29 398.26L308.56 398.15L308.82 398.03L309.08 397.91L309.32 397.78L309.56 397.64L309.79 397.5L310.01 397.36L310.23 397.21L310.43 397.05L310.62 396.89L310.81 396.72L310.98 396.55L311.14 396.38L311.3 396.2L311.44 396.02L311.57 395.83L311.69 395.64L311.8 395.45L311.9 395.25L311.98 395.05L312.06 394.84L312.12 394.64L312.16 394.43L312.2 394.21L312.22 394L312.23 393.78L312.22 393.57L312.2 393.35L312.16 393.14L312.12 392.93L312.06 392.72L311.98 392.52L311.9 392.32L311.8 392.12L311.69 391.93L311.57 391.74L311.44 391.55L311.3 391.37L311.14 391.19L310.98 391.01L310.81 390.84L310.62 390.68L310.43 390.52L310.23 390.36L310.01 390.21L309.79 390.06L309.56 389.92L309.32 389.79L309.08 389.66L308.82 389.54L308.56 389.42L308.29 389.31L308.02 389.21L307.74 389.11L307.45 389.02L307.15 388.94L306.85 388.86L306.54 388.79L306.23 388.73L305.91 388.68L305.59 388.63L305.27 388.59L304.93 388.56L304.6 388.54L304.26 388.53L303.92 388.52L303.58 388.53L303.24 388.54Z" id="as6skaWIF" fill="white" fill-opacity="1" filter="url(#shadow9010710)"></path></g><use xlink:href="#c1cSmKkERo" opacity="1" fill="#445151" fill-opacity="1"></use><g><use xlink:href="#c1cSmKkERo" opacity="1" fill-opacity="0" stroke="#272727" stroke-width="2" stroke-opacity="1"></use></g><g><filter id="shadow16650467" x="275.93" y="372.76" width="56.97" height="43.05" filterUnits="userSpaceOnUse" primitiveUnits="userSpaceOnUse"><feFlood></feFlood><feComposite in2="SourceAlpha" operator="out"></feComposite><feGaussianBlur stdDeviation="1"></feGaussianBlur><feOffset dx="1" dy="1" result="afterOffset"></feOffset><feFlood flood-color="#ffffff" flood-opacity="0.8"></feFlood><feComposite in2="afterOffset" operator="in"></feComposite><feMorphology operator="dilate" radius="1"></feMorphology><feComposite in2="SourceAlpha" operator="in"></feComposite></filter><path d="M306.84 381.76L306.88 381.76L306.91 381.77L306.95 381.77L306.98 381.78L307.01 381.79L307.05 381.8L307.08 381.81L307.11 381.82L307.13 381.83L307.16 381.84L307.19 381.86L307.22 381.87L307.24 381.89L307.27 381.9L307.29 381.92L307.31 381.94L307.34 381.96L307.36 381.98L307.38 382L307.4 382.02L307.42 382.04L307.44 382.07L307.46 382.09L307.48 382.11L307.5 382.14L307.52 382.16L307.53 382.19L307.55 382.22L307.57 382.24L307.59 382.27L307.6 382.3L307.62 382.33L307.64 382.36L307.65 382.39L307.67 382.42L307.68 382.45L307.7 382.48L307.72 382.51L308.54 384.46L308.79 384.51L309.36 384.64L309.92 384.78L310.47 384.94L311.01 385.1L311.05 385.12L313.82 384.1L313.87 384.09L313.91 384.07L313.96 384.06L314 384.05L314.05 384.03L314.09 384.02L314.13 384.01L314.18 383.99L314.22 383.98L314.26 383.97L314.31 383.96L314.35 383.95L314.39 383.94L314.43 383.93L314.47 383.92L314.51 383.91L314.55 383.91L314.59 383.9L314.63 383.89L314.67 383.89L314.7 383.88L314.74 383.88L314.78 383.88L314.82 383.88L314.85 383.88L314.89 383.88L314.92 383.88L314.96 383.88L314.99 383.88L315.02 383.89L315.06 383.89L315.09 383.9L315.12 383.91L315.15 383.92L315.18 383.93L315.21 383.94L315.24 383.95L315.27 383.97L315.3 383.98L315.33 384L319.36 386.55L319.39 386.57L319.41 386.58L319.43 386.6L319.45 386.62L319.47 386.64L319.49 386.66L319.5 386.68L319.52 386.7L319.53 386.72L319.54 386.75L319.55 386.77L319.55 386.79L319.56 386.81L319.56 386.84L319.56 386.86L319.56 386.88L319.56 386.91L319.56 386.93L319.55 386.95L319.55 386.98L319.54 387L319.53 387.03L319.52 387.05L319.51 387.08L319.5 387.11L319.48 387.13L319.47 387.16L319.45 387.18L319.44 387.21L319.42 387.24L319.4 387.26L319.38 387.29L319.36 387.32L319.34 387.34L319.32 387.37L319.29 387.4L319.27 387.42L319.24 387.45L319.22 387.48L319.19 387.51L317.59 389.26L317.62 389.29L317.89 389.63L318.13 389.98L318.36 390.33L318.56 390.7L318.64 390.86L321.72 391.38L321.77 391.39L321.82 391.39L321.86 391.4L321.91 391.41L321.96 391.42L322 391.43L322.05 391.44L322.09 391.45L322.14 391.46L322.18 391.47L322.22 391.48L322.26 391.49L322.3 391.5L322.34 391.51L322.38 391.52L322.42 391.54L322.46 391.55L322.49 391.56L322.53 391.58L322.56 391.59L322.59 391.61L322.62 391.62L322.65 391.64L322.68 391.65L322.7 391.67L322.73 391.69L322.75 391.7L322.77 391.72L322.79 391.74L322.81 391.76L322.83 391.78L322.85 391.8L322.86 391.82L322.87 391.84L322.88 391.86L322.89 391.88L322.9 391.91L322.9 391.93L322.9 391.95L322.91 391.98L322.91 395.59L322.9 395.61L322.9 395.64L322.9 395.66L322.89 395.68L322.88 395.7L322.87 395.72L322.86 395.74L322.85 395.76L322.83 395.78L322.81 395.8L322.79 395.82L322.77 395.84L322.75 395.86L322.73 395.87L322.7 395.89L322.68 395.9L322.65 395.92L322.62 395.93L322.59 395.95L322.56 395.96L322.53 395.98L322.49 395.99L322.46 396L322.42 396.01L322.38 396.03L322.34 396.04L322.3 396.05L322.26 396.06L322.22 396.07L322.18 396.08L322.14 396.1L322.09 396.11L322.05 396.12L322 396.13L321.96 396.14L321.91 396.15L321.86 396.16L321.82 396.17L321.77 396.18L321.72 396.19L318.64 396.71L318.56 396.87L318.36 397.23L318.13 397.59L317.89 397.93L317.62 398.27L317.59 398.31L319.19 400.05L319.22 400.08L319.24 400.11L319.27 400.14L319.29 400.16L319.32 400.19L319.34 400.22L319.36 400.24L319.38 400.27L319.4 400.3L319.42 400.32L319.44 400.35L319.45 400.38L319.47 400.4L319.48 400.43L319.5 400.45L319.51 400.48L319.52 400.51L319.53 400.53L319.54 400.56L319.55 400.58L319.55 400.6L319.56 400.63L319.56 400.65L319.56 400.68L319.56 400.7L319.56 400.72L319.56 400.75L319.55 400.77L319.55 400.79L319.54 400.81L319.53 400.83L319.52 400.86L319.5 400.88L319.49 400.9L319.47 400.92L319.45 400.94L319.43 400.96L319.41 400.97L319.39 400.99L319.36 401.01L315.33 403.56L315.3 403.58L315.27 403.59L315.24 403.61L315.21 403.62L315.18 403.63L315.15 403.64L315.12 403.65L315.09 403.66L315.06 403.67L315.02 403.67L314.99 403.68L314.96 403.68L314.92 403.68L314.89 403.68L314.85 403.68L314.82 403.68L314.78 403.68L314.74 403.68L314.7 403.68L314.67 403.67L314.63 403.67L314.59 403.66L314.55 403.65L314.51 403.65L314.47 403.64L314.43 403.63L314.39 403.62L314.35 403.61L314.31 403.6L314.26 403.59L314.22 403.58L314.18 403.57L314.13 403.55L314.09 403.54L314.05 403.53L314 403.51L313.96 403.5L313.91 403.48L313.87 403.47L313.82 403.46L311.06 402.44L311.01 402.46L310.47 402.63L309.92 402.79L309.36 402.93L308.79 403.06L308.54 403.11L307.72 405.06L307.7 405.09L307.68 405.12L307.67 405.15L307.65 405.18L307.64 405.21L307.62 405.24L307.6 405.27L307.59 405.29L307.57 405.32L307.55 405.35L307.53 405.38L307.52 405.4L307.5 405.43L307.48 405.45L307.46 405.48L307.44 405.5L307.42 405.52L307.4 405.55L307.38 405.57L307.36 405.59L307.34 405.61L307.31 405.63L307.29 405.65L307.27 405.66L307.24 405.68L307.22 405.7L307.19 405.71L307.16 405.72L307.13 405.74L307.11 405.75L307.08 405.76L307.05 405.77L307.01 405.78L306.98 405.79L306.95 405.79L306.91 405.8L306.88 405.8L306.84 405.81L306.81 405.81L306.77 405.81L301.07 405.81L301.03 405.81L300.99 405.81L300.96 405.8L300.92 405.8L300.89 405.79L300.85 405.79L300.82 405.78L300.78 405.77L300.75 405.76L300.72 405.75L300.69 405.74L300.66 405.72L300.63 405.71L300.61 405.7L300.58 405.68L300.55 405.66L300.53 405.65L300.5 405.63L300.48 405.61L300.46 405.59L300.43 405.57L300.41 405.55L300.39 405.52L300.37 405.5L300.35 405.48L300.33 405.45L300.31 405.43L300.29 405.4L300.28 405.38L300.26 405.35L300.24 405.32L300.23 405.29L300.21 405.27L300.2 405.24L300.18 405.21L300.17 405.18L300.16 405.15L300.14 405.12L300.13 405.09L300.12 405.06L299.3 403.11L299.04 403.06L298.47 402.93L297.91 402.79L297.37 402.63L296.83 402.46L296.76 402.44L294.02 403.45L293.97 403.47L293.93 403.48L293.89 403.5L293.85 403.51L293.8 403.53L293.76 403.54L293.72 403.56L293.68 403.57L293.63 403.58L293.59 403.59L293.55 403.6L293.51 403.62L293.47 403.63L293.43 403.63L293.39 403.64L293.35 403.65L293.3 403.66L293.27 403.66L293.23 403.67L293.19 403.67L293.15 403.68L293.11 403.68L293.07 403.68L293.03 403.68L293 403.68L292.96 403.68L292.92 403.68L292.89 403.68L292.85 403.67L292.82 403.67L292.78 403.66L292.75 403.66L292.72 403.65L292.69 403.64L292.65 403.63L292.62 403.61L292.59 403.6L292.56 403.59L292.53 403.57L292.51 403.55L288.48 401L288.45 400.99L288.43 400.97L288.4 400.95L288.38 400.93L288.37 400.91L288.35 400.89L288.34 400.87L288.32 400.85L288.31 400.83L288.3 400.81L288.3 400.79L288.29 400.77L288.29 400.75L288.29 400.72L288.29 400.7L288.29 400.68L288.29 400.65L288.29 400.63L288.3 400.61L288.31 400.58L288.31 400.56L288.32 400.53L288.33 400.51L288.35 400.48L288.36 400.46L288.37 400.43L288.39 400.41L288.4 400.38L288.42 400.35L288.44 400.33L288.45 400.3L288.47 400.27L288.49 400.25L288.51 400.22L288.53 400.19L288.56 400.16L288.58 400.13L288.6 400.11L288.62 400.08L288.65 400.05L290.24 398.3L290.21 398.27L289.95 397.93L289.7 397.59L289.48 397.23L289.28 396.87L289.2 396.71L286.12 396.19L286.07 396.18L286.02 396.17L285.97 396.16L285.93 396.15L285.88 396.14L285.83 396.13L285.79 396.12L285.74 396.11L285.7 396.1L285.66 396.08L285.61 396.07L285.57 396.06L285.53 396.05L285.49 396.04L285.45 396.03L285.42 396.01L285.38 396L285.35 395.99L285.31 395.98L285.28 395.96L285.25 395.95L285.22 395.93L285.19 395.92L285.16 395.9L285.13 395.89L285.11 395.87L285.09 395.86L285.06 395.84L285.04 395.82L285.02 395.8L285.01 395.78L284.99 395.76L284.98 395.74L284.97 395.72L284.96 395.7L284.95 395.68L284.94 395.66L284.93 395.64L284.93 395.61L284.93 395.59L284.93 391.98L284.93 391.95L284.93 391.93L284.94 391.91L284.95 391.88L284.96 391.86L284.97 391.84L284.98 391.82L284.99 391.8L285.01 391.78L285.02 391.76L285.04 391.74L285.06 391.72L285.09 391.7L285.11 391.69L285.13 391.67L285.16 391.65L285.19 391.64L285.22 391.62L285.25 391.61L285.28 391.59L285.31 391.58L285.35 391.56L285.38 391.55L285.42 391.54L285.45 391.52L285.49 391.51L285.53 391.5L285.57 391.49L285.61 391.48L285.66 391.47L285.7 391.46L285.74 391.45L285.79 391.44L285.83 391.43L285.88 391.42L285.93 391.41L285.97 391.4L286.02 391.39L286.07 391.39L286.12 391.38L289.2 390.86L289.28 390.7L289.48 390.33L289.7 389.98L289.95 389.63L290.21 389.29L290.24 389.26L288.65 387.51L288.62 387.48L288.6 387.45L288.58 387.43L288.56 387.4L288.53 387.37L288.51 387.34L288.49 387.31L288.47 387.29L288.45 387.26L288.44 387.23L288.42 387.21L288.4 387.18L288.39 387.15L288.37 387.13L288.36 387.1L288.35 387.08L288.33 387.05L288.32 387.03L288.31 387L288.31 386.98L288.3 386.95L288.29 386.93L288.29 386.91L288.29 386.88L288.29 386.86L288.29 386.84L288.29 386.81L288.29 386.79L288.3 386.77L288.3 386.75L288.31 386.73L288.32 386.71L288.34 386.69L288.35 386.67L288.37 386.65L288.38 386.63L288.4 386.61L288.43 386.59L288.45 386.57L288.48 386.56L292.51 384L292.53 383.99L292.56 383.97L292.59 383.96L292.62 383.94L292.65 383.93L292.69 383.92L292.72 383.91L292.75 383.9L292.78 383.9L292.82 383.89L292.85 383.89L292.89 383.88L292.92 383.88L292.96 383.88L293 383.88L293.03 383.88L293.07 383.88L293.11 383.88L293.15 383.88L293.19 383.89L293.23 383.89L293.27 383.9L293.3 383.9L293.35 383.91L293.39 383.92L293.43 383.93L293.47 383.93L293.51 383.94L293.55 383.96L293.59 383.97L293.63 383.98L293.68 383.99L293.72 384L293.76 384.02L293.8 384.03L293.85 384.05L293.89 384.06L293.93 384.08L293.97 384.09L294.02 384.11L296.77 385.12L296.83 385.1L297.37 384.94L297.91 384.78L298.47 384.64L299.04 384.51L299.3 384.46L300.12 382.51L300.13 382.48L300.14 382.45L300.16 382.42L300.17 382.39L300.18 382.36L300.2 382.33L300.21 382.3L300.23 382.27L300.24 382.24L300.26 382.22L300.28 382.19L300.29 382.16L300.31 382.14L300.33 382.11L300.35 382.09L300.37 382.07L300.39 382.04L300.41 382.02L300.43 382L300.46 381.98L300.48 381.96L300.5 381.94L300.53 381.92L300.55 381.9L300.58 381.89L300.61 381.87L300.63 381.86L300.66 381.84L300.69 381.83L300.72 381.82L300.75 381.81L300.78 381.8L300.82 381.79L300.85 381.78L300.89 381.77L300.92 381.77L300.96 381.76L300.99 381.76L301.03 381.76L301.07 381.76L306.77 381.76L306.81 381.76L306.84 381.76ZM303.24 388.54L302.9 388.56L302.57 388.59L302.24 388.63L301.92 388.68L301.6 388.73L301.29 388.79L300.99 388.86L300.68 388.94L300.39 389.02L300.1 389.11L299.82 389.21L299.54 389.31L299.27 389.42L299.01 389.54L298.76 389.66L298.51 389.79L298.27 389.92L298.04 390.06L297.82 390.21L297.61 390.36L297.41 390.52L297.21 390.68L297.03 390.84L296.86 391.01L296.69 391.19L296.54 391.37L296.4 391.55L296.26 391.74L296.14 391.93L296.03 392.12L295.94 392.32L295.85 392.52L295.78 392.72L295.72 392.93L295.67 393.14L295.64 393.35L295.62 393.57L295.61 393.78L295.62 394L295.64 394.21L295.67 394.43L295.72 394.64L295.78 394.84L295.85 395.05L295.94 395.25L296.03 395.45L296.14 395.64L296.26 395.83L296.4 396.02L296.54 396.2L296.69 396.38L296.86 396.55L297.03 396.72L297.21 396.89L297.41 397.05L297.61 397.21L297.82 397.36L298.04 397.5L298.27 397.64L298.51 397.78L298.76 397.91L299.01 398.03L299.27 398.15L299.54 398.26L299.82 398.36L300.1 398.46L300.39 398.55L300.68 398.63L300.99 398.71L301.29 398.78L301.6 398.84L301.92 398.89L302.24 398.94L302.57 398.98L302.9 399.01L303.24 399.03L303.58 399.04L303.92 399.04L304.26 399.04L304.6 399.03L304.93 399.01L305.27 398.98L305.59 398.94L305.91 398.89L306.23 398.84L306.54 398.78L306.85 398.71L307.15 398.63L307.45 398.55L307.74 398.46L308.02 398.36L308.29 398.26L308.56 398.15L308.82 398.03L309.08 397.91L309.32 397.78L309.56 397.64L309.79 397.5L310.01 397.36L310.23 397.21L310.43 397.05L310.62 396.89L310.81 396.72L310.98 396.55L311.14 396.38L311.3 396.2L311.44 396.02L311.57 395.83L311.69 395.64L311.8 395.45L311.9 395.25L311.98 395.05L312.06 394.84L312.12 394.64L312.16 394.43L312.2 394.21L312.22 394L312.23 393.78L312.22 393.57L312.2 393.35L312.16 393.14L312.12 392.93L312.06 392.72L311.98 392.52L311.9 392.32L311.8 392.12L311.69 391.93L311.57 391.74L311.44 391.55L311.3 391.37L311.14 391.19L310.98 391.01L310.81 390.84L310.62 390.68L310.43 390.52L310.23 390.36L310.01 390.21L309.79 390.06L309.56 389.92L309.32 389.79L309.08 389.66L308.82 389.54L308.56 389.42L308.29 389.31L308.02 389.21L307.74 389.11L307.45 389.02L307.15 388.94L306.85 388.86L306.54 388.79L306.23 388.73L305.91 388.68L305.59 388.63L305.27 388.59L304.93 388.56L304.6 388.54L304.26 388.53L303.92 388.52L303.58 388.53L303.24 388.54Z" id="a4nL3xPvB" fill="white" fill-opacity="1" filter="url(#shadow16650467)"></path></g></g><g><g><filter id="shadow7089664" x="188.59" y="265.16" width="164.57" height="87.72" filterUnits="userSpaceOnUse" primitiveUnits="userSpaceOnUse"><feFlood></feFlood><feComposite in2="SourceAlpha" operator="in"></feComposite><feGaussianBlur stdDeviation="1"></feGaussianBlur><feOffset dx="1" dy="1" result="afterOffset"></feOffset><feFlood flood-color="#000000" flood-opacity="0.5"></feFlood><feComposite in2="afterOffset" operator="in"></feComposite><feMorphology operator="dilate" radius="1"></feMorphology><feComposite in2="SourceAlpha" operator="out"></feComposite></filter><path d="M343.16 342.88L260.88 322.99L229.23 326.87L197.59 331.23L200.12 313.34L216.58 289.12L234.3 274.16L343.16 342.88Z" id="d4lx0y2xdg" fill="white" fill-opacity="1" filter="url(#shadow7089664)"></path></g><use xlink:href="#a1YAAHuosd" opacity="1" fill="#0b0b0b" fill-opacity="1"></use><g><use xlink:href="#a1YAAHuosd" opacity="1" fill-opacity="0" stroke="#040404" stroke-width="4" stroke-opacity="1"></use></g><g><filter id="shadow391883" x="188.59" y="265.16" width="164.57" height="87.72" filterUnits="userSpaceOnUse" primitiveUnits="userSpaceOnUse"><feFlood></feFlood><feComposite in2="SourceAlpha" operator="out"></feComposite><feGaussianBlur stdDeviation="1"></feGaussianBlur><feOffset dx="1" dy="1" result="afterOffset"></feOffset><feFlood flood-color="#ffffff" flood-opacity="0.8"></feFlood><feComposite in2="afterOffset" operator="in"></feComposite><feMorphology operator="dilate" radius="1"></feMorphology><feComposite in2="SourceAlpha" operator="in"></feComposite></filter><path d="M343.16 342.88L260.88 322.99L229.23 326.87L197.59 331.23L200.12 313.34L216.58 289.12L234.3 274.16L343.16 342.88Z" id="a7sXBpDLa" fill="white" fill-opacity="1" filter="url(#shadow391883)"></path></g></g><g><g><filter id="shadow1435711" x="192.39" y="308.99" width="153.97" height="82.76" filterUnits="userSpaceOnUse" primitiveUnits="userSpaceOnUse"><feFlood></feFlood><feComposite in2="SourceAlpha" operator="in"></feComposite><feGaussianBlur stdDeviation="1"></feGaussianBlur><feOffset dx="1" dy="1" result="afterOffset"></feOffset><feFlood flood-color="#000000" flood-opacity="0.5"></feFlood><feComposite in2="afterOffset" operator="in"></feComposite><feMorphology operator="dilate" radius="1"></feMorphology><feComposite in2="SourceAlpha" operator="out"></feComposite></filter><path d="M263.41 317.99L336.36 341.87L322.91 355.87L293.07 366.2L259.61 358.97L222.91 381.76L201.39 381.76L211.51 351.87L233.03 327.99L263.41 317.99Z" id="gOO7gcNhJ" fill="white" fill-opacity="1" filter="url(#shadow1435711)"></path></g><use xlink:href="#jmeO0zJFe" opacity="1" fill="#49bfbf" fill-opacity="1"></use><g><use xlink:href="#jmeO0zJFe" opacity="1" fill-opacity="0" stroke="#a39b9b" stroke-width="4" stroke-opacity="1"></use></g><g><filter id="shadow6536248" x="192.39" y="308.99" width="153.97" height="82.76" filterUnits="userSpaceOnUse" primitiveUnits="userSpaceOnUse"><feFlood></feFlood><feComposite in2="SourceAlpha" operator="out"></feComposite><feGaussianBlur stdDeviation="1"></feGaussianBlur><feOffset dx="1" dy="1" result="afterOffset"></feOffset><feFlood flood-color="#ffffff" flood-opacity="0.8"></feFlood><feComposite in2="afterOffset" operator="in"></feComposite><feMorphology operator="dilate" radius="1"></feMorphology><feComposite in2="SourceAlpha" operator="in"></feComposite></filter><path d="M263.41 317.99L336.36 341.87L322.91 355.87L293.07 366.2L259.61 358.97L222.91 381.76L201.39 381.76L211.51 351.87L233.03 327.99L263.41 317.99Z" id="e1OLaxHZ2S" fill="white" fill-opacity="1" filter="url(#shadow6536248)"></path></g></g><g><g><filter id="shadow13848695" x="203.78" y="323.43" width="129.13" height="57.44" filterUnits="userSpaceOnUse" primitiveUnits="userSpaceOnUse"><feFlood></feFlood><feComposite in2="SourceAlpha" operator="in"></feComposite><feGaussianBlur stdDeviation="1"></feGaussianBlur><feOffset dx="1" dy="1" result="afterOffset"></feOffset><feFlood flood-color="#000000" flood-opacity="0.5"></feFlood><feComposite in2="afterOffset" operator="in"></feComposite><feMorphology operator="dilate" radius="1"></feMorphology><feComposite in2="SourceAlpha" operator="out"></feComposite></filter><path d="M322.91 351.87L288.32 341.03L260.88 332.43L241.89 341.87L222.91 355.87L212.78 370.87" id="f6hgv2OVD" fill="none" stroke="white" filter="url(#shadow13848695)"></path></g><g><use xlink:href="#bbemWJ7iq" opacity="1" fill-opacity="0" stroke="#b1acac" stroke-width="4" stroke-opacity="1"></use></g><g><filter id="shadow12063182" x="203.78" y="323.43" width="129.13" height="57.44" filterUnits="userSpaceOnUse" primitiveUnits="userSpaceOnUse"><feFlood></feFlood><feComposite in2="SourceAlpha" operator="out"></feComposite><feGaussianBlur stdDeviation="1"></feGaussianBlur><feOffset dx="1" dy="1" result="afterOffset"></feOffset><feFlood flood-color="#ffffff" flood-opacity="0.8"></feFlood><feComposite in2="afterOffset" operator="in"></feComposite><feMorphology operator="dilate" radius="1"></feMorphology><feComposite in2="SourceAlpha" operator="in"></feComposite></filter><path d="M322.91 351.87L288.32 341.03L260.88 332.43L241.89 341.87L222.91 355.87L212.78 370.87" id="dLtIsBqlu" fill="none" stroke="white" filter="url(#shadow12063182)"></path></g></g></g></g></svg>