<?xml version="1.0" encoding="utf-8"?>
<!-- Generator: Adobe Illustrator 16.0.0, SVG Export Plug-In . SVG Version: 6.00 Build 0)  -->
<!DOCTYPE svg PUBLIC "-//W3C//DTD SVG 1.1//EN" "http://www.w3.org/Graphics/SVG/1.1/DTD/svg11.dtd">
<svg version="1.1" id="Layer_1" xmlns="http://www.w3.org/2000/svg" xmlns:xlink="http://www.w3.org/1999/xlink" x="0px" y="0px"
	 width="250px" height="290.678px" viewBox="0 0 250 290.678" enable-background="new 0 0 250 290.678" xml:space="preserve">
<g id="engine">
	<g>
		<path fill="#342F2F" d="M117.638,285.371c15.136,0.231,64.957-2.088,83.354-6.41c18.398-4.321,28.808-19.048,36.199-39.94
			c7.394-20.892,4.485-51.646-3.1-65.488s-13.415-24.362-30.862-27.906c-17.447-3.545-93.287-12.545-102.831-13.459
			s-37.669-5.908-49.759,5.002c-12.09,10.907-15.291,18.264-21.26,27.357c-5.966,9.094-23.413,31.324-22.854,57.088
			c0.559,25.762,14.274,55.407,43.66,58.288C79.573,282.784,117.638,285.371,117.638,285.371z"/>
		<circle fill="#9A9590" cx="71.015" cy="224.136" r="49.856"/>
		<circle fill="#9A9590" cx="172.58" cy="230.897" r="36.972"/>
		<path fill="#231F20" d="M203.954,230.834c0.056,2.547-1.964,4.653-4.511,4.709l-53.502,1.16c-2.547,0.056-4.655-1.963-4.711-4.51
			l-0.026-1.234c-0.056-2.547,1.964-4.655,4.511-4.711l53.502-1.16c2.547-0.056,4.655,1.963,4.711,4.512L203.954,230.834z"/>
	</g>
	<g>
		<path fill="#342F2F" d="M111.35,50.228l-20.959-1.35c0,0-1.827-1.044-1.576-6.102c0.25-5.058,0.523-9.033-2.415-11.495
			c-2.94-2.462-4.482-7.121-4.884-8.916s-6.283-6.72-10.25-6.634c-3.967,0.086-11.541,0.25-14.012,2.83
			c-2.472,2.58-8.479,8.483-9.913,8.875c-1.435,0.392-3.411,9.096-3.294,14.507c0.117,5.411-1.952,42.986-1.952,42.986
			S41.27,96.858,56.128,99.784c7.915,1.557,14.179,0.784,19.471-0.783c7.889-2.338,9.3-3.811,9.889-9.959
			c0.588-6.146-0.086-3.969-0.086-3.969s-1.521-3.575,2.815-3.309c4.336,0.268,23.093-0.139,23.093-0.139L111.35,50.228z"/>
		<circle fill="#9A9590" cx="56.884" cy="68.01" r="20.204"/>
	</g>
	<g>
		<g>
			<path fill="#231F20" d="M203.735,155.36c-0.401,4.632-2.462,8.24-4.594,8.056l-67.444-5.874
				c-2.133-0.184-3.536-4.095-3.131-8.729l0.287-3.329c0.407-4.638,2.462-8.245,4.598-8.058l67.441,5.872
				c2.134,0.188,3.539,4.093,3.134,8.731L203.735,155.36z"/>
			<path fill="#231F20" d="M213.435,138.877c-0.401,4.633-2.46,8.245-4.59,8.061l-83.853-7.305c-2.132-0.187-3.533-4.099-3.129-8.73
				l0.29-3.328c0.404-4.639,2.459-8.244,4.591-8.06l83.851,7.304c2.133,0.184,3.535,4.092,3.131,8.73L213.435,138.877z"/>
			<path fill="#231F20" d="M223.137,122.399c-0.404,4.635-2.461,8.245-4.597,8.06l-100.252-8.732
				c-2.132-0.186-3.536-4.097-3.133-8.731l0.291-3.328c0.402-4.64,2.462-8.244,4.592-8.059l100.257,8.73
				c2.133,0.188,3.536,4.094,3.131,8.731L223.137,122.399z"/>
			<path fill="#231F20" d="M232.837,105.92c-0.403,4.634-2.464,8.242-4.593,8.058l-116.663-10.161
				c-2.131-0.186-3.532-4.096-3.129-8.729l0.29-3.33c0.405-4.636,2.46-8.244,4.592-8.059l116.659,10.16
				c2.134,0.187,3.537,4.094,3.134,8.731L232.837,105.92z"/>
			<path fill="#231F20" d="M242.536,89.44c-0.402,4.633-2.459,8.242-4.596,8.055L104.876,85.909
				c-2.134-0.188-3.534-4.098-3.132-8.73l0.29-3.33c0.404-4.638,2.461-8.244,4.595-8.059l133.064,11.589
				c2.136,0.185,3.538,4.092,3.133,8.73L242.536,89.44z"/>
			<path fill="#231F20" d="M244.035,72.244c-0.403,4.636-2.46,8.247-4.597,8.061L106.375,68.715
				c-2.133-0.187-3.536-4.098-3.133-8.733l0.29-3.325c0.404-4.638,2.461-8.244,4.593-8.059l133.066,11.589
				c2.133,0.187,3.537,4.094,3.131,8.73L244.035,72.244z"/>
			<path fill="#231F20" d="M241.347,53.904c-0.403,4.633-3.199,8.961-5.329,8.778L112.792,51.948
				c-2.134-0.186-3.532-4.097-3.13-8.73l0.646-7.428c0.406-4.637,8.753-14.469,10.886-14.284l121.848,10.709
				c2.13,0.185-0.343,10.898-0.746,15.534L241.347,53.904z"/>
			<path fill="#231F20" d="M136.406,24.062c-1.718,4.007,1.126,10.361,7.865,13.183c9.832,4.116,45.629,7.31,58.566,4.864
				c12.939-2.446,16.368-10.821,12.705-13.268c-3.664-2.447-7.263-2.007-10.595-5.905c-3.333-3.897-15.08-13.025-27.72-13.473
				c-12.639-0.448-20.528,1.889-26.919,6.719C143.919,21.013,138.123,20.055,136.406,24.062z"/>
		</g>
		<g>
			<path fill="#9A9590" d="M213.088,141.149l-81.521-7.103c-0.712-0.061-2.179-2.561-1.78-7.124l0.289-3.329
				c0.071-0.816-0.532-1.534-1.348-1.606c-0.833-0.076-1.536,0.533-1.606,1.35l-0.289,3.328c-0.489,5.626,1.434,10.07,4.478,10.335
				l80.823,7.041C212.525,143.207,212.852,142.225,213.088,141.149z"/>
			<path fill="#9A9590" d="M222.789,124.668l-97.925-8.528c-0.314-0.027-0.841-0.577-1.251-1.722
				c-0.515-1.432-0.708-3.401-0.534-5.404l0.291-3.328c0.071-0.816-0.531-1.535-1.349-1.607c-0.801-0.073-1.535,0.534-1.605,1.349
				l-0.291,3.329c-0.214,2.451,0.035,4.816,0.698,6.664c0.798,2.227,2.143,3.531,3.784,3.674l97.228,8.467
				C222.226,126.727,222.553,125.748,222.789,124.668z"/>
			<path fill="#9A9590" d="M203.39,157.625l-65.118-5.672c-0.204-0.018-0.425-0.245-0.538-0.379
				c-0.826-0.986-1.531-3.449-1.243-6.742l0.287-3.33c0.071-0.815-0.531-1.534-1.349-1.604c-0.803-0.072-1.533,0.532-1.604,1.347
				l-0.288,3.332c-0.322,3.693,0.417,7.105,1.929,8.903c0.716,0.853,1.598,1.345,2.552,1.428l64.416,5.61
				C202.826,159.684,203.151,158.704,203.39,157.625z"/>
			<path fill="#9A9590" d="M242.189,91.706L111.452,80.32c-0.714-0.062-2.181-2.56-1.783-7.125l0.289-3.328
				c0.071-0.816-0.532-1.535-1.348-1.606c-0.829-0.075-1.535,0.533-1.605,1.349l-0.291,3.33c-0.487,5.627,1.439,10.07,4.48,10.334
				L241.234,94.6C241.628,93.766,241.953,92.786,242.189,91.706z"/>
			<path fill="#9A9590" d="M232.491,108.188l-114.334-9.957c-0.713-0.062-2.179-2.561-1.781-7.123l0.29-3.332
				c0.071-0.814-0.533-1.533-1.349-1.605c-0.827-0.068-1.536,0.533-1.605,1.348l-0.29,3.333c-0.49,5.624,1.435,10.066,4.478,10.333
				l113.635,9.896C231.927,110.246,232.255,109.266,232.491,108.188z"/>
			<path fill="#9A9590" d="M115.278,31.552l-0.646,7.428c-0.491,5.627,1.436,10.07,4.479,10.335l120.381,10.485
				c0.487-0.84,0.914-1.813,1.241-2.869l-121.364-10.57c-0.712-0.062-2.18-2.562-1.783-7.125l0.646-7.428
				c0.07-0.816-0.534-1.534-1.349-1.605C116.057,30.135,115.35,30.736,115.278,31.552z"/>
			<path fill="#9A9590" d="M112.949,63.127c-0.314-0.026-0.84-0.577-1.25-1.72c-0.514-1.432-0.707-3.403-0.532-5.406
				c0.069-0.816-0.534-1.535-1.35-1.605c-0.833-0.075-1.535,0.532-1.605,1.348c-0.212,2.451,0.034,4.818,0.696,6.664
				c0.799,2.227,2.144,3.531,3.784,3.674l130.033,11.324c0.394-0.835,0.723-1.811,0.96-2.891L112.949,63.127z"/>
		</g>
	</g>
</g>
</svg>
