<?xml version="1.0" encoding="UTF-8" standalone="no"?>
<!DOCTYPE svg PUBLIC "-//W3C//DTD SVG 1.1//EN" "http://www.w3.org/Graphics/SVG/1.1/DTD/svg11.dtd">
<svg version="1.1" xmlns="http://www.w3.org/2000/svg" xmlns:xlink="http://www.w3.org/1999/xlink" preserveAspectRatio="xMidYMid meet" viewBox="0 0 640 640" width="640" height="640"><defs><path d="M450.35 197.22C450.09 194.77 436.53 188.58 436.53 188.58C436.53 188.58 436.18 182.9 432.35 180.17C428.52 177.43 416.16 173.07 416.16 173.07C416.16 173.07 411.81 172.64 402.32 188.07C392.83 203.49 365.73 250.81 365.73 250.81C365.73 250.81 364.36 256.96 352.78 252.75C341.2 248.54 285.2 233.45 285.2 233.45C285.2 233.45 272.66 204.97 240.07 204.01C202.76 202.9 179.6 239.76 184.88 263.21C184.88 263.21 188.04 265.42 186.18 268.26C182.04 274.58 177.43 300.26 187.82 317.06C198.21 333.87 214.79 344.65 228.3 345.62C228.3 345.62 242.31 367.93 265.19 359.47C288.08 351.01 287.79 326.92 287.79 326.92C287.79 326.92 298.8 321 302.71 312.53C309.26 313.74 361.7 323.42 368.26 324.63C368.26 324.63 375.45 330.41 383.92 319.6C392.38 308.79 400.72 296.76 402.99 291.98C405.27 287.21 410.64 283.02 413.95 280.85C417.26 278.67 433.69 266.58 436.72 240.31C439.44 231.69 451.61 209.04 450.35 197.22Z" id="d1qrNPX5Aj"></path><path d="M246.11 310.26C246.11 310.26 252.72 307.55 264.57 312.79C276.41 318.03 284.76 343.46 277.89 349.6C271.02 355.74 291.79 338.84 286.06 317.39C279.71 293.59 272.52 272.59 264.3 269.04C256.09 265.48 251.34 262.09 241 268.07C242.02 276.51 245.6 306.04 246.11 310.26Z" id="a2yp1izU10"></path><path d="M308.58 281.45C341.36 290.68 359.57 295.81 363.21 296.83C363.21 296.83 372.17 292.58 374.61 286.1C377.06 279.61 374.77 278.68 371.73 276.61C368.68 274.54 302.06 261.34 302.06 261.34C302.06 261.34 305.31 262.45 305.37 268.92C305.8 270.59 306.87 274.77 308.58 281.45Z" id="ejRXSt3Uj"></path><path d="M227.1 334.95C227.96 340.08 235.97 344.58 241.34 336.17C246.72 327.76 241.26 311.82 232.21 321.02C231.18 323.81 226.24 329.81 227.1 334.95Z" id="a1b7VrlH0t"></path><path d="M227.04 281.3C230.61 276.51 223.08 267.63 219.61 267.47C216.15 267.3 206.16 255.96 204.29 253.12C202.42 250.28 188.79 266.55 187.69 282.73C186.58 298.91 191.02 308.2 193.09 301.15C195.17 294.09 193.87 281.93 198.24 275.8C202.6 269.68 203.93 261.49 207.29 266.61C210.66 271.72 217.05 269.96 216.64 280.8C216.23 291.65 217.77 291.45 219.38 297.71C220.91 294.43 223.47 286.08 227.04 281.3Z" id="h4ujvEDZd"></path><path d="M199.04 227.29C199.04 227.29 196.12 238.15 203.95 232.2C211.79 226.24 224.47 218.73 224.47 218.73C224.47 218.73 232.81 229.22 227.89 230.31C211.04 234.04 197.51 245.37 192.3 255.3C193.65 249.7 190.03 234.01 199.04 227.29Z" id="a8Wcyv9uz"></path><path d="M409.29 202.33C405.89 208.63 399.38 206.39 399.38 206.39C399.38 206.39 409.32 181.97 414.66 184.97C413.59 188.44 412.7 196.02 409.29 202.33Z" id="g12uv9TJ3P"></path><path d="M427.02 196.91C429.36 195.38 431.02 199.17 430.39 210.97C429.88 220.5 420.17 229.88 420.17 229.88C420.17 229.88 427.05 232.68 429.67 236.66C432.29 240.63 440.29 245.14 429.33 262.91C422.12 274.6 412.97 280.15 412.97 280.15C411.32 279.04 398.08 270.17 396.43 269.06C396.43 269.06 417.84 249.3 417.56 234.84C417.28 220.39 422.93 217.49 413.07 219.09C415.86 214.65 420.54 201.17 427.02 196.91Z" id="dVw99XNHh"></path><path d="M424.47 201.43L395.27 185.49L253.91 226.83L223.29 272.05L235.21 273.4L264.66 234.93L414.56 203.5L424.47 201.43Z" id="b1fHwpUb25"></path><path d="M400.99 293L224.07 275.77L256.9 228.79C350.98 200.45 398.34 185.78 399 184.78C399.65 183.78 407.97 188.5 423.95 198.95L400.99 293Z" id="c1jeayIppe"></path><path d="M390.48 230.54L380.61 263.65L292.61 251.05L380.57 232.62L390.48 230.54Z" id="agjMe5kLb"></path><path d="M389.44 225.58L378.59 269.24L272.99 249.99L377.65 228.05L389.44 225.58Z" id="a5cSZJtQ5"></path><path d="M350.37 254.47L350.28 254.51L350.18 254.54L350.1 254.58L350.01 254.62L349.93 254.66L349.85 254.71L349.77 254.76L349.7 254.81L349.63 254.87L349.57 254.93L349.5 254.99L349.44 255.06L349.38 255.12L349.33 255.19L349.28 255.26L349.23 255.34L349.18 255.42L349.13 255.5L349.09 255.58L349.05 255.66L349.01 255.75L348.97 255.84L348.93 255.93L348.9 256.02L348.87 256.11L348.83 256.21L348.8 256.31L348.78 256.41L348.75 256.51L348.72 256.61L348.7 256.71L348.67 256.82L348.65 256.93L348.62 257.03L348.6 257.14L348.58 257.25L348.56 257.37L348.54 257.48L347.68 264.48L347.02 264.79L345.57 265.54L344.15 266.34L342.78 267.16L341.44 268.03L341.33 268.11L333.13 266.28L332.99 266.26L332.86 266.23L332.73 266.21L332.59 266.19L332.46 266.17L332.34 266.15L332.21 266.13L332.08 266.12L331.96 266.1L331.83 266.09L331.71 266.07L331.59 266.06L331.47 266.05L331.35 266.04L331.24 266.04L331.12 266.03L331.01 266.03L330.9 266.03L330.79 266.04L330.68 266.04L330.58 266.05L330.47 266.06L330.37 266.07L330.27 266.08L330.17 266.1L330.08 266.12L329.98 266.15L329.89 266.18L329.8 266.21L329.71 266.24L329.63 266.28L329.54 266.32L329.46 266.36L329.38 266.41L329.31 266.46L329.23 266.52L329.16 266.58L329.09 266.64L329.02 266.71L328.96 266.78L319.84 277.61L319.78 277.68L319.73 277.76L319.68 277.84L319.64 277.91L319.6 277.99L319.57 278.06L319.54 278.14L319.52 278.22L319.51 278.3L319.5 278.37L319.49 278.45L319.49 278.53L319.49 278.61L319.5 278.69L319.51 278.77L319.53 278.84L319.55 278.92L319.57 279L319.6 279.08L319.64 279.16L319.67 279.24L319.71 279.32L319.76 279.4L319.81 279.48L319.86 279.55L319.91 279.63L319.97 279.71L320.03 279.79L320.1 279.87L320.16 279.95L320.23 280.03L320.31 280.1L320.38 280.18L320.46 280.26L320.54 280.34L320.62 280.41L320.71 280.49L320.79 280.57L320.88 280.64L320.97 280.72L326.53 285.67L326.47 285.82L325.99 287.1L325.57 288.41L325.21 289.72L324.92 291.04L324.82 291.63L316.84 295.12L316.72 295.17L316.59 295.23L316.47 295.28L316.34 295.34L316.22 295.39L316.1 295.45L315.99 295.5L315.87 295.56L315.76 295.62L315.65 295.68L315.55 295.74L315.44 295.8L315.34 295.86L315.24 295.92L315.15 295.98L315.06 296.05L314.97 296.11L314.88 296.18L314.8 296.24L314.72 296.31L314.64 296.38L314.57 296.44L314.51 296.51L314.44 296.58L314.38 296.65L314.33 296.72L314.28 296.8L314.23 296.87L314.19 296.94L314.15 297.02L314.12 297.09L314.09 297.17L314.07 297.25L314.05 297.32L314.03 297.4L314.03 297.48L314.02 297.56L314.03 297.64L314.04 297.73L314.05 297.81L316.58 309.89L316.6 309.97L316.63 310.05L316.66 310.12L316.69 310.19L316.73 310.26L316.77 310.33L316.82 310.39L316.87 310.45L316.93 310.5L316.99 310.55L317.05 310.6L317.12 310.65L317.19 310.7L317.26 310.74L317.34 310.78L317.43 310.82L317.51 310.85L317.6 310.88L317.69 310.92L317.79 310.94L317.89 310.97L317.99 311L318.09 311.02L318.2 311.04L318.31 311.06L318.42 311.08L318.54 311.1L318.65 311.11L318.77 311.13L318.9 311.14L319.02 311.15L319.15 311.16L319.27 311.17L319.4 311.18L319.54 311.19L319.67 311.2L319.8 311.21L319.94 311.21L320.08 311.22L320.22 311.23L328.92 311.22L329.25 311.72L330.06 312.81L330.91 313.87L331.82 314.9L332.77 315.88L332.88 315.98L329.78 322.74L329.73 322.84L329.68 322.95L329.63 323.05L329.58 323.16L329.54 323.26L329.49 323.36L329.45 323.47L329.42 323.57L329.38 323.67L329.35 323.77L329.32 323.87L329.29 323.96L329.27 324.06L329.25 324.15L329.23 324.25L329.21 324.34L329.2 324.43L329.19 324.52L329.19 324.61L329.18 324.7L329.18 324.78L329.19 324.87L329.2 324.95L329.21 325.03L329.23 325.11L329.25 325.19L329.27 325.26L329.3 325.34L329.33 325.41L329.37 325.48L329.41 325.54L329.46 325.61L329.51 325.67L329.56 325.73L329.62 325.79L329.69 325.84L329.76 325.89L329.83 325.94L329.91 325.99L330 326.03L342.69 332.29L342.78 332.33L342.87 332.37L342.96 332.4L343.05 332.42L343.14 332.44L343.23 332.46L343.32 332.47L343.41 332.48L343.51 332.49L343.6 332.49L343.69 332.48L343.79 332.47L343.88 332.46L343.98 332.44L344.08 332.43L344.17 332.4L344.27 332.38L344.37 332.35L344.47 332.31L344.57 332.28L344.67 332.24L344.77 332.2L344.87 332.15L344.97 332.11L345.08 332.06L345.18 332L345.29 331.95L345.39 331.89L345.5 331.83L345.6 331.77L345.71 331.71L345.82 331.65L345.93 331.58L346.04 331.51L346.15 331.44L346.26 331.37L346.37 331.3L346.48 331.23L346.59 331.15L346.71 331.08L353.47 326.13L353.63 326.16L355.2 326.41L356.79 326.62L358.4 326.78L360.04 326.88L360.77 326.91L364.36 332.97L364.43 333.07L364.49 333.16L364.56 333.25L364.62 333.34L364.69 333.43L364.75 333.52L364.82 333.61L364.88 333.69L364.95 333.78L365.01 333.86L365.08 333.94L365.14 334.02L365.21 334.09L365.28 334.16L365.35 334.23L365.42 334.3L365.49 334.37L365.56 334.43L365.63 334.49L365.7 334.55L365.78 334.6L365.85 334.66L365.93 334.7L366.01 334.75L366.08 334.79L366.16 334.83L366.25 334.86L366.33 334.89L366.41 334.92L366.5 334.95L366.59 334.97L366.68 334.98L366.77 334.99L366.86 335L366.95 335L367.05 335L367.15 335L367.25 334.99L367.35 334.97L367.46 334.95L382.88 331.72L382.99 331.69L383.09 331.67L383.19 331.63L383.28 331.6L383.37 331.56L383.46 331.52L383.55 331.48L383.63 331.43L383.71 331.38L383.78 331.32L383.86 331.27L383.93 331.21L384 331.14L384.06 331.08L384.12 331.01L384.18 330.94L384.24 330.87L384.29 330.79L384.34 330.71L384.39 330.63L384.44 330.55L384.48 330.46L384.52 330.38L384.56 330.29L384.6 330.2L384.64 330.11L384.67 330.01L384.7 329.92L384.73 329.82L384.76 329.72L384.78 329.62L384.8 329.52L384.83 329.41L384.85 329.31L384.86 329.2L384.88 329.1L384.89 328.99L384.91 328.88L384.92 328.77L384.93 328.66L385.78 321.66L386.44 321.35L387.9 320.6L389.31 319.81L390.69 318.98L392.02 318.11L392.18 318L400.33 319.81L400.45 319.84L400.58 319.87L400.71 319.9L400.84 319.93L400.96 319.95L401.09 319.98L401.21 320L401.33 320.02L401.46 320.04L401.58 320.05L401.7 320.07L401.82 320.08L401.94 320.09L402.06 320.1L402.17 320.1L402.29 320.11L402.4 320.11L402.51 320.11L402.62 320.1L402.73 320.1L402.84 320.09L402.95 320.07L403.05 320.06L403.15 320.04L403.25 320.02L403.35 320L403.45 319.97L403.54 319.94L403.64 319.91L403.73 319.87L403.81 319.83L403.9 319.79L403.98 319.74L404.06 319.69L404.14 319.64L404.22 319.58L404.29 319.52L404.36 319.45L404.43 319.38L404.49 319.31L413.61 308.48L413.67 308.41L413.72 308.33L413.77 308.26L413.81 308.18L413.85 308.11L413.88 308.03L413.9 307.96L413.92 307.88L413.93 307.81L413.94 307.73L413.95 307.66L413.95 307.58L413.94 307.51L413.93 307.43L413.92 307.36L413.9 307.28L413.87 307.21L413.85 307.13L413.81 307.05L413.78 306.98L413.74 306.9L413.7 306.82L413.65 306.74L413.6 306.67L413.55 306.59L413.5 306.51L413.44 306.43L413.38 306.35L413.31 306.27L413.25 306.19L413.18 306.11L413.11 306.03L413.04 305.95L412.96 305.87L412.89 305.79L412.81 305.71L412.73 305.63L412.65 305.54L412.57 305.46L412.48 305.37L406.94 300.44L406.99 300.32L407.47 299.04L407.89 297.74L408.25 296.42L408.54 295.1L408.64 294.51L416.62 291.02L416.75 290.96L416.87 290.9L416.99 290.83L417.11 290.77L417.23 290.71L417.35 290.65L417.46 290.59L417.58 290.53L417.69 290.47L417.8 290.41L417.9 290.35L418.01 290.29L418.11 290.22L418.21 290.16L418.3 290.1L418.4 290.04L418.48 289.97L418.57 289.91L418.65 289.85L418.73 289.78L418.81 289.72L418.88 289.65L418.95 289.59L419.01 289.52L419.07 289.45L419.13 289.39L419.18 289.32L419.23 289.25L419.27 289.18L419.31 289.1L419.34 289.03L419.37 288.96L419.4 288.88L419.41 288.81L419.43 288.73L419.44 288.66L419.44 288.58L419.43 288.5L419.43 288.41L419.41 288.33L416.88 276.25L416.86 276.17L416.83 276.09L416.8 276.02L416.77 275.94L416.73 275.87L416.69 275.81L416.64 275.74L416.59 275.68L416.53 275.62L416.47 275.57L416.41 275.51L416.34 275.46L416.27 275.42L416.19 275.37L416.11 275.33L416.03 275.29L415.94 275.25L415.85 275.21L415.76 275.18L415.66 275.15L415.57 275.12L415.46 275.09L415.36 275.07L415.25 275.04L415.14 275.02L415.03 275L414.91 274.99L414.8 274.97L414.68 274.96L414.56 274.95L414.43 274.94L414.31 274.93L414.18 274.92L414.05 274.91L413.92 274.91L413.79 274.91L413.65 274.91L413.52 274.91L413.38 274.91L413.24 274.91L404.54 274.92L404.21 274.42L403.41 273.33L402.55 272.27L401.65 271.24L400.69 270.26L400.59 270.16L403.68 263.4L403.73 263.29L403.77 263.18L403.81 263.08L403.85 262.97L403.89 262.86L403.92 262.76L403.96 262.65L403.99 262.55L404.03 262.45L404.06 262.35L404.08 262.25L404.11 262.15L404.13 262.05L404.16 261.96L404.18 261.86L404.19 261.77L404.21 261.68L404.22 261.59L404.22 261.5L404.23 261.42L404.23 261.33L404.23 261.25L404.22 261.17L404.21 261.09L404.2 261.01L404.18 260.94L404.16 260.86L404.14 260.79L404.11 260.72L404.07 260.66L404.04 260.59L403.99 260.53L403.95 260.47L403.89 260.41L403.83 260.35L403.77 260.3L403.7 260.25L403.63 260.2L403.55 260.15L403.47 260.11L390.77 253.85L390.68 253.81L390.59 253.77L390.5 253.74L390.41 253.72L390.32 253.69L390.23 253.68L390.13 253.66L390.04 253.65L389.94 253.65L389.84 253.65L389.75 253.65L389.65 253.66L389.55 253.67L389.45 253.68L389.35 253.7L389.25 253.72L389.15 253.74L389.05 253.77L388.95 253.8L388.84 253.84L388.74 253.87L388.64 253.92L388.53 253.96L388.43 254.01L388.33 254.05L388.22 254.11L388.12 254.16L388.01 254.22L387.91 254.28L387.8 254.34L387.7 254.4L387.59 254.47L387.49 254.54L387.38 254.61L387.28 254.68L387.17 254.75L387.07 254.83L386.96 254.91L386.86 254.98L386.75 255.06L380 260.02L379.84 259.98L378.27 259.73L376.67 259.52L375.06 259.36L373.43 259.26L372.69 259.23L369.1 253.17L369.05 253.07L368.99 252.97L368.94 252.88L368.88 252.79L368.82 252.7L368.77 252.61L368.71 252.52L368.65 252.43L368.58 252.35L368.52 252.27L368.46 252.19L368.39 252.11L368.32 252.03L368.26 251.96L368.19 251.89L368.12 251.82L368.04 251.76L367.97 251.69L367.9 251.64L367.82 251.58L367.74 251.52L367.67 251.47L367.59 251.43L367.5 251.38L367.42 251.34L367.34 251.3L367.25 251.27L367.17 251.24L367.08 251.21L366.99 251.19L366.9 251.17L366.8 251.16L366.71 251.14L366.61 251.14L366.51 251.14L366.42 251.14L366.31 251.14L366.21 251.15L366.11 251.17L366 251.19L350.58 254.42L350.47 254.45L350.37 254.47ZM364.9 275.13L365.82 275.01L366.74 274.92L367.65 274.86L368.55 274.83L369.45 274.83L370.34 274.86L371.22 274.92L372.08 275L372.94 275.12L373.79 275.25L374.62 275.42L375.44 275.61L376.25 275.83L377.04 276.07L377.81 276.34L378.57 276.63L379.31 276.94L380.03 277.28L380.73 277.64L381.41 278.03L382.07 278.43L382.7 278.86L383.32 279.31L383.91 279.78L384.48 280.27L385.02 280.79L385.53 281.32L386.02 281.87L386.48 282.44L386.91 283.03L387.31 283.63L387.68 284.26L388.02 284.9L388.33 285.56L388.61 286.23L388.85 286.93L389.05 287.63L389.22 288.35L389.36 289.08L389.45 289.82L389.51 290.55L389.53 291.27L389.51 292L389.46 292.73L389.37 293.45L389.25 294.16L389.09 294.88L388.89 295.58L388.67 296.28L388.41 296.98L388.12 297.66L387.8 298.34L387.45 299.01L387.07 299.67L386.65 300.32L386.21 300.95L385.74 301.58L385.25 302.19L384.72 302.79L384.17 303.38L383.6 303.95L383 304.5L382.37 305.04L381.72 305.56L381.05 306.07L380.35 306.55L379.63 307.02L378.89 307.47L378.13 307.89L377.35 308.3L376.54 308.68L375.72 309.04L374.88 309.38L374.02 309.69L373.15 309.98L372.26 310.24L371.35 310.48L370.42 310.69L369.49 310.87L368.57 311.01L367.64 311.13L366.73 311.22L365.82 311.28L364.91 311.31L364.01 311.31L363.13 311.28L362.25 311.22L361.38 311.14L360.52 311.03L359.67 310.89L358.84 310.72L358.02 310.53L357.22 310.31L356.43 310.07L355.65 309.81L354.9 309.51L354.16 309.2L353.44 308.86L352.74 308.5L352.06 308.11L351.4 307.71L350.76 307.28L350.14 306.83L349.55 306.36L348.99 305.87L348.45 305.35L347.93 304.82L347.44 304.27L346.98 303.7L346.55 303.11L346.15 302.51L345.78 301.88L345.44 301.24L345.13 300.58L344.86 299.91L344.62 299.21L344.41 298.51L344.24 297.79L344.1 297.06L344.01 296.33L343.95 295.6L343.93 294.87L343.95 294.14L344 293.42L344.09 292.69L344.22 291.98L344.38 291.26L344.57 290.56L344.79 289.86L345.05 289.16L345.34 288.48L345.66 287.8L346.01 287.13L346.4 286.47L346.81 285.82L347.25 285.19L347.72 284.56L348.21 283.95L348.74 283.35L349.29 282.76L349.87 282.19L350.47 281.64L351.09 281.1L351.74 280.58L352.42 280.07L353.11 279.59L353.83 279.12L354.57 278.67L355.33 278.25L356.12 277.84L356.92 277.46L357.74 277.1L358.58 276.76L359.44 276.45L360.31 276.16L361.21 275.9L362.11 275.66L363.04 275.45L363.97 275.28L364.9 275.13Z" id="d13ofNhdPh"></path><path d="M360.17 308.03L372.52 274.4L360.17 308.03Z" id="bh23zHo0j"></path></defs><g><g><g><g><use xlink:href="#d1qrNPX5Aj" opacity="1" fill="#c8cac9" fill-opacity="1"></use><g><use xlink:href="#d1qrNPX5Aj" opacity="1" fill-opacity="0" stroke="#000000" stroke-width="1" stroke-opacity="0"></use></g></g><g><use xlink:href="#a2yp1izU10" opacity="1" fill="#b2ad9c" fill-opacity="1"></use><g><use xlink:href="#a2yp1izU10" opacity="1" fill-opacity="0" stroke="#000000" stroke-width="1" stroke-opacity="0"></use></g></g><g><use xlink:href="#ejRXSt3Uj" opacity="1" fill="#b2ad9c" fill-opacity="1"></use><g><use xlink:href="#ejRXSt3Uj" opacity="1" fill-opacity="0" stroke="#000000" stroke-width="1" stroke-opacity="0"></use></g></g><g><use xlink:href="#a1b7VrlH0t" opacity="1" fill="#fafefb" fill-opacity="1"></use><g><use xlink:href="#a1b7VrlH0t" opacity="1" fill-opacity="0" stroke="#000000" stroke-width="1" stroke-opacity="0"></use></g></g><g><use xlink:href="#h4ujvEDZd" opacity="1" fill="#fafefb" fill-opacity="1"></use><g><use xlink:href="#h4ujvEDZd" opacity="1" fill-opacity="0" stroke="#000000" stroke-width="1" stroke-opacity="0"></use></g></g><g><use xlink:href="#a8Wcyv9uz" opacity="1" fill="#fafefb" fill-opacity="1"></use><g><use xlink:href="#a8Wcyv9uz" opacity="1" fill-opacity="0" stroke="#000000" stroke-width="1" stroke-opacity="0"></use></g></g><g><use xlink:href="#g12uv9TJ3P" opacity="1" fill="#fafefb" fill-opacity="1"></use><g><use xlink:href="#g12uv9TJ3P" opacity="1" fill-opacity="0" stroke="#000000" stroke-width="1" stroke-opacity="0"></use></g></g><g><use xlink:href="#dVw99XNHh" opacity="1" fill="#fafefb" fill-opacity="1"></use><g><use xlink:href="#dVw99XNHh" opacity="1" fill-opacity="0" stroke="#000000" stroke-width="1" stroke-opacity="0"></use></g></g></g><g><use xlink:href="#b1fHwpUb25" opacity="1" fill="#5c585d" fill-opacity="1"></use><g><use xlink:href="#b1fHwpUb25" opacity="1" fill-opacity="0" stroke="#000000" stroke-width="1" stroke-opacity="1"></use></g></g><g><use xlink:href="#c1jeayIppe" opacity="1" fill="#292231" fill-opacity="1"></use><g><use xlink:href="#c1jeayIppe" opacity="1" fill-opacity="0" stroke="#000000" stroke-width="1" stroke-opacity="1"></use></g></g><g><g><use xlink:href="#agjMe5kLb" opacity="1" fill-opacity="0" stroke="#000000" stroke-width="1" stroke-opacity="1"></use></g></g><g><use xlink:href="#a5cSZJtQ5" opacity="1" fill="#060004" fill-opacity="1"></use><g><use xlink:href="#a5cSZJtQ5" opacity="1" fill-opacity="0" stroke="#000000" stroke-width="1" stroke-opacity="1"></use></g></g><g><use xlink:href="#d13ofNhdPh" opacity="1" fill="#120a24" fill-opacity="1"></use><g><use xlink:href="#d13ofNhdPh" opacity="1" fill-opacity="0" stroke="#787374" stroke-width="1" stroke-opacity="1"></use></g></g><g><g><use xlink:href="#bh23zHo0j" opacity="1" fill-opacity="0" stroke="#1f1114" stroke-width="19" stroke-opacity="1"></use></g></g></g></g></svg>