<?xml version="1.0" encoding="UTF-8" standalone="no"?>
<!DOCTYPE svg PUBLIC "-//W3C//DTD SVG 1.1//EN" "http://www.w3.org/Graphics/SVG/1.1/DTD/svg11.dtd">
<svg version="1.1" xmlns="http://www.w3.org/2000/svg" xmlns:xlink="http://www.w3.org/1999/xlink" preserveAspectRatio="xMidYMid meet" viewBox="0 0 640 640" width="640" height="640"><defs><path d="M427.42 112.21L451.42 95.15L484.64 99.81L504.94 119.97L517.86 144.78L486.48 137.02L458.8 121.51L427.42 116.86" id="fogF5vCFk"></path><path d="M427.42 112.21L451.42 95.15L484.64 99.81L504.94 119.97L517.86 144.78L486.48 137.02L458.8 121.51L427.42 116.86" id="aLGUjS4Sf"></path><path d="M-20 286.94L-74.31 286.94L-116.81 286.94L-175.83 286.94L-218.33 286.94" id="b2QkniORQd"></path><path d="M431.11 106.01L399.73 107.56L408.96 133.92L436.65 147.88L468.03 160.29L495.71 174.25L523.4 186.66L506.79 163.39L540.02 160.29L519.71 140.13" id="f26vHhG3b1"></path><path d="M431.11 106.01L399.73 107.56L408.96 133.92L436.65 147.88L468.03 160.29L495.71 174.25L523.4 186.66L506.79 163.39L540.02 160.29L519.71 140.13" id="c95ZgJTKgb"></path><path d="M538.17 158.74L506.79 160.29L521.56 183.55L530.79 209.92L541.86 234.73L549.25 208.37L549.25 182.01L536.32 155.64" id="b1A2DXa1X"></path><path d="M455.11 155.64L517.86 186.66L540.02 234.73L504.55 201.4L469.88 168.82" id="bOpdWOMTM"></path><path d="M398.93 109.92L410.34 134.6L416.25 162.45L429.51 187.11L440.94 213.33L472.37 217.61L503.75 217.23L533.43 227.72" id="a1W8LNMcS8"></path><path d="M538.17 158.74L506.79 160.29L521.56 183.55L530.79 209.92L541.86 234.73L549.25 208.37L549.25 182.01L536.32 155.64" id="b9bA638RJj"></path><path d="M455.11 155.64L517.86 186.66L540.02 234.73L504.55 201.4L469.88 168.82" id="a8dNxY1HcD"></path><path d="M398.93 109.92L410.34 134.6L416.25 162.45L429.51 187.11L440.94 213.33L472.37 217.61L503.75 217.23L533.43 227.72" id="aiBw4T5ER"></path><path d="M362.81 88.95L301.9 88.95L301.9 106.01L357.28 106.01L388.66 160.29L412.65 152.53L399.73 109.11L362.81 88.95Z" id="b1sbYRA2yO"></path><path d="M362.81 88.95L301.9 88.95L301.9 106.01L357.28 106.01L388.66 160.29L412.65 152.53L399.73 109.11L362.81 88.95Z" id="alRKR8xFa"></path><path d="M466.18 271.96L440.34 278.17L390.5 160.29L412.65 155.64L466.18 271.96Z" id="hlaYBxunt"></path><path d="M466.18 271.96L440.34 278.17L390.5 160.29L412.65 155.64L466.18 271.96Z" id="ekq4WGYXS"></path><path d="M458.52 241.26L564.49 501.2L560.6 525.77L541.52 520.85L430.63 264.91L451.29 269.5L458.52 241.26Z" id="c1JupzgKW"></path><path d="M517.21 297.02L547.47 295.33L577.71 295.33L611.53 297.02L640 310.53L609.75 318.97L579.49 320.66L551.03 330.79L545.69 359.49L522.55 379.76L506.53 354.43L495.86 327.41L486.96 305.46L517.21 297.02Z" id="a1bZwsvmZ7"></path><path d="M379.43 437.31L379.43 414.02L395.31 370.03L408.55 354.72L457.54 322.2L469.88 362.37L379.43 437.31Z" id="g2sNnc9nq7"></path><path d="M379.43 437.31L379.43 414.02L395.31 370.03L408.55 354.72L457.54 322.2L469.88 362.37L379.43 437.31Z" id="hgr5IOPm"></path><path d="M427.42 258.37L324.76 403.33L96.19 520L150.95 284.29L296.19 270L289.05 195.19L412.65 216.9L427.42 258.37Z" id="m6AozvHu6Z"></path><path d="M303.26 206.82L310.64 281.4L163.18 305.68L3.43 344.08L30.47 230.29L148.43 138.44L327.84 154.03L417.51 220.77L303.26 206.82Z" id="ccG5eixP9"></path><path d="M399.73 160.29L412.65 222.38L379.43 195.19L367.62 138.44L399.73 160.29Z" id="eDGXVfTuS"></path><path d="M559.63 506.53C559.45 511.79 554.65 515.91 548.92 515.71C543.19 515.52 538.68 511.09 538.86 505.83C539.04 500.57 543.84 496.46 549.57 496.65C555.3 496.85 559.81 501.27 559.63 506.53Z" id="dE1ruDHNm"></path><path d="M367.62 538.45C367.62 555.86 338.81 570 303.33 570C267.85 570 239.05 555.86 239.05 538.45C239.05 521.04 267.85 506.9 303.33 506.9C338.81 506.9 367.62 521.04 367.62 538.45Z" id="b3lhPEC1ZI"></path><path d="M308.1 569.31C308.1 593.35 283.56 612.86 253.33 612.86C223.11 612.86 198.57 593.35 198.57 569.31C198.57 545.28 223.11 525.77 253.33 525.77C283.56 525.77 308.1 545.28 308.1 569.31Z" id="h8kGvTPEfz"></path></defs><g><g><g><use xlink:href="#fogF5vCFk" opacity="1" fill="#8d9c97" fill-opacity="1"></use><g><use xlink:href="#fogF5vCFk" opacity="1" fill-opacity="0" stroke="#000000" stroke-width="1" stroke-opacity="0"></use></g></g><g><use xlink:href="#aLGUjS4Sf" opacity="1" fill="#000000" fill-opacity="0"></use><g><use xlink:href="#aLGUjS4Sf" opacity="1" fill-opacity="0" stroke="#000000" stroke-width="1" stroke-opacity="1"></use></g></g><g><use xlink:href="#b2QkniORQd" opacity="1" fill="#000000" fill-opacity="0"></use><g><use xlink:href="#b2QkniORQd" opacity="1" fill-opacity="0" stroke="#000000" stroke-width="1" stroke-opacity="1"></use></g></g><g><use xlink:href="#f26vHhG3b1" opacity="1" fill="#ed590d" fill-opacity="1"></use><g><use xlink:href="#f26vHhG3b1" opacity="1" fill-opacity="0" stroke="#000000" stroke-width="1" stroke-opacity="0"></use></g></g><g><use xlink:href="#c95ZgJTKgb" opacity="1" fill="#c90b0b" fill-opacity="1"></use><g><use xlink:href="#c95ZgJTKgb" opacity="1" fill-opacity="0" stroke="#000000" stroke-width="1" stroke-opacity="1"></use></g></g><g><use xlink:href="#b1A2DXa1X" opacity="1" fill="#f6e18a" fill-opacity="1"></use><g><use xlink:href="#b1A2DXa1X" opacity="1" fill-opacity="0" stroke="#000000" stroke-width="1" stroke-opacity="0"></use></g></g><g><use xlink:href="#bOpdWOMTM" opacity="1" fill="#000000" fill-opacity="0"></use><g><use xlink:href="#bOpdWOMTM" opacity="1" fill-opacity="0" stroke="#000000" stroke-width="1" stroke-opacity="1"></use></g></g><g><use xlink:href="#a1W8LNMcS8" opacity="1" fill="#080807" fill-opacity="1"></use><g><use xlink:href="#a1W8LNMcS8" opacity="1" fill-opacity="0" stroke="#000000" stroke-width="1" stroke-opacity="0"></use></g></g><g><use xlink:href="#b9bA638RJj" opacity="1" fill="#000000" fill-opacity="0"></use><g><use xlink:href="#b9bA638RJj" opacity="1" fill-opacity="0" stroke="#000000" stroke-width="1" stroke-opacity="1"></use></g></g><g><use xlink:href="#a8dNxY1HcD" opacity="1" fill="#0c0c0b" fill-opacity="1"></use><g><use xlink:href="#a8dNxY1HcD" opacity="1" fill-opacity="0" stroke="#000000" stroke-width="1" stroke-opacity="0"></use></g></g><g><use xlink:href="#aiBw4T5ER" opacity="1" fill="#000000" fill-opacity="0"></use><g><use xlink:href="#aiBw4T5ER" opacity="1" fill-opacity="0" stroke="#000000" stroke-width="1" stroke-opacity="1"></use></g></g><g><use xlink:href="#b1sbYRA2yO" opacity="1" fill="#0b0b0a" fill-opacity="1"></use><g><use xlink:href="#b1sbYRA2yO" opacity="1" fill-opacity="0" stroke="#000000" stroke-width="1" stroke-opacity="0"></use></g></g><g><use xlink:href="#alRKR8xFa" opacity="1" fill="#000000" fill-opacity="0"></use><g><use xlink:href="#alRKR8xFa" opacity="1" fill-opacity="0" stroke="#090808" stroke-width="5" stroke-opacity="1"></use></g></g><g><use xlink:href="#hlaYBxunt" opacity="1" fill="#777770" fill-opacity="1"></use><g><use xlink:href="#hlaYBxunt" opacity="1" fill-opacity="0" stroke="#000000" stroke-width="1" stroke-opacity="0"></use></g></g><g><use xlink:href="#ekq4WGYXS" opacity="1" fill="#000000" fill-opacity="0"></use><g><use xlink:href="#ekq4WGYXS" opacity="1" fill-opacity="0" stroke="#090808" stroke-width="2" stroke-opacity="1"></use></g></g><g><g><filter id="shadow16611569" x="421.63" y="232.26" width="152.86" height="303.51" filterUnits="userSpaceOnUse" primitiveUnits="userSpaceOnUse"><feFlood></feFlood><feComposite in2="SourceAlpha" operator="in"></feComposite><feGaussianBlur stdDeviation="1"></feGaussianBlur><feOffset dx="1" dy="1" result="afterOffset"></feOffset><feFlood flood-color="#000000" flood-opacity="0.5"></feFlood><feComposite in2="afterOffset" operator="in"></feComposite><feMorphology operator="dilate" radius="1"></feMorphology><feComposite in2="SourceAlpha" operator="out"></feComposite></filter><path d="M458.52 241.26L564.49 501.2L560.6 525.77L541.52 520.85L430.63 264.91L451.29 269.5L458.52 241.26Z" id="a1iZlrSlEw" fill="white" fill-opacity="1" filter="url(#shadow16611569)"></path></g><use xlink:href="#c1JupzgKW" opacity="1" fill="#090505" fill-opacity="1"></use><g><use xlink:href="#c1JupzgKW" opacity="1" fill-opacity="0" stroke="#090808" stroke-width="2" stroke-opacity="1"></use></g></g><g><use xlink:href="#a1bZwsvmZ7" opacity="1" fill="#f93504" fill-opacity="1"></use><g><use xlink:href="#a1bZwsvmZ7" opacity="1" fill-opacity="0" stroke="#090101" stroke-width="2" stroke-opacity="1"></use></g></g><g><use xlink:href="#g2sNnc9nq7" opacity="1" fill="#f30e0e" fill-opacity="1"></use><g><use xlink:href="#g2sNnc9nq7" opacity="1" fill-opacity="0" stroke="#000000" stroke-width="1" stroke-opacity="0"></use></g></g><g><use xlink:href="#hgr5IOPm" opacity="1" fill="#f90404" fill-opacity="0"></use><g><use xlink:href="#hgr5IOPm" opacity="1" fill-opacity="0" stroke="#090808" stroke-width="2" stroke-opacity="1"></use></g></g><g><use xlink:href="#m6AozvHu6Z" opacity="1" fill="#0e070a" fill-opacity="1"></use><g><use xlink:href="#m6AozvHu6Z" opacity="1" fill-opacity="0" stroke="#000000" stroke-width="1" stroke-opacity="1"></use></g></g><g><use xlink:href="#ccG5eixP9" opacity="1" fill="#c81b10" fill-opacity="1"></use><g><use xlink:href="#ccG5eixP9" opacity="1" fill-opacity="0" stroke="#000000" stroke-width="1" stroke-opacity="1"></use></g></g><g><use xlink:href="#eDGXVfTuS" opacity="1" fill="#0e0707" fill-opacity="1"></use><g><use xlink:href="#eDGXVfTuS" opacity="1" fill-opacity="0" stroke="#000000" stroke-width="1" stroke-opacity="1"></use></g></g><g><use xlink:href="#dE1ruDHNm" opacity="1" fill="#f5e8e8" fill-opacity="1"></use><g><use xlink:href="#dE1ruDHNm" opacity="1" fill-opacity="0" stroke="#050807" stroke-width="1" stroke-opacity="1"></use></g></g><g><use xlink:href="#b3lhPEC1ZI" opacity="1" fill="#f3ecec" fill-opacity="0"></use></g><g><use xlink:href="#h8kGvTPEfz" opacity="1" fill="#f3ecec" fill-opacity="0"></use></g></g></g></svg>