<?xml version="1.0" encoding="utf-8"?>
<!-- Generator: Adobe Illustrator 16.0.0, SVG Export Plug-In . SVG Version: 6.00 Build 0)  -->
<!DOCTYPE svg PUBLIC "-//W3C//DTD SVG 1.1//EN" "http://www.w3.org/Graphics/SVG/1.1/DTD/svg11.dtd">
<svg version="1.1" id="Layer_1" xmlns="http://www.w3.org/2000/svg" xmlns:xlink="http://www.w3.org/1999/xlink" x="0px" y="0px"
	 width="320.339px" height="215.254px" viewBox="0 0 320.339 215.254" enable-background="new 0 0 320.339 215.254"
	 xml:space="preserve">
<g id="gas-tank">
	<g>
		<path fill="#48BC3B" d="M72.919,208.826c-14.468,0.313-36.523-3.539-45.252-6.598s-29.999-35.437-19.201-69.954
			c10.801-34.518,45.64-58.73,72.749-73.392c27.108-14.663,99.3-47.265,124.815-52.149s54.928,3.5,58.316,9.923
			c3.386,6.422,0.938,10.083,0.656,13.699c-0.281,3.615,1.276,8.994,8.522,10.281c7.246,1.286,21.635,15.771,30.204,28.216
			c8.571,12.444,21.704,52.216-0.229,89.141c-21.936,36.924-34.349,46.938-50.22,47.282
			C237.41,205.618,85.184,208.56,72.919,208.826z"/>
		<path fill="#231F20" d="M177.525,23.591c5.355-2.643,8.871-3.474,5.214-9.136c-2.987-4.627-11.934-1.184-18.355,2.203
			c-6.423,3.387-15.784,4.312-19.407,3.669c-3.624-0.644-10.491-1.217-14.758,1.763c-4.266,2.98-5.639,6.258-5.584,8.783
			s0.266,12.264,0.266,12.264S172.171,26.235,177.525,23.591z"/>
		<path fill="#ABDDA5" d="M24.236,139.135c0,0-1.198-26.295,40.457-41.611c41.654-15.316,64.587-24.179,66.518-24.629
			c19.198-4.474,22.598-23.008,96.472-30.292c14.395-1.419-16.461-7.789-67.468,9.61C109.206,69.612,24.607,101.013,24.236,139.135z
			"/>
		<path fill="#C8CAC9" d="M70.247,188.354c0,0-0.002,0-0.003,0c-19.372,0.419-31.212-8.938-36.191-28.602
			c-3.478-13.734,0.32-31.578,21.413-40.467c15.155-6.388,126.13-49.828,172.149-54.702c2.105-0.224,4.183-0.358,6.174-0.401
			c20.556-0.446,45.514,8.559,47.681,53.991c0.843,17.605-2.198,31.837-9.034,42.302c-7.339,11.229-17.207,15.358-24.193,16.846
			c-12.014,2.557-81.777,6.084-132.719,8.66c-18.456,0.934-34.395,1.74-42.728,2.266C71.927,188.299,71.079,188.335,70.247,188.354z
			 M233.95,71.592c-1.786,0.039-3.653,0.161-5.556,0.362c-45.133,4.78-155.027,47.831-170.05,54.162
			c-5.335,2.247-22.331,11.186-17.105,31.816c4.172,16.477,12.798,23.359,28.846,23.011h0.002c0.733-0.017,1.479-0.048,2.244-0.097
			c8.376-0.525,24.34-1.332,42.82-2.268c47.83-2.419,120.112-6.074,131.549-8.508c8.88-1.891,29.319-10.695,27.366-51.543
			C272.533,86.393,259.411,71.04,233.95,71.592z"/>
	</g>
	<g>
		<path fill="#FAFEFB" d="M137.013,96.751c33.65-11.546,69.872-22.519,91.382-24.797c0.686-0.072,1.357-0.123,2.031-0.174
			c3.529-3.054,7.186-5.534,10.98-7.292c-2.57-0.271-5.128-0.36-7.617-0.306c-1.991,0.043-4.068,0.178-6.174,0.401
			c-20.735,2.195-54.658,12.222-87.061,23.161C139.328,90.534,138.14,93.533,137.013,96.751z"/>
		<path fill="#FAFEFB" d="M165.202,183.415c1.5-2.318,3.017-4.887,4.56-7.673c-18.781,1.025-38.145,2.004-54.61,2.837
			c-3.987,0.202-7.847,0.396-11.547,0.586c-2.721,2.842-5.699,5.479-8.957,7.879c6.323-0.325,13.385-0.683,20.876-1.062
			C131.057,185.196,148.339,184.323,165.202,183.415z"/>
	</g>
	<g>
		<path fill="#48993B" d="M303.729,68.851c-8.569-12.445-22.958-26.93-30.204-28.216c-5.427-0.963-7.662-4.222-8.324-7.317
			c0.369,2.178,3.528,3.526,2.874,5.63c-11.854,38.164,14.35,15.396,20.559,69.197c7.646,66.277-11.87,94.004-188.591,94.963
			c-63.209,0.344-61.495-2.592-76.837-3.998c1.661,1.596,3.195,2.675,4.461,3.118c8.729,3.059,30.784,6.911,45.252,6.598
			c12.265-0.266,164.491-3.208,180.362-3.552c15.871-0.345,28.284-10.358,50.22-47.282
			C325.434,121.067,312.301,81.295,303.729,68.851z"/>
		<path fill="#48993B" d="M264.983,30.831c0.004-0.16,0.007-0.322,0.02-0.476c0.175-2.242,1.182-4.502,1.114-7.426
			C265.459,25.37,264.944,28.161,264.983,30.831z"/>
	</g>
</g>
</svg>
