<?xml version="1.0" encoding="utf-8"?>
<!-- Generator: Adobe Illustrator 16.0.0, SVG Export Plug-In . SVG Version: 6.00 Build 0)  -->
<!DOCTYPE svg PUBLIC "-//W3C//DTD SVG 1.1//EN" "http://www.w3.org/Graphics/SVG/1.1/DTD/svg11.dtd">
<svg version="1.1" id="Layer_1" xmlns="http://www.w3.org/2000/svg" xmlns:xlink="http://www.w3.org/1999/xlink" x="0px" y="0px"
	 width="197.458px" height="133.898px" viewBox="0 0 197.458 133.898" enable-background="new 0 0 197.458 133.898"
	 xml:space="preserve">
<g id="handlebars">
	<path fill="#C8CAC9" d="M169.403,101.401c0,0,19.139-12.55,22.554-19.766c0.708-1.498-4.663-9.907-4.663-9.907
		s1.779-3.375,0.604-6.315c-1.175-2.939-6.516-9.867-6.516-9.867s-2.263-1.804-12.895,3.617
		c-10.633,5.42-42.137,22.785-42.137,22.785s-2.899,3.028-7.86-3.536c-4.962-6.565-30.793-35.29-30.793-35.29
		s2.947-20.799-14.802-33.041C52.574-3.936,26.902,8.854,21.674,24.166c0,0,0.985,2.398-1.038,3.358
		C16.143,29.656,4.654,42.698,4.573,56.046c-0.08,13.346,5.37,25.461,12.531,30.865c0,0,0.016,17.793,15.657,21.16
		c15.643,3.369,23.866-10.525,23.866-10.525s8.167,0.564,13.283-2.883l32.169,30.441c0,0,1.98,5.887,10.438,2.738
		s17.27-7.048,20.193-8.965c2.925-1.916,7.363-2.384,9.957-2.439C145.261,116.382,158.583,115.353,169.403,101.401z"/>
	<path fill="#B2AD9C" d="M51.128,47.08l-11.84,25.984c0,0,4.61,0.82,9.362,8.066c4.753,7.248,0.537,24.797-5.41,25.846
		c-5.949,1.047,11.458-1.168,15.742-15.504c4.751-15.902,8.065-30.496,4.743-35.478C60.403,51.013,58.945,47.369,51.128,47.08z"/>
	<path fill="#B2AD9C" d="M86.556,70.659l-2.576,8.326l24.967,28.401c0,0,6.447,0.779,10.062-2.056
		c3.613-2.834,2.666-4.191,1.698-6.468c-0.97-2.276-33.353-33.733-33.353-33.733S88.773,66.937,86.556,70.659z"/>
	<path fill="#FAFEFB" d="M27.828,74.231c0,0-6.367,2.895-7.677,6.139c-1.309,3.244,1.569,8.695,7.478,5.811
		C33.538,83.296,36.055,72.215,27.828,74.231z"/>
	<path fill="#FAFEFB" d="M28.818,56.292c0,0,6.318-5.19,9.963-6.647c3.643-1.458,2.555-9.245,0.688-10.582
		c-1.865-1.337-3.464-11.41-3.514-13.706c-0.05-2.296-13.275,2.124-19.515,10.989c-6.24,8.865-7.012,15.772-3.407,12.479
		c3.606-3.294,7.119-10.721,11.672-12.658c4.552-1.936,8.136-6.149,8.226-2.016c0.09,4.133,4.251,5.42,0.249,11.48
		C29.178,51.69,30.106,52.129,28.818,56.292z"/>
	<path fill="#FAFEFB" d="M28.541,22.302c0,0,6.147-12.997,13.485-13.616c0,0-5.399,5.172,1.02,4.572
		c6.42-0.599,16.07-0.349,16.07-0.349s0.984,8.997-2.126,7.856C46.339,16.861,34.889,18.489,28.541,22.302z"/>
	<path fill="#FAFEFB" d="M176.41,61.819c0,0-4.933,5.62-9.015,8.006c-4.082,2.385-6.918-1.229-6.918-1.229
		S174.492,58.187,176.41,61.819z"/>
	<path fill="#FAFEFB" d="M161.694,82.354c0,0,10.383-7.576,15.455-7.687c1.837-0.039,1.437,2.725-3.016,9.254
		c-3.596,5.271-12.25,7.156-12.25,7.156s2.845,4.074,2.914,7.289c0.07,3.214,2.946,8.664-9.323,14.903
		c-8.065,4.101-15.074,4.001-15.074,4.001l-5.321-12.287c0,0,18.756-3.623,23.631-11.998
		C163.582,84.609,167.722,84.979,161.694,82.354z"/>
</g>
</svg>
