<?xml version="1.0" encoding="UTF-8" standalone="no"?>
<!DOCTYPE svg PUBLIC "-//W3C//DTD SVG 1.1//EN" "http://www.w3.org/Graphics/SVG/1.1/DTD/svg11.dtd">
<svg version="1.1" xmlns="http://www.w3.org/2000/svg" xmlns:xlink="http://www.w3.org/1999/xlink" preserveAspectRatio="xMidYMid meet" viewBox="0 0 640 640" width="640" height="640"><defs><path d="M426.55 319.06C427.25 317.57 421.91 309.22 421.91 309.22C421.91 309.22 423.68 305.87 422.51 302.95C421.35 300.03 416.04 293.15 416.04 293.15C416.04 293.15 413.79 291.36 403.23 296.74C392.67 302.12 361.38 319.37 361.38 319.37C361.38 319.37 358.5 322.38 353.57 315.86C348.64 309.34 322.99 280.81 322.99 280.81C322.99 280.81 325.91 260.15 308.28 247.99C288.1 234.07 262.6 246.77 257.4 261.98C257.4 261.98 258.38 264.36 256.37 265.31C251.91 267.43 240.5 280.39 240.42 293.64C240.34 306.9 245.75 318.94 252.87 324.3C252.87 324.3 252.88 341.98 268.42 345.32C283.96 348.67 292.12 334.87 292.12 334.87C292.12 334.87 300.24 335.43 305.32 332C308.51 335.03 334.08 359.22 337.27 362.24C337.27 362.24 339.24 368.09 347.64 364.96C356.04 361.83 364.79 357.96 367.7 356.05C370.6 354.15 375.01 353.69 377.59 353.63C380.16 353.58 393.4 352.55 404.14 338.7C408.62 334.77 423.15 326.23 426.55 319.06Z" id="a3cNo2Z8t"></path><path d="M274.9 310.55C274.9 310.55 279.48 311.36 284.2 318.56C288.92 325.76 284.73 343.19 278.83 344.23C272.92 345.27 290.21 343.07 294.46 328.83C299.18 313.04 302.47 298.54 299.17 293.59C295.87 288.65 294.43 285.03 286.66 284.74C284.31 289.9 276.08 307.97 274.9 310.55Z" id="a1ybZJorHH"></path><path d="M319.29 316.43C334.17 333.36 342.44 342.76 344.09 344.64C344.09 344.64 350.5 345.41 354.09 342.6C357.68 339.78 356.74 338.44 355.77 336.17C354.81 333.91 322.64 302.67 322.64 302.67C322.64 302.67 324.05 304.46 321.85 308.16C321.51 309.26 320.66 312.02 319.29 316.43Z" id="azGMN3pf6"></path><path d="M255.89 317.81C254.59 321.03 257.45 326.44 263.32 323.58C269.19 320.71 271.69 309.71 263.52 311.71C261.99 312.93 257.19 314.58 255.89 317.81Z" id="d1eHStcIa"></path><path d="M274.4 287.29C278.02 285.84 276.93 278.1 275.08 276.78C273.23 275.45 271.64 265.44 271.59 263.16C271.54 260.88 258.4 265.27 252.21 274.08C246.01 282.88 245.24 289.74 248.82 286.47C252.4 283.2 255.89 275.82 260.42 273.9C264.94 271.98 268.5 267.79 268.59 271.9C268.68 276 272.81 277.28 268.83 283.3C264.86 289.32 265.78 289.75 264.5 293.89C266.48 292.57 270.78 288.73 274.4 287.29Z" id="e3HHIvLb18"></path><path d="M277.62 246.6C277.62 246.6 272.26 251.74 278.63 251.14C285.01 250.55 294.6 250.8 294.6 250.8C294.6 250.8 295.57 259.73 292.48 258.6C281.9 254.72 270.53 256.34 264.23 260.13C266.9 257.42 270.33 247.22 277.62 246.6Z" id="a6Z8ozcEI"></path><path d="M402.15 307.33C398.09 309.7 395.28 306.11 395.28 306.11C395.28 306.11 409.2 295.77 411.1 299.38C409.31 300.97 406.2 304.96 402.15 307.33Z" id="cptw19Kg3"></path><path d="M411.84 312.14C413.66 312.1 413.26 314.85 408.84 321.33C405.27 326.57 396.67 328.44 396.67 328.44C396.67 328.44 399.5 332.49 399.57 335.68C399.64 338.87 402.49 344.29 390.31 350.48C382.3 354.56 375.33 354.46 375.33 354.46C374.81 353.24 370.58 343.47 370.05 342.25C370.05 342.25 388.68 338.65 393.52 330.34C398.36 322.02 402.47 322.38 396.49 319.78C399.56 318.25 406.8 312.25 411.84 312.14Z" id="a4IGjWZ0SU"></path><path d="M314.22 280.52L278.93 287.62L264.19 271.97L234.07 257.45L151.29 286.04L100.3 303.94L85.71 293.67L81.12 270.28L83.03 250.62L113.42 242.59L161.41 224.54L225.09 203.34L276.67 214.6L307.94 241.37L314.22 280.52Z" id="i19pNL23fT"></path><path d="M280.78 268.83L252.72 274.97L244.21 266.4L223.81 259.33L155.92 280.86L114.06 294.3L104.73 288.94L105.29 275.2L110.13 263.33L134.63 256.91L174.24 243.54L226.33 227.45L263.61 231.42L282.77 245.75L280.78 268.83Z" id="l49OW2RWQE"></path><path d="" id="a2cdYOmydq"></path><path d="M314.22 327.02L278.93 334.12L264.19 318.47L234.07 303.95L151.29 332.54L100.3 350.44L85.71 340.17L81.12 316.78L83.03 297.12L113.42 289.09L161.41 271.04L225.09 249.84L276.67 261.11L307.94 287.87L314.22 327.02Z" id="e2t8Pb9VP3"></path><path d="" id="a2HmAGiPwj"></path><path d="" id="bxwK8YMTH"></path><path d="M280.78 315.33L252.72 321.47L244.21 312.9L223.81 305.83L155.92 327.36L114.06 340.8L104.73 335.45L105.29 321.7L110.13 309.84L134.63 303.41L174.24 290.04L226.33 273.95L263.61 277.92L282.77 292.26L280.78 315.33Z" id="a1xWMr9FAE"></path><path d="M280.84 303.94L280.91 303.95L280.99 303.96L281.06 303.97L281.13 303.98L281.2 303.99L281.26 304.01L281.32 304.03L281.39 304.05L281.45 304.07L281.5 304.1L281.56 304.13L281.61 304.16L281.67 304.19L281.72 304.22L281.77 304.25L281.82 304.29L281.86 304.32L281.91 304.36L281.95 304.4L282 304.44L282.04 304.49L282.08 304.53L282.12 304.58L282.16 304.63L282.2 304.67L282.24 304.72L282.28 304.77L282.31 304.83L282.35 304.88L282.38 304.93L282.42 304.99L282.45 305.04L282.49 305.1L282.52 305.15L282.55 305.21L282.59 305.27L282.62 305.33L282.65 305.39L284.36 309.16L284.9 309.26L286.08 309.51L287.24 309.78L288.38 310.08L289.5 310.41L289.59 310.43L295.34 308.47L295.43 308.44L295.53 308.42L295.62 308.39L295.72 308.36L295.81 308.34L295.9 308.31L295.99 308.28L296.08 308.26L296.17 308.24L296.26 308.22L296.35 308.19L296.43 308.17L296.52 308.15L296.61 308.14L296.69 308.12L296.77 308.1L296.86 308.09L296.94 308.08L297.02 308.07L297.1 308.06L297.18 308.05L297.25 308.04L297.33 308.04L297.41 308.03L297.48 308.03L297.56 308.03L297.63 308.03L297.7 308.04L297.77 308.05L297.84 308.05L297.91 308.06L297.98 308.08L298.04 308.09L298.11 308.11L298.17 308.13L298.24 308.15L298.3 308.18L298.36 308.2L298.42 308.23L298.48 308.27L306.85 313.2L306.9 313.23L306.96 313.27L307 313.31L307.05 313.34L307.08 313.38L307.12 313.42L307.15 313.46L307.18 313.5L307.2 313.54L307.22 313.58L307.24 313.62L307.25 313.67L307.26 313.71L307.27 313.76L307.27 313.8L307.27 313.85L307.27 313.89L307.26 313.94L307.25 313.98L307.24 314.03L307.22 314.08L307.21 314.13L307.19 314.18L307.16 314.23L307.14 314.28L307.11 314.33L307.08 314.38L307.05 314.43L307.01 314.48L306.97 314.53L306.94 314.58L306.89 314.63L306.85 314.68L306.81 314.74L306.76 314.79L306.71 314.84L306.66 314.89L306.61 314.94L306.55 315L306.5 315.05L303.18 318.43L303.24 318.51L303.79 319.16L304.3 319.83L304.77 320.52L305.19 321.22L305.35 321.53L311.75 322.54L311.86 322.55L311.96 322.57L312.06 322.58L312.15 322.6L312.25 322.61L312.35 322.63L312.44 322.65L312.53 322.67L312.62 322.69L312.71 322.71L312.8 322.73L312.89 322.75L312.97 322.77L313.05 322.79L313.13 322.82L313.21 322.84L313.29 322.87L313.36 322.89L313.43 322.92L313.5 322.95L313.56 322.98L313.63 323.01L313.69 323.04L313.74 323.07L313.8 323.1L313.85 323.13L313.9 323.17L313.94 323.2L313.99 323.24L314.03 323.27L314.06 323.31L314.09 323.35L314.12 323.39L314.15 323.43L314.17 323.47L314.19 323.52L314.2 323.56L314.21 323.61L314.22 323.65L314.22 323.7L314.22 330.68L314.22 330.72L314.21 330.77L314.2 330.81L314.19 330.86L314.17 330.9L314.15 330.94L314.12 330.98L314.09 331.02L314.06 331.06L314.03 331.09L313.99 331.13L313.94 331.16L313.9 331.19L313.85 331.23L313.8 331.26L313.74 331.29L313.69 331.32L313.63 331.35L313.56 331.37L313.5 331.4L313.43 331.43L313.36 331.45L313.29 331.48L313.21 331.5L313.13 331.53L313.05 331.55L312.97 331.57L312.89 331.59L312.8 331.62L312.71 331.64L312.62 331.66L312.53 331.68L312.44 331.7L312.35 331.72L312.25 331.74L312.15 331.76L312.06 331.78L311.96 331.8L311.86 331.82L311.75 331.84L305.35 332.84L305.19 333.16L304.77 333.86L304.3 334.54L303.79 335.21L303.24 335.87L303.18 335.94L306.5 339.31L306.55 339.37L306.61 339.42L306.66 339.47L306.71 339.52L306.76 339.57L306.81 339.63L306.85 339.68L306.89 339.73L306.94 339.78L306.97 339.83L307.01 339.88L307.05 339.93L307.08 339.99L307.11 340.04L307.14 340.09L307.16 340.14L307.19 340.18L307.21 340.23L307.22 340.28L307.24 340.33L307.25 340.38L307.26 340.42L307.27 340.47L307.27 340.52L307.27 340.56L307.27 340.61L307.26 340.65L307.25 340.7L307.24 340.74L307.22 340.78L307.2 340.82L307.18 340.86L307.15 340.9L307.12 340.94L307.08 340.98L307.05 341.02L307 341.06L306.96 341.09L306.9 341.13L306.85 341.16L298.48 346.09L298.42 346.13L298.36 346.16L298.3 346.18L298.24 346.21L298.17 346.23L298.11 346.25L298.04 346.27L297.98 346.28L297.91 346.3L297.84 346.31L297.77 346.32L297.7 346.32L297.63 346.33L297.56 346.33L297.48 346.33L297.41 346.33L297.33 346.33L297.25 346.32L297.18 346.31L297.1 346.31L297.02 346.3L296.94 346.28L296.86 346.27L296.77 346.26L296.69 346.24L296.61 346.23L296.52 346.21L296.43 346.19L296.35 346.17L296.26 346.15L296.17 346.12L296.08 346.1L295.99 346.08L295.9 346.05L295.81 346.03L295.72 346L295.62 345.97L295.53 345.95L295.43 345.92L295.34 345.89L289.61 343.93L289.5 343.97L288.38 344.3L287.24 344.59L286.08 344.87L284.9 345.12L284.36 345.21L282.65 348.99L282.62 349.05L282.59 349.1L282.55 349.16L282.52 349.22L282.49 349.28L282.45 349.33L282.42 349.39L282.38 349.44L282.35 349.5L282.31 349.55L282.28 349.6L282.24 349.65L282.2 349.7L282.16 349.75L282.12 349.8L282.08 349.84L282.04 349.89L282 349.93L281.95 349.97L281.91 350.01L281.86 350.05L281.82 350.09L281.77 350.12L281.72 350.16L281.67 350.19L281.61 350.22L281.56 350.25L281.5 350.28L281.45 350.3L281.39 350.32L281.32 350.35L281.26 350.36L281.2 350.38L281.13 350.4L281.06 350.41L280.99 350.42L280.91 350.43L280.84 350.43L280.76 350.44L280.68 350.44L268.84 350.44L268.76 350.44L268.68 350.43L268.61 350.43L268.53 350.42L268.46 350.41L268.39 350.4L268.32 350.38L268.25 350.36L268.18 350.35L268.12 350.32L268.06 350.3L268 350.28L267.94 350.25L267.88 350.22L267.82 350.19L267.77 350.16L267.72 350.12L267.66 350.09L267.61 350.05L267.57 350.01L267.52 349.97L267.47 349.93L267.43 349.89L267.39 349.84L267.35 349.8L267.31 349.75L267.27 349.7L267.23 349.65L267.19 349.6L267.16 349.55L267.12 349.5L267.09 349.44L267.06 349.39L267.03 349.33L267 349.28L266.97 349.22L266.95 349.16L266.92 349.1L266.89 349.05L266.87 348.99L265.16 345.21L264.63 345.12L263.44 344.87L262.28 344.59L261.14 344.3L260.03 343.97L259.89 343.93L254.18 345.88L254.1 345.91L254.01 345.94L253.92 345.97L253.83 346L253.74 346.03L253.65 346.06L253.56 346.08L253.48 346.11L253.39 346.13L253.3 346.16L253.22 346.18L253.13 346.2L253.04 346.22L252.96 346.24L252.87 346.25L252.79 346.27L252.71 346.28L252.62 346.29L252.54 346.3L252.46 346.31L252.38 346.32L252.3 346.32L252.22 346.33L252.14 346.33L252.06 346.33L251.99 346.33L251.91 346.32L251.84 346.32L251.77 346.31L251.69 346.3L251.62 346.29L251.55 346.28L251.49 346.26L251.42 346.24L251.35 346.22L251.29 346.2L251.23 346.17L251.16 346.14L251.1 346.11L251.05 346.08L242.68 341.15L242.62 341.11L242.57 341.08L242.52 341.04L242.48 341.01L242.44 340.97L242.41 340.93L242.38 340.89L242.35 340.85L242.33 340.81L242.31 340.77L242.3 340.73L242.29 340.69L242.28 340.65L242.28 340.61L242.28 340.56L242.28 340.52L242.28 340.47L242.29 340.43L242.3 340.38L242.32 340.34L242.33 340.29L242.35 340.24L242.37 340.19L242.4 340.14L242.42 340.09L242.45 340.05L242.48 340L242.52 339.94L242.55 339.89L242.59 339.84L242.62 339.79L242.66 339.74L242.7 339.68L242.75 339.63L242.79 339.58L242.84 339.52L242.88 339.47L242.93 339.41L242.98 339.36L243.02 339.3L246.34 335.93L246.28 335.87L245.73 335.21L245.22 334.54L244.76 333.86L244.34 333.16L244.17 332.84L237.77 331.84L237.67 331.82L237.57 331.8L237.47 331.78L237.37 331.76L237.27 331.74L237.18 331.72L237.08 331.7L236.99 331.68L236.9 331.66L236.81 331.64L236.72 331.62L236.64 331.59L236.55 331.57L236.47 331.55L236.39 331.53L236.31 331.5L236.24 331.48L236.16 331.45L236.09 331.43L236.03 331.4L235.96 331.37L235.9 331.35L235.84 331.32L235.78 331.29L235.72 331.26L235.67 331.23L235.62 331.19L235.58 331.16L235.54 331.13L235.5 331.09L235.46 331.06L235.43 331.02L235.4 330.98L235.37 330.94L235.35 330.9L235.34 330.86L235.32 330.81L235.31 330.77L235.31 330.72L235.3 330.68L235.3 323.7L235.31 323.65L235.31 323.61L235.32 323.56L235.34 323.52L235.35 323.47L235.37 323.43L235.4 323.39L235.43 323.35L235.46 323.31L235.5 323.27L235.54 323.24L235.58 323.2L235.62 323.17L235.67 323.13L235.72 323.1L235.78 323.07L235.84 323.04L235.9 323.01L235.96 322.98L236.03 322.95L236.09 322.92L236.16 322.89L236.24 322.87L236.31 322.84L236.39 322.82L236.47 322.79L236.55 322.77L236.64 322.75L236.72 322.73L236.81 322.71L236.9 322.69L236.99 322.67L237.08 322.65L237.18 322.63L237.27 322.61L237.37 322.6L237.47 322.58L237.57 322.57L237.67 322.55L237.77 322.54L244.17 321.53L244.34 321.22L244.76 320.52L245.22 319.83L245.73 319.16L246.28 318.51L246.34 318.44L243.02 315.06L242.98 315.01L242.93 314.95L242.88 314.9L242.84 314.84L242.79 314.79L242.75 314.73L242.7 314.68L242.66 314.63L242.62 314.57L242.59 314.52L242.55 314.47L242.52 314.42L242.48 314.37L242.45 314.32L242.42 314.27L242.4 314.22L242.37 314.17L242.35 314.12L242.33 314.07L242.32 314.03L242.3 313.98L242.29 313.93L242.28 313.89L242.28 313.84L242.28 313.8L242.28 313.76L242.28 313.71L242.29 313.67L242.3 313.63L242.31 313.59L242.33 313.55L242.35 313.51L242.38 313.47L242.41 313.43L242.44 313.39L242.48 313.36L242.52 313.32L242.57 313.28L242.62 313.25L242.68 313.21L251.05 308.28L251.1 308.25L251.16 308.22L251.23 308.19L251.29 308.16L251.35 308.14L251.42 308.12L251.49 308.1L251.55 308.09L251.62 308.07L251.69 308.06L251.77 308.05L251.84 308.04L251.91 308.04L251.99 308.03L252.06 308.03L252.14 308.03L252.22 308.03L252.3 308.04L252.38 308.04L252.46 308.05L252.54 308.06L252.62 308.07L252.71 308.08L252.79 308.1L252.87 308.11L252.96 308.13L253.04 308.15L253.13 308.16L253.22 308.19L253.3 308.21L253.39 308.23L253.48 308.25L253.56 308.28L253.65 308.31L253.74 308.33L253.83 308.36L253.92 308.39L254.01 308.42L254.1 308.45L254.18 308.49L259.92 310.44L260.03 310.41L261.14 310.08L262.28 309.78L263.44 309.51L264.63 309.26L265.16 309.16L266.87 305.39L266.89 305.33L266.92 305.27L266.95 305.21L266.97 305.15L267 305.1L267.03 305.04L267.06 304.99L267.09 304.93L267.12 304.88L267.16 304.83L267.19 304.77L267.23 304.72L267.27 304.67L267.31 304.63L267.35 304.58L267.39 304.53L267.43 304.49L267.47 304.44L267.52 304.4L267.57 304.36L267.61 304.32L267.66 304.29L267.72 304.25L267.77 304.22L267.82 304.19L267.88 304.16L267.94 304.13L268 304.1L268.06 304.07L268.12 304.05L268.18 304.03L268.25 304.01L268.32 303.99L268.39 303.98L268.46 303.97L268.53 303.96L268.61 303.95L268.68 303.94L268.76 303.94L268.84 303.94L280.68 303.94L280.76 303.94L280.84 303.94ZM273.35 317.05L272.65 317.09L271.96 317.15L271.28 317.22L270.61 317.31L269.95 317.42L269.31 317.53L268.67 317.67L268.04 317.82L267.43 317.98L266.83 318.15L266.24 318.34L265.67 318.54L265.11 318.75L264.57 318.98L264.04 319.22L263.53 319.46L263.03 319.72L262.55 320L262.1 320.28L261.65 320.57L261.23 320.87L260.83 321.18L260.45 321.5L260.09 321.83L259.74 322.17L259.43 322.51L259.13 322.87L258.86 323.23L258.61 323.6L258.38 323.97L258.18 324.36L258 324.74L257.85 325.14L257.72 325.54L257.63 325.94L257.56 326.35L257.51 326.77L257.5 327.19L257.51 327.61L257.56 328.02L257.63 328.43L257.72 328.84L257.85 329.24L258 329.63L258.18 330.02L258.38 330.4L258.61 330.78L258.86 331.15L259.13 331.51L259.43 331.86L259.74 332.21L260.09 332.55L260.45 332.88L260.83 333.2L261.23 333.51L261.65 333.81L262.1 334.1L262.55 334.38L263.03 334.65L263.53 334.91L264.04 335.16L264.57 335.4L265.11 335.62L265.67 335.84L266.24 336.04L266.83 336.22L267.43 336.4L268.04 336.56L268.67 336.71L269.31 336.84L269.95 336.96L270.61 337.06L271.28 337.15L271.96 337.23L272.65 337.28L273.35 337.33L274.05 337.35L274.76 337.36L275.47 337.35L276.18 337.33L276.87 337.28L277.56 337.23L278.24 337.15L278.91 337.06L279.57 336.96L280.22 336.84L280.86 336.71L281.48 336.56L282.09 336.4L282.7 336.22L283.28 336.04L283.86 335.84L284.41 335.62L284.96 335.4L285.48 335.16L286 334.91L286.49 334.65L286.97 334.38L287.43 334.1L287.87 333.81L288.29 333.51L288.69 333.2L289.08 332.88L289.44 332.55L289.78 332.21L290.1 331.86L290.39 331.51L290.67 331.15L290.92 330.78L291.14 330.4L291.35 330.02L291.52 329.63L291.67 329.24L291.8 328.84L291.9 328.43L291.97 328.02L292.01 327.61L292.02 327.19L292.01 326.77L291.97 326.35L291.9 325.94L291.8 325.54L291.67 325.14L291.52 324.74L291.35 324.36L291.14 323.97L290.92 323.6L290.67 323.23L290.39 322.87L290.1 322.51L289.78 322.17L289.44 321.83L289.08 321.5L288.69 321.18L288.29 320.87L287.87 320.57L287.43 320.28L286.97 320L286.49 319.72L286 319.46L285.48 319.22L284.96 318.98L284.41 318.75L283.86 318.54L283.28 318.34L282.7 318.15L282.09 317.98L281.48 317.82L280.86 317.67L280.22 317.53L279.57 317.42L278.91 317.31L278.24 317.22L277.56 317.15L276.87 317.09L276.18 317.05L275.47 317.02L274.76 317.02L274.05 317.02L273.35 317.05Z" id="g1RrnUxw1"></path><path d="M259.35 330.47C267.79 323.72 272.93 320.23 274.76 320C276.59 319.77 281.16 322.17 288.47 327.19L288.47 338.06L279.61 355.79L259.35 346.93L266.95 327.19" id="cmqaEaLh5"></path></defs><g><g><g><g><use xlink:href="#a3cNo2Z8t" opacity="1" fill="#c8cac9" fill-opacity="1"></use><g><use xlink:href="#a3cNo2Z8t" opacity="1" fill-opacity="0" stroke="#000000" stroke-width="1" stroke-opacity="0"></use></g></g><g><use xlink:href="#a1ybZJorHH" opacity="1" fill="#b2ad9c" fill-opacity="1"></use><g><use xlink:href="#a1ybZJorHH" opacity="1" fill-opacity="0" stroke="#000000" stroke-width="1" stroke-opacity="0"></use></g></g><g><use xlink:href="#azGMN3pf6" opacity="1" fill="#b2ad9c" fill-opacity="1"></use><g><use xlink:href="#azGMN3pf6" opacity="1" fill-opacity="0" stroke="#000000" stroke-width="1" stroke-opacity="0"></use></g></g><g><use xlink:href="#d1eHStcIa" opacity="1" fill="#fafefb" fill-opacity="1"></use><g><use xlink:href="#d1eHStcIa" opacity="1" fill-opacity="0" stroke="#000000" stroke-width="1" stroke-opacity="0"></use></g></g><g><use xlink:href="#e3HHIvLb18" opacity="1" fill="#fafefb" fill-opacity="1"></use><g><use xlink:href="#e3HHIvLb18" opacity="1" fill-opacity="0" stroke="#000000" stroke-width="1" stroke-opacity="0"></use></g></g><g><use xlink:href="#a6Z8ozcEI" opacity="1" fill="#fafefb" fill-opacity="1"></use><g><use xlink:href="#a6Z8ozcEI" opacity="1" fill-opacity="0" stroke="#000000" stroke-width="1" stroke-opacity="0"></use></g></g><g><use xlink:href="#cptw19Kg3" opacity="1" fill="#fafefb" fill-opacity="1"></use><g><use xlink:href="#cptw19Kg3" opacity="1" fill-opacity="0" stroke="#000000" stroke-width="1" stroke-opacity="0"></use></g></g><g><use xlink:href="#a4IGjWZ0SU" opacity="1" fill="#fafefb" fill-opacity="1"></use><g><use xlink:href="#a4IGjWZ0SU" opacity="1" fill-opacity="0" stroke="#000000" stroke-width="1" stroke-opacity="0"></use></g></g></g><g><g><use xlink:href="#i19pNL23fT" opacity="1" fill="#130e07" fill-opacity="1"></use><g><use xlink:href="#i19pNL23fT" opacity="1" fill-opacity="0" stroke="#888383" stroke-width="5" stroke-opacity="1"></use></g></g><g><use xlink:href="#l49OW2RWQE" opacity="1" fill="#73592f" fill-opacity="1"></use><g><use xlink:href="#l49OW2RWQE" opacity="1" fill-opacity="0" stroke="#888383" stroke-width="2" stroke-opacity="1"></use></g></g></g><g><g><use xlink:href="#a2cdYOmydq" opacity="1" fill-opacity="0" stroke="#000000" stroke-width="1" stroke-opacity="1"></use></g></g><g><use xlink:href="#e2t8Pb9VP3" opacity="1" fill="#130e07" fill-opacity="1"></use><g><use xlink:href="#e2t8Pb9VP3" opacity="1" fill-opacity="0" stroke="#888383" stroke-width="5" stroke-opacity="1"></use></g></g><g><g><use xlink:href="#a2HmAGiPwj" opacity="1" fill-opacity="0" stroke="#888383" stroke-width="4" stroke-opacity="1"></use></g></g><g><g><use xlink:href="#bxwK8YMTH" opacity="1" fill-opacity="0" stroke="#000000" stroke-width="1" stroke-opacity="1"></use></g></g><g><use xlink:href="#a1xWMr9FAE" opacity="1" fill="#73592f" fill-opacity="1"></use><g><use xlink:href="#a1xWMr9FAE" opacity="1" fill-opacity="0" stroke="#888383" stroke-width="2" stroke-opacity="1"></use></g></g><g><use xlink:href="#g1RrnUxw1" opacity="1" fill="#494847" fill-opacity="1"></use></g><g><use xlink:href="#cmqaEaLh5" opacity="1" fill="#494847" fill-opacity="1"></use><g><use xlink:href="#cmqaEaLh5" opacity="1" fill-opacity="0" stroke="#888383" stroke-width="4" stroke-opacity="1"></use></g></g></g></g></svg>