<?xml version="1.0" encoding="UTF-8" standalone="no"?>
<!DOCTYPE svg PUBLIC "-//W3C//DTD SVG 1.1//EN" "http://www.w3.org/Graphics/SVG/1.1/DTD/svg11.dtd">
<svg version="1.1" xmlns="http://www.w3.org/2000/svg" xmlns:xlink="http://www.w3.org/1999/xlink" preserveAspectRatio="xMidYMid meet" viewBox="0 0 640 640" width="640" height="640"><defs><path d="M373.19 254.65C373.19 279.74 350.81 300.11 323.25 300.11C295.68 300.11 273.3 279.74 273.3 254.65C273.3 229.57 295.68 209.2 323.25 209.2C350.81 209.2 373.19 229.57 373.19 254.65Z" id="f1gcwdQfO1"></path><mask id="maskbrq1zs41l" x="233.3" y="169.2" width="179.89" height="170.91" maskUnits="userSpaceOnUse"><rect x="233.3" y="169.2" width="179.89" height="170.91" fill="white"></rect><use xlink:href="#f1gcwdQfO1" opacity="1" fill="black"></use></mask><path d="M317.84 274.45L328.84 274.45L328.84 298.92L317.84 298.92L317.84 274.45Z" id="a1q4oWeAt"></path><path d="M344.26 256.57C343.3 267.44 332.79 275.41 320.8 274.36C308.81 273.3 299.85 263.61 300.81 252.74C301.77 241.86 312.28 233.89 324.27 234.95C336.26 236.01 345.22 245.69 344.26 256.57Z" id="e1p59nh5kQ"></path><path d="M317.04 209.2L328.04 209.2L328.04 236.58L317.04 236.58L317.04 209.2Z" id="bvRTm702u"></path><path d="M373.03 248.1L373.19 259.1L345.75 259.52L345.58 248.52L373.03 248.1Z" id="a7qGHROKG"></path><path d="M301.38 248.94L301.55 259.94L274.1 260.36L273.93 249.36L301.38 248.94Z" id="bBG0BhEwD"></path></defs><g><g><g><g><g mask="url(#maskbrq1zs41l)"><use xlink:href="#f1gcwdQfO1" opacity="1" fill-opacity="0" stroke="#110f07" stroke-width="40" stroke-opacity="1"></use></g></g><g><use xlink:href="#a1q4oWeAt" opacity="1" fill="#1d1d1a" fill-opacity="1"></use><g><use xlink:href="#a1q4oWeAt" opacity="1" fill-opacity="0" stroke="#080703" stroke-width="1" stroke-opacity="1"></use></g></g><g><use xlink:href="#e1p59nh5kQ" opacity="1" fill="#44443c" fill-opacity="1"></use><g><use xlink:href="#e1p59nh5kQ" opacity="1" fill-opacity="0" stroke="#090804" stroke-width="3" stroke-opacity="1"></use></g></g><g><use xlink:href="#bvRTm702u" opacity="1" fill="#1d1d1a" fill-opacity="1"></use><g><use xlink:href="#bvRTm702u" opacity="1" fill-opacity="0" stroke="#080703" stroke-width="1" stroke-opacity="1"></use></g></g><g><use xlink:href="#a7qGHROKG" opacity="1" fill="#1d1d1a" fill-opacity="1"></use><g><use xlink:href="#a7qGHROKG" opacity="1" fill-opacity="0" stroke="#080703" stroke-width="1" stroke-opacity="1"></use></g></g><g><use xlink:href="#bBG0BhEwD" opacity="1" fill="#1d1d1a" fill-opacity="1"></use><g><use xlink:href="#bBG0BhEwD" opacity="1" fill-opacity="0" stroke="#080703" stroke-width="1" stroke-opacity="1"></use></g></g></g></g></g></svg>