<?xml version="1.0" encoding="UTF-8" standalone="no"?>
<!DOCTYPE svg PUBLIC "-//W3C//DTD SVG 1.1//EN" "http://www.w3.org/Graphics/SVG/1.1/DTD/svg11.dtd">
<svg version="1.1" xmlns="http://www.w3.org/2000/svg" xmlns:xlink="http://www.w3.org/1999/xlink" preserveAspectRatio="xMidYMid meet" viewBox="0 0 640 640" width="640" height="640"><defs><path d="M324.99 362.39L339.34 376.76L351.34 315.09L320.75 325.04L324.99 362.39Z" id="bo19iIL0I"></path><path d="M324.99 362.39L339.34 376.76L351.34 315.09L320.75 325.04L324.99 362.39Z" id="a1SpZ9n4tR"></path><path d="M338.01 376.64L406.37 380.64L444.34 319.83L416.5 397.95L325.32 397.95L265.86 314.97L289.33 319.83L338.01 376.64Z" id="cVXQb2eWB"></path><path d="M338.01 376.64L406.37 380.64L444.34 319.83L416.5 397.95L325.32 397.95L265.86 314.97L289.33 319.83L338.01 376.64Z" id="c13XVja7h2"></path><path d="M293.56 350.18L268.01 364.1L184.35 322.3L132.18 316.74L62.16 362.11L123.95 302.41L247.63 310.94L293.56 350.18Z" id="jcct3MLrP"></path><path d="M293.56 350.18L268.01 364.1L184.35 322.3L132.18 316.74L62.16 362.11L123.95 302.41L247.63 310.94L293.56 350.18Z" id="aDSViHmA4"></path><path d="M149.46 259.55L173.57 259.48L198.85 258.31L230.94 262.55L261.69 265.91L287.48 270.69L314.45 274.37L341.68 281.04L359.34 294.52L352.14 314.15L330.23 325.04L303.26 321.36L278.65 315.47L242.86 312.55L217.32 310.74L173.97 308.47L144.57 305.99L127 293.5L135.54 274.76L150.72 259.45" id="a6Tj8WdB7k"></path><path d="M149.46 259.55L173.57 259.48L198.85 258.31L230.94 262.55L261.69 265.91L287.48 270.69L314.45 274.37L341.68 281.04L359.34 294.52L352.14 314.15L330.23 325.04L303.26 321.36L278.65 315.47L242.86 312.55L217.32 310.74L173.97 308.47L144.57 305.99L127 293.5L135.54 274.76L150.72 259.45" id="agmaosH2"></path><path d="M315.95 333.01C321.61 332.3 323.11 329.89 321.51 329.18C319.91 328.48 318.34 328.6 316.88 327.48C315.42 326.36 310.28 323.73 304.75 323.6C299.22 323.47 295.77 324.14 292.98 325.53C290.18 326.93 287.65 326.65 286.9 327.8C286.15 328.96 287.39 330.79 290.34 331.6C294.64 332.79 310.3 333.71 315.95 333.01Z" id="d2QZN5RFZ"></path><path d="M315.95 333.01C321.61 332.3 323.11 329.89 321.51 329.18C319.91 328.48 318.34 328.6 316.88 327.48C315.42 326.36 310.28 323.73 304.75 323.6C299.22 323.47 295.77 324.14 292.98 325.53C290.18 326.93 287.65 326.65 286.9 327.8C286.15 328.96 287.39 330.79 290.34 331.6C294.64 332.79 310.3 333.71 315.95 333.01Z" id="a3RMdqyHK"></path><path d="M469.68 250.53L485.05 264.82L489.49 277.76L489.96 291.16L485.54 304.08L478.46 313.69L465.15 322.97" id="d3Xzwpx3Mv"></path><path d="M463.16 284.71L418.66 221.21L444.01 214.71L451.66 216.71L463.16 284.71Z" id="b6iNluYuB9"></path><path d="M463.16 284.71L418.66 221.21L444.01 214.71L451.66 216.71L463.16 284.71Z" id="b1BAGCLuIR"></path><path d="M470.28 252.21L478.78 257.71L482.78 267.21L486.78 277.21L486.28 287.21L484.78 297.21L482.28 307.71L478.78 317.21L474.28 326.21L467.28 334.71" id="aEaVeZuxJ"></path><path d="M466.34 240.96L486.34 238.96L495.34 256.96L492.34 276.96L483.34 296.96" id="cTYiKAyqt"></path><path d="M482.34 274.96L478.84 219.96L463.16 219.96L471.34 274.96L482.34 274.96Z" id="b44noTQ14e"></path><path d="M482.34 274.96L478.84 219.96L463.16 219.96L471.34 274.96L482.34 274.96Z" id="a1XjtC1aaO"></path><path d="M532.18 375.83L541.18 366.2L477.68 274.02L466.18 280.02L532.18 375.83Z" id="a2fDTIPhPg"></path><path d="M532.18 375.83L541.18 366.2L477.68 274.02L466.18 280.02L532.18 375.83Z" id="c5I4FLc4D"></path><path d="M158.8 394.89C157.89 395.05 153.33 395.83 145.13 397.25L148.26 383.41C167.29 354.71 177.86 338.77 179.97 335.58C187.91 340.8 191.88 343.48 191.88 343.62C191.88 343.77 180.86 360.86 158.8 394.89Z" id="b2piOnu79X"></path><path d="M158.8 394.89C157.89 395.05 153.33 395.83 145.13 397.25L148.26 383.41C167.29 354.71 177.86 338.77 179.97 335.58C187.91 340.8 191.88 343.48 191.88 343.62C191.88 343.77 180.86 360.86 158.8 394.89Z" id="ciORbcjnT"></path><path d="M165.46 391.31L160.16 378.58L144.86 380.23L134.87 394.6L140.18 407.32L155.47 405.68L165.46 391.31Z" id="c1xAsGRVwR"></path><path d="M165.46 391.31L160.16 378.58L144.86 380.23L134.87 394.6L140.18 407.32L155.47 405.68L165.46 391.31Z" id="hPM69mCIg"></path><path d="M147.61 386.81C151.74 384.2 156.25 384.82 157.66 388.21C159.07 391.6 156.86 396.48 152.73 399.09C148.59 401.71 144.09 401.09 142.68 397.7C141.27 394.31 143.48 389.43 147.61 386.81Z" id="iXkNFqK2h"></path><path d="M147.61 386.81C151.74 384.2 156.25 384.82 157.66 388.21C159.07 391.6 156.86 396.48 152.73 399.09C148.59 401.71 144.09 401.09 142.68 397.7C141.27 394.31 143.48 389.43 147.61 386.81Z" id="b5FPGlQUVJ"></path><path d="M152.46 398.45L147.88 387.45L152.46 398.45Z" id="a1iclbpEur"></path><path d="M177.86 319.85L177.86 337.48L196.81 346.29L215.76 337.48L215.76 319.85L196.81 311.03L177.86 319.85Z" id="dqFvHEJS"></path><path d="M197.14 337.08C191.91 337.08 187.67 333.31 187.67 328.66C187.67 324.02 191.91 320.24 197.14 320.24C202.37 320.24 206.62 324.02 206.62 328.66C206.62 333.31 202.37 337.08 197.14 337.08Z" id="bqxatqjtm"></path><path d="M197.14 337.08C191.91 337.08 187.67 333.31 187.67 328.66C187.67 324.02 191.91 320.24 197.14 320.24C202.37 320.24 206.62 324.02 206.62 328.66C206.62 333.31 202.37 337.08 197.14 337.08Z" id="bXHvNYcsg"></path><path d="M445.25 197.56C438.08 189.33 434.1 184.76 433.3 183.85C420.02 181.74 413.22 180.33 412.89 179.63C412.56 178.93 412.06 176.64 411.39 172.78C411.72 172.18 413.38 169.19 416.37 163.81L423.7 163.81L448.73 178.05L468.65 208.63L470.14 221.81" id="bTfi55Md9"></path><path d="M445.25 197.56C438.08 189.33 434.1 184.76 433.3 183.85C420.02 181.74 413.22 180.33 412.89 179.63C412.56 178.93 412.06 176.64 411.39 172.78C411.72 172.18 413.38 169.19 416.37 163.81L423.7 163.81L448.73 178.05L468.65 208.63L470.14 221.81" id="azjLFdfHy"></path><path d="M444.01 319.43L464.25 285.43L452 218.68L427.94 196.74L390.44 200.99L376.92 206.99L371.86 204.96L376.92 193.57L432.62 184.71L463 213.82L475.66 285.97L454.14 394.84L419.96 394.84L418 394.84L444.01 319.43Z" id="hlkHcxrco"></path><path d="M444.01 319.43L464.25 285.43L452 218.68L427.94 196.74L390.44 200.99L376.92 206.99L371.86 204.96L376.92 193.57L432.62 184.71L463 213.82L475.66 285.97L454.14 394.84L419.96 394.84L418 394.84L444.01 319.43Z" id="b1ejLy6oL"></path><path d="M423.76 184.71L427.16 187.21L429.16 191.21L427.16 197.71L383.16 204.71L381.66 197.71L377.66 193.21L377.66 189.21L423.76 184.71Z" id="a1vT3U1N5"></path><path d="M423.76 184.71L427.16 187.21L429.16 191.21L427.16 197.71L383.16 204.71L381.66 197.71L377.66 193.21L377.66 189.21L423.76 184.71Z" id="b22lhckvQ"></path><path d="M415.39 166.31L423.76 163.81L446.89 175.81L438.89 175.81L433.39 178.81L431.89 183.31L411.39 178.81L415.39 166.31Z" id="cohTl5jP6"></path><path d="M415.39 166.31L423.76 163.81L446.89 175.81L438.89 175.81L433.39 178.81L431.89 183.31L411.39 178.81L415.39 166.31Z" id="aTKzu7gwd"></path><path d="M524.68 367.21L524.68 380.68L541.18 387.42L557.68 380.68L557.68 367.21L541.18 360.48L524.68 367.21Z" id="g4SYrdUnYm"></path><path d="M524.68 367.21L524.68 380.68L541.18 387.42L557.68 380.68L557.68 367.21L541.18 360.48L524.68 367.21Z" id="eVnM3LTX"></path><path d="M541.18 379.81C535.78 379.81 531.4 376.9 531.4 373.31C531.4 369.72 535.78 366.81 541.18 366.81C546.57 366.81 550.95 369.72 550.95 373.31C550.95 376.9 546.57 379.81 541.18 379.81Z" id="c1hkWwRcQ"></path><path d="M541.18 379.81C535.78 379.81 531.4 376.9 531.4 373.31C531.4 369.72 535.78 366.81 541.18 366.81C546.57 366.81 550.95 369.72 550.95 373.31C550.95 376.9 546.57 379.81 541.18 379.81Z" id="aPoySPuYr"></path><path d="M541.18 366.81L541.18 380.11L541.18 366.81Z" id="i1FE75ii9L"></path></defs><g><g><g><g><use xlink:href="#bo19iIL0I" opacity="1" fill="#060606" fill-opacity="1"></use><g><use xlink:href="#bo19iIL0I" opacity="1" fill-opacity="0" stroke="#000000" stroke-width="1" stroke-opacity="0"></use></g></g><g><use xlink:href="#a1SpZ9n4tR" opacity="1" fill="#000000" fill-opacity="0"></use><g><use xlink:href="#a1SpZ9n4tR" opacity="1" fill-opacity="0" stroke="#110f07" stroke-width="1" stroke-opacity="1"></use></g></g><g><use xlink:href="#cVXQb2eWB" opacity="1" fill="#120f0c" fill-opacity="1"></use><g><use xlink:href="#cVXQb2eWB" opacity="1" fill-opacity="0" stroke="#000000" stroke-width="1" stroke-opacity="0"></use></g></g><g><use xlink:href="#c13XVja7h2" opacity="1" fill="#000000" fill-opacity="0"></use><g><use xlink:href="#c13XVja7h2" opacity="1" fill-opacity="0" stroke="#000000" stroke-width="1" stroke-opacity="1"></use></g></g><g><use xlink:href="#jcct3MLrP" opacity="1" fill="#090805" fill-opacity="1"></use><g><use xlink:href="#jcct3MLrP" opacity="1" fill-opacity="0" stroke="#000000" stroke-width="1" stroke-opacity="0"></use></g></g><g><use xlink:href="#aDSViHmA4" opacity="1" fill="#000000" fill-opacity="0"></use><g><use xlink:href="#aDSViHmA4" opacity="1" fill-opacity="0" stroke="#000000" stroke-width="1" stroke-opacity="1"></use></g></g><g><use xlink:href="#a6Tj8WdB7k" opacity="1" fill="#a58c63" fill-opacity="1"></use><g><use xlink:href="#a6Tj8WdB7k" opacity="1" fill-opacity="0" stroke="#000000" stroke-width="1" stroke-opacity="0"></use></g></g><g><use xlink:href="#agmaosH2" opacity="1" fill="#000000" fill-opacity="0"></use><g><use xlink:href="#agmaosH2" opacity="1" fill-opacity="0" stroke="#090101" stroke-width="4" stroke-opacity="0.25"></use></g></g><g><use xlink:href="#d2QZN5RFZ" opacity="1" fill="#231f20" fill-opacity="1"></use><g><use xlink:href="#d2QZN5RFZ" opacity="1" fill-opacity="0" stroke="#000000" stroke-width="1" stroke-opacity="0"></use></g></g><g><use xlink:href="#a3RMdqyHK" opacity="1" fill="#000000" fill-opacity="0"></use><g><use xlink:href="#a3RMdqyHK" opacity="1" fill-opacity="0" stroke="#000000" stroke-width="1" stroke-opacity="0"></use></g></g><g><use xlink:href="#d3Xzwpx3Mv" opacity="1" fill="#000000" fill-opacity="0"></use><g><use xlink:href="#d3Xzwpx3Mv" opacity="1" fill-opacity="0" stroke="#f60e0e" stroke-width="3" stroke-opacity="1"></use></g></g><g><use xlink:href="#b6iNluYuB9" opacity="1" fill="#3b3936" fill-opacity="1"></use><g><use xlink:href="#b6iNluYuB9" opacity="1" fill-opacity="0" stroke="#000000" stroke-width="1" stroke-opacity="0"></use></g></g><g><use xlink:href="#b1BAGCLuIR" opacity="1" fill="#000000" fill-opacity="0"></use><g><use xlink:href="#b1BAGCLuIR" opacity="1" fill-opacity="0" stroke="#000000" stroke-width="1" stroke-opacity="1"></use></g></g><g><use xlink:href="#aEaVeZuxJ" opacity="1" fill="#000000" fill-opacity="0"></use><g><use xlink:href="#aEaVeZuxJ" opacity="1" fill-opacity="0" stroke="#1796ae" stroke-width="3" stroke-opacity="1"></use></g></g><g><use xlink:href="#cTYiKAyqt" opacity="1" fill="#000000" fill-opacity="0"></use><g><use xlink:href="#cTYiKAyqt" opacity="1" fill-opacity="0" stroke="#16f60e" stroke-width="2" stroke-opacity="1"></use></g></g><g><use xlink:href="#b44noTQ14e" opacity="1" fill="#3e3d3b" fill-opacity="1"></use><g><use xlink:href="#b44noTQ14e" opacity="1" fill-opacity="0" stroke="#000000" stroke-width="1" stroke-opacity="0"></use></g></g><g><use xlink:href="#a1XjtC1aaO" opacity="1" fill="#000000" fill-opacity="0"></use><g><use xlink:href="#a1XjtC1aaO" opacity="1" fill-opacity="0" stroke="#0b0b09" stroke-width="0" stroke-opacity="1"></use></g></g><g><use xlink:href="#a2fDTIPhPg" opacity="1" fill="#292724" fill-opacity="1"></use><g><use xlink:href="#a2fDTIPhPg" opacity="1" fill-opacity="0" stroke="#000000" stroke-width="1" stroke-opacity="0"></use></g></g><g><use xlink:href="#c5I4FLc4D" opacity="1" fill="#000000" fill-opacity="0"></use><g><use xlink:href="#c5I4FLc4D" opacity="1" fill-opacity="0" stroke="#110f07" stroke-width="1" stroke-opacity="1"></use></g></g><g><use xlink:href="#b2piOnu79X" opacity="1" fill="#181817" fill-opacity="1"></use><g><use xlink:href="#b2piOnu79X" opacity="1" fill-opacity="0" stroke="#000000" stroke-width="1" stroke-opacity="0"></use></g></g><g><use xlink:href="#ciORbcjnT" opacity="1" fill="#000000" fill-opacity="0"></use><g><use xlink:href="#ciORbcjnT" opacity="1" fill-opacity="0" stroke="#080703" stroke-width="2" stroke-opacity="1"></use></g></g><g><use xlink:href="#c1xAsGRVwR" opacity="1" fill="#848381" fill-opacity="1"></use><g><use xlink:href="#c1xAsGRVwR" opacity="1" fill-opacity="0" stroke="#000000" stroke-width="1" stroke-opacity="0"></use></g></g><g><use xlink:href="#hPM69mCIg" opacity="1" fill="#000000" fill-opacity="0"></use><g><use xlink:href="#hPM69mCIg" opacity="1" fill-opacity="0" stroke="#110f07" stroke-width="1" stroke-opacity="1"></use></g></g><g><use xlink:href="#iXkNFqK2h" opacity="1" fill="#f8f4eb" fill-opacity="1"></use><g><use xlink:href="#iXkNFqK2h" opacity="1" fill-opacity="0" stroke="#000000" stroke-width="1" stroke-opacity="0"></use></g></g><g><use xlink:href="#b5FPGlQUVJ" opacity="1" fill="#000000" fill-opacity="0"></use><g><use xlink:href="#b5FPGlQUVJ" opacity="1" fill-opacity="0" stroke="#110f07" stroke-width="1" stroke-opacity="1"></use></g></g><g><use xlink:href="#a1iclbpEur" opacity="1" fill="#000000" fill-opacity="0"></use><g><use xlink:href="#a1iclbpEur" opacity="1" fill-opacity="0" stroke="#080703" stroke-width="5" stroke-opacity="1"></use></g></g><g><use xlink:href="#dqFvHEJS" opacity="1" fill="#484643" fill-opacity="1"></use><g><use xlink:href="#dqFvHEJS" opacity="1" fill-opacity="0" stroke="#000000" stroke-width="1" stroke-opacity="0"></use></g></g><g><use xlink:href="#bqxatqjtm" opacity="1" fill="#f8f5f1" fill-opacity="1"></use><g><use xlink:href="#bqxatqjtm" opacity="1" fill-opacity="0" stroke="#000000" stroke-width="1" stroke-opacity="0"></use></g></g><g><use xlink:href="#bXHvNYcsg" opacity="1" fill="#000000" fill-opacity="0"></use><g><use xlink:href="#bXHvNYcsg" opacity="1" fill-opacity="0" stroke="#0c0202" stroke-width="1" stroke-opacity="1"></use></g></g><g><use xlink:href="#bTfi55Md9" opacity="1" fill="#7e7b77" fill-opacity="1"></use><g><use xlink:href="#bTfi55Md9" opacity="1" fill-opacity="0" stroke="#000000" stroke-width="1" stroke-opacity="0"></use></g></g><g><use xlink:href="#azjLFdfHy" opacity="1" fill="#000000" fill-opacity="0"></use><g><use xlink:href="#azjLFdfHy" opacity="1" fill-opacity="0" stroke="#080703" stroke-width="1" stroke-opacity="1"></use></g></g><g><use xlink:href="#hlkHcxrco" opacity="1" fill="#7e7b77" fill-opacity="1"></use><g><use xlink:href="#hlkHcxrco" opacity="1" fill-opacity="0" stroke="#000000" stroke-width="1" stroke-opacity="0"></use></g></g><g><use xlink:href="#b1ejLy6oL" opacity="1" fill="#000000" fill-opacity="0"></use><g><use xlink:href="#b1ejLy6oL" opacity="1" fill-opacity="0" stroke="#000000" stroke-width="1" stroke-opacity="1"></use></g></g><g><use xlink:href="#a1vT3U1N5" opacity="1" fill="#444240" fill-opacity="1"></use><g><use xlink:href="#a1vT3U1N5" opacity="1" fill-opacity="0" stroke="#000000" stroke-width="1" stroke-opacity="0"></use></g></g><g><use xlink:href="#b22lhckvQ" opacity="1" fill="#000000" fill-opacity="0"></use><g><use xlink:href="#b22lhckvQ" opacity="1" fill-opacity="0" stroke="#000000" stroke-width="2" stroke-opacity="1"></use></g></g><g><use xlink:href="#cohTl5jP6" opacity="1" fill="#444240" fill-opacity="1"></use><g><use xlink:href="#cohTl5jP6" opacity="1" fill-opacity="0" stroke="#000000" stroke-width="1" stroke-opacity="0"></use></g></g><g><use xlink:href="#aTKzu7gwd" opacity="1" fill="#000000" fill-opacity="0"></use><g><use xlink:href="#aTKzu7gwd" opacity="1" fill-opacity="0" stroke="#080703" stroke-width="2" stroke-opacity="1"></use></g></g><g><use xlink:href="#g4SYrdUnYm" opacity="1" fill="#848381" fill-opacity="1"></use><g><use xlink:href="#g4SYrdUnYm" opacity="1" fill-opacity="0" stroke="#000000" stroke-width="1" stroke-opacity="0"></use></g></g><g><use xlink:href="#eVnM3LTX" opacity="1" fill="#000000" fill-opacity="0"></use><g><use xlink:href="#eVnM3LTX" opacity="1" fill-opacity="0" stroke="#110f07" stroke-width="1" stroke-opacity="1"></use></g></g><g><use xlink:href="#c1hkWwRcQ" opacity="1" fill="#f8f4eb" fill-opacity="1"></use><g><use xlink:href="#c1hkWwRcQ" opacity="1" fill-opacity="0" stroke="#000000" stroke-width="1" stroke-opacity="0"></use></g></g><g><use xlink:href="#aPoySPuYr" opacity="1" fill="#000000" fill-opacity="0"></use><g><use xlink:href="#aPoySPuYr" opacity="1" fill-opacity="0" stroke="#110f07" stroke-width="1" stroke-opacity="1"></use></g></g><g><use xlink:href="#i1FE75ii9L" opacity="1" fill="#000000" fill-opacity="0"></use><g><use xlink:href="#i1FE75ii9L" opacity="1" fill-opacity="0" stroke="#080703" stroke-width="5" stroke-opacity="1"></use></g></g></g></g></g></svg>