<?xml version="1.0" encoding="UTF-8" standalone="no"?>
<!DOCTYPE svg PUBLIC "-//W3C//DTD SVG 1.1//EN" "http://www.w3.org/Graphics/SVG/1.1/DTD/svg11.dtd">
<svg version="1.1" xmlns="http://www.w3.org/2000/svg" xmlns:xlink="http://www.w3.org/1999/xlink" preserveAspectRatio="xMidYMid meet" viewBox="0 0 640 640" width="640" height="640"><defs><path d="M125.56 283.24C120.97 282.44 103.69 277.96 100.21 277C96.72 276.04 95.11 273.71 94.74 266.74C94.38 259.77 97.47 248.29 102 245.34C105.22 243.25 107.74 243.58 109.71 244.21C111.69 244.84 133.28 251.57 135.08 252.33C136.89 253.1 141.3 254.75 140.47 256.57C140.47 256.57 133.35 254.56 130.45 267.15C128.67 274.89 130.65 280.24 132.49 281.06C131.1 281.5 130.15 284.04 125.56 283.24Z" id="axsWeeIdU"></path><path d="M464.98 343.8C460.56 342.53 452.2 341.16 448.9 340.65C448.91 341.03 448.9 341.42 448.87 341.83C448.85 342.02 448.72 343.56 448.7 343.75C448.56 345.42 448.07 346.85 447.42 347.68C447.92 348.6 448.17 350.1 448.03 351.77C448.01 351.96 447.88 353.5 447.87 353.69C447.64 356.37 446.49 358.46 445.3 358.35C445 358.32 442.64 358.11 442.34 358.08C442.6 358.96 442.71 360.08 442.6 361.29C442.6 361.39 442.53 362.17 442.52 362.27C445.44 362.84 451.41 364.1 457.51 366.06C475.78 371.9 462.21 392.96 448.44 390.79C441.23 389.65 388.16 383.14 364.06 376.25C335.93 368.21 320.09 346.63 305.64 333.57C291.2 320.5 252.99 294.16 226.48 285.14C199.97 276.11 117.78 249.67 105.41 246.01C97.27 243.6 93.88 246.46 91.47 248.93C89.5 250.93 87.83 256.51 87.78 259.74C87.7 266.14 88.67 270.22 94.84 271.23C98.13 271.78 197.15 295.83 224.89 305.67C252.63 315.51 284.99 333.19 313.55 363.1C342.12 393 360.73 392.58 379.44 396.35C398.14 400.11 438.48 407.91 448.17 409.03C472.63 411.86 480.87 399.32 485.35 385.24C489.03 373.68 490.46 361.64 485.47 355.48C480.48 349.31 472.33 345.92 464.98 343.8Z" id="bBBNgko9N"></path><path d="M93.7 264.9C93.7 264.9 93.25 269.74 93.82 270.72C94.39 271.7 89.12 269.55 89.54 263.57C90.37 263.84 93.28 264.77 93.7 264.9Z" id="d7SPGkRtQn"></path><path d="M93.37 249.25C90.57 252.27 89.6 256.79 89.6 256.79C89.6 256.79 93.05 248.12 97.07 248.62C97.81 248.71 98.61 246.28 98.61 246.28C97.56 246.87 96.17 246.22 93.37 249.25Z" id="d1IEUhhW5L"></path><path d="M377.42 394.24C360.06 390.7 343.25 385.32 332.51 376.18C321.77 367.03 300.86 348.12 300.86 348.12C300.86 348.12 298.09 341.83 306.15 348.61C306.15 348.61 327.99 370.22 334.83 375.21C341.67 380.21 350.9 386.97 380.33 393.27C409.76 399.57 447.11 406 447.11 406C447.11 406 451.93 408.1 458.34 407.09C460.77 406.71 457.42 408.65 449.23 408.06C434.87 405.3 394.78 397.79 377.42 394.24Z" id="eitfOyygB"></path><path d="M485.89 375C483.54 384.05 482.59 394.71 474.23 400.71C465.86 406.7 459.19 407.29 456.76 407.46C454.32 407.62 467.63 404.46 471.59 401.09C471.59 401.09 479.02 396.65 481.54 385.19C484.06 373.73 491.02 356.77 470.62 350.12C458.33 346.12 451.53 345.4 451.53 345.4C451.53 345.4 453.5 343.49 451.79 342.98C450.08 342.47 467.13 345.59 472.28 348.11C477.42 350.63 483.18 352.68 486.02 361.23C485.99 363.98 488.25 365.96 485.89 375Z" id="c6X3qUCsMZ"></path><path d="M465.11 365.82C469.31 368.46 471.84 377.95 463.85 386.68C461.74 388.99 470.55 382.14 470.04 373.27C469.59 365.24 468.36 365.22 450.01 359.36C446.17 358.13 449.59 359.59 450.16 361.55C453.15 362.4 462.14 363.94 465.11 365.82Z" id="h10DAnXt8S"></path><path d="M97.73 273.76C98.3 274.46 123.17 280.57 123.17 280.57C123.17 280.57 129.84 282.62 127.1 277.54C125.81 275.15 125.46 271.72 126.63 268.56C127.62 265.91 120.6 269.41 119.11 270.72C117.63 272.03 103.02 270.51 97.03 266.67C97.17 268.09 97.17 273.06 97.73 273.76Z" id="eayp8uB8P"></path><path d="M132.09 278.03C136.1 279.22 171.87 288.43 171.87 288.43C171.87 288.43 170.53 283.77 172.02 282.61C169.16 281.84 154.87 277.99 129.16 271.06C128.44 274.92 129.41 277.24 132.09 278.03Z" id="dMQ532wjb"></path><path d="M425.08 389.74C404.74 386.25 374.29 381.78 363.61 378.51C352.93 375.24 337.25 366.49 314.53 345.51C307.55 339.06 298.46 327.78 283.61 318.57C281.67 317.37 280.75 318.63 286.13 322.13C291.51 325.63 301.12 333.52 313.71 347.17C326.31 360.81 346.55 374.72 363.42 379.72C380.3 384.71 414.79 389.97 425.01 391.39C435.22 392.8 445.52 392.9 452.62 392.41C447.11 391.88 445.42 393.23 425.08 389.74Z" id="a11n2groYB"></path><path d="M137.92 258.45C137.92 258.45 135.9 258.38 134.77 259.94C133.63 261.5 174.83 272.75 174.83 272.75C174.93 272.63 175.41 272.04 176.28 270.97C153.26 263.45 140.48 259.28 137.92 258.45Z" id="abphsnAcg"></path><path d="M134.53 253.59C131.97 252.88 107.28 244.88 106.44 245.23C105.6 245.57 102.84 245.42 101.4 247.42C99.95 249.43 101.5 247.31 103.32 248.04C105.14 248.77 134.27 256.45 134.27 256.45C134.27 256.45 134.67 255.23 136.58 255.3C136.17 254.96 137.09 254.3 134.53 253.59Z" id="c1gka7NkuA"></path></defs><g><g><g><g><g><filter id="shadow8453339" x="85.71" y="234.73" width="64.86" height="58.66" filterUnits="userSpaceOnUse" primitiveUnits="userSpaceOnUse"><feFlood></feFlood><feComposite in2="SourceAlpha" operator="in"></feComposite><feGaussianBlur stdDeviation="1"></feGaussianBlur><feOffset dx="1" dy="1" result="afterOffset"></feOffset><feFlood flood-color="#000000" flood-opacity="0.5"></feFlood><feComposite in2="afterOffset" operator="in"></feComposite><feMorphology operator="dilate" radius="1"></feMorphology><feComposite in2="SourceAlpha" operator="out"></feComposite></filter><path d="M125.56 283.24C120.97 282.44 103.69 277.96 100.21 277C96.72 276.04 95.11 273.71 94.74 266.74C94.38 259.77 97.47 248.29 102 245.34C105.22 243.25 107.74 243.58 109.71 244.21C111.69 244.84 133.28 251.57 135.08 252.33C136.89 253.1 141.3 254.75 140.47 256.57C140.47 256.57 133.35 254.56 130.45 267.15C128.67 274.89 130.65 280.24 132.49 281.06C131.1 281.5 130.15 284.04 125.56 283.24Z" id="b2Dz22gzFA" fill="white" fill-opacity="1" filter="url(#shadow8453339)"></path></g><use xlink:href="#axsWeeIdU" opacity="1" fill="#c8cac9" fill-opacity="1"></use><g><use xlink:href="#axsWeeIdU" opacity="1" fill-opacity="0" stroke="#000000" stroke-width="1" stroke-opacity="0"></use></g><g><filter id="shadow7039352" x="85.71" y="234.73" width="64.86" height="58.66" filterUnits="userSpaceOnUse" primitiveUnits="userSpaceOnUse"><feFlood></feFlood><feComposite in2="SourceAlpha" operator="out"></feComposite><feGaussianBlur stdDeviation="1"></feGaussianBlur><feOffset dx="1" dy="1" result="afterOffset"></feOffset><feFlood flood-color="#000000" flood-opacity="0.5"></feFlood><feComposite in2="afterOffset" operator="in"></feComposite><feMorphology operator="dilate" radius="1"></feMorphology><feComposite in2="SourceAlpha" operator="in"></feComposite></filter><path d="M125.56 283.24C120.97 282.44 103.69 277.96 100.21 277C96.72 276.04 95.11 273.71 94.74 266.74C94.38 259.77 97.47 248.29 102 245.34C105.22 243.25 107.74 243.58 109.71 244.21C111.69 244.84 133.28 251.57 135.08 252.33C136.89 253.1 141.3 254.75 140.47 256.57C140.47 256.57 133.35 254.56 130.45 267.15C128.67 274.89 130.65 280.24 132.49 281.06C131.1 281.5 130.15 284.04 125.56 283.24Z" id="kdsHxcIBQ" fill="white" fill-opacity="1" filter="url(#shadow7039352)"></path></g></g><g><g><filter id="shadow12234869" x="78.78" y="236.1" width="419.91" height="183.33" filterUnits="userSpaceOnUse" primitiveUnits="userSpaceOnUse"><feFlood></feFlood><feComposite in2="SourceAlpha" operator="in"></feComposite><feGaussianBlur stdDeviation="1"></feGaussianBlur><feOffset dx="1" dy="1" result="afterOffset"></feOffset><feFlood flood-color="#000000" flood-opacity="0.5"></feFlood><feComposite in2="afterOffset" operator="in"></feComposite><feMorphology operator="dilate" radius="1"></feMorphology><feComposite in2="SourceAlpha" operator="out"></feComposite></filter><path d="M464.98 343.8C460.56 342.53 452.2 341.16 448.9 340.65C448.91 341.03 448.9 341.42 448.87 341.83C448.85 342.02 448.72 343.56 448.7 343.75C448.56 345.42 448.07 346.85 447.42 347.68C447.92 348.6 448.17 350.1 448.03 351.77C448.01 351.96 447.88 353.5 447.87 353.69C447.64 356.37 446.49 358.46 445.3 358.35C445 358.32 442.64 358.11 442.34 358.08C442.6 358.96 442.71 360.08 442.6 361.29C442.6 361.39 442.53 362.17 442.52 362.27C445.44 362.84 451.41 364.1 457.51 366.06C475.78 371.9 462.21 392.96 448.44 390.79C441.23 389.65 388.16 383.14 364.06 376.25C335.93 368.21 320.09 346.63 305.64 333.57C291.2 320.5 252.99 294.16 226.48 285.14C199.97 276.11 117.78 249.67 105.41 246.01C97.27 243.6 93.88 246.46 91.47 248.93C89.5 250.93 87.83 256.51 87.78 259.74C87.7 266.14 88.67 270.22 94.84 271.23C98.13 271.78 197.15 295.83 224.89 305.67C252.63 315.51 284.99 333.19 313.55 363.1C342.12 393 360.73 392.58 379.44 396.35C398.14 400.11 438.48 407.91 448.17 409.03C472.63 411.86 480.87 399.32 485.35 385.24C489.03 373.68 490.46 361.64 485.47 355.48C480.48 349.31 472.33 345.92 464.98 343.8Z" id="i4qBNSzJIV" fill="white" fill-opacity="1" filter="url(#shadow12234869)"></path></g><use xlink:href="#bBBNgko9N" opacity="1" fill="#c8cac9" fill-opacity="1"></use><g><use xlink:href="#bBBNgko9N" opacity="1" fill-opacity="0" stroke="#000000" stroke-width="1" stroke-opacity="0"></use></g><g><filter id="shadow11220534" x="78.78" y="236.1" width="419.91" height="183.33" filterUnits="userSpaceOnUse" primitiveUnits="userSpaceOnUse"><feFlood></feFlood><feComposite in2="SourceAlpha" operator="out"></feComposite><feGaussianBlur stdDeviation="1"></feGaussianBlur><feOffset dx="1" dy="1" result="afterOffset"></feOffset><feFlood flood-color="#000000" flood-opacity="0.5"></feFlood><feComposite in2="afterOffset" operator="in"></feComposite><feMorphology operator="dilate" radius="1"></feMorphology><feComposite in2="SourceAlpha" operator="in"></feComposite></filter><path d="M464.98 343.8C460.56 342.53 452.2 341.16 448.9 340.65C448.91 341.03 448.9 341.42 448.87 341.83C448.85 342.02 448.72 343.56 448.7 343.75C448.56 345.42 448.07 346.85 447.42 347.68C447.92 348.6 448.17 350.1 448.03 351.77C448.01 351.96 447.88 353.5 447.87 353.69C447.64 356.37 446.49 358.46 445.3 358.35C445 358.32 442.64 358.11 442.34 358.08C442.6 358.96 442.71 360.08 442.6 361.29C442.6 361.39 442.53 362.17 442.52 362.27C445.44 362.84 451.41 364.1 457.51 366.06C475.78 371.9 462.21 392.96 448.44 390.79C441.23 389.65 388.16 383.14 364.06 376.25C335.93 368.21 320.09 346.63 305.64 333.57C291.2 320.5 252.99 294.16 226.48 285.14C199.97 276.11 117.78 249.67 105.41 246.01C97.27 243.6 93.88 246.46 91.47 248.93C89.5 250.93 87.83 256.51 87.78 259.74C87.7 266.14 88.67 270.22 94.84 271.23C98.13 271.78 197.15 295.83 224.89 305.67C252.63 315.51 284.99 333.19 313.55 363.1C342.12 393 360.73 392.58 379.44 396.35C398.14 400.11 438.48 407.91 448.17 409.03C472.63 411.86 480.87 399.32 485.35 385.24C489.03 373.68 490.46 361.64 485.47 355.48C480.48 349.31 472.33 345.92 464.98 343.8Z" id="fM8zQQDha" fill="white" fill-opacity="1" filter="url(#shadow11220534)"></path></g></g><g><g><filter id="shadow11898479" x="80.52" y="254.57" width="23.34" height="26.38" filterUnits="userSpaceOnUse" primitiveUnits="userSpaceOnUse"><feFlood></feFlood><feComposite in2="SourceAlpha" operator="in"></feComposite><feGaussianBlur stdDeviation="1"></feGaussianBlur><feOffset dx="1" dy="1" result="afterOffset"></feOffset><feFlood flood-color="#000000" flood-opacity="0.5"></feFlood><feComposite in2="afterOffset" operator="in"></feComposite><feMorphology operator="dilate" radius="1"></feMorphology><feComposite in2="SourceAlpha" operator="out"></feComposite></filter><path d="M93.7 264.9C93.7 264.9 93.25 269.74 93.82 270.72C94.39 271.7 89.12 269.55 89.54 263.57C90.37 263.84 93.28 264.77 93.7 264.9Z" id="hzw0P3IXQ" fill="white" fill-opacity="1" filter="url(#shadow11898479)"></path></g><use xlink:href="#d7SPGkRtQn" opacity="1" fill="#fafefb" fill-opacity="1"></use><g><use xlink:href="#d7SPGkRtQn" opacity="1" fill-opacity="0" stroke="#000000" stroke-width="1" stroke-opacity="0"></use></g><g><filter id="shadow8956544" x="80.52" y="254.57" width="23.34" height="26.38" filterUnits="userSpaceOnUse" primitiveUnits="userSpaceOnUse"><feFlood></feFlood><feComposite in2="SourceAlpha" operator="out"></feComposite><feGaussianBlur stdDeviation="1"></feGaussianBlur><feOffset dx="1" dy="1" result="afterOffset"></feOffset><feFlood flood-color="#000000" flood-opacity="0.5"></feFlood><feComposite in2="afterOffset" operator="in"></feComposite><feMorphology operator="dilate" radius="1"></feMorphology><feComposite in2="SourceAlpha" operator="in"></feComposite></filter><path d="M93.7 264.9C93.7 264.9 93.25 269.74 93.82 270.72C94.39 271.7 89.12 269.55 89.54 263.57C90.37 263.84 93.28 264.77 93.7 264.9Z" id="ebm2n5uut" fill="white" fill-opacity="1" filter="url(#shadow8956544)"></path></g></g><g><g><filter id="shadow9064750" x="80.6" y="237.28" width="28.01" height="29.51" filterUnits="userSpaceOnUse" primitiveUnits="userSpaceOnUse"><feFlood></feFlood><feComposite in2="SourceAlpha" operator="in"></feComposite><feGaussianBlur stdDeviation="1"></feGaussianBlur><feOffset dx="1" dy="1" result="afterOffset"></feOffset><feFlood flood-color="#000000" flood-opacity="0.5"></feFlood><feComposite in2="afterOffset" operator="in"></feComposite><feMorphology operator="dilate" radius="1"></feMorphology><feComposite in2="SourceAlpha" operator="out"></feComposite></filter><path d="M93.37 249.25C90.57 252.27 89.6 256.79 89.6 256.79C89.6 256.79 93.05 248.12 97.07 248.62C97.81 248.71 98.61 246.28 98.61 246.28C97.56 246.87 96.17 246.22 93.37 249.25Z" id="bocal0BKG" fill="white" fill-opacity="1" filter="url(#shadow9064750)"></path></g><use xlink:href="#d1IEUhhW5L" opacity="1" fill="#c8cac9" fill-opacity="1"></use><g><use xlink:href="#d1IEUhhW5L" opacity="1" fill-opacity="0" stroke="#000000" stroke-width="1" stroke-opacity="0"></use></g><g><filter id="shadow9158050" x="80.6" y="237.28" width="28.01" height="29.51" filterUnits="userSpaceOnUse" primitiveUnits="userSpaceOnUse"><feFlood></feFlood><feComposite in2="SourceAlpha" operator="out"></feComposite><feGaussianBlur stdDeviation="1"></feGaussianBlur><feOffset dx="1" dy="1" result="afterOffset"></feOffset><feFlood flood-color="#000000" flood-opacity="0.5"></feFlood><feComposite in2="afterOffset" operator="in"></feComposite><feMorphology operator="dilate" radius="1"></feMorphology><feComposite in2="SourceAlpha" operator="in"></feComposite></filter><path d="M93.37 249.25C90.57 252.27 89.6 256.79 89.6 256.79C89.6 256.79 93.05 248.12 97.07 248.62C97.81 248.71 98.61 246.28 98.61 246.28C97.56 246.87 96.17 246.22 93.37 249.25Z" id="aTKC3hxEh" fill="white" fill-opacity="1" filter="url(#shadow9158050)"></path></g></g><g><g><filter id="shadow11844719" x="291.4" y="336.46" width="177.71" height="81.71" filterUnits="userSpaceOnUse" primitiveUnits="userSpaceOnUse"><feFlood></feFlood><feComposite in2="SourceAlpha" operator="in"></feComposite><feGaussianBlur stdDeviation="1"></feGaussianBlur><feOffset dx="1" dy="1" result="afterOffset"></feOffset><feFlood flood-color="#000000" flood-opacity="0.5"></feFlood><feComposite in2="afterOffset" operator="in"></feComposite><feMorphology operator="dilate" radius="1"></feMorphology><feComposite in2="SourceAlpha" operator="out"></feComposite></filter><path d="M377.42 394.24C360.06 390.7 343.25 385.32 332.51 376.18C321.77 367.03 300.86 348.12 300.86 348.12C300.86 348.12 298.09 341.83 306.15 348.61C306.15 348.61 327.99 370.22 334.83 375.21C341.67 380.21 350.9 386.97 380.33 393.27C409.76 399.57 447.11 406 447.11 406C447.11 406 451.93 408.1 458.34 407.09C460.77 406.71 457.42 408.65 449.23 408.06C434.87 405.3 394.78 397.79 377.42 394.24Z" id="f3GIJ6OcG" fill="white" fill-opacity="1" filter="url(#shadow11844719)"></path></g><use xlink:href="#eitfOyygB" opacity="1" fill="#fafefb" fill-opacity="1"></use><g><use xlink:href="#eitfOyygB" opacity="1" fill-opacity="0" stroke="#000000" stroke-width="1" stroke-opacity="0"></use></g><g><filter id="shadow2410855" x="291.4" y="336.46" width="177.71" height="81.71" filterUnits="userSpaceOnUse" primitiveUnits="userSpaceOnUse"><feFlood></feFlood><feComposite in2="SourceAlpha" operator="out"></feComposite><feGaussianBlur stdDeviation="1"></feGaussianBlur><feOffset dx="1" dy="1" result="afterOffset"></feOffset><feFlood flood-color="#000000" flood-opacity="0.5"></feFlood><feComposite in2="afterOffset" operator="in"></feComposite><feMorphology operator="dilate" radius="1"></feMorphology><feComposite in2="SourceAlpha" operator="in"></feComposite></filter><path d="M377.42 394.24C360.06 390.7 343.25 385.32 332.51 376.18C321.77 367.03 300.86 348.12 300.86 348.12C300.86 348.12 298.09 341.83 306.15 348.61C306.15 348.61 327.99 370.22 334.83 375.21C341.67 380.21 350.9 386.97 380.33 393.27C409.76 399.57 447.11 406 447.11 406C447.11 406 451.93 408.1 458.34 407.09C460.77 406.71 457.42 408.65 449.23 408.06C434.87 405.3 394.78 397.79 377.42 394.24Z" id="a1Vk0XlpkY" fill="white" fill-opacity="1" filter="url(#shadow2410855)"></path></g></g><g><g><filter id="shadow6132857" x="442.53" y="333.92" width="54.44" height="83.54" filterUnits="userSpaceOnUse" primitiveUnits="userSpaceOnUse"><feFlood></feFlood><feComposite in2="SourceAlpha" operator="in"></feComposite><feGaussianBlur stdDeviation="1"></feGaussianBlur><feOffset dx="1" dy="1" result="afterOffset"></feOffset><feFlood flood-color="#000000" flood-opacity="0.5"></feFlood><feComposite in2="afterOffset" operator="in"></feComposite><feMorphology operator="dilate" radius="1"></feMorphology><feComposite in2="SourceAlpha" operator="out"></feComposite></filter><path d="M485.89 375C483.54 384.05 482.59 394.71 474.23 400.71C465.86 406.7 459.19 407.29 456.76 407.46C454.32 407.62 467.63 404.46 471.59 401.09C471.59 401.09 479.02 396.65 481.54 385.19C484.06 373.73 491.02 356.77 470.62 350.12C458.33 346.12 451.53 345.4 451.53 345.4C451.53 345.4 453.5 343.49 451.79 342.98C450.08 342.47 467.13 345.59 472.28 348.11C477.42 350.63 483.18 352.68 486.02 361.23C485.99 363.98 488.25 365.96 485.89 375Z" id="b1J54L18ik" fill="white" fill-opacity="1" filter="url(#shadow6132857)"></path></g><use xlink:href="#c6X3qUCsMZ" opacity="1" fill="#fafefb" fill-opacity="1"></use><g><use xlink:href="#c6X3qUCsMZ" opacity="1" fill-opacity="0" stroke="#000000" stroke-width="1" stroke-opacity="0"></use></g><g><filter id="shadow11602642" x="442.53" y="333.92" width="54.44" height="83.54" filterUnits="userSpaceOnUse" primitiveUnits="userSpaceOnUse"><feFlood></feFlood><feComposite in2="SourceAlpha" operator="out"></feComposite><feGaussianBlur stdDeviation="1"></feGaussianBlur><feOffset dx="1" dy="1" result="afterOffset"></feOffset><feFlood flood-color="#000000" flood-opacity="0.5"></feFlood><feComposite in2="afterOffset" operator="in"></feComposite><feMorphology operator="dilate" radius="1"></feMorphology><feComposite in2="SourceAlpha" operator="in"></feComposite></filter><path d="M485.89 375C483.54 384.05 482.59 394.71 474.23 400.71C465.86 406.7 459.19 407.29 456.76 407.46C454.32 407.62 467.63 404.46 471.59 401.09C471.59 401.09 479.02 396.65 481.54 385.19C484.06 373.73 491.02 356.77 470.62 350.12C458.33 346.12 451.53 345.4 451.53 345.4C451.53 345.4 453.5 343.49 451.79 342.98C450.08 342.47 467.13 345.59 472.28 348.11C477.42 350.63 483.18 352.68 486.02 361.23C485.99 363.98 488.25 365.96 485.89 375Z" id="brBK6CaFx" fill="white" fill-opacity="1" filter="url(#shadow11602642)"></path></g></g><g><g><filter id="shadow9032175" x="439.21" y="349.9" width="40.85" height="47.23" filterUnits="userSpaceOnUse" primitiveUnits="userSpaceOnUse"><feFlood></feFlood><feComposite in2="SourceAlpha" operator="in"></feComposite><feGaussianBlur stdDeviation="1"></feGaussianBlur><feOffset dx="1" dy="1" result="afterOffset"></feOffset><feFlood flood-color="#000000" flood-opacity="0.5"></feFlood><feComposite in2="afterOffset" operator="in"></feComposite><feMorphology operator="dilate" radius="1"></feMorphology><feComposite in2="SourceAlpha" operator="out"></feComposite></filter><path d="M465.11 365.82C469.31 368.46 471.84 377.95 463.85 386.68C461.74 388.99 470.55 382.14 470.04 373.27C469.59 365.24 468.36 365.22 450.01 359.36C446.17 358.13 449.59 359.59 450.16 361.55C453.15 362.4 462.14 363.94 465.11 365.82Z" id="dfmW4yIrc" fill="white" fill-opacity="1" filter="url(#shadow9032175)"></path></g><use xlink:href="#h10DAnXt8S" opacity="1" fill="#fafefb" fill-opacity="1"></use><g><use xlink:href="#h10DAnXt8S" opacity="1" fill-opacity="0" stroke="#000000" stroke-width="1" stroke-opacity="0"></use></g><g><filter id="shadow15577840" x="439.21" y="349.9" width="40.85" height="47.23" filterUnits="userSpaceOnUse" primitiveUnits="userSpaceOnUse"><feFlood></feFlood><feComposite in2="SourceAlpha" operator="out"></feComposite><feGaussianBlur stdDeviation="1"></feGaussianBlur><feOffset dx="1" dy="1" result="afterOffset"></feOffset><feFlood flood-color="#000000" flood-opacity="0.5"></feFlood><feComposite in2="afterOffset" operator="in"></feComposite><feMorphology operator="dilate" radius="1"></feMorphology><feComposite in2="SourceAlpha" operator="in"></feComposite></filter><path d="M465.11 365.82C469.31 368.46 471.84 377.95 463.85 386.68C461.74 388.99 470.55 382.14 470.04 373.27C469.59 365.24 468.36 365.22 450.01 359.36C446.17 358.13 449.59 359.59 450.16 361.55C453.15 362.4 462.14 363.94 465.11 365.82Z" id="c1b2FZeKTE" fill="white" fill-opacity="1" filter="url(#shadow15577840)"></path></g></g><g><g><filter id="shadow1157848" x="88.03" y="257.67" width="49.73" height="33.31" filterUnits="userSpaceOnUse" primitiveUnits="userSpaceOnUse"><feFlood></feFlood><feComposite in2="SourceAlpha" operator="in"></feComposite><feGaussianBlur stdDeviation="1"></feGaussianBlur><feOffset dx="1" dy="1" result="afterOffset"></feOffset><feFlood flood-color="#000000" flood-opacity="0.5"></feFlood><feComposite in2="afterOffset" operator="in"></feComposite><feMorphology operator="dilate" radius="1"></feMorphology><feComposite in2="SourceAlpha" operator="out"></feComposite></filter><path d="M97.73 273.76C98.3 274.46 123.17 280.57 123.17 280.57C123.17 280.57 129.84 282.62 127.1 277.54C125.81 275.15 125.46 271.72 126.63 268.56C127.62 265.91 120.6 269.41 119.11 270.72C117.63 272.03 103.02 270.51 97.03 266.67C97.17 268.09 97.17 273.06 97.73 273.76Z" id="b4cQwUbKul" fill="white" fill-opacity="1" filter="url(#shadow1157848)"></path></g><use xlink:href="#eayp8uB8P" opacity="1" fill="#fafefb" fill-opacity="1"></use><g><use xlink:href="#eayp8uB8P" opacity="1" fill-opacity="0" stroke="#000000" stroke-width="1" stroke-opacity="0"></use></g><g><filter id="shadow13409047" x="88.03" y="257.67" width="49.73" height="33.31" filterUnits="userSpaceOnUse" primitiveUnits="userSpaceOnUse"><feFlood></feFlood><feComposite in2="SourceAlpha" operator="out"></feComposite><feGaussianBlur stdDeviation="1"></feGaussianBlur><feOffset dx="1" dy="1" result="afterOffset"></feOffset><feFlood flood-color="#000000" flood-opacity="0.5"></feFlood><feComposite in2="afterOffset" operator="in"></feComposite><feMorphology operator="dilate" radius="1"></feMorphology><feComposite in2="SourceAlpha" operator="in"></feComposite></filter><path d="M97.73 273.76C98.3 274.46 123.17 280.57 123.17 280.57C123.17 280.57 129.84 282.62 127.1 277.54C125.81 275.15 125.46 271.72 126.63 268.56C127.62 265.91 120.6 269.41 119.11 270.72C117.63 272.03 103.02 270.51 97.03 266.67C97.17 268.09 97.17 273.06 97.73 273.76Z" id="cAYiOweFr" fill="white" fill-opacity="1" filter="url(#shadow13409047)"></path></g></g><g><g><filter id="shadow8063577" x="119.93" y="262.06" width="62.09" height="36.37" filterUnits="userSpaceOnUse" primitiveUnits="userSpaceOnUse"><feFlood></feFlood><feComposite in2="SourceAlpha" operator="in"></feComposite><feGaussianBlur stdDeviation="1"></feGaussianBlur><feOffset dx="1" dy="1" result="afterOffset"></feOffset><feFlood flood-color="#000000" flood-opacity="0.5"></feFlood><feComposite in2="afterOffset" operator="in"></feComposite><feMorphology operator="dilate" radius="1"></feMorphology><feComposite in2="SourceAlpha" operator="out"></feComposite></filter><path d="M132.09 278.03C136.1 279.22 171.87 288.43 171.87 288.43C171.87 288.43 170.53 283.77 172.02 282.61C169.16 281.84 154.87 277.99 129.16 271.06C128.44 274.92 129.41 277.24 132.09 278.03Z" id="a9LvuPQvDy" fill="white" fill-opacity="1" filter="url(#shadow8063577)"></path></g><use xlink:href="#dMQ532wjb" opacity="1" fill="#fafefb" fill-opacity="1"></use><g><use xlink:href="#dMQ532wjb" opacity="1" fill-opacity="0" stroke="#000000" stroke-width="1" stroke-opacity="0"></use></g><g><filter id="shadow8338877" x="119.93" y="262.06" width="62.09" height="36.37" filterUnits="userSpaceOnUse" primitiveUnits="userSpaceOnUse"><feFlood></feFlood><feComposite in2="SourceAlpha" operator="out"></feComposite><feGaussianBlur stdDeviation="1"></feGaussianBlur><feOffset dx="1" dy="1" result="afterOffset"></feOffset><feFlood flood-color="#000000" flood-opacity="0.5"></feFlood><feComposite in2="afterOffset" operator="in"></feComposite><feMorphology operator="dilate" radius="1"></feMorphology><feComposite in2="SourceAlpha" operator="in"></feComposite></filter><path d="M132.09 278.03C136.1 279.22 171.87 288.43 171.87 288.43C171.87 288.43 170.53 283.77 172.02 282.61C169.16 281.84 154.87 277.99 129.16 271.06C128.44 274.92 129.41 277.24 132.09 278.03Z" id="a6188vOTxU" fill="white" fill-opacity="1" filter="url(#shadow8338877)"></path></g></g><g><g><filter id="shadow14213927" x="273.09" y="309.13" width="189.53" height="93.55" filterUnits="userSpaceOnUse" primitiveUnits="userSpaceOnUse"><feFlood></feFlood><feComposite in2="SourceAlpha" operator="in"></feComposite><feGaussianBlur stdDeviation="1"></feGaussianBlur><feOffset dx="1" dy="1" result="afterOffset"></feOffset><feFlood flood-color="#000000" flood-opacity="0.5"></feFlood><feComposite in2="afterOffset" operator="in"></feComposite><feMorphology operator="dilate" radius="1"></feMorphology><feComposite in2="SourceAlpha" operator="out"></feComposite></filter><path d="M425.08 389.74C404.74 386.25 374.29 381.78 363.61 378.51C352.93 375.24 337.25 366.49 314.53 345.51C307.55 339.06 298.46 327.78 283.61 318.57C281.67 317.37 280.75 318.63 286.13 322.13C291.51 325.63 301.12 333.52 313.71 347.17C326.31 360.81 346.55 374.72 363.42 379.72C380.3 384.71 414.79 389.97 425.01 391.39C435.22 392.8 445.52 392.9 452.62 392.41C447.11 391.88 445.42 393.23 425.08 389.74Z" id="a1sMdMfvxA" fill="white" fill-opacity="1" filter="url(#shadow14213927)"></path></g><use xlink:href="#a11n2groYB" opacity="1" fill="#fafefb" fill-opacity="1"></use><g><use xlink:href="#a11n2groYB" opacity="1" fill-opacity="0" stroke="#000000" stroke-width="1" stroke-opacity="0"></use></g><g><filter id="shadow7100095" x="273.09" y="309.13" width="189.53" height="93.55" filterUnits="userSpaceOnUse" primitiveUnits="userSpaceOnUse"><feFlood></feFlood><feComposite in2="SourceAlpha" operator="out"></feComposite><feGaussianBlur stdDeviation="1"></feGaussianBlur><feOffset dx="1" dy="1" result="afterOffset"></feOffset><feFlood flood-color="#000000" flood-opacity="0.5"></feFlood><feComposite in2="afterOffset" operator="in"></feComposite><feMorphology operator="dilate" radius="1"></feMorphology><feComposite in2="SourceAlpha" operator="in"></feComposite></filter><path d="M425.08 389.74C404.74 386.25 374.29 381.78 363.61 378.51C352.93 375.24 337.25 366.49 314.53 345.51C307.55 339.06 298.46 327.78 283.61 318.57C281.67 317.37 280.75 318.63 286.13 322.13C291.51 325.63 301.12 333.52 313.71 347.17C326.31 360.81 346.55 374.72 363.42 379.72C380.3 384.71 414.79 389.97 425.01 391.39C435.22 392.8 445.52 392.9 452.62 392.41C447.11 391.88 445.42 393.23 425.08 389.74Z" id="akQ3SN0UT" fill="white" fill-opacity="1" filter="url(#shadow7100095)"></path></g></g><g><g><filter id="shadow15809417" x="125.74" y="249.45" width="60.53" height="33.31" filterUnits="userSpaceOnUse" primitiveUnits="userSpaceOnUse"><feFlood></feFlood><feComposite in2="SourceAlpha" operator="in"></feComposite><feGaussianBlur stdDeviation="1"></feGaussianBlur><feOffset dx="1" dy="1" result="afterOffset"></feOffset><feFlood flood-color="#000000" flood-opacity="0.5"></feFlood><feComposite in2="afterOffset" operator="in"></feComposite><feMorphology operator="dilate" radius="1"></feMorphology><feComposite in2="SourceAlpha" operator="out"></feComposite></filter><path d="M137.92 258.45C137.92 258.45 135.9 258.38 134.77 259.94C133.63 261.5 174.83 272.75 174.83 272.75C174.93 272.63 175.41 272.04 176.28 270.97C153.26 263.45 140.48 259.28 137.92 258.45Z" id="aZ4k33mLW" fill="white" fill-opacity="1" filter="url(#shadow15809417)"></path></g><use xlink:href="#abphsnAcg" opacity="1" fill="#fafefb" fill-opacity="1"></use><g><use xlink:href="#abphsnAcg" opacity="1" fill-opacity="0" stroke="#000000" stroke-width="1" stroke-opacity="0"></use></g><g><filter id="shadow4148120" x="125.74" y="249.45" width="60.53" height="33.31" filterUnits="userSpaceOnUse" primitiveUnits="userSpaceOnUse"><feFlood></feFlood><feComposite in2="SourceAlpha" operator="out"></feComposite><feGaussianBlur stdDeviation="1"></feGaussianBlur><feOffset dx="1" dy="1" result="afterOffset"></feOffset><feFlood flood-color="#000000" flood-opacity="0.5"></feFlood><feComposite in2="afterOffset" operator="in"></feComposite><feMorphology operator="dilate" radius="1"></feMorphology><feComposite in2="SourceAlpha" operator="in"></feComposite></filter><path d="M137.92 258.45C137.92 258.45 135.9 258.38 134.77 259.94C133.63 261.5 174.83 272.75 174.83 272.75C174.93 272.63 175.41 272.04 176.28 270.97C153.26 263.45 140.48 259.28 137.92 258.45Z" id="f3HqI79Y4T" fill="white" fill-opacity="1" filter="url(#shadow4148120)"></path></g></g><g><g><filter id="shadow9281244" x="91.83" y="236.22" width="54.75" height="30.23" filterUnits="userSpaceOnUse" primitiveUnits="userSpaceOnUse"><feFlood></feFlood><feComposite in2="SourceAlpha" operator="in"></feComposite><feGaussianBlur stdDeviation="1"></feGaussianBlur><feOffset dx="1" dy="1" result="afterOffset"></feOffset><feFlood flood-color="#000000" flood-opacity="0.5"></feFlood><feComposite in2="afterOffset" operator="in"></feComposite><feMorphology operator="dilate" radius="1"></feMorphology><feComposite in2="SourceAlpha" operator="out"></feComposite></filter><path d="M134.53 253.59C131.97 252.88 107.28 244.88 106.44 245.23C105.6 245.57 102.84 245.42 101.4 247.42C99.95 249.43 101.5 247.31 103.32 248.04C105.14 248.77 134.27 256.45 134.27 256.45C134.27 256.45 134.67 255.23 136.58 255.3C136.17 254.96 137.09 254.3 134.53 253.59Z" id="a4DtLCMnJ" fill="white" fill-opacity="1" filter="url(#shadow9281244)"></path></g><use xlink:href="#c1gka7NkuA" opacity="1" fill="#fafefb" fill-opacity="1"></use><g><use xlink:href="#c1gka7NkuA" opacity="1" fill-opacity="0" stroke="#000000" stroke-width="1" stroke-opacity="0"></use></g><g><filter id="shadow13537851" x="91.83" y="236.22" width="54.75" height="30.23" filterUnits="userSpaceOnUse" primitiveUnits="userSpaceOnUse"><feFlood></feFlood><feComposite in2="SourceAlpha" operator="out"></feComposite><feGaussianBlur stdDeviation="1"></feGaussianBlur><feOffset dx="1" dy="1" result="afterOffset"></feOffset><feFlood flood-color="#000000" flood-opacity="0.5"></feFlood><feComposite in2="afterOffset" operator="in"></feComposite><feMorphology operator="dilate" radius="1"></feMorphology><feComposite in2="SourceAlpha" operator="in"></feComposite></filter><path d="M134.53 253.59C131.97 252.88 107.28 244.88 106.44 245.23C105.6 245.57 102.84 245.42 101.4 247.42C99.95 249.43 101.5 247.31 103.32 248.04C105.14 248.77 134.27 256.45 134.27 256.45C134.27 256.45 134.67 255.23 136.58 255.3C136.17 254.96 137.09 254.3 134.53 253.59Z" id="a1nfULqSfN" fill="white" fill-opacity="1" filter="url(#shadow13537851)"></path></g></g></g></g></g></svg>