<?xml version="1.0" encoding="UTF-8" standalone="no"?>
<!DOCTYPE svg PUBLIC "-//W3C//DTD SVG 1.1//EN" "http://www.w3.org/Graphics/SVG/1.1/DTD/svg11.dtd">
<svg version="1.1" xmlns="http://www.w3.org/2000/svg" xmlns:xlink="http://www.w3.org/1999/xlink" preserveAspectRatio="xMidYMid meet" viewBox="0 0 640 640" width="640" height="640"><defs><path d="M314.72 321.32L294.16 337.01L265.6 328.73L273.55 285.72L302.42 263.68L322.9 276.77" id="c9lJSraWW"></path><path d="M329.51 326.95L310.09 341.77L282.44 333.09L289.13 291.43L316.39 270.62L336.38 283.79" id="act0nRK31"></path><path d="M272.26 287.38L269.76 317.05L217.97 305.14L211.85 292.21L214.91 273.62L225.69 261.33L285.04 277.63L272.26 287.38Z" id="c3pYnO4ZgV"></path><path d="M478.65 272.93L452.27 273.68L438.58 284.89L413.12 297.56L352.95 292.34L315.93 288.96L303.13 296.99L296.22 311.31L294.89 322.55L317.33 323.02L352 326.91L398.4 330.47L440.06 316.71L468.17 296.71L478.65 272.93Z" id="bcgvapuMP"></path><path d="M310.81 327L301.96 324.53L309.76 305.67L326.28 290.69L335.63 286.34" id="d1SIbegmTP"></path><path d="M321.23 326.43L312.39 323.96L319.1 306.34L334.6 292.51L343.59 288.56" id="djZz8LsKF"></path><path d="M329.19 328.66L320.35 326.19L327.06 308.57L342.56 294.73L351.55 290.79" id="d2yDkl5S9"></path><path d="M340.91 328.25L331.52 326.43L336.71 309.09L351.38 294.82L360.29 290.47" id="dhq3jG2Wp"></path><path d="M347.16 330.78L338.32 328.31L345.03 310.69L360.53 296.86L369.52 292.92" id="a1AawGo4GT"></path><path d="M349.27 328.93L341.63 326.8L349.3 309.45L364.44 295.51L372.83 291.4" id="l4l2O24dXy"></path><path d="M355.93 330.56L348.29 328.43L355.96 311.08L371.1 297.14L379.49 293.03" id="i4Xh4PaPJ"></path><path d="M363.19 332.6L355.55 330.46L363.22 313.11L378.36 299.17L386.75 295.06" id="c1LIGFRMMJ"></path><path d="M369.7 328.72L361.89 327.82L367.83 312.17L381.54 298.54L389.48 294.05" id="d27m987UE6"></path><path d="M378.75 327.06L370.94 326.16L375.99 311.61L388.86 298.99L396.51 294.86" id="a10m8Sdhld"></path><path d="M385.78 327.88L377.97 326.97L383.02 312.42L395.9 299.8L403.54 295.67" id="a2HZhCW292"></path><path d="M395.97 326.19L387.71 325.87L391.45 311.7L403.58 298.84L411.14 294.4" id="d1Jv6zG1fO"></path><path d="M401.52 327.44L393.71 326.54L398.76 311.98L411.64 299.37L419.29 295.24" id="a7sR07J6rK"></path><path d="M537.48 418.97C539.01 418.36 540.77 408.6 540.77 408.6C540.77 408.6 544.34 407.34 545.47 404.41C546.59 401.47 547.37 392.82 547.37 392.82C547.37 392.82 546.94 389.98 535.53 386.76C524.12 383.53 489.44 374.94 489.44 374.94C489.44 374.94 485.28 375.19 486.1 367.06C486.91 358.93 487.45 320.56 487.45 320.56C487.45 320.56 503.63 307.38 498.95 286.48C493.59 262.56 466.25 254.56 452.11 262.2C452.11 262.2 451.21 264.61 449.09 263.94C444.37 262.47 427.2 264.23 418.13 273.9C409.07 283.58 404.87 296.09 406.45 304.86C406.45 304.86 394.45 317.84 403.59 330.85C412.72 343.86 428.09 339.27 428.09 339.27C428.09 339.27 433.66 345.2 439.71 346.13C440.01 350.52 442.34 385.64 442.63 390.03C442.63 390.03 440.1 395.66 448.39 399.07C456.68 402.48 465.74 405.58 469.16 406.15C472.59 406.73 476.14 409.38 478.07 411.09C480 412.8 490.4 421.04 507.7 418.17C513.66 418.33 530.12 421.93 537.48 418.97Z" id="axOhL7kOf"></path><path d="M431.96 309.73C431.96 309.73 434.77 313.44 433.34 321.92C431.92 330.42 417.01 340.37 411.96 337.12C406.92 333.87 421.11 344 433.9 336.43C448.09 328.05 460.35 319.64 461.29 313.77C462.23 307.9 463.63 304.26 458.12 298.77C452.89 300.96 434.58 308.63 431.96 309.73Z" id="bBAX4XVgt"></path><path d="M460.55 344.2C459.97 366.73 459.65 379.24 459.59 381.74C459.59 381.74 463.77 386.66 468.31 387.03C472.86 387.41 473.08 385.78 473.92 383.46C474.74 381.15 472.36 336.37 472.36 336.37C472.36 336.37 472.17 338.65 468.04 339.86C467.04 340.44 464.55 341.89 460.55 344.2Z" id="a4bZSFIR8"></path><path d="M413.08 302.14C409.94 303.63 408.36 309.54 414.61 311.43C420.87 313.31 430.18 306.93 422.82 302.85C420.87 302.71 416.22 300.66 413.08 302.14Z" id="e3GnoG1iL3"></path><path d="M447.39 292.31C451.03 293.71 455.49 287.3 455.03 285.06C454.57 282.83 460.2 274.41 461.72 272.7C463.23 270.99 450.6 265.29 440.08 267.55C429.55 269.8 424.32 274.31 429.17 274.34C434.02 274.38 441.6 271.33 446.22 272.99C450.85 274.65 456.3 274 453.58 277.07C450.86 280.14 453.02 283.89 446.02 285.61C439.01 287.33 439.39 288.27 435.64 290.44C437.99 290.81 443.75 290.92 447.39 292.31Z" id="gSXpY28YD"></path><path d="M477.39 264.64C477.39 264.64 469.96 264.77 475.05 268.66C480.13 272.56 487 279.25 487 279.25C487 279.25 481.65 286.47 480.15 283.54C475.02 273.51 465.57 266.97 458.37 265.47C462.18 265.3 471.62 260.14 477.39 264.64Z" id="cacaA3qoKd"></path><path d="M527.54 393.79C522.96 392.78 523.33 388.23 523.33 388.23C523.33 388.23 540.57 390.1 539.52 394.04C537.12 393.99 532.13 394.81 527.54 393.79Z" id="e1sc8JD5uX"></path><path d="M531.39 403.9C532.75 405.11 530.6 406.86 522.94 408.61C516.77 410.03 509.19 405.57 509.19 405.57C509.19 405.57 508.51 410.46 506.39 412.85C504.28 415.24 502.7 421.15 489.54 417.42C480.9 414.97 475.85 410.17 475.85 410.17C476.29 408.92 479.82 398.88 480.26 397.62C480.26 397.62 496.38 407.63 505.59 404.82C514.79 402 517.56 405.06 514.93 399.08C518.22 400.04 527.61 400.56 531.39 403.9Z" id="a1iMfZyxm8"></path><path d="" id="a4Hc5fNkrR"></path><path d="" id="a1xniKUUeu"></path><path d="M274.63 379.51L253.89 401.93L219.39 397.78L220.45 345.81L249.58 314.33L275.66 325.68" id="dSIpXLLLC"></path><path d="M292.75 383.23L273.16 404.4L239.64 399.62L239.49 349.46L267 319.73L292.53 331.28" id="clpuczwq"></path><path d="M219.28 348.01L221.99 383.28L160.03 379.42L150.53 365.45L150.56 343.06L160.67 326.54L232.17 334.07L219.28 348.01Z" id="c5eE4pDW2"></path><path d="M454.52 290.8L424.24 296.82L410.58 312.63L383.61 332.46L313.25 338.08L269.92 341.33L256.69 353.24L251.42 371.39L252 384.82L277.97 381L318.68 378.8L372.85 373.91L418.28 349.66L446.92 320.72L454.52 290.8Z" id="c79KgWkbR"></path><path d="M271.2 386.94L260.53 385.76L265.97 362.13L282.19 341.34L292.15 334.42" id="c1PMsIP2ao"></path><path d="M283.11 384.24L272.44 383.06L276.86 361.09L292.12 341.85L301.74 335.47" id="a1goIBG1C"></path><path d="M292.7 385.3L282.04 384.12L286.46 362.15L301.72 342.91L311.34 336.53" id="eZ6vlPgC1"></path><path d="M306.14 382.53L294.97 382.24L297.69 360.88L311.91 341.29L321.36 334.45" id="b2VqVX79yj"></path><path d="M313.83 384.28L303.16 383.11L307.58 361.14L322.84 341.89L332.46 335.52" id="a3KQZGfxQw"></path><path d="M315.91 381.7L306.69 380.69L312.27 358.85L327.1 339.55L335.99 333.1" id="c2hdXBfyS6"></path><path d="M323.89 382.32L314.68 381.3L320.25 359.46L335.08 340.17L343.98 333.71" id="f48SoLEd2d"></path><path d="M332.64 383.28L323.43 382.27L329.01 360.42L343.84 341.13L352.73 334.68" id="d2y3hO6wnf"></path><path d="M339.42 377.47L330.25 377.93L334.15 358.43L347.38 339.76L355.69 332.95" id="bvTXrIcav"></path><path d="M349.55 373.76L340.37 374.22L343.45 356.17L355.91 338.86L363.95 332.53" id="aerjclSSW"></path><path d="M357.8 373.34L348.63 373.8L351.71 355.75L364.17 338.44L372.21 332.11" id="f7lz2lkAIi"></path><path d="M369.24 369.37L359.65 370.61L361.29 353.27L372.85 335.82L380.73 329.14" id="i1wSF46xSM"></path><path d="M375.88 369.76L366.7 370.22L369.78 352.17L382.24 334.86L390.28 328.53" id="a5NPG7JC8n"></path><path d="M484.36 381.17L546.87 399.35L537.72 314.19L492.06 271.94L465.82 272.61L484.36 381.17Z" id="angZnCBir"></path><path d="M533.07 311.89L486.94 262.03L440.35 260.19L417.92 278.91L462.65 280.82L482.06 390.31L547.13 403.86L540.11 383.49L498.92 364.63L483.6 278.68L533.07 311.89Z" id="a554eGu5Nh"></path></defs><g><g><g><use xlink:href="#c9lJSraWW" opacity="1" fill="#010303" fill-opacity="1"></use><g><use xlink:href="#c9lJSraWW" opacity="1" fill-opacity="0" stroke="#000000" stroke-width="1" stroke-opacity="1"></use></g></g><g><use xlink:href="#act0nRK31" opacity="1" fill="#080c0c" fill-opacity="1"></use><g><use xlink:href="#act0nRK31" opacity="1" fill-opacity="0" stroke="#000000" stroke-width="1" stroke-opacity="1"></use></g></g><g><use xlink:href="#c3pYnO4ZgV" opacity="1" fill="#110723" fill-opacity="1"></use><g><use xlink:href="#c3pYnO4ZgV" opacity="1" fill-opacity="0" stroke="#000000" stroke-width="1" stroke-opacity="1"></use></g></g><g><g><use xlink:href="#bcgvapuMP" opacity="1" fill="#010b0b" fill-opacity="1"></use><g><use xlink:href="#bcgvapuMP" opacity="1" fill-opacity="0" stroke="#888383" stroke-width="5" stroke-opacity="1"></use></g></g><g><g><use xlink:href="#d1SIbegmTP" opacity="1" fill="#010b0b" fill-opacity="1"></use><g><use xlink:href="#d1SIbegmTP" opacity="1" fill-opacity="0" stroke="#888383" stroke-width="4" stroke-opacity="1"></use></g></g><g><use xlink:href="#djZz8LsKF" opacity="1" fill="#010b0b" fill-opacity="1"></use><g><use xlink:href="#djZz8LsKF" opacity="1" fill-opacity="0" stroke="#888383" stroke-width="4" stroke-opacity="1"></use></g></g><g><use xlink:href="#d2yDkl5S9" opacity="1" fill="#010b0b" fill-opacity="1"></use><g><use xlink:href="#d2yDkl5S9" opacity="1" fill-opacity="0" stroke="#888383" stroke-width="4" stroke-opacity="1"></use></g></g><g><use xlink:href="#dhq3jG2Wp" opacity="1" fill="#010b0b" fill-opacity="1"></use><g><use xlink:href="#dhq3jG2Wp" opacity="1" fill-opacity="0" stroke="#888383" stroke-width="4" stroke-opacity="1"></use></g></g><g><use xlink:href="#a1AawGo4GT" opacity="1" fill="#010b0b" fill-opacity="1"></use><g><use xlink:href="#a1AawGo4GT" opacity="1" fill-opacity="0" stroke="#888383" stroke-width="4" stroke-opacity="1"></use></g></g></g><g><use xlink:href="#l4l2O24dXy" opacity="1" fill="#010b0b" fill-opacity="1"></use><g><use xlink:href="#l4l2O24dXy" opacity="1" fill-opacity="0" stroke="#888383" stroke-width="4" stroke-opacity="1"></use></g></g><g><use xlink:href="#i4Xh4PaPJ" opacity="1" fill="#010b0b" fill-opacity="1"></use><g><use xlink:href="#i4Xh4PaPJ" opacity="1" fill-opacity="0" stroke="#888383" stroke-width="4" stroke-opacity="1"></use></g></g><g><use xlink:href="#c1LIGFRMMJ" opacity="1" fill="#010b0b" fill-opacity="1"></use><g><use xlink:href="#c1LIGFRMMJ" opacity="1" fill-opacity="0" stroke="#888383" stroke-width="4" stroke-opacity="1"></use></g></g><g><g><use xlink:href="#d27m987UE6" opacity="1" fill="#010b0b" fill-opacity="1"></use><g><use xlink:href="#d27m987UE6" opacity="1" fill-opacity="0" stroke="#888383" stroke-width="4" stroke-opacity="1"></use></g></g><g><use xlink:href="#a10m8Sdhld" opacity="1" fill="#010b0b" fill-opacity="1"></use><g><use xlink:href="#a10m8Sdhld" opacity="1" fill-opacity="0" stroke="#888383" stroke-width="4" stroke-opacity="1"></use></g></g><g><use xlink:href="#a2HZhCW292" opacity="1" fill="#010b0b" fill-opacity="1"></use><g><use xlink:href="#a2HZhCW292" opacity="1" fill-opacity="0" stroke="#888383" stroke-width="4" stroke-opacity="1"></use></g></g><g><use xlink:href="#d1Jv6zG1fO" opacity="1" fill="#010b0b" fill-opacity="1"></use><g><use xlink:href="#d1Jv6zG1fO" opacity="1" fill-opacity="0" stroke="#888383" stroke-width="4" stroke-opacity="1"></use></g></g><g><use xlink:href="#a7sR07J6rK" opacity="1" fill="#010b0b" fill-opacity="1"></use><g><use xlink:href="#a7sR07J6rK" opacity="1" fill-opacity="0" stroke="#888383" stroke-width="4" stroke-opacity="1"></use></g></g></g></g><g><g><use xlink:href="#axOhL7kOf" opacity="1" fill="#000000" fill-opacity="1"></use><g><use xlink:href="#axOhL7kOf" opacity="1" fill-opacity="0" stroke="#000000" stroke-width="1" stroke-opacity="0"></use></g></g><g><use xlink:href="#bBAX4XVgt" opacity="1" fill="#000000" fill-opacity="1"></use><g><use xlink:href="#bBAX4XVgt" opacity="1" fill-opacity="0" stroke="#000000" stroke-width="1" stroke-opacity="0"></use></g></g><g><use xlink:href="#a4bZSFIR8" opacity="1" fill="#000000" fill-opacity="1"></use><g><use xlink:href="#a4bZSFIR8" opacity="1" fill-opacity="0" stroke="#000000" stroke-width="1" stroke-opacity="0"></use></g></g><g><use xlink:href="#e3GnoG1iL3" opacity="1" fill="#000000" fill-opacity="1"></use><g><use xlink:href="#e3GnoG1iL3" opacity="1" fill-opacity="0" stroke="#000000" stroke-width="1" stroke-opacity="0"></use></g></g><g><use xlink:href="#gSXpY28YD" opacity="1" fill="#000000" fill-opacity="1"></use><g><use xlink:href="#gSXpY28YD" opacity="1" fill-opacity="0" stroke="#000000" stroke-width="1" stroke-opacity="0"></use></g></g><g><use xlink:href="#cacaA3qoKd" opacity="1" fill="#000000" fill-opacity="1"></use><g><use xlink:href="#cacaA3qoKd" opacity="1" fill-opacity="0" stroke="#000000" stroke-width="1" stroke-opacity="0"></use></g></g><g><use xlink:href="#e1sc8JD5uX" opacity="1" fill="#000000" fill-opacity="1"></use><g><use xlink:href="#e1sc8JD5uX" opacity="1" fill-opacity="0" stroke="#000000" stroke-width="1" stroke-opacity="0"></use></g></g><g><use xlink:href="#a1iMfZyxm8" opacity="1" fill="#000000" fill-opacity="1"></use><g><use xlink:href="#a1iMfZyxm8" opacity="1" fill-opacity="0" stroke="#000000" stroke-width="1" stroke-opacity="0"></use></g></g></g><g><g><use xlink:href="#a4Hc5fNkrR" opacity="1" fill-opacity="0" stroke="#000000" stroke-width="1" stroke-opacity="1"></use></g></g><g><g><use xlink:href="#a1xniKUUeu" opacity="1" fill-opacity="0" stroke="#888383" stroke-width="4" stroke-opacity="1"></use></g></g><g><use xlink:href="#dSIpXLLLC" opacity="1" fill="#030203" fill-opacity="1"></use><g><use xlink:href="#dSIpXLLLC" opacity="1" fill-opacity="0" stroke="#000000" stroke-width="1" stroke-opacity="1"></use></g></g><g><use xlink:href="#clpuczwq" opacity="1" fill="#010102" fill-opacity="1"></use><g><use xlink:href="#clpuczwq" opacity="1" fill-opacity="0" stroke="#000000" stroke-width="1" stroke-opacity="1"></use></g></g><g><use xlink:href="#c5eE4pDW2" opacity="1" fill="#150d27" fill-opacity="1"></use><g><use xlink:href="#c5eE4pDW2" opacity="1" fill-opacity="0" stroke="#000000" stroke-width="1" stroke-opacity="1"></use></g></g><g><g><use xlink:href="#c79KgWkbR" opacity="1" fill="#010909" fill-opacity="1"></use><g><use xlink:href="#c79KgWkbR" opacity="1" fill-opacity="0" stroke="#888383" stroke-width="5" stroke-opacity="1"></use></g></g><g><g><use xlink:href="#c1PMsIP2ao" opacity="1" fill="#010909" fill-opacity="1"></use><g><use xlink:href="#c1PMsIP2ao" opacity="1" fill-opacity="0" stroke="#888383" stroke-width="4" stroke-opacity="1"></use></g></g><g><use xlink:href="#a1goIBG1C" opacity="1" fill="#010909" fill-opacity="1"></use><g><use xlink:href="#a1goIBG1C" opacity="1" fill-opacity="0" stroke="#888383" stroke-width="4" stroke-opacity="1"></use></g></g><g><use xlink:href="#eZ6vlPgC1" opacity="1" fill="#010909" fill-opacity="1"></use><g><use xlink:href="#eZ6vlPgC1" opacity="1" fill-opacity="0" stroke="#888383" stroke-width="4" stroke-opacity="1"></use></g></g><g><use xlink:href="#b2VqVX79yj" opacity="1" fill="#010909" fill-opacity="1"></use><g><use xlink:href="#b2VqVX79yj" opacity="1" fill-opacity="0" stroke="#888383" stroke-width="4" stroke-opacity="1"></use></g></g><g><use xlink:href="#a3KQZGfxQw" opacity="1" fill="#010909" fill-opacity="1"></use><g><use xlink:href="#a3KQZGfxQw" opacity="1" fill-opacity="0" stroke="#888383" stroke-width="4" stroke-opacity="1"></use></g></g></g><g><use xlink:href="#c2hdXBfyS6" opacity="1" fill="#010909" fill-opacity="1"></use><g><use xlink:href="#c2hdXBfyS6" opacity="1" fill-opacity="0" stroke="#888383" stroke-width="4" stroke-opacity="1"></use></g></g><g><use xlink:href="#f48SoLEd2d" opacity="1" fill="#010909" fill-opacity="1"></use><g><use xlink:href="#f48SoLEd2d" opacity="1" fill-opacity="0" stroke="#888383" stroke-width="4" stroke-opacity="1"></use></g></g><g><use xlink:href="#d2y3hO6wnf" opacity="1" fill="#010909" fill-opacity="1"></use><g><use xlink:href="#d2y3hO6wnf" opacity="1" fill-opacity="0" stroke="#888383" stroke-width="4" stroke-opacity="1"></use></g></g><g><g><use xlink:href="#bvTXrIcav" opacity="1" fill="#010909" fill-opacity="1"></use><g><use xlink:href="#bvTXrIcav" opacity="1" fill-opacity="0" stroke="#888383" stroke-width="4" stroke-opacity="1"></use></g></g><g><use xlink:href="#aerjclSSW" opacity="1" fill="#010909" fill-opacity="1"></use><g><use xlink:href="#aerjclSSW" opacity="1" fill-opacity="0" stroke="#888383" stroke-width="4" stroke-opacity="1"></use></g></g><g><use xlink:href="#f7lz2lkAIi" opacity="1" fill="#010909" fill-opacity="1"></use><g><use xlink:href="#f7lz2lkAIi" opacity="1" fill-opacity="0" stroke="#888383" stroke-width="4" stroke-opacity="1"></use></g></g><g><use xlink:href="#i1wSF46xSM" opacity="1" fill="#010909" fill-opacity="1"></use><g><use xlink:href="#i1wSF46xSM" opacity="1" fill-opacity="0" stroke="#888383" stroke-width="4" stroke-opacity="1"></use></g></g><g><use xlink:href="#a5NPG7JC8n" opacity="1" fill="#010909" fill-opacity="1"></use><g><use xlink:href="#a5NPG7JC8n" opacity="1" fill-opacity="0" stroke="#888383" stroke-width="4" stroke-opacity="1"></use></g></g></g></g><g><use xlink:href="#angZnCBir" opacity="1" fill="#090529" fill-opacity="0.83"></use><g><use xlink:href="#angZnCBir" opacity="1" fill-opacity="0" stroke="#000000" stroke-width="1" stroke-opacity="1"></use></g></g><g><use xlink:href="#a554eGu5Nh" opacity="1" fill="#0c0d1d" fill-opacity="1"></use><g><use xlink:href="#a554eGu5Nh" opacity="1" fill-opacity="0" stroke="#000000" stroke-width="1" stroke-opacity="1"></use></g></g></g></g></svg>