<?xml version="1.0" encoding="UTF-8" standalone="no"?>
<!DOCTYPE svg PUBLIC "-//W3C//DTD SVG 1.1//EN" "http://www.w3.org/Graphics/SVG/1.1/DTD/svg11.dtd">
<svg version="1.1" xmlns="http://www.w3.org/2000/svg" xmlns:xlink="http://www.w3.org/1999/xlink" preserveAspectRatio="xMidYMid meet" viewBox="0 0 640 640" width="640" height="640"><defs><path d="M339.34 453.3C258.96 455.04 192.39 391.3 190.64 310.92C188.9 230.55 252.65 163.97 333.02 162.22C413.4 160.48 479.97 224.23 481.72 304.61C483.46 384.98 419.71 451.56 339.34 453.3ZM528.67 289.05C527.98 281.86 526.89 274.81 525.44 267.88C527.44 267.3 543.46 262.64 545.46 262.05C546.8 261.66 547.56 260.26 547.18 258.93C546.5 256.61 541.1 238.06 540.43 235.74C540.04 234.4 538.64 233.63 537.3 234.02C535.3 234.61 519.3 239.26 517.3 239.85C514.77 233.12 511.9 226.58 508.68 220.24C510.46 219.16 524.71 210.52 526.49 209.44C527.69 208.71 528.06 207.17 527.34 205.97C526.09 203.91 516.07 187.39 514.82 185.32C514.1 184.13 512.55 183.75 511.36 184.47C509.57 185.56 495.3 194.21 493.51 195.29C489.35 189.48 484.88 183.9 480.11 178.6C481.56 177.09 493.11 165.03 494.55 163.52C495.52 162.52 495.48 160.92 494.48 159.96C492.73 158.29 478.78 144.92 477.03 143.25C476.03 142.29 474.43 142.32 473.47 143.33C472.02 144.84 460.47 156.9 459.03 158.4C453.53 153.87 447.76 149.64 441.78 145.73C442.78 143.9 450.81 129.27 451.81 127.44C452.49 126.22 452.04 124.69 450.82 124.02C448.7 122.86 431.76 113.56 429.65 112.4C428.43 111.73 426.89 112.17 426.22 113.4C425.22 115.22 417.2 129.83 416.2 131.65C409.73 128.71 403.06 126.12 396.24 123.89C396.73 121.86 400.7 105.68 401.19 103.66C401.52 102.3 400.7 100.94 399.34 100.61C397 100.03 378.23 95.44 375.89 94.86C374.53 94.53 373.17 95.36 372.84 96.71C372.34 98.74 368.37 114.94 367.88 116.96C360.9 115.81 353.8 115.02 346.59 114.64C346.55 112.56 346.18 95.87 346.14 93.79C346.11 92.39 344.96 91.29 343.56 91.32C341.15 91.37 321.83 91.79 319.42 91.84C318.03 91.87 316.92 93.03 316.95 94.42C317 96.5 317.36 113.19 317.4 115.27C310.3 115.96 303.32 117.04 296.47 118.47C295.89 116.46 291.24 100.45 290.66 98.45C290.28 97.1 288.88 96.34 287.53 96.72C285.22 97.4 266.67 102.78 264.35 103.45C263.01 103.84 262.24 105.24 262.63 106.58C263.21 108.58 267.85 124.58 268.43 126.58C261.7 129.1 255.15 131.96 248.81 135.18C247.73 133.4 239.11 119.14 238.03 117.36C237.31 116.17 235.76 115.79 234.56 116.51C232.5 117.76 215.97 127.76 213.9 129.01C212.71 129.73 212.33 131.28 213.05 132.48C214.13 134.26 222.77 148.54 223.85 150.32C218.03 154.48 212.46 158.96 207.15 163.72C205.64 162.27 193.59 150.71 192.08 149.26C191.08 148.29 189.48 148.33 188.52 149.34C186.85 151.08 173.47 165.02 171.8 166.76C170.83 167.76 170.86 169.36 171.87 170.33C173.38 171.77 185.42 183.33 186.93 184.78C182.39 190.28 178.16 196.04 174.24 202.02C172.42 201.02 157.79 192.97 155.97 191.97C154.74 191.29 153.21 191.74 152.54 192.96C151.37 195.08 142.06 212 140.9 214.12C140.23 215.34 140.67 216.87 141.89 217.55C143.72 218.55 158.32 226.58 160.14 227.59C157.19 234.06 154.6 240.72 152.36 247.54C150.34 247.05 134.15 243.06 132.13 242.56C130.78 242.23 129.42 243.06 129.08 244.41C128.5 246.76 123.89 265.52 123.31 267.86C122.98 269.22 123.81 270.58 125.16 270.92C127.19 271.42 143.38 275.4 145.41 275.9C144.25 282.88 143.46 289.97 143.07 297.18C140.98 297.22 124.29 297.57 122.21 297.61C120.81 297.64 119.71 298.79 119.74 300.19C119.79 302.6 120.19 321.92 120.24 324.33C120.27 325.72 121.42 326.83 122.82 326.8C124.9 326.76 141.59 326.41 143.68 326.37C144.37 333.55 145.45 340.61 146.9 347.53C144.89 348.12 128.87 352.77 126.87 353.35C125.53 353.74 124.77 355.14 125.16 356.48C125.83 358.79 131.22 377.34 131.89 379.66C132.27 381 133.68 381.77 135.02 381.38C137.02 380.8 153.02 376.15 155.02 375.57C157.54 382.3 160.41 388.85 163.63 395.19C161.84 396.27 147.59 404.9 145.81 405.98C144.61 406.7 144.24 408.25 144.96 409.44C146.21 411.51 156.21 428.03 157.46 430.1C158.18 431.29 159.74 431.67 160.93 430.95C162.72 429.87 176.99 421.22 178.78 420.14C182.94 425.96 187.41 431.53 192.17 436.84C190.73 438.35 179.16 450.4 177.72 451.91C176.75 452.92 176.79 454.51 177.8 455.48C179.54 457.15 193.48 470.52 195.22 472.19C196.23 473.16 197.83 473.12 198.79 472.11C200.24 470.61 211.8 458.56 213.24 457.05C218.74 461.59 224.5 465.82 230.49 469.73C229.48 471.56 221.44 486.19 220.43 488.02C219.76 489.24 220.21 490.77 221.43 491.44C223.55 492.61 240.48 501.91 242.59 503.08C243.81 503.75 245.35 503.3 246.02 502.08C247.02 500.25 255.05 485.65 256.05 483.83C262.53 486.78 269.19 489.37 276.01 491.6C275.52 493.62 271.54 509.81 271.04 511.84C270.71 513.19 271.54 514.55 272.89 514.89C275.24 515.46 294 520.07 296.34 520.64C297.7 520.98 299.07 520.15 299.4 518.79C299.89 516.77 303.87 500.57 304.37 498.55C311.35 499.7 318.45 500.49 325.65 500.88C325.7 502.97 326.05 519.65 326.09 521.74C326.12 523.14 327.28 524.23 328.67 524.21C331.08 524.16 350.39 523.75 352.81 523.7C354.2 523.67 355.31 522.52 355.28 521.12C355.23 519.04 354.88 502.35 354.84 500.26C362.02 499.57 369.08 498.48 376.01 497.03C376.59 499.04 381.24 515.05 381.83 517.06C382.22 518.4 383.62 519.16 384.95 518.78C387.27 518.1 405.82 512.71 408.14 512.04C409.48 511.65 410.25 510.25 409.86 508.91C409.28 506.9 404.63 490.9 404.05 488.9C410.77 486.38 417.32 483.51 423.65 480.29C424.73 482.07 433.37 496.32 434.45 498.11C435.17 499.3 436.72 499.67 437.92 498.96C439.98 497.7 456.5 487.69 458.57 486.44C459.76 485.72 460.14 484.17 459.42 482.98C458.34 481.19 449.69 466.91 448.61 465.13C454.42 460.97 459.99 456.5 465.3 451.73C466.81 453.18 478.87 464.73 480.37 466.18C481.38 467.14 482.97 467.11 483.94 466.1C485.61 464.36 498.98 450.41 500.65 448.67C501.61 447.66 501.58 446.07 500.57 445.1C499.07 443.66 487.01 432.1 485.5 430.65C490.04 425.15 494.27 419.39 498.18 413.41C500.01 414.41 514.64 422.45 516.47 423.45C517.69 424.12 519.22 423.67 519.89 422.45C521.06 420.34 530.36 403.41 531.52 401.29C532.19 400.07 531.75 398.53 530.52 397.86C528.7 396.86 514.09 388.84 512.27 387.83C515.21 381.36 517.8 374.7 520.03 367.88C522.06 368.37 538.25 372.34 540.27 372.84C541.63 373.17 542.99 372.34 543.32 370.99C543.9 368.64 548.5 349.88 549.07 347.53C549.41 346.18 548.58 344.82 547.22 344.48C545.2 343.99 528.99 340.01 526.97 339.51C528.12 332.54 528.91 325.44 529.29 318.23C531.38 318.19 548.07 317.83 550.16 317.79C551.55 317.76 552.65 316.6 552.63 315.21C552.58 312.8 552.16 293.48 552.11 291.07C552.08 289.67 550.93 288.57 549.53 288.6C545.36 288.69 530.76 289 528.67 289.05Z" id="c29KpWV3f"></path><path d="M190.64 310.92C192.39 391.3 258.96 455.04 339.34 453.3C419.71 451.56 483.46 384.98 481.72 304.61C479.97 224.23 413.4 160.48 333.02 162.22C252.65 163.97 188.9 230.55 190.64 310.92ZM209.77 310.5C208.25 240.69 263.62 182.87 333.44 181.35C403.25 179.84 461.07 235.21 462.59 305.02C464.1 374.84 408.74 432.66 338.92 434.18C269.11 435.69 211.28 380.32 209.77 310.5Z" id="b2o4KRwoL"></path><path d="M209.77 310.5C211.28 380.32 269.11 435.69 338.92 434.18C408.74 432.66 464.1 374.83 462.59 305.02C461.07 235.21 403.25 179.84 333.44 181.35C263.62 182.87 208.25 240.69 209.77 310.5ZM228.87 249.63C231.99 243.87 237.73 235.6 245.95 227.41C251.36 222.01 261.8 219.13 268.57 225.32C275.49 231.65 283.55 238.9 285.23 243.6C286.57 247.37 284.78 252.21 282.17 256.27C279.55 260.33 269.91 271.13 269.91 271.13C269.85 271.24 269.38 272.1 269.33 272.21C269.33 272.21 265.56 286.19 263.59 290.6C261.63 295.02 258.56 299.16 254.67 300.1C249.82 301.27 239.33 298.49 230.25 296.16C221.37 293.88 218.07 283.57 219.62 276.09C221.98 264.72 225.76 255.39 228.87 249.63ZM273.07 393.62C266.64 400.17 256.06 397.85 250.36 392.77C241.71 385.03 235.53 377.08 232.1 371.5C228.69 365.92 224.4 356.81 221.43 345.59C219.47 338.2 222.21 327.72 230.96 324.97C239.9 322.15 250.22 318.8 255.12 319.71C259.06 320.44 262.35 324.41 264.55 328.71C266.76 333.01 271.28 346.76 271.28 346.76C271.34 346.86 271.86 347.7 271.92 347.81C271.92 347.81 282.13 358.07 284.96 361.98C287.79 365.9 289.84 370.62 288.71 374.47C287.29 379.25 279.63 386.93 273.07 393.62ZM333.61 185.75C340.15 185.61 350.18 186.5 361.37 189.6C368.73 191.63 376.41 199.28 374.38 208.22C372.3 217.36 369.98 227.96 366.73 231.74C364.11 234.77 359.03 235.61 354.21 235.35C349.38 235.08 335.23 232.05 335.23 232.05C335.11 232.05 334.12 232.07 334 232.08C334 232.08 319.99 235.72 315.18 236.19C310.37 236.67 305.26 236.05 302.51 233.13C299.1 229.5 296.33 219.01 293.86 209.96C291.44 201.12 298.77 193.15 306.04 190.8C317.09 187.22 327.07 185.89 333.61 185.75ZM339.19 429.77C332.65 429.93 322.62 429.07 311.42 426.02C304.05 424.01 296.35 416.39 298.35 407.44C300.39 398.29 302.66 387.69 305.91 383.9C308.51 380.85 313.59 380 318.42 380.24C323.24 380.49 337.41 383.47 337.41 383.47C337.53 383.47 338.52 383.44 338.64 383.44C338.64 383.44 352.63 379.75 357.44 379.26C362.25 378.76 367.36 379.36 370.12 382.27C373.55 385.89 376.36 396.37 378.86 405.4C381.31 414.24 374 422.24 366.74 424.62C355.71 428.24 345.74 429.6 339.19 429.77ZM399.61 222.13C406.05 215.61 416.63 217.96 422.31 223.07C430.93 230.84 437.08 238.81 440.48 244.4C443.89 250 448.14 259.12 451.07 270.35C452.99 277.75 450.22 288.22 441.46 290.94C432.51 293.73 422.18 297.03 417.28 296.11C413.34 295.37 410.07 291.39 407.88 287.08C405.69 282.77 401.23 269 401.23 269C401.16 268.9 400.65 268.06 400.59 267.95C400.59 267.95 390.42 257.65 387.6 253.73C384.78 249.81 382.75 245.07 383.9 241.23C385.33 236.46 393.02 228.8 399.61 222.13ZM426.12 388.44C420.68 393.82 410.23 396.66 403.49 390.45C396.59 384.1 388.55 376.81 386.9 372.11C385.57 368.33 387.37 363.5 390 359.45C392.64 355.4 402.31 344.63 402.31 344.63C402.37 344.53 402.85 343.66 402.91 343.56C402.91 343.56 406.72 329.59 408.7 325.19C410.68 320.78 413.77 316.65 417.67 315.72C422.52 314.57 432.99 317.39 442.07 319.75C450.94 322.06 454.2 332.39 452.62 339.86C450.23 351.22 446.41 360.54 443.27 366.28C440.14 372.03 434.37 380.28 426.12 388.44Z" id="b5VsUAe9t"></path><path d="M385.12 405.02C382.61 395.99 379.8 385.51 376.37 381.89C374.34 379.74 371.02 378.86 367.49 378.74C368.34 379.18 369.11 379.72 369.75 380.38C373.17 384.01 375.99 394.48 378.49 403.52C380.94 412.36 373.63 420.35 366.37 422.74C355.34 426.35 345.37 427.71 338.82 427.88C333.94 428 327.11 427.55 319.3 426.05C329.84 428.75 339.23 429.54 345.45 429.39C351.99 429.22 361.97 427.85 373 424.24C380.26 421.86 387.56 413.86 385.12 405.02Z" id="fFZiTktid"></path><path d="M361 187.71C368.36 189.74 376.04 197.39 374.01 206.33C371.93 215.48 369.62 226.07 366.36 229.85C363.75 232.89 358.66 233.73 353.84 233.46C349.01 233.19 334.86 230.16 334.86 230.16C334.74 230.17 333.75 230.19 333.63 230.19C333.63 230.19 319.62 233.83 314.81 234.3C313.57 234.43 312.31 234.47 311.07 234.43C313.91 235.89 317.76 236.17 321.44 235.81C326.25 235.33 340.25 231.69 340.25 231.69C340.38 231.69 341.36 231.67 341.48 231.67C341.48 231.67 355.63 234.7 360.46 234.96C365.28 235.23 370.37 234.39 372.99 231.35C376.24 227.58 378.56 216.98 380.63 207.84C382.66 198.9 374.99 191.25 367.62 189.21C364.66 188.39 361.8 187.74 359.04 187.21C359.69 187.37 360.34 187.52 361 187.71Z" id="fB9dGfcRe"></path><path d="M446.74 244.02C443.33 238.43 437.18 230.46 428.56 222.69C425.49 219.93 420.99 217.99 416.49 217.8C418.54 218.66 420.42 219.82 421.94 221.19C430.56 228.95 436.71 236.92 440.12 242.52C443.52 248.11 447.77 257.24 450.7 268.47C452.62 275.86 449.85 286.33 441.1 289.05C433.87 291.3 425.74 293.89 420.3 294.32C421.32 295 422.39 295.51 423.53 295.73C428.43 296.65 438.76 293.34 447.72 290.56C456.47 287.84 459.24 277.37 457.32 269.97C454.39 258.74 450.14 249.61 446.74 244.02Z" id="anP8Ergcw"></path><path d="M449.53 365.9C452.66 360.16 456.48 350.84 458.88 339.48C460.45 332 457.19 321.68 448.32 319.37C443.87 318.21 439.09 316.94 434.79 316.09C437.11 316.66 439.45 317.28 441.7 317.86C450.57 320.17 453.83 330.5 452.25 337.98C449.86 349.34 446.04 358.65 442.9 364.4C439.77 370.14 434 378.4 425.75 386.56C422.53 389.74 417.54 392.02 412.61 392.07C419.18 395.47 427.66 392.72 432.37 388.06C440.62 379.9 446.39 371.65 449.53 365.9Z" id="ckxwHnGJ4"></path><path d="M339.27 161.84C350.29 161.6 361.05 162.6 371.42 164.7C359.03 161.58 346.04 160.05 332.65 160.34C252.27 162.08 188.53 228.66 190.27 309.03C191.78 378.39 241.56 435.36 306.82 448.56C244.84 432.96 198.35 377.53 196.9 310.54C195.15 230.16 258.9 163.58 339.27 161.84Z" id="c3QGnx97F"></path><path d="M262 395.72C267.63 398.07 274.6 398.05 279.32 393.24C285.88 386.55 293.54 378.86 294.96 374.08C296.1 370.24 294.05 365.51 291.21 361.6C288.38 357.68 278.17 347.42 278.17 347.42C278.11 347.32 277.59 346.48 277.53 346.37C277.53 346.37 273.01 332.62 270.8 328.32C268.6 324.02 265.32 320.05 261.38 319.33C260.44 319.15 259.3 319.14 258.02 319.24C260.51 320.92 262.62 323.77 264.18 326.82C266.39 331.12 270.91 344.87 270.91 344.87C270.97 344.98 271.48 345.82 271.55 345.92C271.55 345.92 281.75 356.18 284.59 360.09C287.42 364.01 289.47 368.74 288.34 372.58C286.92 377.36 279.26 385.04 272.7 391.74C269.72 394.77 265.86 395.88 262 395.72Z" id="a5zMsPHZv"></path><path d="M269.85 290.22C271.81 285.8 275.58 271.83 275.58 271.83C275.64 271.72 276.1 270.86 276.16 270.75C276.16 270.75 285.8 259.95 288.42 255.88C291.04 251.83 292.83 246.99 291.48 243.22C289.81 238.52 281.74 231.26 274.82 224.94C272.08 222.43 268.74 221.43 265.38 221.47C266.37 221.98 267.32 222.62 268.2 223.43C275.12 229.76 283.19 237.01 284.86 241.71C286.2 245.49 284.41 250.32 281.8 254.38C279.18 258.45 269.54 269.24 269.54 269.24C269.48 269.35 269.01 270.22 268.95 270.33C268.95 270.33 265.19 284.3 263.22 288.71C261.26 293.13 258.19 297.27 254.3 298.21C251.72 298.83 247.55 298.34 242.85 297.39C250.07 299.17 257.18 300.62 260.92 299.71C264.81 298.77 267.88 294.63 269.85 290.22Z" id="cej3BuZq3"></path><path d="M165.45 311.47C167.5 405.76 245.59 480.54 339.88 478.49C434.17 476.45 508.95 398.35 506.91 304.06C504.86 209.77 426.77 134.98 332.48 137.03C238.18 139.07 163.4 217.18 165.45 311.47ZM190.64 310.92C188.9 230.55 252.65 163.97 333.02 162.22C413.4 160.48 479.97 224.23 481.72 304.61C483.46 384.98 419.71 451.56 339.34 453.3C258.96 455.04 192.39 391.3 190.64 310.92Z" id="a1rgMCft00"></path><path d="M336.18 230.51C293.51 230.51 258.93 265.1 258.93 307.76C258.93 350.43 293.51 385.01 336.18 385.01C378.84 385.01 413.43 350.43 413.43 307.76C413.43 265.1 378.84 230.51 336.18 230.51Z" id="cGDzO7irZ"></path><path d="M370.83 315.4L343.75 319.68L343.75 313.91C343.28 313.97 343.03 314.01 342.98 314.02C341.62 314.24 340.14 314.24 338.78 314.02C338.73 314.01 338.48 313.97 338.02 313.91L338.02 319.68L310.93 315.4L310.93 308.21L305.22 307.31C305.22 312.1 305.22 314.75 305.22 315.29C305.22 316.4 306.84 317.4 309.26 317.78C312.21 318.25 335.83 321.98 338.78 322.44C340.14 322.66 341.62 322.66 342.98 322.44C345.93 321.98 369.55 318.25 372.51 317.78C374.92 317.4 376.54 316.4 376.54 315.29C376.54 314.75 376.54 312.1 376.54 307.31L370.83 308.21L370.83 315.4Z" id="c8TYVAEZK"></path><path d="M352.85 328.11C352.85 326.74 350.3 325.64 347.14 325.64C345.89 325.64 335.9 325.64 334.65 325.64C331.49 325.64 328.94 326.74 328.94 328.11C328.94 329.43 328.94 336.03 328.94 347.9L334.65 347.9L334.65 333.21L352.85 333.21L352.85 330.74L334.65 330.74L334.65 328.11C345.57 328.11 351.63 328.11 352.85 328.11Z" id="a6VlSaSQt"></path><path d="M334.65 351.61C331.49 351.61 328.94 350.51 328.94 349.14C328.94 349.14 328.94 349.14 328.94 349.14L347.04 349.14L347.04 334.42L352.74 334.42C352.74 343.25 352.74 348.16 352.74 349.14C352.74 350.5 350.19 351.61 347.04 351.61C344.56 351.61 335.88 351.61 334.65 351.61Z" id="a8w8rNAUx"></path><path d="M316.63 297.12C315.89 297.24 309.99 298.17 309.26 298.28C306.84 298.66 305.22 299.66 305.22 300.78C305.22 300.87 305.22 301.35 305.22 302.2L310.93 303.09L310.93 300.65C315.53 299.93 318.08 299.53 318.59 299.45C332.97 297.18 348.79 297.18 363.17 299.45C363.68 299.53 366.23 299.93 370.83 300.65L370.83 303.09L376.54 302.2C376.54 301.35 376.54 300.87 376.54 300.78C376.54 299.66 374.92 298.66 372.51 298.28C372.01 298.21 369.56 297.82 365.13 297.12C343.23 295.47 327.07 295.47 316.63 297.12Z" id="a9qpeVFnI"></path><path d="M318.25 311.21L330.75 313.19L330.75 315.11L318.25 313.13L318.25 311.21M314.16 314.38L334.83 317.64L334.83 311.95L314.16 308.68L314.16 308.68L314.16 314.38Z" id="auq4TdxkN"></path><path d="M363.35 311.21L363.35 313.15L350.86 315.11L350.86 313.18L363.35 311.21M346.77 311.95L346.77 317.64L367.44 314.38L367.44 308.68L367.44 308.68L346.77 311.95Z" id="h1YFoN0rvN"></path><path d="M301.14 302.72C301.35 302.41 301.46 302.09 301.46 301.76C301.46 301.74 301.46 301.6 301.46 301.59C301.46 299.73 297.98 298.23 293.71 298.23C292.78 298.23 285.33 298.23 284.4 298.23C280.12 298.24 276.65 299.75 276.65 301.6C276.65 301.61 276.65 301.75 276.65 301.77C276.65 303.62 280.12 305.13 284.4 305.13C285.33 305.13 292.78 305.13 293.71 305.13C294.98 305.13 296.2 304.99 297.26 304.75C298.58 304.96 305.15 306 316.98 307.87L316.98 305.23C307.47 303.73 302.19 302.89 301.14 302.72ZM293.71 302.66C292.78 302.66 285.33 302.66 284.4 302.66C283.28 302.66 282.35 302.26 282.35 301.77C282.35 301.75 282.35 301.61 282.35 301.6C282.35 301.11 283.25 300.71 284.4 300.71C285.33 300.71 292.78 300.71 293.71 300.71C294.82 300.71 295.75 301.1 295.75 301.6C295.75 301.61 295.75 301.67 295.75 301.77C295.15 302.36 294.47 302.66 293.71 302.66Z" id="e1mgTx7AbV"></path><path d="M387.89 298.34C383.62 298.34 380.15 299.85 380.15 301.7C380.15 301.72 380.15 301.86 380.15 301.87C380.15 302.21 380.25 302.53 380.47 302.84C379.41 303.01 374.13 303.84 364.63 305.35L364.63 307.98C376.47 306.11 383.05 305.07 384.37 304.86C385.43 305.11 386.65 305.24 387.92 305.24C388.85 305.24 396.3 305.24 397.23 305.24C401.5 305.24 404.98 303.74 404.98 301.88C404.98 301.87 404.98 301.73 404.98 301.71C404.95 299.86 401.48 298.34 397.21 298.34C395.34 298.34 388.83 298.34 387.89 298.34ZM397.21 302.76C396.28 302.76 388.83 302.76 387.89 302.76C386.78 302.76 385.85 302.37 385.85 301.87C385.85 301.86 385.85 301.72 385.85 301.7C385.85 301.22 386.75 300.81 387.89 300.81C388.83 300.81 396.28 300.81 397.21 300.81C398.32 300.81 399.25 301.21 399.25 301.7C399.25 301.71 399.25 301.77 399.25 301.87C398.65 302.46 397.97 302.76 397.21 302.76Z" id="k8zcTuHt2"></path><path d="M326.53 340.35L326.53 321.56L322.44 320.91C322.44 331.51 322.44 337.4 322.44 338.58C322.44 339.56 324.27 340.35 326.53 340.35C326.53 340.35 326.53 340.35 326.53 340.35Z" id="f1BGxlNFlZ"></path><path d="M355.07 340.35C357.33 340.35 359.16 339.56 359.16 338.58C359.16 337.4 359.16 331.52 359.16 320.93L355.07 321.58L355.07 340.35C355.07 340.35 355.07 340.35 355.07 340.35Z" id="a1hmaJvQQ2"></path></defs><g><g><g><use xlink:href="#c29KpWV3f" opacity="1" fill="#231f20" fill-opacity="1"></use><g><use xlink:href="#c29KpWV3f" opacity="1" fill-opacity="0" stroke="#000000" stroke-width="1" stroke-opacity="0"></use></g></g><g><use xlink:href="#b2o4KRwoL" opacity="1" fill="#030208" fill-opacity="1"></use><g><use xlink:href="#b2o4KRwoL" opacity="1" fill-opacity="0" stroke="#000000" stroke-width="1" stroke-opacity="0"></use></g></g><g><use xlink:href="#b5VsUAe9t" opacity="1" fill="#0f0a1e" fill-opacity="1"></use><g><use xlink:href="#b5VsUAe9t" opacity="1" fill-opacity="0" stroke="#000000" stroke-width="1" stroke-opacity="0"></use></g></g><g><use xlink:href="#fFZiTktid" opacity="1" fill="#2f205a" fill-opacity="1"></use><g><use xlink:href="#fFZiTktid" opacity="1" fill-opacity="0" stroke="#000000" stroke-width="1" stroke-opacity="0"></use></g></g><g><use xlink:href="#fB9dGfcRe" opacity="1" fill="#2f1b4d" fill-opacity="1"></use><g><use xlink:href="#fB9dGfcRe" opacity="1" fill-opacity="0" stroke="#000000" stroke-width="1" stroke-opacity="0"></use></g></g><g><use xlink:href="#anP8Ergcw" opacity="1" fill="#2f1f5c" fill-opacity="1"></use><g><use xlink:href="#anP8Ergcw" opacity="1" fill-opacity="0" stroke="#000000" stroke-width="1" stroke-opacity="0"></use></g></g><g><use xlink:href="#ckxwHnGJ4" opacity="1" fill="#3c2c68" fill-opacity="1"></use><g><use xlink:href="#ckxwHnGJ4" opacity="1" fill-opacity="0" stroke="#000000" stroke-width="1" stroke-opacity="0"></use></g></g><g><use xlink:href="#c3QGnx97F" opacity="1" fill="#1f0b4e" fill-opacity="1"></use><g><use xlink:href="#c3QGnx97F" opacity="1" fill-opacity="0" stroke="#000000" stroke-width="1" stroke-opacity="0"></use></g></g><g><use xlink:href="#a5zMsPHZv" opacity="1" fill="#abdda5" fill-opacity="1"></use><g><use xlink:href="#a5zMsPHZv" opacity="1" fill-opacity="0" stroke="#000000" stroke-width="1" stroke-opacity="0"></use></g></g><g><use xlink:href="#cej3BuZq3" opacity="1" fill="#abdda5" fill-opacity="1"></use><g><use xlink:href="#cej3BuZq3" opacity="1" fill-opacity="0" stroke="#000000" stroke-width="1" stroke-opacity="0"></use></g></g><g><use xlink:href="#a1rgMCft00" opacity="1" fill="#000000" fill-opacity="1"></use><g><use xlink:href="#a1rgMCft00" opacity="1" fill-opacity="0" stroke="#000000" stroke-width="1" stroke-opacity="0"></use></g></g><g><use xlink:href="#cGDzO7irZ" opacity="1" fill="#000000" fill-opacity="1"></use><g><use xlink:href="#cGDzO7irZ" opacity="1" fill-opacity="0" stroke="#000000" stroke-width="1" stroke-opacity="0"></use></g></g><g><use xlink:href="#c8TYVAEZK" opacity="1" fill="#ee2c28" fill-opacity="1"></use><g><use xlink:href="#c8TYVAEZK" opacity="1" fill-opacity="0" stroke="#000000" stroke-width="1" stroke-opacity="0"></use></g></g><g><use xlink:href="#a6VlSaSQt" opacity="1" fill="#ee2c28" fill-opacity="1"></use><g><use xlink:href="#a6VlSaSQt" opacity="1" fill-opacity="0" stroke="#000000" stroke-width="1" stroke-opacity="0"></use></g></g><g><use xlink:href="#a8w8rNAUx" opacity="1" fill="#414042" fill-opacity="1"></use><g><use xlink:href="#a8w8rNAUx" opacity="1" fill-opacity="0" stroke="#000000" stroke-width="1" stroke-opacity="0"></use></g></g><g><use xlink:href="#a9qpeVFnI" opacity="1" fill="#414042" fill-opacity="1"></use><g><use xlink:href="#a9qpeVFnI" opacity="1" fill-opacity="0" stroke="#000000" stroke-width="1" stroke-opacity="0"></use></g></g><g><use xlink:href="#auq4TdxkN" opacity="1" fill="#414042" fill-opacity="1"></use><g><use xlink:href="#auq4TdxkN" opacity="1" fill-opacity="0" stroke="#000000" stroke-width="1" stroke-opacity="0"></use></g></g><g><use xlink:href="#h1YFoN0rvN" opacity="1" fill="#414042" fill-opacity="1"></use><g><use xlink:href="#h1YFoN0rvN" opacity="1" fill-opacity="0" stroke="#000000" stroke-width="1" stroke-opacity="0"></use></g></g><g><use xlink:href="#e1mgTx7AbV" opacity="1" fill="#414042" fill-opacity="1"></use><g><use xlink:href="#e1mgTx7AbV" opacity="1" fill-opacity="0" stroke="#000000" stroke-width="1" stroke-opacity="0"></use></g></g><g><use xlink:href="#k8zcTuHt2" opacity="1" fill="#414042" fill-opacity="1"></use><g><use xlink:href="#k8zcTuHt2" opacity="1" fill-opacity="0" stroke="#000000" stroke-width="1" stroke-opacity="0"></use></g></g><g><use xlink:href="#f1BGxlNFlZ" opacity="1" fill="#414042" fill-opacity="1"></use><g><use xlink:href="#f1BGxlNFlZ" opacity="1" fill-opacity="0" stroke="#000000" stroke-width="1" stroke-opacity="0"></use></g></g><g><use xlink:href="#a1hmaJvQQ2" opacity="1" fill="#414042" fill-opacity="1"></use><g><use xlink:href="#a1hmaJvQQ2" opacity="1" fill-opacity="0" stroke="#000000" stroke-width="1" stroke-opacity="0"></use></g></g></g></g></svg>