<?xml version="1.0" encoding="UTF-8" standalone="no"?>
<!DOCTYPE svg PUBLIC "-//W3C//DTD SVG 1.1//EN" "http://www.w3.org/Graphics/SVG/1.1/DTD/svg11.dtd">
<svg version="1.1" xmlns="http://www.w3.org/2000/svg" xmlns:xlink="http://www.w3.org/1999/xlink" preserveAspectRatio="xMidYMid meet" viewBox="0 0 640 640" width="640" height="640"><defs><path d="M639.78 398.14C642.2 390.45 623.86 347.3 623.86 347.3C623.86 347.3 629.93 329.98 625.92 314.89C621.91 299.81 603.67 264.26 603.67 264.26C603.67 264.26 595.95 255.01 559.65 282.82C523.34 310.64 415.78 399.74 415.78 399.74C415.78 399.74 405.88 415.28 388.95 381.6C372 347.91 283.81 200.51 283.81 200.51C283.81 200.51 293.87 93.78 233.27 30.96C163.89 -40.97 76.24 24.67 58.39 103.24C58.39 103.24 61.75 115.54 54.85 120.47C39.51 131.41 0.28 198.33 0 266.83C-0.27 335.31 18.34 397.48 42.79 425.21C42.79 425.21 42.84 516.51 96.24 533.79C149.65 551.08 177.73 479.78 177.73 479.78C177.73 479.78 205.61 482.68 223.08 464.99C234.06 480.61 321.93 605.57 332.91 621.2C332.91 621.2 339.67 651.4 368.55 635.25C397.43 619.09 427.52 599.08 437.5 589.24C447.48 579.41 462.64 577.01 471.49 576.73C480.35 576.44 525.83 571.16 562.78 499.56C578.18 479.28 628.12 435.17 639.78 398.14Z" id="demVMHcCi"></path><path d="M143.79 338.37C143.79 338.37 159.53 342.57 175.76 379.76C191.98 416.95 177.59 507 157.29 512.38C136.97 517.76 196.41 506.39 211.03 432.83C227.25 351.22 238.57 276.34 227.23 250.77C215.88 225.21 210.91 206.51 184.22 205.03C176.13 231.7 147.83 325.03 143.79 338.37Z" id="h16ESbPxuI"></path><path d="M296.38 368.75C347.53 456.19 375.94 504.77 381.63 514.49C381.63 514.49 403.64 518.48 415.98 503.94C428.32 489.39 425.08 482.43 421.78 470.75C418.47 459.07 307.9 297.65 307.9 297.65C307.9 297.65 312.75 306.93 305.18 326.02C304 331.72 301.07 345.96 296.38 368.75Z" id="e7hMWu66X"></path><path d="M78.45 375.86C73.98 392.5 83.81 420.47 103.99 405.67C124.16 390.87 132.75 334.01 104.66 344.35C99.42 350.65 82.93 359.21 78.45 375.86Z" id="a1o6oVuLpD"></path><path d="M142.06 218.19C154.5 210.71 150.78 170.75 144.41 163.89C138.04 157.03 132.58 105.34 132.41 93.56C132.24 81.78 87.09 104.46 65.78 149.95C44.48 195.44 41.84 230.88 54.15 213.98C66.46 197.08 78.46 158.97 94 149.03C109.54 139.1 121.78 117.48 122.09 138.69C122.39 159.89 136.6 166.5 122.94 197.59C109.27 228.69 112.44 230.94 108.04 252.3C114.85 245.48 129.62 225.67 142.06 218.19Z" id="b5tqObxLYu"></path><path d="M153.14 8.01C153.14 8.01 134.71 34.55 156.62 31.47C178.54 28.4 211.49 29.68 211.49 29.68C211.49 29.68 214.85 75.85 204.23 70C167.87 49.96 128.77 58.32 107.1 77.88C116.31 63.91 128.09 11.19 153.14 8.01Z" id="ffo5AUkT1"></path><path d="M581.18 321.74C567.25 333.98 557.56 315.44 557.56 315.44C557.56 315.44 605.41 262.02 611.96 280.66C605.81 288.88 595.12 309.5 581.18 321.74Z" id="a2gTZ8HZTp"></path><path d="M614.49 346.59C620.76 346.39 619.39 360.57 604.19 394.08C591.91 421.13 562.36 430.8 562.36 430.8C562.36 430.8 572.08 451.7 572.31 468.2C572.55 484.69 582.37 512.66 540.48 544.68C512.95 565.72 489.01 565.21 489.01 565.21C487.2 558.9 472.66 508.46 470.85 502.16C470.85 502.16 534.89 483.56 551.53 440.59C568.16 397.61 582.3 399.51 561.72 386.04C572.27 378.15 597.17 347.16 614.49 346.59Z" id="dWFtoSkj"></path><path d="M173.09 390.21C168.04 351.82 147.84 343.24 112.49 364.45L67.03 376.48L50.37 412.93" id="bSwdOvqJJ"></path></defs><g><g><g><g><filter id="shadow1706739" x="-11" y="-11" width="665" height="665" filterUnits="userSpaceOnUse" primitiveUnits="userSpaceOnUse"><feFlood></feFlood><feComposite in2="SourceAlpha" operator="in"></feComposite><feGaussianBlur stdDeviation="1"></feGaussianBlur><feOffset dx="3" dy="3" result="afterOffset"></feOffset><feFlood flood-color="#000000" flood-opacity="0.5"></feFlood><feComposite in2="afterOffset" operator="in"></feComposite><feMorphology operator="dilate" radius="1"></feMorphology><feComposite in2="SourceAlpha" operator="out"></feComposite></filter><path d="M639.78 398.14C642.2 390.45 623.86 347.3 623.86 347.3C623.86 347.3 629.93 329.98 625.92 314.89C621.91 299.81 603.67 264.26 603.67 264.26C603.67 264.26 595.95 255.01 559.65 282.82C523.34 310.64 415.78 399.74 415.78 399.74C415.78 399.74 405.88 415.28 388.95 381.6C372 347.91 283.81 200.51 283.81 200.51C283.81 200.51 293.87 93.78 233.27 30.96C163.89 -40.97 76.24 24.67 58.39 103.24C58.39 103.24 61.75 115.54 54.85 120.47C39.51 131.41 0.28 198.33 0 266.83C-0.27 335.31 18.34 397.48 42.79 425.21C42.79 425.21 42.84 516.51 96.24 533.79C149.65 551.08 177.73 479.78 177.73 479.78C177.73 479.78 205.61 482.68 223.08 464.99C234.06 480.61 321.93 605.57 332.91 621.2C332.91 621.2 339.67 651.4 368.55 635.25C397.43 619.09 427.52 599.08 437.5 589.24C447.48 579.41 462.64 577.01 471.49 576.73C480.35 576.44 525.83 571.16 562.78 499.56C578.18 479.28 628.12 435.17 639.78 398.14Z" id="b1shCXgL0D" fill="white" fill-opacity="1" filter="url(#shadow1706739)"></path></g><use xlink:href="#demVMHcCi" opacity="1" fill="#07060f" fill-opacity="1"></use><g><use xlink:href="#demVMHcCi" opacity="1" fill-opacity="0" stroke="#060505" stroke-width="3" stroke-opacity="0"></use></g></g><g><use xlink:href="#h16ESbPxuI" opacity="1" fill="#0e051e" fill-opacity="1"></use><g><use xlink:href="#h16ESbPxuI" opacity="1" fill-opacity="0" stroke="#000000" stroke-width="1" stroke-opacity="0"></use></g></g><g><use xlink:href="#e7hMWu66X" opacity="1" fill="#0c071e" fill-opacity="1"></use><g><use xlink:href="#e7hMWu66X" opacity="1" fill-opacity="0" stroke="#000000" stroke-width="1" stroke-opacity="0"></use></g></g><g><use xlink:href="#a1o6oVuLpD" opacity="1" fill="#fafefb" fill-opacity="1"></use><g><use xlink:href="#a1o6oVuLpD" opacity="1" fill-opacity="0" stroke="#000000" stroke-width="1" stroke-opacity="0"></use></g></g><g><use xlink:href="#b5tqObxLYu" opacity="1" fill="#100526" fill-opacity="1"></use><g><use xlink:href="#b5tqObxLYu" opacity="1" fill-opacity="0" stroke="#000000" stroke-width="1" stroke-opacity="0"></use></g></g><g><use xlink:href="#ffo5AUkT1" opacity="1" fill="#110632" fill-opacity="1"></use><g><use xlink:href="#ffo5AUkT1" opacity="1" fill-opacity="0" stroke="#3d0000" stroke-width="1" stroke-opacity="0"></use></g></g><g><g><filter id="shadow5187088" x="548.56" y="267.72" width="73.4" height="68.21" filterUnits="userSpaceOnUse" primitiveUnits="userSpaceOnUse"><feFlood></feFlood><feComposite in2="SourceAlpha" operator="in"></feComposite><feGaussianBlur stdDeviation="1"></feGaussianBlur><feOffset dx="1" dy="1" result="afterOffset"></feOffset><feFlood flood-color="#000000" flood-opacity="0.5"></feFlood><feComposite in2="afterOffset" operator="in"></feComposite><feMorphology operator="dilate" radius="1"></feMorphology><feComposite in2="SourceAlpha" operator="out"></feComposite></filter><path d="M581.18 321.74C567.25 333.98 557.56 315.44 557.56 315.44C557.56 315.44 605.41 262.02 611.96 280.66C605.81 288.88 595.12 309.5 581.18 321.74Z" id="aHqHJMo5K" fill="white" fill-opacity="1" filter="url(#shadow5187088)"></path></g><use xlink:href="#a2gTZ8HZTp" opacity="1" fill="#fafefb" fill-opacity="1"></use><g><use xlink:href="#a2gTZ8HZTp" opacity="1" fill-opacity="0" stroke="#000000" stroke-width="1" stroke-opacity="0"></use></g><g><filter id="shadow3240039" x="548.56" y="267.72" width="73.4" height="68.21" filterUnits="userSpaceOnUse" primitiveUnits="userSpaceOnUse"><feFlood></feFlood><feComposite in2="SourceAlpha" operator="out"></feComposite><feGaussianBlur stdDeviation="1"></feGaussianBlur><feOffset dx="1" dy="1" result="afterOffset"></feOffset><feFlood flood-color="#000000" flood-opacity="0.5"></feFlood><feComposite in2="afterOffset" operator="in"></feComposite><feMorphology operator="dilate" radius="1"></feMorphology><feComposite in2="SourceAlpha" operator="in"></feComposite></filter><path d="M581.18 321.74C567.25 333.98 557.56 315.44 557.56 315.44C557.56 315.44 605.41 262.02 611.96 280.66C605.81 288.88 595.12 309.5 581.18 321.74Z" id="b2znaXKbz2" fill="white" fill-opacity="1" filter="url(#shadow3240039)"></path></g></g><g><use xlink:href="#dWFtoSkj" opacity="1" fill="#13042c" fill-opacity="1"></use><g><use xlink:href="#dWFtoSkj" opacity="1" fill-opacity="0" stroke="#000000" stroke-width="1" stroke-opacity="0"></use></g></g><g><g><use xlink:href="#bSwdOvqJJ" opacity="1" fill-opacity="0" stroke="#000000" stroke-width="5" stroke-opacity="0"></use></g></g></g></g></svg>