<?xml version="1.0" encoding="utf-8"?>
<!-- Generator: Adobe Illustrator 16.0.0, SVG Export Plug-In . SVG Version: 6.00 Build 0)  -->
<!DOCTYPE svg PUBLIC "-//W3C//DTD SVG 1.1//EN" "http://www.w3.org/Graphics/SVG/1.1/DTD/svg11.dtd">
<svg version="1.1" id="Layer_1" xmlns="http://www.w3.org/2000/svg" xmlns:xlink="http://www.w3.org/1999/xlink" x="0px" y="0px"
	 width="445px" height="445px" viewBox="0 0 445 445" enable-background="new 0 0 445 445" xml:space="preserve">
<g id="wheel-front">
	<path fill="#231F20" d="M368.032,219.343c1.743,80.377-62.003,146.949-142.379,148.693
		c-80.376,1.743-146.95-62.003-148.693-142.379c-1.744-80.375,62.002-146.952,142.378-148.696
		C299.714,75.218,366.288,138.968,368.032,219.343z M435.85,203.338l-20.865,0.444c-0.691-7.182-1.779-14.238-3.231-21.162
		l20.022-5.829c1.34-0.391,2.104-1.79,1.718-3.126l-6.75-23.188c-0.388-1.337-1.787-2.106-3.125-1.716l-20.008,5.822
		c-2.521-6.723-5.392-13.27-8.613-19.609l17.812-10.801c1.192-0.724,1.569-2.271,0.85-3.464l-12.523-20.649
		c-0.72-1.193-2.27-1.572-3.463-0.849l-17.844,10.816c-4.163-5.812-8.638-11.386-13.401-16.692l14.441-15.075
		c0.964-1.008,0.927-2.603-0.077-3.567L363.35,57.989c-1.005-0.966-2.6-0.932-3.566,0.077l-14.438,15.075
		c-5.505-4.533-11.267-8.763-17.254-12.672l10.038-18.289c0.671-1.222,0.224-2.755-0.998-3.425l-21.169-11.62
		c-1.221-0.672-2.754-0.225-3.425,0.997l-10.022,18.256c-6.47-2.946-13.137-5.533-19.963-7.763l4.955-20.232
		c0.331-1.354-0.497-2.719-1.848-3.05l-23.458-5.744c-1.353-0.333-2.718,0.497-3.049,1.85l-4.96,20.249
		c-6.98-1.152-14.08-1.939-21.287-2.32l-0.452-20.856c-0.03-1.393-1.183-2.498-2.576-2.467l-24.142,0.523
		c-1.395,0.03-2.499,1.184-2.469,2.577l0.452,20.856c-7.102,0.686-14.085,1.762-20.935,3.191l-5.805-20.02
		c-0.388-1.342-1.788-2.104-3.129-1.721l-23.188,6.725c-1.34,0.389-2.111,1.788-1.72,3.131l5.799,20.001
		c-6.725,2.515-13.273,5.382-19.616,8.6l-10.78-17.819c-0.724-1.195-2.273-1.568-3.467-0.852l-20.659,12.499
		c-1.192,0.722-1.574,2.274-0.851,3.47l10.795,17.845c-5.815,4.159-11.392,8.631-16.702,13.392L78.4,63.998
		c-1.007-0.967-2.601-0.927-3.567,0.077l-16.72,17.42c-0.967,1.006-0.933,2.604,0.075,3.57l15.057,14.45
		c-4.538,5.502-8.771,11.264-12.686,17.245l-18.278-10.058c-1.224-0.673-2.752-0.222-3.429,0.998l-11.639,21.154
		c-0.672,1.222-0.228,2.756,0.997,3.43l18.248,10.039c-2.953,6.469-5.547,13.132-7.782,19.957l-20.229-4.979
		c-1.355-0.332-2.715,0.499-3.052,1.85l-5.769,23.449c-0.333,1.352,0.496,2.719,1.851,3.054l20.247,4.979
		c-1.158,6.98-1.952,14.078-2.341,21.284l-20.859,0.43c-1.397,0.029-2.494,1.184-2.47,2.578l0.501,24.141
		c0.028,1.394,1.182,2.5,2.577,2.471l20.862-0.432c0.687,7.182,1.771,14.242,3.219,21.166l-20.025,5.813
		c-1.341,0.39-2.102,1.789-1.716,3.128l6.732,23.188c0.386,1.339,1.788,2.109,3.129,1.719l20.005-5.808
		c2.518,6.724,5.386,13.272,8.604,19.613l-17.82,10.79c-1.194,0.724-1.565,2.271-0.85,3.466l12.508,20.653
		c0.72,1.195,2.271,1.575,3.468,0.852l17.844-10.805c4.16,5.817,8.633,11.391,13.396,16.698l-14.453,15.069
		c-0.966,1.008-0.926,2.601,0.077,3.567l17.427,16.712c1.006,0.968,2.604,0.935,3.571-0.075l14.447-15.064
		c5.503,4.537,11.262,8.768,17.246,12.682l-10.053,18.284c-0.671,1.227-0.22,2.752,0.998,3.427l21.159,11.632
		c1.223,0.674,2.757,0.228,3.43-0.996l10.033-18.251c6.471,2.949,13.134,5.541,19.958,7.773l-4.97,20.234
		c-0.333,1.355,0.498,2.714,1.851,3.051l23.448,5.757c1.354,0.336,2.724-0.492,3.054-1.849l4.976-20.248
		c6.979,1.155,14.076,1.947,21.281,2.333l0.437,20.862c0.03,1.396,1.186,2.492,2.578,2.468l24.141-0.51
		c1.396-0.027,2.5-1.182,2.47-2.577l-0.437-20.862c7.181-0.688,14.24-1.777,21.165-3.226l5.82,20.023
		c0.392,1.34,1.789,2.102,3.128,1.718l23.187-6.74c1.339-0.389,2.108-1.789,1.717-3.13l-5.812-20.005
		c6.724-2.52,13.269-5.39,19.608-8.61l10.796,17.816c0.724,1.192,2.274,1.567,3.467,0.85l20.65-12.514
		c1.194-0.722,1.575-2.272,0.851-3.466l-10.812-17.846c5.813-4.163,11.386-8.635,16.694-13.398l15.072,14.446
		c1.01,0.965,2.602,0.927,3.569-0.077l16.708-17.432c0.965-1.005,0.934-2.603-0.076-3.567l-15.071-14.448
		c4.533-5.504,8.763-11.266,12.674-17.249l18.291,10.046c1.225,0.67,2.752,0.222,3.426-0.997l11.627-21.164
		c0.671-1.221,0.228-2.756-0.998-3.427l-18.257-10.03c2.945-6.471,5.536-13.136,7.766-19.958l20.239,4.962
		c1.355,0.332,2.715-0.498,3.05-1.85l5.751-23.454c0.334-1.352-0.492-2.718-1.85-3.051l-20.253-4.969
		c1.153-6.978,1.942-14.076,2.323-21.279l20.867-0.448c1.395-0.029,2.495-1.184,2.469-2.576l-0.519-24.143
		C438.399,204.411,437.247,203.308,435.85,203.338z"/>
	<path fill="#48BC3B" d="M219.338,76.961C138.962,78.705,75.216,145.282,76.96,225.657c1.743,80.376,68.316,144.122,148.693,142.379
		c80.376-1.744,144.122-68.316,142.379-148.693C366.288,138.968,299.714,75.218,219.338,76.961z M225.238,348.912
		C155.424,350.426,97.6,295.056,96.085,225.241S149.939,97.603,219.753,96.087c69.814-1.514,127.637,53.855,129.152,123.67
		S295.051,347.397,225.238,348.912z"/>
	<path fill="#48993B" d="M219.753,96.087c-69.813,1.516-125.183,59.34-123.668,129.154s59.339,125.185,129.153,123.671
		c69.813-1.515,125.182-59.341,123.667-129.155S289.567,94.573,219.753,96.087z M105.935,190.823
		c2.356-11.369,6.143-20.698,9.255-26.456c3.116-5.756,8.853-14.026,17.077-22.222c5.413-5.395,15.853-8.275,22.619-2.089
		c6.92,6.327,14.984,13.582,16.658,18.28c1.345,3.774-0.445,8.608-3.062,12.667c-2.617,4.065-12.255,14.864-12.255,14.864
		l-0.585,1.082c0,0-3.766,13.974-5.732,18.388c-1.968,4.415-5.033,8.557-8.929,9.497c-4.846,1.169-15.334-1.609-24.415-3.936
		C107.683,208.62,104.386,198.304,105.935,190.823z M175.021,289.203c-1.418,4.78-9.076,12.464-15.639,19.156
		c-6.423,6.546-17.006,4.23-22.703-0.857c-8.656-7.737-14.836-15.686-18.26-21.265c-3.418-5.58-7.701-14.689-10.672-25.912
		c-1.957-7.389,0.778-17.867,9.525-20.623c8.941-2.818,19.263-6.162,24.166-5.256c3.94,0.729,7.227,4.696,9.428,8.996
		c2.205,4.302,6.727,18.052,6.727,18.052l0.643,1.051c0,0,10.205,10.259,13.038,14.173
		C174.109,280.633,176.157,285.361,175.021,289.203z M192.358,105.532c11.043-3.576,21.023-4.905,27.566-5.047
		c6.543-0.143,16.571,0.754,27.759,3.848c7.366,2.036,15.039,9.682,13.008,18.623c-2.074,9.144-4.391,19.742-7.645,23.52
		c-2.616,3.035-7.701,3.873-12.525,3.607c-4.826-0.268-18.977-3.296-18.977-3.296l-1.231,0.026c0,0-14.008,3.641-18.814,4.115
		c-4.809,0.476-9.925-0.141-12.67-3.061c-3.417-3.633-6.188-14.121-8.658-23.166C177.755,115.858,185.088,107.887,192.358,105.532z
		 M253.059,339.357c-11.031,3.615-21.007,4.98-27.55,5.146c-6.544,0.163-16.574-0.694-27.773-3.746
		c-7.374-2.01-15.071-9.627-13.072-18.577c2.04-9.149,4.313-19.757,7.558-23.547c2.603-3.045,7.686-3.9,12.51-3.652
		c4.825,0.248,18.991,3.227,18.991,3.227l1.231-0.032c0,0,13.991-3.689,18.8-4.183c4.809-0.492,9.926,0.105,12.683,3.016
		c3.425,3.621,6.239,14.099,8.741,23.132C267.624,328.979,260.319,336.977,253.059,339.357z M270.215,155.968
		c1.431-4.774,9.12-12.43,15.707-19.099c6.445-6.521,17.02-4.169,22.699,0.94c8.628,7.768,14.775,15.738,18.178,21.331
		c3.403,5.593,7.653,14.718,10.582,25.951c1.927,7.394-0.845,17.865-9.602,20.588c-8.95,2.783-19.282,6.092-24.183,5.167
		c-3.939-0.742-7.211-4.722-9.399-9.031c-2.187-4.308-6.654-18.074-6.654-18.074l-0.641-1.053c0,0-10.169-10.297-12.99-14.221
		C271.094,164.544,269.061,159.81,270.215,155.968z M329.588,281.021c-3.136,5.745-8.902,13.995-17.154,22.159
		c-5.434,5.372-15.884,8.219-22.629,2.006c-6.895-6.353-14.935-13.635-16.589-18.34c-1.334-3.78,0.474-8.606,3.104-12.657
		c2.636-4.053,12.309-14.819,12.309-14.819l0.592-1.078c0,0,3.814-13.961,5.799-18.369c1.98-4.404,5.062-8.536,8.963-9.463
		c4.849-1.15,15.327,1.664,24.398,4.027c8.876,2.309,12.135,12.638,10.559,20.113C336.542,265.959,332.725,275.275,329.588,281.021z
		"/>
	<g>
		<path fill="#ABDDA5" d="M259.313,338.974c7.259-2.381,14.562-10.379,12.118-19.217c-2.505-9.033-5.317-19.511-8.742-23.132
			c-2.034-2.146-5.353-3.027-8.883-3.148c0.853,0.439,1.624,0.976,2.26,1.644c3.424,3.622,6.236,14.1,8.741,23.133
			c2.446,8.838-4.859,16.836-12.118,19.218c-11.032,3.613-21.006,4.979-27.55,5.146c-4.886,0.121-11.714-0.327-19.519-1.831
			c10.533,2.7,19.921,3.491,26.142,3.335C238.305,343.954,248.281,342.589,259.313,338.974z"/>
		<path fill="#ABDDA5" d="M245.357,101.943c0.652,0.167,1.295,0.317,1.958,0.501c7.364,2.036,15.037,9.682,13.007,18.624
			c-2.075,9.144-4.39,19.742-7.644,23.52c-2.617,3.036-7.701,3.874-12.525,3.608c-4.825-0.268-18.978-3.295-18.978-3.295
			l-1.231,0.026c0,0-14.008,3.64-18.815,4.114c-1.245,0.123-2.508,0.168-3.746,0.125c2.838,1.457,6.688,1.742,10.369,1.379
			c4.809-0.475,18.816-4.115,18.816-4.115l1.231-0.026c0,0,14.151,3.03,18.977,3.296c4.823,0.266,9.908-0.571,12.525-3.609
			c3.254-3.777,5.57-14.375,7.646-23.518c2.029-8.941-5.643-16.587-13.008-18.625C250.979,103.13,248.111,102.476,245.357,101.943z"
			/>
		<path fill="#ABDDA5" d="M343.633,184.709c-2.929-11.233-7.178-20.358-10.58-25.951c-3.403-5.593-9.553-13.563-18.179-21.331
			c-3.069-2.76-7.568-4.701-12.069-4.887c2.05,0.855,3.926,2.016,5.446,3.383c8.629,7.768,14.776,15.738,18.18,21.33
			c3.4,5.594,7.651,14.719,10.58,25.951c1.928,7.394-0.845,17.865-9.6,20.587c-7.229,2.249-15.352,4.835-20.793,5.265
			c1.018,0.685,2.092,1.195,3.232,1.408c4.9,0.925,15.23-2.383,24.183-5.168C342.79,202.573,345.56,192.103,343.633,184.709z"/>
		<path fill="#ABDDA5" d="M318.686,302.799c8.253-8.165,14.02-16.416,17.155-22.161s6.952-15.062,9.352-26.42
			c1.576-7.477-1.683-17.805-10.558-20.115c-4.448-1.158-9.232-2.423-13.526-3.276c2.314,0.573,4.653,1.187,6.903,1.772
			c8.872,2.31,12.134,12.639,10.558,20.114c-2.397,11.359-6.215,20.675-9.351,26.421s-8.902,13.998-17.156,22.16
			c-3.221,3.185-8.206,5.463-13.137,5.51C305.492,310.206,313.974,307.455,318.686,302.799z"/>
		<path fill="#ABDDA5" d="M83.211,225.274C81.468,144.899,145.215,78.321,225.59,76.578c11.018-0.239,21.774,0.761,32.143,2.857
			c-12.384-3.116-25.38-4.651-38.766-4.361C138.59,76.818,74.846,143.396,76.59,223.769c1.504,69.359,51.284,126.327,116.55,139.523
			C131.16,347.695,84.665,292.267,83.211,225.274z"/>
		<path fill="#ABDDA5" d="M159.012,306.472c-2.973,3.03-6.838,4.145-10.693,3.98c5.626,2.351,12.592,2.337,17.315-2.477
			c6.563-6.692,14.223-14.375,15.64-19.156c1.138-3.842-0.911-8.569-3.748-12.485c-2.832-3.914-13.038-14.173-13.038-14.173
			l-0.642-1.05c0,0-4.522-13.75-6.726-18.053c-2.203-4.299-5.488-8.268-9.428-8.995c-0.938-0.174-2.075-0.189-3.357-0.084
			c2.491,1.678,4.604,4.531,6.16,7.576c2.207,4.301,6.726,18.052,6.726,18.052l0.644,1.05c0,0,10.204,10.259,13.04,14.174
			c2.835,3.914,4.882,8.644,3.746,12.484C173.232,292.096,165.573,299.78,159.012,306.472z"/>
		<path fill="#ABDDA5" d="M147.235,214.45c3.895-0.939,6.96-5.08,8.927-9.496c1.967-4.413,5.733-18.389,5.733-18.389l0.584-1.08
			c0,0,9.639-10.799,12.255-14.864c2.617-4.059,4.407-8.892,3.062-12.667c-1.673-4.699-9.738-11.953-16.658-18.281
			c-2.738-2.504-6.078-3.504-9.445-3.471c0.991,0.513,1.938,1.158,2.823,1.967c6.918,6.326,14.985,13.581,16.656,18.281
			c1.346,3.774-0.442,8.607-3.061,12.666c-2.618,4.066-12.254,14.865-12.254,14.865l-0.587,1.081c0,0-3.764,13.974-5.731,18.387
			c-1.966,4.416-5.033,8.557-8.928,9.499c-2.573,0.621-6.744,0.124-11.442-0.824C136.39,213.903,143.492,215.354,147.235,214.45z"/>
	</g>
	<path fill="#3C4142" d="M218.791,51.765C124.5,53.811,49.72,131.914,51.766,226.203c2.045,94.291,80.142,169.073,174.433,167.028
		c94.291-2.046,169.07-80.145,167.025-174.436C391.178,124.507,313.083,49.72,218.791,51.765z M225.653,368.036
		c-80.376,1.743-146.95-62.003-148.693-142.379c-1.744-80.375,62.002-146.952,142.378-148.696
		c80.376-1.744,146.95,62.006,148.694,142.381C369.775,299.72,306.029,366.292,225.653,368.036z"/>
	<circle fill="#231F20" cx="222.495" cy="222.5" r="77.251"/>
</g>
</svg>
