<?xml version="1.0" encoding="UTF-8" standalone="no"?>
<!DOCTYPE svg PUBLIC "-//W3C//DTD SVG 1.1//EN" "http://www.w3.org/Graphics/SVG/1.1/DTD/svg11.dtd">
<svg version="1.1" xmlns="http://www.w3.org/2000/svg" xmlns:xlink="http://www.w3.org/1999/xlink" preserveAspectRatio="xMidYMid meet" viewBox="0 0 640 640" width="640" height="640"><defs><path d="M408.03 165.38L454.35 203.27L470.14 239.06L468.03 270.64L446.98 270.64L426.98 283.27L398.56 332.74L395.4 360.11L398.56 394.85L358.56 394.85L296.46 394.85L301.72 385.38L301.72 360.11L290.14 340.11L246.98 312.74L239.93 296.96L313.3 319.06L348.03 283.27L339.61 275.88L279.61 256.96L290.14 243.27L325.93 220.11L390.14 203.27L398.56 192.74L395.4 182.22L374.35 170.64L358.56 165.38L296.46 153.8L408.03 165.38Z" id="atefHyb8Z"></path><path d="M429.09 265.38L460.67 259.06L460.67 236.96L409.09 214.85L313.3 248.53L429.09 265.38Z" id="aJWNnk8df"></path><path d="M395.4 359.06L348.03 342.22L372.25 333.8L334.35 325.38L361.72 315.9L328.03 300.11" id="g4dGlTt4JV"></path><path d="M396.47 372.53L352.15 355L376.42 344.49L336.32 337.47L362.7 325.79L322.6 307.09" id="eDFS3M7ym"></path><path d="M330.46 311.42L313.3 329.59L257.96 309.42L243.96 298.42" id="d8x5zJCmkd"></path><path d="M355.03 212.92L328.03 225.92L294.46 248.42L291.96 254.42L344.96 271.42L357.46 284.42L338.46 302.92" id="e9urUYeH0"></path><path d="M439.96 187.05L413.96 159.05L341.96 126.05L302.96 126.05L281.96 146.05L297.96 153.8" id="dsZoUDnqE"></path><path d="M397.73 290.12L387.88 288.22L390.32 284.2C390.16 284.16 390.06 284.15 390.05 284.14C389.55 284.05 389.11 283.78 388.8 283.39C388.79 283.37 388.73 283.3 388.62 283.17L386.18 287.19L379.95 279.33L382.99 274.33L381.68 272.68C379.66 276.01 378.53 277.86 378.31 278.23C377.84 279 377.9 279.99 378.45 280.69C379.13 281.54 384.56 288.39 385.24 289.25C385.55 289.64 385.99 289.91 386.49 290C387.56 290.21 396.14 291.87 397.22 292.08C398.09 292.25 399 291.84 399.47 291.06C399.69 290.69 400.81 288.84 402.84 285.51L400.76 285.11L397.73 290.12Z" id="b2gaQH6SmN"></path><path d="M387.02 295.73C387.6 294.78 387.31 293.55 386.37 292.98C386 292.75 383.04 290.95 382.67 290.73C381.73 290.16 380.51 290.47 379.93 291.42C379.37 292.34 376.58 296.93 371.57 305.2L373.26 306.23L379.47 296L384.87 299.28L385.91 297.55L380.51 294.28L381.62 292.45C384.86 294.42 386.66 295.51 387.02 295.73Z" id="b6slTaqFym"></path><path d="M371.69 308.81C370.75 308.24 370.47 307.02 371.04 306.06C371.04 306.06 371.04 306.06 371.04 306.06L376.41 309.32L382.63 299.07L384.33 300.1C380.59 306.25 378.52 309.67 378.1 310.35C377.53 311.29 376.3 311.61 375.37 311.04C374.63 310.6 372.06 309.04 371.69 308.81Z" id="jy4TLk3iH"></path><path d="M389.37 267.63C389.1 267.58 386.96 267.17 386.69 267.11C385.81 266.94 384.91 267.35 384.44 268.13C384.4 268.19 384.2 268.52 383.84 269.11L385.15 270.76L386.18 269.07C387.86 269.39 388.78 269.57 388.97 269.6C394.19 270.62 398.88 273.46 402.19 277.63C402.31 277.78 402.9 278.52 403.96 279.85L402.93 281.55L405 281.95C405.36 281.36 405.56 281.03 405.6 280.97C406.07 280.19 406.01 279.2 405.45 278.5C405.34 278.36 404.78 277.65 403.76 276.37C397.96 271.28 393.16 268.36 389.37 267.63Z" id="b3wIOFv4i"></path><path d="M383.9 277.74L386.77 281.36L385.95 282.7L383.08 279.07L383.9 277.74M381.35 279.2L386.1 285.2L388.5 281.23L383.75 275.24L383.75 275.24L381.35 279.2Z" id="b5UcKxu3lE"></path><path d="M397.28 285.86L396.46 287.2L391.92 286.32L392.74 284.98L397.28 285.86M392.05 283.38L389.64 287.35L397.15 288.79L399.56 284.83L399.56 284.83L392.05 283.38Z" id="ef683QQTx"></path><path d="M382.4 268.74C382.6 268.57 382.77 268.36 382.91 268.13C382.91 268.12 382.97 268.02 382.98 268.01C383.76 266.72 383.37 265.04 382.1 264.28C381.82 264.11 379.61 262.77 379.34 262.6C378.07 261.84 376.4 262.26 375.62 263.55C375.61 263.56 375.55 263.66 375.54 263.67C374.76 264.96 375.15 266.63 376.42 267.4C376.7 267.57 378.91 268.91 379.19 269.08C379.56 269.31 379.98 269.43 380.4 269.46C380.7 269.84 382.21 271.74 384.93 275.18L386.04 273.34C383.86 270.58 382.65 269.05 382.4 268.74ZM380.23 267.36C379.95 267.19 377.74 265.85 377.47 265.68C377.14 265.48 377.03 265.04 377.24 264.7C377.24 264.69 377.3 264.59 377.31 264.58C377.51 264.24 377.95 264.12 378.29 264.33C378.56 264.5 380.77 265.84 381.05 266.01C381.38 266.21 381.49 266.65 381.28 266.99C381.28 267 381.25 267.04 381.21 267.11C380.78 267.41 380.46 267.5 380.23 267.36Z" id="aFK7bLIlR"></path><path d="M410 281.31C408.73 280.54 407.06 280.97 406.28 282.26C406.27 282.27 406.21 282.36 406.2 282.38C406.06 282.61 405.96 282.85 405.89 283.11C405.51 283.03 403.59 282.66 400.13 282L399.02 283.83C403.32 284.66 405.71 285.13 406.19 285.22C406.41 285.58 406.71 285.89 407.09 286.12C407.36 286.29 409.57 287.63 409.85 287.8C411.12 288.57 412.79 288.14 413.57 286.86C413.57 286.84 413.63 286.75 413.64 286.74C414.42 285.44 414.03 283.76 412.76 282.99C412.21 282.65 410.27 281.48 410 281.31ZM410.89 286.06C410.62 285.9 408.41 284.56 408.13 284.39C407.8 284.19 407.69 283.75 407.9 283.4C407.9 283.39 407.96 283.3 407.97 283.28C408.17 282.95 408.61 282.83 408.95 283.03C409.23 283.2 411.44 284.54 411.71 284.71C412.04 284.91 412.15 285.35 411.95 285.7C411.94 285.7 411.92 285.74 411.87 285.82C411.44 286.12 411.12 286.2 410.89 286.06Z" id="aQOQX3EIZ"></path><path d="M374.04 299.51L381.98 286.43L381.04 285.24C376.56 292.62 374.07 296.72 373.58 297.54C373.16 298.22 373.37 299.1 374.04 299.51C374.04 299.51 374.04 299.51 374.04 299.51Z" id="dL7VYk76f"></path><path d="M382.51 304.65C383.18 305.06 384.06 304.83 384.47 304.15C384.97 303.33 387.45 299.24 391.93 291.87L390.44 291.58L382.51 304.65C382.51 304.65 382.51 304.65 382.51 304.65Z" id="a1QGTfuF6"></path><path d="" id="b1QqIQO9Ij"></path><path d="M484.54 328.16L502.94 305.41L540.88 290.41L523.63 278.69L466.72 278.69L443.73 278.69L433.96 284.16L484.54 328.16Z" id="dgwOxAWb9"></path><path d="M422.96 285.05L433.96 282.05L477.96 323.8L492.96 336.05L489.96 359.06L472.96 365.05L452.96 359.06L409.96 314L422.96 285.05Z" id="azTiASJdV"></path><path d="M439.96 286.05L446.96 290.05C445.12 295.78 441.79 301.46 436.96 307.09C432.12 312.71 425.79 318.28 417.96 323.8L409.96 321.05" id="bgskxH2ii"></path><path d="M444.96 291.05L451.96 295.05C450.12 300.78 446.79 306.46 441.96 312.09C437.12 317.71 430.79 323.28 422.96 328.8L414.96 326.05" id="f1aqG14jRS"></path><path d="M449.96 296.05L456.96 300.05C455.12 305.78 451.79 311.46 446.96 317.09C442.12 322.71 435.79 328.28 427.96 333.8L419.96 331.05" id="chFe35eVD"></path><path d="M454.96 301.05L461.96 305.05C460.12 310.78 456.79 316.46 451.96 322.09C447.12 327.71 440.79 333.28 432.96 338.8L424.96 336.05" id="bizFQ3fCo"></path><path d="M459.96 306.05L466.96 310.05C465.12 315.78 461.79 321.46 456.96 327.09C452.12 332.71 445.79 338.28 437.96 343.8L429.96 341.05" id="joQ9bGMrF"></path><path d="M464.96 311.05L471.96 315.05C470.12 320.78 466.79 326.46 461.96 332.09C457.12 337.71 450.79 343.28 442.96 348.8L434.96 346.05" id="c7aBjzPLKT"></path><path d="M480.52 342.47L480.54 342.47L480.56 342.47L480.58 342.48L480.6 342.48L480.62 342.49L480.64 342.5L480.66 342.51L480.68 342.51L480.7 342.53L480.71 342.54L480.73 342.55L480.75 342.56L480.76 342.57L480.78 342.59L480.79 342.6L480.81 342.62L480.82 342.64L480.83 342.65L480.85 342.67L480.86 342.69L480.87 342.71L480.89 342.73L480.9 342.75L480.91 342.77L480.92 342.79L480.93 342.81L480.94 342.84L480.95 342.86L480.96 342.88L480.98 342.91L480.99 342.93L481 342.95L481.01 342.98L481.02 343.01L481.03 343.03L481.04 343.06L481.05 343.08L481.06 343.11L481.56 344.79L481.72 344.83L482.08 344.94L482.42 345.06L482.76 345.19L483.09 345.34L483.12 345.35L484.83 344.48L484.86 344.47L484.89 344.45L484.92 344.44L484.95 344.43L484.97 344.42L485 344.41L485.03 344.4L485.05 344.39L485.08 344.38L485.11 344.37L485.13 344.36L485.16 344.35L485.18 344.34L485.21 344.33L485.24 344.32L485.26 344.32L485.28 344.31L485.31 344.3L485.33 344.3L485.36 344.29L485.38 344.29L485.4 344.29L485.43 344.29L485.45 344.28L485.47 344.28L485.49 344.28L485.52 344.29L485.54 344.29L485.56 344.29L485.58 344.29L485.6 344.3L485.62 344.3L485.64 344.31L485.66 344.32L485.68 344.33L485.7 344.34L485.71 344.35L485.73 344.36L485.75 344.37L485.77 344.39L488.26 346.58L488.28 346.6L488.29 346.61L488.31 346.63L488.32 346.64L488.33 346.66L488.34 346.68L488.35 346.7L488.36 346.71L488.37 346.73L488.37 346.75L488.38 346.77L488.38 346.79L488.38 346.81L488.39 346.83L488.39 346.85L488.39 346.87L488.39 346.89L488.38 346.91L488.38 346.93L488.38 346.95L488.37 346.97L488.37 346.99L488.36 347.02L488.35 347.04L488.35 347.06L488.34 347.08L488.33 347.1L488.32 347.13L488.31 347.15L488.3 347.17L488.29 347.19L488.27 347.22L488.26 347.24L488.25 347.26L488.23 347.29L488.22 347.31L488.2 347.33L488.19 347.36L488.17 347.38L488.16 347.4L487.17 348.91L487.19 348.94L487.35 349.23L487.5 349.53L487.64 349.83L487.77 350.14L487.82 350.28L489.72 350.73L489.75 350.74L489.78 350.74L489.81 350.75L489.84 350.76L489.87 350.77L489.9 350.77L489.93 350.78L489.95 350.79L489.98 350.8L490.01 350.81L490.03 350.82L490.06 350.82L490.08 350.83L490.11 350.84L490.13 350.86L490.15 350.87L490.18 350.88L490.2 350.89L490.22 350.9L490.24 350.91L490.26 350.93L490.28 350.94L490.3 350.95L490.31 350.97L490.33 350.98L490.35 351L490.36 351.01L490.37 351.03L490.39 351.04L490.4 351.06L490.41 351.07L490.42 351.09L490.43 351.11L490.43 351.13L490.44 351.15L490.45 351.17L490.45 351.19L490.45 351.21L490.46 351.23L490.46 351.25L490.46 354.35L490.46 354.37L490.45 354.39L490.45 354.41L490.45 354.43L490.44 354.45L490.43 354.46L490.43 354.48L490.42 354.5L490.41 354.52L490.4 354.53L490.39 354.55L490.37 354.56L490.36 354.58L490.35 354.59L490.33 354.61L490.31 354.62L490.3 354.63L490.28 354.64L490.26 354.66L490.24 354.67L490.22 354.68L490.2 354.69L490.18 354.7L490.15 354.71L490.13 354.72L490.11 354.74L490.08 354.75L490.06 354.76L490.03 354.77L490.01 354.77L489.98 354.78L489.95 354.79L489.93 354.8L489.9 354.81L489.87 354.82L489.84 354.83L489.81 354.84L489.78 354.85L489.75 354.86L489.72 354.86L487.82 355.31L487.77 355.45L487.64 355.76L487.5 356.07L487.35 356.36L487.19 356.66L487.17 356.69L488.16 358.19L488.17 358.21L488.19 358.23L488.2 358.26L488.22 358.28L488.23 358.3L488.25 358.33L488.26 358.35L488.27 358.37L488.29 358.39L488.3 358.42L488.31 358.44L488.32 358.46L488.33 358.49L488.34 358.51L488.35 358.53L488.35 358.55L488.36 358.57L488.37 358.6L488.37 358.62L488.38 358.64L488.38 358.66L488.38 358.68L488.39 358.7L488.39 358.72L488.39 358.74L488.39 358.76L488.38 358.78L488.38 358.8L488.38 358.82L488.37 358.84L488.37 358.86L488.36 358.88L488.35 358.89L488.34 358.91L488.33 358.93L488.32 358.94L488.31 358.96L488.29 358.98L488.28 358.99L488.26 359.01L485.77 361.2L485.75 361.21L485.73 361.23L485.71 361.24L485.7 361.25L485.68 361.26L485.66 361.27L485.64 361.28L485.62 361.28L485.6 361.29L485.58 361.29L485.56 361.3L485.54 361.3L485.52 361.3L485.49 361.3L485.47 361.3L485.45 361.3L485.43 361.3L485.4 361.3L485.38 361.3L485.36 361.29L485.33 361.29L485.31 361.28L485.28 361.28L485.26 361.27L485.24 361.27L485.21 361.26L485.18 361.25L485.16 361.24L485.13 361.23L485.11 361.22L485.08 361.21L485.05 361.2L485.03 361.19L485 361.18L484.97 361.17L484.95 361.16L484.92 361.15L484.89 361.13L484.86 361.12L484.83 361.11L483.13 360.24L483.09 360.26L482.76 360.4L482.42 360.53L482.08 360.66L481.72 360.77L481.56 360.81L481.06 362.48L481.05 362.51L481.04 362.54L481.03 362.56L481.02 362.59L481.01 362.62L481 362.64L480.99 362.66L480.98 362.69L480.96 362.71L480.95 362.74L480.94 362.76L480.93 362.78L480.92 362.8L480.91 362.83L480.9 362.85L480.89 362.87L480.87 362.89L480.86 362.91L480.85 362.92L480.83 362.94L480.82 362.96L480.81 362.98L480.79 362.99L480.78 363.01L480.76 363.02L480.75 363.03L480.73 363.05L480.71 363.06L480.7 363.07L480.68 363.08L480.66 363.09L480.64 363.1L480.62 363.11L480.6 363.11L480.58 363.12L480.56 363.12L480.54 363.13L480.52 363.13L480.49 363.13L480.47 363.13L476.94 363.13L476.92 363.13L476.9 363.13L476.87 363.13L476.85 363.12L476.83 363.12L476.81 363.11L476.79 363.11L476.77 363.1L476.75 363.09L476.73 363.08L476.71 363.07L476.69 363.06L476.67 363.05L476.66 363.03L476.64 363.02L476.62 363.01L476.61 362.99L476.59 362.98L476.58 362.96L476.56 362.94L476.55 362.92L476.54 362.91L476.52 362.89L476.51 362.87L476.5 362.85L476.49 362.83L476.47 362.8L476.46 362.78L476.45 362.76L476.44 362.74L476.43 362.71L476.42 362.69L476.41 362.66L476.4 362.64L476.39 362.62L476.39 362.59L476.38 362.56L476.37 362.54L476.36 362.51L476.36 362.48L475.85 360.81L475.69 360.77L475.34 360.66L474.99 360.53L474.65 360.4L474.32 360.26L474.28 360.24L472.58 361.1L472.55 361.12L472.53 361.13L472.5 361.14L472.47 361.16L472.45 361.17L472.42 361.18L472.39 361.19L472.37 361.21L472.34 361.22L472.32 361.23L472.29 361.24L472.26 361.25L472.24 361.25L472.21 361.26L472.19 361.27L472.16 361.28L472.14 361.28L472.11 361.29L472.09 361.29L472.06 361.3L472.04 361.3L472.02 361.3L471.99 361.3L471.97 361.3L471.95 361.3L471.92 361.3L471.9 361.3L471.88 361.3L471.86 361.3L471.84 361.29L471.82 361.29L471.79 361.28L471.77 361.27L471.75 361.27L471.73 361.26L471.72 361.25L471.7 361.23L471.68 361.22L471.66 361.21L471.64 361.19L469.15 359L469.13 358.99L469.12 358.97L469.11 358.96L469.09 358.94L469.08 358.92L469.07 358.91L469.06 358.89L469.06 358.87L469.05 358.85L469.04 358.84L469.04 358.82L469.04 358.8L469.03 358.78L469.03 358.76L469.03 358.74L469.03 358.72L469.03 358.7L469.04 358.68L469.04 358.66L469.04 358.64L469.05 358.62L469.05 358.6L469.06 358.58L469.07 358.56L469.08 358.53L469.08 358.51L469.09 358.49L469.1 358.47L469.11 358.44L469.12 358.42L469.14 358.4L469.15 358.37L469.16 358.35L469.17 358.33L469.19 358.3L469.2 358.28L469.21 358.25L469.23 358.23L469.24 358.2L469.25 358.18L470.24 356.68L470.22 356.66L470.06 356.36L469.91 356.07L469.77 355.76L469.65 355.45L469.6 355.31L467.69 354.86L467.66 354.86L467.63 354.85L467.6 354.84L467.57 354.83L467.54 354.82L467.51 354.81L467.49 354.8L467.46 354.79L467.43 354.78L467.4 354.77L467.38 354.77L467.35 354.76L467.33 354.75L467.3 354.74L467.28 354.72L467.26 354.71L467.23 354.7L467.21 354.69L467.19 354.68L467.17 354.67L467.15 354.66L467.13 354.64L467.11 354.63L467.1 354.62L467.08 354.61L467.07 354.59L467.05 354.58L467.04 354.56L467.03 354.55L467.01 354.53L467 354.52L466.99 354.5L466.98 354.48L466.98 354.46L466.97 354.45L466.97 354.43L466.96 354.41L466.96 354.39L466.96 354.37L466.96 354.35L466.96 351.25L466.96 351.23L466.96 351.21L466.96 351.19L466.97 351.17L466.97 351.15L466.98 351.13L466.98 351.11L466.99 351.09L467 351.07L467.01 351.06L467.03 351.04L467.04 351.03L467.05 351.01L467.07 351L467.08 350.98L467.1 350.97L467.11 350.95L467.13 350.94L467.15 350.93L467.17 350.91L467.19 350.9L467.21 350.89L467.23 350.88L467.26 350.87L467.28 350.86L467.3 350.84L467.33 350.83L467.35 350.82L467.38 350.82L467.4 350.81L467.43 350.8L467.46 350.79L467.49 350.78L467.51 350.77L467.54 350.77L467.57 350.76L467.6 350.75L467.63 350.74L467.66 350.74L467.69 350.73L469.6 350.28L469.65 350.14L469.77 349.83L469.91 349.53L470.06 349.23L470.22 348.94L470.24 348.91L469.25 347.41L469.24 347.38L469.23 347.36L469.21 347.33L469.2 347.31L469.19 347.29L469.17 347.26L469.16 347.24L469.15 347.21L469.14 347.19L469.12 347.17L469.11 347.14L469.1 347.12L469.09 347.1L469.08 347.08L469.08 347.06L469.07 347.03L469.06 347.01L469.05 346.99L469.05 346.97L469.04 346.95L469.04 346.93L469.04 346.91L469.03 346.89L469.03 346.87L469.03 346.85L469.03 346.83L469.03 346.81L469.04 346.79L469.04 346.77L469.04 346.75L469.05 346.74L469.06 346.72L469.06 346.7L469.07 346.68L469.08 346.67L469.09 346.65L469.11 346.63L469.12 346.62L469.13 346.6L469.15 346.59L471.64 344.39L471.66 344.38L471.68 344.37L471.7 344.35L471.72 344.34L471.73 344.33L471.75 344.32L471.77 344.32L471.79 344.31L471.82 344.3L471.84 344.3L471.86 344.29L471.88 344.29L471.9 344.29L471.92 344.28L471.95 344.28L471.97 344.28L471.99 344.28L472.02 344.29L472.04 344.29L472.06 344.29L472.09 344.3L472.11 344.3L472.14 344.31L472.16 344.31L472.19 344.32L472.21 344.33L472.24 344.33L472.26 344.34L472.29 344.35L472.32 344.36L472.34 344.37L472.37 344.38L472.39 344.39L472.42 344.41L472.45 344.42L472.47 344.43L472.5 344.44L472.53 344.46L472.55 344.47L472.58 344.49L474.28 345.35L474.32 345.34L474.65 345.19L474.99 345.06L475.34 344.94L475.69 344.83L475.85 344.79L476.36 343.11L476.36 343.08L476.37 343.06L476.38 343.03L476.39 343.01L476.39 342.98L476.4 342.95L476.41 342.93L476.42 342.91L476.43 342.88L476.44 342.86L476.45 342.84L476.46 342.81L476.47 342.79L476.49 342.77L476.5 342.75L476.51 342.73L476.52 342.71L476.54 342.69L476.55 342.67L476.56 342.65L476.58 342.64L476.59 342.62L476.61 342.6L476.62 342.59L476.64 342.57L476.66 342.56L476.67 342.55L476.69 342.54L476.71 342.53L476.73 342.51L476.75 342.51L476.77 342.5L476.79 342.49L476.81 342.48L476.83 342.48L476.85 342.47L476.87 342.47L476.9 342.47L476.92 342.46L476.94 342.46L480.47 342.46L480.49 342.46L480.52 342.47ZM478.28 348.29L478.08 348.31L477.87 348.34L477.67 348.37L477.47 348.41L477.27 348.45L477.08 348.51L476.89 348.57L476.7 348.63L476.52 348.7L476.34 348.78L476.17 348.86L476 348.95L475.83 349.05L475.67 349.15L475.51 349.25L475.36 349.36L475.21 349.48L475.07 349.6L474.93 349.73L474.8 349.86L474.68 349.99L474.56 350.13L474.44 350.27L474.34 350.42L474.23 350.57L474.14 350.72L474.05 350.88L473.97 351.04L473.89 351.2L473.83 351.37L473.77 351.54L473.71 351.71L473.67 351.89L473.63 352.06L473.6 352.24L473.58 352.43L473.57 352.61L473.57 352.8L473.57 352.98L473.58 353.17L473.6 353.35L473.63 353.53L473.67 353.71L473.71 353.88L473.77 354.06L473.83 354.23L473.89 354.39L473.97 354.56L474.05 354.72L474.14 354.88L474.23 355.03L474.34 355.18L474.44 355.33L474.56 355.47L474.68 355.61L474.8 355.74L474.93 355.87L475.07 355.99L475.21 356.11L475.36 356.23L475.51 356.34L475.67 356.45L475.83 356.55L476 356.64L476.17 356.73L476.34 356.81L476.52 356.89L476.7 356.96L476.89 357.03L477.08 357.09L477.27 357.14L477.47 357.19L477.67 357.23L477.87 357.26L478.08 357.28L478.28 357.3L478.49 357.31L478.71 357.32L478.92 357.31L479.13 357.3L479.33 357.28L479.54 357.26L479.74 357.23L479.94 357.19L480.14 357.14L480.33 357.09L480.52 357.03L480.71 356.96L480.89 356.89L481.07 356.81L481.24 356.73L481.41 356.64L481.58 356.55L481.74 356.45L481.9 356.34L482.05 356.23L482.2 356.11L482.34 355.99L482.48 355.87L482.61 355.74L482.73 355.61L482.85 355.47L482.97 355.33L483.08 355.18L483.18 355.03L483.27 354.88L483.36 354.72L483.44 354.56L483.52 354.39L483.58 354.23L483.64 354.06L483.7 353.88L483.74 353.71L483.78 353.53L483.81 353.35L483.83 353.17L483.84 352.98L483.85 352.8L483.84 352.61L483.83 352.43L483.81 352.24L483.78 352.06L483.74 351.89L483.7 351.71L483.64 351.54L483.58 351.37L483.52 351.2L483.44 351.04L483.36 350.88L483.27 350.72L483.18 350.57L483.08 350.42L482.97 350.27L482.85 350.13L482.73 349.99L482.61 349.86L482.48 349.73L482.34 349.6L482.2 349.48L482.05 349.36L481.9 349.25L481.74 349.15L481.58 349.05L481.41 348.95L481.24 348.86L481.07 348.78L480.89 348.7L480.71 348.63L480.52 348.57L480.33 348.51L480.14 348.45L479.94 348.41L479.74 348.37L479.54 348.34L479.33 348.31L479.13 348.29L478.92 348.28L478.71 348.28L478.49 348.28L478.28 348.29Z" id="e1bFfgAfVP"></path><path d="M409.96 314.92L396.47 333.8L395.4 367.8L406.46 356.8L433.46 356.8L443.46 352.8L409.96 314.92Z" id="a4yah9rb8"></path><path d="M530.24 291.05L512.79 278.69L451.96 284.33" id="a1sxHJQRb"></path><path d="M439.96 286.05L453.46 282.05L439.96 286.05Z" id="d692bkiQg"></path><path d="M414.96 319.92L401.13 341.36L401.13 359.06" id="e3HKxRzU9"></path><path d="M395.4 178.37L396.47 189.76C389.45 197.36 386.28 201.15 386.98 201.15C387.68 201.15 375.52 205.72 350.49 214.85L335.3 201.15L368.21 169.51L395.4 178.37Z" id="a1fkbRaBW9"></path><path d="M419.96 251.79L448.46 251.79L451.96 242.93L414.96 227.74L365.89 242.93L419.96 251.79Z" id="a3kEQ5qMG6"></path><path d="M370.75 169.51L365.89 187.05L344.16 198.62L370.75 169.51Z" id="d27t59ifB"></path><path d="M347.96 212.92C344.09 214.55 336.33 217.8 324.71 222.67L287.21 240.11L281.96 257.92L335.3 274.32L344.16 284.87L313.3 314.92L239.93 298.42L246.7 314.92L291.96 333.8L299.86 352.8L297.33 392.29C248.38 399.04 214.63 399.04 196.06 392.29C177.5 385.54 174.97 378.96 188.47 372.53L191 352.8L172.01 324.92L179.61 302.92L203.66 278.69L299.86 207.48L335.3 203.69C347.62 208.22 351.84 211.3 347.96 212.92Z" id="aHzOhCJuf"></path><path d="M199.86 314.92C184.67 330.01 182.56 339.63 193.53 343.8" id="bd2V31dIE"></path><path d="M186.63 343.8L175.81 324.92L182.14 296.05L296.06 206.22L337.83 203.69L346.7 212.92L287.21 240.11L281.96 257.92L255.56 274.32L197.33 314.92L186.63 343.8Z" id="aNs0vElHM"></path><path d="M291.96 207.48L186.63 291.05L178.34 307.09L147.96 291.05L164.42 278.69L175.81 257.92L155.56 257.92L164.42 232.8L186.63 203.69L226.44 187.05C261.04 186.33 279.55 188.04 281.96 192.18C284.37 196.32 295.82 200.16 316.32 203.69L291.96 207.48Z" id="evn28N1XN"></path><path d="" id="a4XUMFBt6A"></path><path d="M281.96 221.6L245.56 218.88L199.99 224.99L183.25 237.91L162.01 260.37" id="f17oGSS2ny"></path><path d="M218.58 207.12C218.86 208.9 228.66 208.79 240.45 206.89C252.23 205 261.56 202.02 261.28 200.25C260.99 198.48 251.2 198.58 239.41 200.48C227.63 202.38 218.29 205.35 218.58 207.12Z" id="c1lAKNhEc"></path></defs><g><g><g><g><use xlink:href="#atefHyb8Z" opacity="1" fill="#f0f3ef" fill-opacity="1"></use><g><use xlink:href="#atefHyb8Z" opacity="1" fill-opacity="0" stroke="#000000" stroke-width="1" stroke-opacity="1"></use></g></g><g><g><use xlink:href="#aJWNnk8df" opacity="1" fill-opacity="0" stroke="#aba9a9" stroke-width="4" stroke-opacity="1"></use></g></g><g><g><use xlink:href="#g4dGlTt4JV" opacity="1" fill-opacity="0" stroke="#959090" stroke-width="3" stroke-opacity="1"></use></g></g><g><g><use xlink:href="#eDFS3M7ym" opacity="1" fill-opacity="0" stroke="#120f0f" stroke-width="3" stroke-opacity="1"></use></g></g><g><g><use xlink:href="#d8x5zJCmkd" opacity="1" fill-opacity="0" stroke="#b6b2b2" stroke-width="4" stroke-opacity="1"></use></g></g><g><g><use xlink:href="#e9urUYeH0" opacity="1" fill-opacity="0" stroke="#b3aeae" stroke-width="4" stroke-opacity="1"></use></g></g><g><use xlink:href="#dsZoUDnqE" opacity="1" fill="#2d2e2c" fill-opacity="0.77"></use><g><use xlink:href="#dsZoUDnqE" opacity="1" fill-opacity="0" stroke="#a7a0a0" stroke-width="3" stroke-opacity="1"></use></g></g><g><g><g><filter id="shadow10631106" x="368.99" y="263.68" width="43.84" height="38.44" filterUnits="userSpaceOnUse" primitiveUnits="userSpaceOnUse"><feFlood></feFlood><feComposite in2="SourceAlpha" operator="in"></feComposite><feGaussianBlur stdDeviation="1"></feGaussianBlur><feOffset dx="1" dy="1" result="afterOffset"></feOffset><feFlood flood-color="#000000" flood-opacity="0.5"></feFlood><feComposite in2="afterOffset" operator="in"></feComposite><feMorphology operator="dilate" radius="1"></feMorphology><feComposite in2="SourceAlpha" operator="out"></feComposite></filter><path d="M397.73 290.12L387.88 288.22L390.32 284.2C390.16 284.16 390.06 284.15 390.05 284.14C389.55 284.05 389.11 283.78 388.8 283.39C388.79 283.37 388.73 283.3 388.62 283.17L386.18 287.19L379.95 279.33L382.99 274.33L381.68 272.68C379.66 276.01 378.53 277.86 378.31 278.23C377.84 279 377.9 279.99 378.45 280.69C379.13 281.54 384.56 288.39 385.24 289.25C385.55 289.64 385.99 289.91 386.49 290C387.56 290.21 396.14 291.87 397.22 292.08C398.09 292.25 399 291.84 399.47 291.06C399.69 290.69 400.81 288.84 402.84 285.51L400.76 285.11L397.73 290.12Z" id="i2lpbpKje8" fill="white" fill-opacity="1" filter="url(#shadow10631106)"></path></g><use xlink:href="#b2gaQH6SmN" opacity="1" fill="#f3f3f3" fill-opacity="1"></use><g><use xlink:href="#b2gaQH6SmN" opacity="1" fill-opacity="0" stroke="#000000" stroke-width="1" stroke-opacity="0"></use></g><g><filter id="shadow12573433" x="368.99" y="263.68" width="43.84" height="38.44" filterUnits="userSpaceOnUse" primitiveUnits="userSpaceOnUse"><feFlood></feFlood><feComposite in2="SourceAlpha" operator="out"></feComposite><feGaussianBlur stdDeviation="1"></feGaussianBlur><feOffset dx="1" dy="1" result="afterOffset"></feOffset><feFlood flood-color="#000000" flood-opacity="0.5"></feFlood><feComposite in2="afterOffset" operator="in"></feComposite><feMorphology operator="dilate" radius="1"></feMorphology><feComposite in2="SourceAlpha" operator="in"></feComposite></filter><path d="M397.73 290.12L387.88 288.22L390.32 284.2C390.16 284.16 390.06 284.15 390.05 284.14C389.55 284.05 389.11 283.78 388.8 283.39C388.79 283.37 388.73 283.3 388.62 283.17L386.18 287.19L379.95 279.33L382.99 274.33L381.68 272.68C379.66 276.01 378.53 277.86 378.31 278.23C377.84 279 377.9 279.99 378.45 280.69C379.13 281.54 384.56 288.39 385.24 289.25C385.55 289.64 385.99 289.91 386.49 290C387.56 290.21 396.14 291.87 397.22 292.08C398.09 292.25 399 291.84 399.47 291.06C399.69 290.69 400.81 288.84 402.84 285.51L400.76 285.11L397.73 290.12Z" id="j1LbTCXT3B" fill="white" fill-opacity="1" filter="url(#shadow12573433)"></path></g></g><g><g><filter id="shadow1580725" x="362.57" y="281.45" width="34.75" height="34.78" filterUnits="userSpaceOnUse" primitiveUnits="userSpaceOnUse"><feFlood></feFlood><feComposite in2="SourceAlpha" operator="in"></feComposite><feGaussianBlur stdDeviation="1"></feGaussianBlur><feOffset dx="1" dy="1" result="afterOffset"></feOffset><feFlood flood-color="#000000" flood-opacity="0.5"></feFlood><feComposite in2="afterOffset" operator="in"></feComposite><feMorphology operator="dilate" radius="1"></feMorphology><feComposite in2="SourceAlpha" operator="out"></feComposite></filter><path d="M387.02 295.73C387.6 294.78 387.31 293.55 386.37 292.98C386 292.75 383.04 290.95 382.67 290.73C381.73 290.16 380.51 290.47 379.93 291.42C379.37 292.34 376.58 296.93 371.57 305.2L373.26 306.23L379.47 296L384.87 299.28L385.91 297.55L380.51 294.28L381.62 292.45C384.86 294.42 386.66 295.51 387.02 295.73Z" id="bOYrKY1I6" fill="white" fill-opacity="1" filter="url(#shadow1580725)"></path></g><use xlink:href="#b6slTaqFym" opacity="1" fill="#f3f3f3" fill-opacity="1"></use><g><use xlink:href="#b6slTaqFym" opacity="1" fill-opacity="0" stroke="#000000" stroke-width="1" stroke-opacity="0"></use></g><g><filter id="shadow5008897" x="362.57" y="281.45" width="34.75" height="34.78" filterUnits="userSpaceOnUse" primitiveUnits="userSpaceOnUse"><feFlood></feFlood><feComposite in2="SourceAlpha" operator="out"></feComposite><feGaussianBlur stdDeviation="1"></feGaussianBlur><feOffset dx="1" dy="1" result="afterOffset"></feOffset><feFlood flood-color="#000000" flood-opacity="0.5"></feFlood><feComposite in2="afterOffset" operator="in"></feComposite><feMorphology operator="dilate" radius="1"></feMorphology><feComposite in2="SourceAlpha" operator="in"></feComposite></filter><path d="M387.02 295.73C387.6 294.78 387.31 293.55 386.37 292.98C386 292.75 383.04 290.95 382.67 290.73C381.73 290.16 380.51 290.47 379.93 291.42C379.37 292.34 376.58 296.93 371.57 305.2L373.26 306.23L379.47 296L384.87 299.28L385.91 297.55L380.51 294.28L381.62 292.45C384.86 294.42 386.66 295.51 387.02 295.73Z" id="b3LbcehSuU" fill="white" fill-opacity="1" filter="url(#shadow5008897)"></path></g></g><g><g><filter id="shadow4171383" x="361.75" y="290.07" width="32.58" height="31.26" filterUnits="userSpaceOnUse" primitiveUnits="userSpaceOnUse"><feFlood></feFlood><feComposite in2="SourceAlpha" operator="in"></feComposite><feGaussianBlur stdDeviation="1"></feGaussianBlur><feOffset dx="1" dy="1" result="afterOffset"></feOffset><feFlood flood-color="#000000" flood-opacity="0.5"></feFlood><feComposite in2="afterOffset" operator="in"></feComposite><feMorphology operator="dilate" radius="1"></feMorphology><feComposite in2="SourceAlpha" operator="out"></feComposite></filter><path d="M371.69 308.81C370.75 308.24 370.47 307.02 371.04 306.06C371.04 306.06 371.04 306.06 371.04 306.06L376.41 309.32L382.63 299.07L384.33 300.1C380.59 306.25 378.52 309.67 378.1 310.35C377.53 311.29 376.3 311.61 375.37 311.04C374.63 310.6 372.06 309.04 371.69 308.81Z" id="a2ToRuewkz" fill="white" fill-opacity="1" filter="url(#shadow4171383)"></path></g><use xlink:href="#jy4TLk3iH" opacity="1" fill="#ee2c28" fill-opacity="1"></use><g><use xlink:href="#jy4TLk3iH" opacity="1" fill-opacity="0" stroke="#000000" stroke-width="1" stroke-opacity="0"></use></g><g><filter id="shadow6584731" x="361.75" y="290.07" width="32.58" height="31.26" filterUnits="userSpaceOnUse" primitiveUnits="userSpaceOnUse"><feFlood></feFlood><feComposite in2="SourceAlpha" operator="out"></feComposite><feGaussianBlur stdDeviation="1"></feGaussianBlur><feOffset dx="1" dy="1" result="afterOffset"></feOffset><feFlood flood-color="#000000" flood-opacity="0.5"></feFlood><feComposite in2="afterOffset" operator="in"></feComposite><feMorphology operator="dilate" radius="1"></feMorphology><feComposite in2="SourceAlpha" operator="in"></feComposite></filter><path d="M371.69 308.81C370.75 308.24 370.47 307.02 371.04 306.06C371.04 306.06 371.04 306.06 371.04 306.06L376.41 309.32L382.63 299.07L384.33 300.1C380.59 306.25 378.52 309.67 378.1 310.35C377.53 311.29 376.3 311.61 375.37 311.04C374.63 310.6 372.06 309.04 371.69 308.81Z" id="a2otQmA6qJ" fill="white" fill-opacity="1" filter="url(#shadow6584731)"></path></g></g><g><g><filter id="shadow11518840" x="374.84" y="258.08" width="41.07" height="33.88" filterUnits="userSpaceOnUse" primitiveUnits="userSpaceOnUse"><feFlood></feFlood><feComposite in2="SourceAlpha" operator="in"></feComposite><feGaussianBlur stdDeviation="1"></feGaussianBlur><feOffset dx="1" dy="1" result="afterOffset"></feOffset><feFlood flood-color="#000000" flood-opacity="0.5"></feFlood><feComposite in2="afterOffset" operator="in"></feComposite><feMorphology operator="dilate" radius="1"></feMorphology><feComposite in2="SourceAlpha" operator="out"></feComposite></filter><path d="M389.37 267.63C389.1 267.58 386.96 267.17 386.69 267.11C385.81 266.94 384.91 267.35 384.44 268.13C384.4 268.19 384.2 268.52 383.84 269.11L385.15 270.76L386.18 269.07C387.86 269.39 388.78 269.57 388.97 269.6C394.19 270.62 398.88 273.46 402.19 277.63C402.31 277.78 402.9 278.52 403.96 279.85L402.93 281.55L405 281.95C405.36 281.36 405.56 281.03 405.6 280.97C406.07 280.19 406.01 279.2 405.45 278.5C405.34 278.36 404.78 277.65 403.76 276.37C397.96 271.28 393.16 268.36 389.37 267.63Z" id="ifcKGOjgo" fill="white" fill-opacity="1" filter="url(#shadow11518840)"></path></g><use xlink:href="#b3wIOFv4i" opacity="1" fill="#ee2c28" fill-opacity="1"></use><g><use xlink:href="#b3wIOFv4i" opacity="1" fill-opacity="0" stroke="#000000" stroke-width="1" stroke-opacity="0"></use></g><g><filter id="shadow4624638" x="374.84" y="258.08" width="41.07" height="33.88" filterUnits="userSpaceOnUse" primitiveUnits="userSpaceOnUse"><feFlood></feFlood><feComposite in2="SourceAlpha" operator="out"></feComposite><feGaussianBlur stdDeviation="1"></feGaussianBlur><feOffset dx="1" dy="1" result="afterOffset"></feOffset><feFlood flood-color="#000000" flood-opacity="0.5"></feFlood><feComposite in2="afterOffset" operator="in"></feComposite><feMorphology operator="dilate" radius="1"></feMorphology><feComposite in2="SourceAlpha" operator="in"></feComposite></filter><path d="M389.37 267.63C389.1 267.58 386.96 267.17 386.69 267.11C385.81 266.94 384.91 267.35 384.44 268.13C384.4 268.19 384.2 268.52 383.84 269.11L385.15 270.76L386.18 269.07C387.86 269.39 388.78 269.57 388.97 269.6C394.19 270.62 398.88 273.46 402.19 277.63C402.31 277.78 402.9 278.52 403.96 279.85L402.93 281.55L405 281.95C405.36 281.36 405.56 281.03 405.6 280.97C406.07 280.19 406.01 279.2 405.45 278.5C405.34 278.36 404.78 277.65 403.76 276.37C397.96 271.28 393.16 268.36 389.37 267.63Z" id="a326MGdpBg" fill="white" fill-opacity="1" filter="url(#shadow4624638)"></path></g></g><g><g><filter id="shadow10492263" x="372.35" y="266.24" width="26.16" height="28.96" filterUnits="userSpaceOnUse" primitiveUnits="userSpaceOnUse"><feFlood></feFlood><feComposite in2="SourceAlpha" operator="in"></feComposite><feGaussianBlur stdDeviation="1"></feGaussianBlur><feOffset dx="1" dy="1" result="afterOffset"></feOffset><feFlood flood-color="#000000" flood-opacity="0.5"></feFlood><feComposite in2="afterOffset" operator="in"></feComposite><feMorphology operator="dilate" radius="1"></feMorphology><feComposite in2="SourceAlpha" operator="out"></feComposite></filter><path d="M383.9 277.74L386.77 281.36L385.95 282.7L383.08 279.07L383.9 277.74M381.35 279.2L386.1 285.2L388.5 281.23L383.75 275.24L383.75 275.24L381.35 279.2Z" id="byQCCZs2o" fill="none" stroke="white" filter="url(#shadow10492263)"></path></g><use xlink:href="#b5UcKxu3lE" opacity="1" fill="#ee2c28" fill-opacity="1"></use><g><use xlink:href="#b5UcKxu3lE" opacity="1" fill-opacity="0" stroke="#000000" stroke-width="1" stroke-opacity="0"></use></g><g><filter id="shadow14866854" x="372.35" y="266.24" width="26.16" height="28.96" filterUnits="userSpaceOnUse" primitiveUnits="userSpaceOnUse"><feFlood></feFlood><feComposite in2="SourceAlpha" operator="out"></feComposite><feGaussianBlur stdDeviation="1"></feGaussianBlur><feOffset dx="1" dy="1" result="afterOffset"></feOffset><feFlood flood-color="#000000" flood-opacity="0.5"></feFlood><feComposite in2="afterOffset" operator="in"></feComposite><feMorphology operator="dilate" radius="1"></feMorphology><feComposite in2="SourceAlpha" operator="in"></feComposite></filter><path d="M383.9 277.74L386.77 281.36L385.95 282.7L383.08 279.07L383.9 277.74M381.35 279.2L386.1 285.2L388.5 281.23L383.75 275.24L383.75 275.24L381.35 279.2Z" id="b1bWI8ByBr" fill="none" stroke="white" filter="url(#shadow14866854)"></path></g></g><g><g><filter id="shadow74080" x="380.64" y="274.38" width="28.92" height="24.41" filterUnits="userSpaceOnUse" primitiveUnits="userSpaceOnUse"><feFlood></feFlood><feComposite in2="SourceAlpha" operator="in"></feComposite><feGaussianBlur stdDeviation="1"></feGaussianBlur><feOffset dx="1" dy="1" result="afterOffset"></feOffset><feFlood flood-color="#000000" flood-opacity="0.5"></feFlood><feComposite in2="afterOffset" operator="in"></feComposite><feMorphology operator="dilate" radius="1"></feMorphology><feComposite in2="SourceAlpha" operator="out"></feComposite></filter><path d="M397.28 285.86L396.46 287.2L391.92 286.32L392.74 284.98L397.28 285.86M392.05 283.38L389.64 287.35L397.15 288.79L399.56 284.83L399.56 284.83L392.05 283.38Z" id="h3dkvk7Yt4" fill="none" stroke="white" filter="url(#shadow74080)"></path></g><use xlink:href="#ef683QQTx" opacity="1" fill="#ee2c28" fill-opacity="1"></use><g><use xlink:href="#ef683QQTx" opacity="1" fill-opacity="0" stroke="#000000" stroke-width="1" stroke-opacity="0"></use></g><g><filter id="shadow6720436" x="380.64" y="274.38" width="28.92" height="24.41" filterUnits="userSpaceOnUse" primitiveUnits="userSpaceOnUse"><feFlood></feFlood><feComposite in2="SourceAlpha" operator="out"></feComposite><feGaussianBlur stdDeviation="1"></feGaussianBlur><feOffset dx="1" dy="1" result="afterOffset"></feOffset><feFlood flood-color="#000000" flood-opacity="0.5"></feFlood><feComposite in2="afterOffset" operator="in"></feComposite><feMorphology operator="dilate" radius="1"></feMorphology><feComposite in2="SourceAlpha" operator="in"></feComposite></filter><path d="M397.28 285.86L396.46 287.2L391.92 286.32L392.74 284.98L397.28 285.86M392.05 283.38L389.64 287.35L397.15 288.79L399.56 284.83L399.56 284.83L392.05 283.38Z" id="a3TFMmETC" fill="none" stroke="white" filter="url(#shadow6720436)"></path></g></g><g><g><filter id="shadow9413766" x="366.14" y="253.22" width="29.9" height="31.95" filterUnits="userSpaceOnUse" primitiveUnits="userSpaceOnUse"><feFlood></feFlood><feComposite in2="SourceAlpha" operator="in"></feComposite><feGaussianBlur stdDeviation="1"></feGaussianBlur><feOffset dx="1" dy="1" result="afterOffset"></feOffset><feFlood flood-color="#000000" flood-opacity="0.5"></feFlood><feComposite in2="afterOffset" operator="in"></feComposite><feMorphology operator="dilate" radius="1"></feMorphology><feComposite in2="SourceAlpha" operator="out"></feComposite></filter><path d="M382.4 268.74C382.6 268.57 382.77 268.36 382.91 268.13C382.91 268.12 382.97 268.02 382.98 268.01C383.76 266.72 383.37 265.04 382.1 264.28C381.82 264.11 379.61 262.77 379.34 262.6C378.07 261.84 376.4 262.26 375.62 263.55C375.61 263.56 375.55 263.66 375.54 263.67C374.76 264.96 375.15 266.63 376.42 267.4C376.7 267.57 378.91 268.91 379.19 269.08C379.56 269.31 379.98 269.43 380.4 269.46C380.7 269.84 382.21 271.74 384.93 275.18L386.04 273.34C383.86 270.58 382.65 269.05 382.4 268.74ZM380.23 267.36C379.95 267.19 377.74 265.85 377.47 265.68C377.14 265.48 377.03 265.04 377.24 264.7C377.24 264.69 377.3 264.59 377.31 264.58C377.51 264.24 377.95 264.12 378.29 264.33C378.56 264.5 380.77 265.84 381.05 266.01C381.38 266.21 381.49 266.65 381.28 266.99C381.28 267 381.25 267.04 381.21 267.11C380.78 267.41 380.46 267.5 380.23 267.36Z" id="dmprezwUd" fill="white" fill-opacity="1" filter="url(#shadow9413766)"></path></g><use xlink:href="#aFK7bLIlR" opacity="1" fill="#ee2c28" fill-opacity="1"></use><g><use xlink:href="#aFK7bLIlR" opacity="1" fill-opacity="0" stroke="#000000" stroke-width="1" stroke-opacity="0"></use></g><g><filter id="shadow16721614" x="366.14" y="253.22" width="29.9" height="31.95" filterUnits="userSpaceOnUse" primitiveUnits="userSpaceOnUse"><feFlood></feFlood><feComposite in2="SourceAlpha" operator="out"></feComposite><feGaussianBlur stdDeviation="1"></feGaussianBlur><feOffset dx="1" dy="1" result="afterOffset"></feOffset><feFlood flood-color="#000000" flood-opacity="0.5"></feFlood><feComposite in2="afterOffset" operator="in"></feComposite><feMorphology operator="dilate" radius="1"></feMorphology><feComposite in2="SourceAlpha" operator="in"></feComposite></filter><path d="M382.4 268.74C382.6 268.57 382.77 268.36 382.91 268.13C382.91 268.12 382.97 268.02 382.98 268.01C383.76 266.72 383.37 265.04 382.1 264.28C381.82 264.11 379.61 262.77 379.34 262.6C378.07 261.84 376.4 262.26 375.62 263.55C375.61 263.56 375.55 263.66 375.54 263.67C374.76 264.96 375.15 266.63 376.42 267.4C376.7 267.57 378.91 268.91 379.19 269.08C379.56 269.31 379.98 269.43 380.4 269.46C380.7 269.84 382.21 271.74 384.93 275.18L386.04 273.34C383.86 270.58 382.65 269.05 382.4 268.74ZM380.23 267.36C379.95 267.19 377.74 265.85 377.47 265.68C377.14 265.48 377.03 265.04 377.24 264.7C377.24 264.69 377.3 264.59 377.31 264.58C377.51 264.24 377.95 264.12 378.29 264.33C378.56 264.5 380.77 265.84 381.05 266.01C381.38 266.21 381.49 266.65 381.28 266.99C381.28 267 381.25 267.04 381.21 267.11C380.78 267.41 380.46 267.5 380.23 267.36Z" id="ara8zGY9I" fill="white" fill-opacity="1" filter="url(#shadow16721614)"></path></g></g><g><g><filter id="shadow5897096" x="390.02" y="271.93" width="34.02" height="26.25" filterUnits="userSpaceOnUse" primitiveUnits="userSpaceOnUse"><feFlood></feFlood><feComposite in2="SourceAlpha" operator="in"></feComposite><feGaussianBlur stdDeviation="1"></feGaussianBlur><feOffset dx="1" dy="1" result="afterOffset"></feOffset><feFlood flood-color="#000000" flood-opacity="0.5"></feFlood><feComposite in2="afterOffset" operator="in"></feComposite><feMorphology operator="dilate" radius="1"></feMorphology><feComposite in2="SourceAlpha" operator="out"></feComposite></filter><path d="M410 281.31C408.73 280.54 407.06 280.97 406.28 282.26C406.27 282.27 406.21 282.36 406.2 282.38C406.06 282.61 405.96 282.85 405.89 283.11C405.51 283.03 403.59 282.66 400.13 282L399.02 283.83C403.32 284.66 405.71 285.13 406.19 285.22C406.41 285.58 406.71 285.89 407.09 286.12C407.36 286.29 409.57 287.63 409.85 287.8C411.12 288.57 412.79 288.14 413.57 286.86C413.57 286.84 413.63 286.75 413.64 286.74C414.42 285.44 414.03 283.76 412.76 282.99C412.21 282.65 410.27 281.48 410 281.31ZM410.89 286.06C410.62 285.9 408.41 284.56 408.13 284.39C407.8 284.19 407.69 283.75 407.9 283.4C407.9 283.39 407.96 283.3 407.97 283.28C408.17 282.95 408.61 282.83 408.95 283.03C409.23 283.2 411.44 284.54 411.71 284.71C412.04 284.91 412.15 285.35 411.95 285.7C411.94 285.7 411.92 285.74 411.87 285.82C411.44 286.12 411.12 286.2 410.89 286.06Z" id="b3tbLwZVE" fill="white" fill-opacity="1" filter="url(#shadow5897096)"></path></g><use xlink:href="#aQOQX3EIZ" opacity="1" fill="#ee2c28" fill-opacity="1"></use><g><use xlink:href="#aQOQX3EIZ" opacity="1" fill-opacity="0" stroke="#000000" stroke-width="1" stroke-opacity="0"></use></g><g><filter id="shadow11312948" x="390.02" y="271.93" width="34.02" height="26.25" filterUnits="userSpaceOnUse" primitiveUnits="userSpaceOnUse"><feFlood></feFlood><feComposite in2="SourceAlpha" operator="out"></feComposite><feGaussianBlur stdDeviation="1"></feGaussianBlur><feOffset dx="1" dy="1" result="afterOffset"></feOffset><feFlood flood-color="#000000" flood-opacity="0.5"></feFlood><feComposite in2="afterOffset" operator="in"></feComposite><feMorphology operator="dilate" radius="1"></feMorphology><feComposite in2="SourceAlpha" operator="in"></feComposite></filter><path d="M410 281.31C408.73 280.54 407.06 280.97 406.28 282.26C406.27 282.27 406.21 282.36 406.2 282.38C406.06 282.61 405.96 282.85 405.89 283.11C405.51 283.03 403.59 282.66 400.13 282L399.02 283.83C403.32 284.66 405.71 285.13 406.19 285.22C406.41 285.58 406.71 285.89 407.09 286.12C407.36 286.29 409.57 287.63 409.85 287.8C411.12 288.57 412.79 288.14 413.57 286.86C413.57 286.84 413.63 286.75 413.64 286.74C414.42 285.44 414.03 283.76 412.76 282.99C412.21 282.65 410.27 281.48 410 281.31ZM410.89 286.06C410.62 285.9 408.41 284.56 408.13 284.39C407.8 284.19 407.69 283.75 407.9 283.4C407.9 283.39 407.96 283.3 407.97 283.28C408.17 282.95 408.61 282.83 408.95 283.03C409.23 283.2 411.44 284.54 411.71 284.71C412.04 284.91 412.15 285.35 411.95 285.7C411.94 285.7 411.92 285.74 411.87 285.82C411.44 286.12 411.12 286.2 410.89 286.06Z" id="aD2NQt5R" fill="white" fill-opacity="1" filter="url(#shadow11312948)"></path></g></g><g><g><filter id="shadow742250" x="364.36" y="276.24" width="27.62" height="33.27" filterUnits="userSpaceOnUse" primitiveUnits="userSpaceOnUse"><feFlood></feFlood><feComposite in2="SourceAlpha" operator="in"></feComposite><feGaussianBlur stdDeviation="1"></feGaussianBlur><feOffset dx="1" dy="1" result="afterOffset"></feOffset><feFlood flood-color="#000000" flood-opacity="0.5"></feFlood><feComposite in2="afterOffset" operator="in"></feComposite><feMorphology operator="dilate" radius="1"></feMorphology><feComposite in2="SourceAlpha" operator="out"></feComposite></filter><path d="M374.04 299.51L381.98 286.43L381.04 285.24C376.56 292.62 374.07 296.72 373.58 297.54C373.16 298.22 373.37 299.1 374.04 299.51C374.04 299.51 374.04 299.51 374.04 299.51Z" id="adyVvuNEa" fill="white" fill-opacity="1" filter="url(#shadow742250)"></path></g><use xlink:href="#dL7VYk76f" opacity="1" fill="#ee2c28" fill-opacity="1"></use><g><use xlink:href="#dL7VYk76f" opacity="1" fill-opacity="0" stroke="#000000" stroke-width="1" stroke-opacity="0"></use></g><g><filter id="shadow13920423" x="364.36" y="276.24" width="27.62" height="33.27" filterUnits="userSpaceOnUse" primitiveUnits="userSpaceOnUse"><feFlood></feFlood><feComposite in2="SourceAlpha" operator="out"></feComposite><feGaussianBlur stdDeviation="1"></feGaussianBlur><feOffset dx="1" dy="1" result="afterOffset"></feOffset><feFlood flood-color="#000000" flood-opacity="0.5"></feFlood><feComposite in2="afterOffset" operator="in"></feComposite><feMorphology operator="dilate" radius="1"></feMorphology><feComposite in2="SourceAlpha" operator="in"></feComposite></filter><path d="M374.04 299.51L381.98 286.43L381.04 285.24C376.56 292.62 374.07 296.72 373.58 297.54C373.16 298.22 373.37 299.1 374.04 299.51C374.04 299.51 374.04 299.51 374.04 299.51Z" id="a2gdU10FPi" fill="white" fill-opacity="1" filter="url(#shadow13920423)"></path></g></g><g><g><filter id="shadow4214313" x="373.51" y="282.58" width="28.42" height="32.27" filterUnits="userSpaceOnUse" primitiveUnits="userSpaceOnUse"><feFlood></feFlood><feComposite in2="SourceAlpha" operator="in"></feComposite><feGaussianBlur stdDeviation="1"></feGaussianBlur><feOffset dx="1" dy="1" result="afterOffset"></feOffset><feFlood flood-color="#000000" flood-opacity="0.5"></feFlood><feComposite in2="afterOffset" operator="in"></feComposite><feMorphology operator="dilate" radius="1"></feMorphology><feComposite in2="SourceAlpha" operator="out"></feComposite></filter><path d="M382.51 304.65C383.18 305.06 384.06 304.83 384.47 304.15C384.97 303.33 387.45 299.24 391.93 291.87L390.44 291.58L382.51 304.65C382.51 304.65 382.51 304.65 382.51 304.65Z" id="b2ys8hxufG" fill="white" fill-opacity="1" filter="url(#shadow4214313)"></path></g><use xlink:href="#a1QGTfuF6" opacity="1" fill="#ee2c28" fill-opacity="1"></use><g><use xlink:href="#a1QGTfuF6" opacity="1" fill-opacity="0" stroke="#000000" stroke-width="1" stroke-opacity="0"></use></g><g><filter id="shadow13983324" x="373.51" y="282.58" width="28.42" height="32.27" filterUnits="userSpaceOnUse" primitiveUnits="userSpaceOnUse"><feFlood></feFlood><feComposite in2="SourceAlpha" operator="out"></feComposite><feGaussianBlur stdDeviation="1"></feGaussianBlur><feOffset dx="1" dy="1" result="afterOffset"></feOffset><feFlood flood-color="#000000" flood-opacity="0.5"></feFlood><feComposite in2="afterOffset" operator="in"></feComposite><feMorphology operator="dilate" radius="1"></feMorphology><feComposite in2="SourceAlpha" operator="in"></feComposite></filter><path d="M382.51 304.65C383.18 305.06 384.06 304.83 384.47 304.15C384.97 303.33 387.45 299.24 391.93 291.87L390.44 291.58L382.51 304.65C382.51 304.65 382.51 304.65 382.51 304.65Z" id="c14LenNQQB" fill="white" fill-opacity="1" filter="url(#shadow13983324)"></path></g></g></g><g><g><use xlink:href="#b1QqIQO9Ij" opacity="1" fill-opacity="0" stroke="#a7a0a0" stroke-width="3" stroke-opacity="1"></use></g></g><g><use xlink:href="#dgwOxAWb9" opacity="1" fill="#f0f3ef" fill-opacity="0.97"></use><g><use xlink:href="#dgwOxAWb9" opacity="1" fill-opacity="0" stroke="#939191" stroke-width="3" stroke-opacity="1"></use></g></g><g><use xlink:href="#azTiASJdV" opacity="1" fill="#000000" fill-opacity="1"></use><g><use xlink:href="#azTiASJdV" opacity="1" fill-opacity="0" stroke="#a7a0a0" stroke-width="3" stroke-opacity="1"></use></g></g><g><g><use xlink:href="#bgskxH2ii" opacity="1" fill-opacity="0" stroke="#a7a0a0" stroke-width="6" stroke-opacity="1"></use></g></g><g><g><use xlink:href="#f1aqG14jRS" opacity="1" fill-opacity="0" stroke="#a7a0a0" stroke-width="6" stroke-opacity="1"></use></g></g><g><g><use xlink:href="#chFe35eVD" opacity="1" fill-opacity="0" stroke="#a7a0a0" stroke-width="6" stroke-opacity="1"></use></g></g><g><g><use xlink:href="#bizFQ3fCo" opacity="1" fill-opacity="0" stroke="#a7a0a0" stroke-width="6" stroke-opacity="1"></use></g></g><g><g><use xlink:href="#joQ9bGMrF" opacity="1" fill-opacity="0" stroke="#a7a0a0" stroke-width="6" stroke-opacity="1"></use></g></g><g><g><use xlink:href="#c7aBjzPLKT" opacity="1" fill-opacity="0" stroke="#a7a0a0" stroke-width="6" stroke-opacity="1"></use></g></g><g><use xlink:href="#e1bFfgAfVP" opacity="1" fill="#f2f6ef" fill-opacity="0.88"></use><g><use xlink:href="#e1bFfgAfVP" opacity="1" fill-opacity="0" stroke="#110a0a" stroke-width="1" stroke-opacity="1"></use></g></g><g><use xlink:href="#a4yah9rb8" opacity="1" fill="#f0f3ef" fill-opacity="1"></use><g><use xlink:href="#a4yah9rb8" opacity="1" fill-opacity="0" stroke="#938f8f" stroke-width="3" stroke-opacity="1"></use></g></g><g><g><use xlink:href="#a1sxHJQRb" opacity="1" fill-opacity="0" stroke="#9f9c9c" stroke-width="3" stroke-opacity="1"></use></g></g><g><g><use xlink:href="#d692bkiQg" opacity="1" fill-opacity="0" stroke="#9f9c9c" stroke-width="3" stroke-opacity="1"></use></g></g><g><g><use xlink:href="#e3HKxRzU9" opacity="1" fill-opacity="0" stroke="#9f9c9c" stroke-width="3" stroke-opacity="1"></use></g></g><g><use xlink:href="#a1fkbRaBW9" opacity="1" fill="#070806" fill-opacity="0.97"></use><g><use xlink:href="#a1fkbRaBW9" opacity="1" fill-opacity="0" stroke="#9f9c9c" stroke-width="3" stroke-opacity="1"></use></g></g><g><use xlink:href="#a3kEQ5qMG6" opacity="1" fill="#c7cdc5" fill-opacity="1"></use><g><use xlink:href="#a3kEQ5qMG6" opacity="1" fill-opacity="0" stroke="#9f9c9c" stroke-width="3" stroke-opacity="1"></use></g></g><g><g><use xlink:href="#d27t59ifB" opacity="1" fill-opacity="0" stroke="#9f9c9c" stroke-width="4" stroke-opacity="1"></use></g></g><g><use xlink:href="#aHzOhCJuf" opacity="1" fill="#070806" fill-opacity="0.97"></use><g><use xlink:href="#aHzOhCJuf" opacity="1" fill-opacity="0" stroke="#9f9c9c" stroke-width="4" stroke-opacity="1"></use></g></g><g><g><use xlink:href="#bd2V31dIE" opacity="1" fill-opacity="0" stroke="#9f9c9c" stroke-width="4" stroke-opacity="1"></use></g></g><g><use xlink:href="#aNs0vElHM" opacity="1" fill="#383a36" fill-opacity="0.97"></use><g><use xlink:href="#aNs0vElHM" opacity="1" fill-opacity="0" stroke="#9f9c9c" stroke-width="4" stroke-opacity="1"></use></g></g><g><use xlink:href="#evn28N1XN" opacity="1" fill="#f0f3ef" fill-opacity="0.97"></use><g><use xlink:href="#evn28N1XN" opacity="1" fill-opacity="0" stroke="#9f9c9c" stroke-width="4" stroke-opacity="1"></use></g></g><g><g><use xlink:href="#a4XUMFBt6A" opacity="1" fill-opacity="0" stroke="#9f9c9c" stroke-width="4" stroke-opacity="1"></use></g></g><g><g><use xlink:href="#f17oGSS2ny" opacity="1" fill-opacity="0" stroke="#9f9c9c" stroke-width="4" stroke-opacity="1"></use></g></g><g><use xlink:href="#c1lAKNhEc" opacity="1" fill="#000000" fill-opacity="0.97"></use><g><use xlink:href="#c1lAKNhEc" opacity="1" fill-opacity="0" stroke="#9f9c9c" stroke-width="4" stroke-opacity="1"></use></g></g></g></g></g></svg>