<?xml version="1.0" encoding="UTF-8" standalone="no"?>
<!DOCTYPE svg PUBLIC "-//W3C//DTD SVG 1.1//EN" "http://www.w3.org/Graphics/SVG/1.1/DTD/svg11.dtd">
<svg version="1.1" xmlns="http://www.w3.org/2000/svg" xmlns:xlink="http://www.w3.org/1999/xlink" preserveAspectRatio="xMidYMid meet" viewBox="0 0 640 640" width="640" height="640"><defs><path d="M324.66 535.16C205.83 537.74 107.41 443.5 104.83 324.67C102.25 205.84 196.5 107.41 315.33 104.83C434.16 102.25 532.58 196.5 535.16 315.33C537.74 434.16 443.49 532.59 324.66 535.16ZM604.58 292.33C603.56 281.71 601.95 271.28 599.8 261.04C602.76 260.18 626.44 253.28 629.4 252.42C631.38 251.84 632.51 249.78 631.94 247.8C630.95 244.37 622.96 216.95 621.96 213.52C621.39 211.54 619.32 210.41 617.34 210.98C614.39 211.84 590.72 218.73 587.76 219.59C584.04 209.65 579.79 199.97 575.03 190.6C577.66 189 598.73 176.23 601.36 174.63C603.13 173.56 603.68 171.27 602.62 169.51C600.77 166.46 585.96 142.03 584.11 138.98C583.04 137.22 580.75 136.66 578.99 137.73C576.35 139.32 555.24 152.12 552.6 153.72C546.45 145.12 539.83 136.88 532.79 129.04C534.93 126.81 552.01 108.98 554.14 106.75C555.57 105.26 555.51 102.9 554.03 101.48C551.45 99.01 530.82 79.25 528.24 76.78C526.75 75.35 524.4 75.4 522.97 76.9C520.83 79.12 503.76 96.95 501.62 99.18C493.48 92.48 484.96 86.23 476.11 80.45C477.6 77.74 489.47 56.11 490.95 53.41C491.95 51.6 491.28 49.34 489.48 48.35C486.35 46.63 461.31 32.88 458.18 31.17C456.38 30.17 454.11 30.83 453.12 32.64C451.64 35.34 439.78 56.93 438.3 59.63C428.74 55.27 418.88 51.45 408.79 48.15C409.52 45.16 415.38 21.23 416.11 18.24C416.6 16.24 415.38 14.22 413.38 13.73C409.91 12.88 382.17 6.09 378.7 5.24C376.7 4.75 374.68 5.98 374.19 7.98C373.46 10.97 367.59 34.92 366.86 37.91C356.54 36.21 346.04 35.05 335.39 34.48C335.32 31.4 334.79 6.73 334.72 3.65C334.67 1.59 332.97 -0.04 330.91 0C327.34 0.08 298.79 0.7 295.22 0.77C293.16 0.82 291.52 2.52 291.57 4.58C291.63 7.67 292.17 32.33 292.24 35.42C281.74 36.43 271.41 38.02 261.28 40.14C260.43 37.18 253.56 13.5 252.7 10.54C252.13 8.55 250.06 7.43 248.08 7.99C244.65 8.99 217.22 16.94 213.79 17.94C211.81 18.51 210.67 20.58 211.25 22.56C212.11 25.52 218.97 49.18 219.82 52.13C209.88 55.85 200.2 60.09 190.82 64.85C189.23 62.21 176.48 41.14 174.89 38.51C173.82 36.74 171.53 36.19 169.76 37.25C166.71 39.09 142.27 53.88 139.22 55.72C137.46 56.79 136.89 59.09 137.96 60.85C139.56 63.49 152.32 84.6 153.92 87.24C145.32 93.39 137.08 100 129.23 107.04C127 104.9 109.19 87.8 106.96 85.67C105.47 84.24 103.11 84.3 101.69 85.78C99.21 88.35 79.44 108.96 76.97 111.53C75.54 113.02 75.59 115.38 77.08 116.81C79.3 118.95 97.11 136.04 99.34 138.17C92.63 146.31 86.37 154.83 80.58 163.67C77.88 162.18 56.26 150.29 53.56 148.8C51.75 147.81 49.49 148.47 48.49 150.28C46.77 153.4 33 178.42 31.28 181.55C30.29 183.36 30.95 185.63 32.76 186.62C35.45 188.11 57.04 199.98 59.74 201.46C55.37 211.03 51.53 220.88 48.23 230.97C45.24 230.23 21.31 224.34 18.32 223.61C16.32 223.12 14.31 224.35 13.81 226.34C12.96 229.81 6.13 257.54 5.28 261.01C4.79 263.01 6.01 265.03 8.02 265.53C11.01 266.26 34.96 272.15 37.95 272.89C36.24 283.21 35.07 293.7 34.49 304.35C31.41 304.42 6.74 304.93 3.65 304.99C1.59 305.03 -0.03 306.74 0 308.8C0.07 312.37 0.67 340.92 0.74 344.49C0.78 346.55 2.49 348.19 4.55 348.14C7.64 348.08 32.31 347.57 35.39 347.51C36.41 358.12 38.01 368.56 40.15 378.8C37.19 379.66 13.51 386.53 10.55 387.39C8.57 387.97 7.44 390.04 8.01 392.02C9.01 395.44 16.97 422.87 17.96 426.3C18.53 428.28 20.61 429.42 22.59 428.84C25.55 427.98 49.21 421.11 52.17 420.25C55.89 430.19 60.13 439.87 64.89 449.25C62.25 450.84 41.18 463.61 38.54 465.2C36.78 466.27 36.23 468.56 37.28 470.33C39.13 473.38 53.93 497.81 55.78 500.86C56.84 502.63 59.13 503.19 60.9 502.12C63.54 500.52 84.65 487.74 87.28 486.15C93.43 494.75 100.05 502.99 107.09 510.83C104.95 513.06 87.86 530.88 85.72 533.11C84.29 534.6 84.35 536.96 85.84 538.38C88.41 540.85 109.02 560.62 111.6 563.09C113.09 564.52 115.45 564.47 116.88 562.98C119.02 560.75 136.1 542.94 138.24 540.71C146.37 547.42 154.89 553.67 163.74 559.46C162.25 562.16 150.36 583.79 148.87 586.49C147.88 588.3 148.55 590.56 150.35 591.56C153.48 593.28 178.5 607.03 181.63 608.75C183.44 609.75 185.71 609.09 186.7 607.28C188.19 604.58 200.05 583 201.54 580.3C211.1 584.66 220.95 588.49 231.04 591.79C230.31 594.78 224.43 618.71 223.69 621.71C223.2 623.71 224.43 625.72 226.43 626.22C229.9 627.07 257.63 633.88 261.1 634.73C263.1 635.22 265.12 634 265.61 631.99C266.35 629 272.23 605.05 272.97 602.06C283.29 603.77 293.78 604.94 304.43 605.51C304.5 608.59 305.01 633.27 305.08 636.35C305.12 638.41 306.83 640.03 308.89 640C312.46 639.92 341.01 639.32 344.58 639.25C346.64 639.21 348.28 637.5 348.23 635.44C348.17 632.35 347.65 607.68 347.59 604.59C358.2 603.58 368.64 601.97 378.88 599.82C379.74 602.78 386.62 626.47 387.48 629.43C388.06 631.41 390.13 632.53 392.11 631.97C395.53 630.97 422.96 623 426.39 622C428.37 621.43 429.5 619.36 428.92 617.37C428.07 614.42 421.19 590.76 420.33 587.8C430.27 584.07 439.95 579.83 449.32 575.07C450.92 577.7 463.69 598.77 465.28 601.41C466.35 603.17 468.64 603.72 470.41 602.66C473.46 600.81 497.88 586.01 500.94 584.16C502.7 583.1 503.27 580.8 502.2 579.04C500.6 576.4 487.81 555.29 486.21 552.66C494.81 546.5 503.04 539.89 510.89 532.85C513.12 534.98 530.95 552.07 533.17 554.2C534.67 555.63 537.02 555.58 538.45 554.09C540.92 551.51 560.68 530.9 563.15 528.32C564.58 526.83 564.53 524.47 563.04 523.05C560.81 520.91 542.99 503.82 540.76 501.69C547.46 493.55 553.71 485.03 559.5 476.18C562.2 477.67 583.83 489.55 586.54 491.04C588.35 492.03 590.61 491.36 591.6 489.56C593.32 486.43 607.08 461.4 608.79 458.27C609.79 456.47 609.13 454.2 607.32 453.21C604.62 451.72 583.03 439.86 580.33 438.38C584.68 428.81 588.51 418.96 591.81 408.87C594.8 409.6 618.74 415.47 621.73 416.21C623.73 416.7 625.74 415.47 626.24 413.47C627.09 410 633.89 382.26 634.74 378.8C635.24 376.8 634.01 374.78 632.01 374.29C629.01 373.55 605.06 367.67 602.06 366.94C603.77 356.62 604.94 346.13 605.5 335.48C608.58 335.41 633.26 334.88 636.35 334.82C638.41 334.77 640.04 333.07 640 331.01C639.92 327.44 639.31 298.88 639.23 295.32C639.2 293.26 637.49 291.63 635.43 291.67C629.26 291.8 607.66 292.26 604.58 292.33Z" id="a5ZKZkWvC7"></path><path d="M104.83 324.67C107.41 443.5 205.83 537.74 324.66 535.16C443.49 532.59 537.74 434.16 535.16 315.33C532.58 196.5 434.16 102.25 315.33 104.83C196.5 107.41 102.25 205.84 104.83 324.67ZM133.11 324.05C130.87 220.84 212.73 135.35 315.94 133.11C419.16 130.87 504.64 212.73 506.88 315.94C509.12 419.16 427.26 504.65 324.05 506.89C220.83 509.13 135.35 427.27 133.11 324.05Z" id="f25zNZlX"></path><path d="M133.11 324.05C135.35 427.27 220.83 509.13 324.05 506.89C427.26 504.65 509.12 419.16 506.88 315.94C504.64 212.73 419.16 130.87 315.94 133.11C212.73 135.35 130.87 220.84 133.11 324.05ZM161.35 234.05C165.96 225.54 174.44 213.32 186.6 201.2C194.6 193.22 210.04 188.97 220.04 198.11C230.27 207.47 242.19 218.19 244.67 225.14C246.66 230.72 244.01 237.86 240.14 243.86C236.27 249.87 222.02 265.84 222.02 265.84C221.94 266 221.24 267.28 221.16 267.44C221.16 267.44 215.59 288.1 212.68 294.63C209.77 301.15 205.24 307.28 199.48 308.67C192.32 310.39 176.81 306.29 163.39 302.85C150.25 299.48 145.38 284.23 147.67 273.17C151.15 256.36 156.75 242.57 161.35 234.05ZM226.69 446.94C217.19 456.61 201.54 453.19 193.12 445.67C180.32 434.23 171.19 422.48 166.13 414.23C161.07 405.98 154.74 392.51 150.35 375.92C147.45 365 151.5 349.51 164.43 345.43C177.65 341.27 192.91 336.32 200.16 337.66C205.98 338.74 210.84 344.6 214.1 350.96C217.36 357.32 224.04 377.65 224.04 377.65C224.14 377.8 224.9 379.05 224.99 379.2C224.99 379.2 240.08 394.37 244.27 400.16C248.46 405.94 251.49 412.93 249.81 418.62C247.71 425.68 236.39 437.04 226.69 446.94ZM316.19 139.61C325.87 139.4 340.69 140.72 357.23 145.3C368.12 148.31 379.47 159.61 376.47 172.83C373.4 186.35 369.97 202.02 365.16 207.6C361.29 212.09 353.78 213.33 346.65 212.94C339.51 212.54 318.59 208.06 318.59 208.06C318.41 208.07 316.95 208.1 316.77 208.1C316.77 208.1 296.06 213.48 288.95 214.19C281.84 214.89 274.28 213.98 270.22 209.66C265.17 204.29 261.07 188.78 257.42 175.41C253.85 162.34 264.69 150.55 275.44 147.07C291.77 141.78 306.52 139.82 316.19 139.61ZM324.45 500.37C314.78 500.61 299.95 499.35 283.39 494.83C272.49 491.86 261.11 480.6 264.06 467.37C267.08 453.84 270.44 438.16 275.24 432.56C279.09 428.05 286.6 426.79 293.73 427.16C300.87 427.52 321.81 431.93 321.81 431.93C321.99 431.92 323.45 431.89 323.63 431.88C323.63 431.88 344.32 426.43 351.42 425.7C358.53 424.97 366.1 425.85 370.18 430.16C375.24 435.51 379.4 451 383.1 464.35C386.72 477.42 375.92 489.25 365.18 492.76C348.87 498.11 334.12 500.13 324.45 500.37ZM413.77 193.4C423.3 183.76 438.93 187.24 447.33 194.79C460.08 206.27 469.17 218.06 474.2 226.33C479.23 234.6 485.52 248.09 489.85 264.69C492.7 275.62 488.6 291.11 475.65 295.13C462.42 299.25 447.14 304.14 439.9 302.77C434.07 301.67 429.24 295.79 426 289.42C422.77 283.05 416.16 262.7 416.16 262.7C416.07 262.54 415.31 261.3 415.22 261.14C415.22 261.14 400.18 245.92 396.01 240.12C391.85 234.32 388.84 227.32 390.55 221.64C392.66 214.58 404.03 203.26 413.77 193.4ZM452.96 439.28C444.93 447.22 429.48 451.43 419.51 442.24C409.31 432.85 397.43 422.09 394.98 415.13C393.01 409.54 395.68 402.41 399.57 396.42C403.47 390.43 417.77 374.51 417.77 374.51C417.86 374.35 418.56 373.07 418.64 372.92C418.64 372.92 424.28 352.28 427.22 345.76C430.15 339.25 434.7 333.14 440.47 331.77C447.64 330.07 463.13 334.23 476.54 337.72C489.66 341.14 494.48 356.41 492.15 367.46C488.61 384.25 482.96 398.02 478.32 406.52C473.69 415.01 465.16 427.21 452.96 439.28Z" id="g2vY63Its"></path><path d="M392.34 463.79C388.64 450.43 384.48 434.94 379.42 429.59C376.41 426.42 371.5 425.11 366.29 424.93C367.55 425.58 368.69 426.38 369.63 427.36C374.69 432.72 378.85 448.21 382.55 461.56C386.17 474.63 375.37 486.46 364.63 489.98C348.32 495.32 333.58 497.34 323.9 497.59C316.68 497.76 306.59 497.1 295.05 494.88C310.62 498.87 324.5 500.04 333.7 499.81C343.37 499.56 358.12 497.54 374.43 492.2C385.16 488.68 395.96 476.85 392.34 463.79Z" id="cy8k5pOqZ"></path><path d="M356.69 142.51C367.58 145.52 378.92 156.82 375.92 170.04C372.85 183.56 369.43 199.23 364.62 204.81C360.75 209.3 353.23 210.54 346.1 210.15C338.97 209.75 318.04 205.27 318.04 205.27C317.86 205.28 316.41 205.31 316.22 205.31C316.22 205.31 295.51 210.69 288.41 211.4C286.57 211.58 284.7 211.64 282.87 211.58C287.06 213.73 292.76 214.16 298.2 213.62C305.31 212.92 326.02 207.54 326.02 207.54C326.2 207.53 327.65 207.5 327.84 207.5C327.84 207.5 348.76 211.98 355.89 212.37C363.02 212.76 370.54 211.53 374.41 207.03C379.22 201.45 382.64 185.78 385.71 172.26C388.71 159.05 377.37 147.74 366.48 144.73C362.11 143.52 357.87 142.55 353.79 141.76C354.76 142.01 355.71 142.23 356.69 142.51Z" id="a2IyX1tYsV"></path><path d="M483.45 225.76C478.42 217.49 469.32 205.71 456.57 194.23C452.03 190.14 445.38 187.27 438.73 187C441.76 188.26 444.53 189.98 446.78 192C459.54 203.49 468.62 215.27 473.66 223.54C478.68 231.81 484.97 245.3 489.3 261.9C492.15 272.83 488.05 288.32 475.11 292.34C464.42 295.66 452.41 299.49 444.37 300.12C445.87 301.14 447.46 301.89 449.14 302.21C456.39 303.57 471.66 298.68 484.9 294.56C497.84 290.54 501.94 275.06 499.09 264.13C494.76 247.52 488.48 234.03 483.45 225.76Z" id="c1o5Kjh0Xy"></path><path d="M487.57 405.95C492.2 397.46 497.85 383.68 501.4 366.89C503.73 355.84 498.91 340.57 485.79 337.15C479.21 335.44 472.14 333.57 465.79 332.31C469.21 333.16 472.67 334.07 475.99 334.93C489.11 338.35 493.93 353.62 491.6 364.67C488.06 381.46 482.42 395.23 477.78 403.73C473.14 412.22 464.62 424.42 452.42 436.49C447.65 441.2 440.28 444.57 432.99 444.64C442.7 449.67 455.24 445.6 462.21 438.72C474.41 426.64 482.93 414.45 487.57 405.95Z" id="e3QKFQphl2"></path><path d="M324.57 104.26C340.86 103.91 356.76 105.39 372.09 108.49C353.78 103.88 334.57 101.61 314.78 102.04C195.95 104.62 101.71 203.05 104.28 321.88C106.51 424.42 180.1 508.64 276.6 528.15C184.96 505.09 116.22 423.14 114.07 324.1C111.5 205.27 205.74 106.84 324.57 104.26Z" id="agwkgwJwV"></path><path d="M210.33 450.03C218.65 453.51 228.95 453.49 235.93 446.37C245.63 436.47 256.96 425.12 259.05 418.05C260.73 412.37 257.71 405.38 253.51 399.59C249.32 393.8 234.24 378.64 234.24 378.64C234.14 378.48 233.38 377.24 233.29 377.08C233.29 377.08 226.6 356.75 223.34 350.39C220.09 344.04 215.23 338.17 209.4 337.09C208.02 336.84 206.34 336.82 204.44 336.97C208.12 339.45 211.25 343.67 213.55 348.17C216.81 354.53 223.49 374.86 223.49 374.86C223.59 375.01 224.35 376.26 224.44 376.41C224.44 376.41 239.53 391.58 243.72 397.37C247.91 403.15 250.94 410.15 249.26 415.82C247.16 422.89 235.84 434.25 226.14 444.15C221.74 448.63 216.03 450.27 210.33 450.03Z" id="b8WTu7uxi"></path><path d="M221.93 294.06C224.83 287.53 230.4 266.87 230.4 266.87C230.49 266.71 231.18 265.44 231.26 265.28C231.26 265.28 245.52 249.31 249.38 243.3C253.25 237.3 255.9 230.15 253.91 224.57C251.44 217.63 239.51 206.9 229.28 197.55C225.23 193.84 220.3 192.37 215.32 192.41C216.78 193.17 218.18 194.13 219.49 195.32C229.72 204.67 241.65 215.4 244.12 222.35C246.11 227.93 243.46 235.07 239.59 241.08C235.72 247.09 221.47 263.05 221.47 263.05C221.39 263.21 220.69 264.49 220.61 264.65C220.61 264.65 215.04 285.31 212.13 291.83C209.23 298.36 204.69 304.48 198.93 305.88C195.13 306.8 188.96 306.06 182.02 304.66C192.69 307.29 203.19 309.43 208.73 308.1C214.49 306.71 219.02 300.59 221.93 294.06Z" id="k5yP97gqu"></path><path d="M67.58 325.47C70.61 464.88 186.07 575.44 325.47 572.41C464.87 569.39 575.43 453.92 572.41 314.52C569.38 175.12 453.92 64.56 314.52 67.58C175.12 70.6 64.56 186.07 67.58 325.47ZM104.83 324.67C102.25 205.84 196.5 107.41 315.33 104.83C434.16 102.25 532.58 196.5 535.16 315.33C537.74 434.16 443.49 532.59 324.66 535.16C205.83 537.74 107.41 443.5 104.83 324.67Z" id="f1vOD4qTac"></path><path d="M319.99 205.79C256.92 205.79 205.78 256.92 205.78 320C205.78 383.08 256.92 434.21 319.99 434.21C383.07 434.21 434.21 383.08 434.21 320C434.21 256.92 383.07 205.79 319.99 205.79Z" id="b3Ey0uAng8"></path><path d="M371.23 331.29L331.18 337.62L331.18 329.08C330.5 329.18 330.12 329.24 330.04 329.25C328.04 329.57 325.85 329.57 323.85 329.25C323.77 329.24 323.39 329.18 322.71 329.08L322.71 337.62L282.66 331.29L282.66 320.66L274.23 319.34C274.23 326.41 274.23 330.34 274.23 331.12C274.23 332.77 276.62 334.25 280.19 334.81C284.56 335.5 319.48 341.01 323.85 341.7C325.85 342.02 328.04 342.02 330.04 341.7C334.41 341.01 369.34 335.5 373.7 334.81C377.27 334.25 379.66 332.77 379.66 331.12C379.66 330.34 379.66 326.41 379.66 319.34L371.23 320.66L371.23 331.29Z" id="e2nOO68yA0"></path><path d="M344.64 350.08C344.64 348.06 340.87 346.43 336.2 346.43C334.36 346.43 319.58 346.43 317.73 346.43C313.06 346.43 309.29 348.06 309.29 350.08C309.29 352.03 309.29 361.79 309.29 379.34L317.73 379.34L317.73 357.62L344.64 357.62L344.64 353.96L317.73 353.96L317.73 350.08C333.87 350.08 342.84 350.08 344.64 350.08Z" id="a8JZpEph7m"></path><path d="M317.73 384.83C313.06 384.83 309.29 383.2 309.29 381.17C309.29 381.17 309.29 381.17 309.29 381.17L336.05 381.17L336.05 359.4L344.48 359.4C344.48 372.47 344.48 379.72 344.48 381.17C344.48 383.18 340.71 384.83 336.05 384.83C332.38 384.83 319.56 384.83 317.73 384.83Z" id="c4CkULyoP"></path><path d="M291.09 304.27C290 304.44 281.28 305.81 280.19 305.99C276.62 306.55 274.23 308.03 274.23 309.68C274.23 309.82 274.23 310.51 274.23 311.77L282.66 313.09L282.66 309.49C289.46 308.42 293.24 307.82 294 307.7C315.26 304.35 338.63 304.35 359.89 307.7C360.65 307.82 364.43 308.42 371.23 309.49L371.23 313.09L379.66 311.77C379.66 310.51 379.66 309.82 379.66 309.68C379.66 308.03 377.27 306.55 373.7 305.99C372.97 305.87 369.34 305.3 362.8 304.27C330.42 301.83 306.52 301.83 291.09 304.27Z" id="d1hsiC6UFG"></path><path d="M293.49 325.1L311.96 328.03L311.96 330.87L293.49 327.94L293.49 325.1M287.45 329.78L318 334.61L318 326.19L287.45 321.36L287.45 321.36L287.45 329.78Z" id="clmA8Rvx9"></path><path d="M360.17 325.1L360.17 327.96L341.69 330.87L341.69 328.01L360.17 325.1M335.65 326.19L335.65 334.61L366.21 329.78L366.21 321.36L366.21 321.36L335.65 326.19Z" id="h6wsdSxbbO"></path><path d="M268.19 312.55C268.5 312.09 268.66 311.61 268.66 311.12C268.66 311.1 268.66 310.89 268.66 310.87C268.66 308.13 263.52 305.9 257.2 305.9C255.83 305.9 244.81 305.9 243.44 305.9C237.12 305.92 231.98 308.15 231.98 310.88C231.98 310.91 231.98 311.11 231.98 311.14C231.98 313.88 237.12 316.1 243.44 316.1C244.81 316.1 255.83 316.1 257.2 316.1C259.09 316.1 260.89 315.9 262.46 315.54C264.4 315.85 274.12 317.39 291.6 320.15L291.6 316.26C277.55 314.03 269.75 312.8 268.19 312.55ZM257.2 312.45C255.83 312.45 244.81 312.45 243.44 312.45C241.79 312.45 240.42 311.87 240.42 311.14C240.42 311.11 240.42 310.91 240.42 310.88C240.42 310.17 241.75 309.57 243.44 309.57C244.81 309.57 255.83 309.57 257.2 309.57C258.85 309.57 260.22 310.15 260.22 310.88C260.22 310.9 260.22 310.99 260.22 311.14C259.34 312.01 258.33 312.45 257.2 312.45Z" id="aDDhFgQb4"></path><path d="M396.45 306.07C390.14 306.07 385 308.3 385 311.04C385 311.06 385 311.27 385 311.29C385 311.78 385.16 312.26 385.47 312.72C383.91 312.97 376.1 314.2 362.05 316.43L362.05 320.32C379.56 317.56 389.29 316.02 391.23 315.71C392.8 316.07 394.61 316.27 396.49 316.27C397.87 316.27 408.88 316.27 410.26 316.27C416.57 316.27 421.71 314.05 421.71 311.31C421.71 311.28 421.71 311.08 421.71 311.05C421.67 308.32 416.53 306.07 410.22 306.07C407.47 306.07 397.83 306.07 396.45 306.07ZM410.22 312.6C408.84 312.6 397.83 312.6 396.45 312.6C394.8 312.6 393.43 312.02 393.43 311.29C393.43 311.27 393.43 311.06 393.43 311.04C393.43 310.32 394.77 309.73 396.45 309.73C397.83 309.73 408.84 309.73 410.22 309.73C411.87 309.73 413.24 310.31 413.24 311.04C413.24 311.05 413.24 311.14 413.24 311.29C412.35 312.16 411.34 312.6 410.22 312.6Z" id="cxSgo7MQU"></path><path d="M305.73 368.18L305.73 340.39L299.68 339.44C299.68 355.11 299.68 363.82 299.68 365.56C299.68 367.01 302.39 368.18 305.73 368.18C305.73 368.18 305.73 368.18 305.73 368.18Z" id="fc8EOV8mK"></path><path d="M347.93 368.18C351.27 368.18 353.97 367.01 353.97 365.56C353.97 363.82 353.97 355.13 353.97 339.47L347.93 340.42L347.93 368.18C347.93 368.18 347.93 368.18 347.93 368.18Z" id="e1bDhNcpLz"></path></defs><g><g><g><use xlink:href="#a5ZKZkWvC7" opacity="1" fill="#231f20" fill-opacity="1"></use><g><use xlink:href="#a5ZKZkWvC7" opacity="1" fill-opacity="0" stroke="#000000" stroke-width="1" stroke-opacity="0"></use></g></g><g><use xlink:href="#f25zNZlX" opacity="1" fill="#404412" fill-opacity="1"></use><g><use xlink:href="#f25zNZlX" opacity="1" fill-opacity="0" stroke="#000000" stroke-width="1" stroke-opacity="0"></use></g></g><g><use xlink:href="#g2vY63Its" opacity="1" fill="#374e18" fill-opacity="1"></use><g><use xlink:href="#g2vY63Its" opacity="1" fill-opacity="0" stroke="#000000" stroke-width="1" stroke-opacity="0"></use></g></g><g><use xlink:href="#cy8k5pOqZ" opacity="1" fill="#2f205a" fill-opacity="1"></use><g><use xlink:href="#cy8k5pOqZ" opacity="1" fill-opacity="0" stroke="#000000" stroke-width="1" stroke-opacity="0"></use></g></g><g><use xlink:href="#a2IyX1tYsV" opacity="1" fill="#2f1b4d" fill-opacity="1"></use><g><use xlink:href="#a2IyX1tYsV" opacity="1" fill-opacity="0" stroke="#000000" stroke-width="1" stroke-opacity="0"></use></g></g><g><use xlink:href="#c1o5Kjh0Xy" opacity="1" fill="#2f1f5c" fill-opacity="1"></use><g><use xlink:href="#c1o5Kjh0Xy" opacity="1" fill-opacity="0" stroke="#000000" stroke-width="1" stroke-opacity="0"></use></g></g><g><use xlink:href="#e3QKFQphl2" opacity="1" fill="#3c2c68" fill-opacity="1"></use><g><use xlink:href="#e3QKFQphl2" opacity="1" fill-opacity="0" stroke="#000000" stroke-width="1" stroke-opacity="0"></use></g></g><g><use xlink:href="#agwkgwJwV" opacity="1" fill="#625234" fill-opacity="1"></use><g><use xlink:href="#agwkgwJwV" opacity="1" fill-opacity="0" stroke="#000000" stroke-width="1" stroke-opacity="0"></use></g></g><g><use xlink:href="#b8WTu7uxi" opacity="1" fill="#2a123b" fill-opacity="1"></use><g><use xlink:href="#b8WTu7uxi" opacity="1" fill-opacity="0" stroke="#000000" stroke-width="1" stroke-opacity="0"></use></g></g><g><use xlink:href="#k5yP97gqu" opacity="1" fill="#1a1038" fill-opacity="1"></use><g><use xlink:href="#k5yP97gqu" opacity="1" fill-opacity="0" stroke="#000000" stroke-width="1" stroke-opacity="0"></use></g></g><g><use xlink:href="#f1vOD4qTac" opacity="1" fill="#2f2b10" fill-opacity="1"></use><g><use xlink:href="#f1vOD4qTac" opacity="1" fill-opacity="0" stroke="#000000" stroke-width="1" stroke-opacity="0"></use></g></g><g><use xlink:href="#b3Ey0uAng8" opacity="1" fill="#232401" fill-opacity="1"></use><g><use xlink:href="#b3Ey0uAng8" opacity="1" fill-opacity="0" stroke="#000000" stroke-width="1" stroke-opacity="0"></use></g></g><g><use xlink:href="#e2nOO68yA0" opacity="1" fill="#ee2c28" fill-opacity="1"></use><g><use xlink:href="#e2nOO68yA0" opacity="1" fill-opacity="0" stroke="#000000" stroke-width="1" stroke-opacity="0"></use></g></g><g><use xlink:href="#a8JZpEph7m" opacity="1" fill="#ee2c28" fill-opacity="1"></use><g><use xlink:href="#a8JZpEph7m" opacity="1" fill-opacity="0" stroke="#000000" stroke-width="1" stroke-opacity="0"></use></g></g><g><use xlink:href="#c4CkULyoP" opacity="1" fill="#414042" fill-opacity="1"></use><g><use xlink:href="#c4CkULyoP" opacity="1" fill-opacity="0" stroke="#000000" stroke-width="1" stroke-opacity="0"></use></g></g><g><use xlink:href="#d1hsiC6UFG" opacity="1" fill="#414042" fill-opacity="1"></use><g><use xlink:href="#d1hsiC6UFG" opacity="1" fill-opacity="0" stroke="#000000" stroke-width="1" stroke-opacity="0"></use></g></g><g><use xlink:href="#clmA8Rvx9" opacity="1" fill="#414042" fill-opacity="1"></use><g><use xlink:href="#clmA8Rvx9" opacity="1" fill-opacity="0" stroke="#000000" stroke-width="1" stroke-opacity="0"></use></g></g><g><use xlink:href="#h6wsdSxbbO" opacity="1" fill="#414042" fill-opacity="1"></use><g><use xlink:href="#h6wsdSxbbO" opacity="1" fill-opacity="0" stroke="#000000" stroke-width="1" stroke-opacity="0"></use></g></g><g><use xlink:href="#aDDhFgQb4" opacity="1" fill="#414042" fill-opacity="1"></use><g><use xlink:href="#aDDhFgQb4" opacity="1" fill-opacity="0" stroke="#000000" stroke-width="1" stroke-opacity="0"></use></g></g><g><use xlink:href="#cxSgo7MQU" opacity="1" fill="#414042" fill-opacity="1"></use><g><use xlink:href="#cxSgo7MQU" opacity="1" fill-opacity="0" stroke="#000000" stroke-width="1" stroke-opacity="0"></use></g></g><g><use xlink:href="#fc8EOV8mK" opacity="1" fill="#414042" fill-opacity="1"></use><g><use xlink:href="#fc8EOV8mK" opacity="1" fill-opacity="0" stroke="#000000" stroke-width="1" stroke-opacity="0"></use></g></g><g><use xlink:href="#e1bDhNcpLz" opacity="1" fill="#414042" fill-opacity="1"></use><g><use xlink:href="#e1bDhNcpLz" opacity="1" fill-opacity="0" stroke="#000000" stroke-width="1" stroke-opacity="0"></use></g></g></g></g></svg>